<?xml version="1.0" encoding="utf-8"?>
<!-- Generator: Adobe Illustrator 27.5.0, SVG Export Plug-In . SVG Version: 6.00 Build 0)  -->
<svg version="1.1" id="Layer_1" xmlns="http://www.w3.org/2000/svg" xmlns:xlink="http://www.w3.org/1999/xlink" x="0px" y="0px"
	 viewBox="0 0 56.7 56.7" style="enable-background:new 0 0 56.7 56.7;" xml:space="preserve">
<style type="text/css">
	.st0{fill:#5E5F64;}
	.st1{fill:#E8B539;}
	.st2{fill:#FFD674;}
	.st3{fill:#FFCC4C;}
	.st4{fill:none;}
	.st5{fill:#E69348;}
	.st6{fill:#FFE9C7;}
	.st7{fill:#EDD4AD;}
	.st8{fill:#C05C48;}
	.st9{fill:#A04D3C;}
	.st10{fill:#90C79F;}
	.st11{fill:#6EAF82;}
	.st12{fill:#B87130;}
	.st13{fill:#A8DAD2;}
	.st14{fill:#61B3A6;}
</style>
<g>
	<g>
		<g>
			<path class="st0" d="M-44.5,48.1c0-0.9,0-1.8,0-2.7c0-0.9,0-1.8,0-2.7c0-0.9,0-1.8,0-2.7s0-1.8,0-2.7c0-0.5,0-0.9,0-1.4
				s0-0.9,0-1.4c0-0.1,0-0.2,0-0.3c0-0.1-0.1-0.2-0.2-0.2s-0.2,0.1-0.2,0.2c0,0.2,0,0.5,0,0.7s0,0.5,0,0.7c0,0.5,0,0.9,0,1.4
				c0,0.9,0,1.8,0,2.7c0,0.9,0,1.8,0,2.7c0,0.9,0,1.8,0,2.7c0,0.9,0,1.8,0,2.7c0,0.1,0,0.2,0,0.3C-44.9,48.3-44.5,48.3-44.5,48.1
				L-44.5,48.1z"/>
		</g>
		<g>
			<path class="st1" d="M-44.7,48.9c0.4,0,0.8-0.4,0.8-0.8c0-0.2-0.1-0.4-0.2-0.6c-0.2-0.1-0.3-0.2-0.6-0.2c-0.4,0-0.8,0.4-0.8,0.8
				c0,0.2,0.1,0.4,0.2,0.6C-45.1,48.8-44.9,48.9-44.7,48.9z"/>
		</g>
		<g>
			<path class="st2" d="M-44.7,47c0.3,0,0.5-0.3,0.5-0.5c0-0.1,0-0.3-0.2-0.4c-0.1-0.1-0.2-0.2-0.4-0.2c-0.3,0-0.5,0.2-0.5,0.5
				c0,0.1,0,0.3,0.2,0.4C-45,47-44.8,47-44.7,47z"/>
		</g>
		<g>
			<path class="st1" d="M-44.7,45.4c0.3,0,0.5-0.3,0.5-0.5c0-0.1,0-0.3-0.2-0.4c-0.1-0.1-0.2-0.2-0.4-0.2c-0.3,0-0.5,0.2-0.5,0.5
				c0,0.1,0,0.3,0.2,0.4C-45,45.3-44.8,45.4-44.7,45.4z"/>
		</g>
		<g>
			<path class="st2" d="M-44.7,43.7c0.3,0,0.5-0.3,0.5-0.5c0-0.1,0-0.3-0.2-0.4c-0.1-0.1-0.2-0.2-0.4-0.2c-0.3,0-0.5,0.2-0.5,0.5
				c0,0.1,0,0.3,0.2,0.4C-45,43.6-44.8,43.7-44.7,43.7z"/>
		</g>
		<g>
			<path class="st1" d="M-44.7,41.8c0.3,0,0.5-0.3,0.5-0.5c0-0.1,0-0.3-0.2-0.4c-0.1-0.1-0.2-0.2-0.4-0.2c-0.3,0-0.5,0.2-0.5,0.5
				c0,0.1,0,0.3,0.2,0.4C-45,41.7-44.8,41.8-44.7,41.8z"/>
		</g>
		<g>
			<path class="st3" d="M-46.3,37.3l1.1-0.1l0.3-1.1c0-0.1,0.1-0.1,0.2,0l0.4,1.1l1.1-0.1c0.1,0,0.1,0.1,0.1,0.2L-44,38l0.4,1.1
				c0,0.1,0,0.1-0.1,0.1l-1-0.6l-0.9,0.7c-0.1,0-0.2,0-0.1-0.1l0.3-1.1l-1-0.6C-46.4,37.5-46.4,37.3-46.3,37.3z"/>
		</g>
	</g>
	<g>
		<path class="st0" d="M-38.4,43.3c0-0.8,0-1.6,0-2.4c0-0.8,0-1.6,0-2.4c0-0.5,0-0.9,0-1.3c0-0.1-0.1-0.2-0.2-0.2
			c-0.1,0-0.2,0.1-0.2,0.2c0,0.8,0,1.6,0,2.4c0,0.8,0,1.6,0,2.4c0,0.5,0,0.9,0,1.3c0,0.1,0.1,0.2,0.2,0.2
			C-38.4,43.5-38.4,43.4-38.4,43.3L-38.4,43.3z"/>
	</g>
	<g>
		<path class="st0" d="M-30.4,49.9c0-0.3,0-0.5,0-0.8c0-0.2,0-0.5,0-0.7c0-0.5,0-1,0-1.5c0-1,0-2,0-3c0-2,0-4,0-6c0-0.6,0-1.1,0-1.7
			c0-0.6,0-1.1,0-1.7c0-0.1-0.1-0.2-0.2-0.2s-0.2,0.1-0.2,0.2c0,0.1,0,0.2,0,0.4c0,0.1,0,0.3,0,0.4c0,0.2,0,0.5,0,0.7
			c0,0.5,0,1,0,1.5c0,1,0,2,0,3c0,2,0,4,0,6c0,0.6,0,1.1,0,1.7c0,0.3,0,0.5,0,0.8c0,0.3,0,0.6,0,0.9C-30.8,50.1-30.4,50.1-30.4,49.9
			L-30.4,49.9z"/>
	</g>
	<g>
		<path class="st0" d="M-24.5,41c0-1.2,0-2.5,0-3.7c0-1.2,0-2.5,0-3.7c0-0.3,0-0.7,0-1c0-0.2,0-0.3,0-0.5c0-0.2,0-0.4,0-0.5
			c0-0.1-0.1-0.2-0.2-0.2c-0.1,0-0.2,0.1-0.2,0.2c0,0.2,0,0.3,0,0.5c0,0.2,0,0.3,0,0.5c0,0.3,0,0.6,0,0.9c0,0.6,0,1.2,0,1.9
			c0,1.2,0,2.5,0,3.7c0,0.7,0,1.4,0,2.1c0,0.1,0.1,0.2,0.2,0.2C-24.6,41.1-24.5,41.1-24.5,41L-24.5,41z"/>
	</g>
	<path class="st3" d="M-23.7,18.8c-4.1-6.3-13.3-8-19.6-3.7c-1.4,1-2.7,2.2-3.6,3.7c-2.2,3.6-2.8,8.4-0.9,12.2
		c2,3.8,6.4,6.1,10.5,6.6c4.5,0.6,9.2-0.9,12.4-4.1c3.5-3.5,4-8.8,2-13.2C-23.1,19.8-23.4,19.3-23.7,18.8z"/>
	<path class="st4" d="M-44.5,28.5c0.5,1.3,2.6,0.8,2.5-0.6C-42.2,26.1-45.1,27-44.5,28.5z"/>
	<g>
		<g>
			<path class="st0" d="M-37.8,21.6c0-0.5-0.1-1.1-0.2-1.6c0,0,0-0.1-0.1-0.2c-0.1-0.1-0.2-0.2-0.3-0.2c-0.1,0-0.2,0.1-0.2,0.2
				c0,0.1,0,0.3,0,0.4c0,0.1,0,0.2,0.1,0.4c0.1,0.6,0.1,1.2,0,1.8c-0.1,0.6-0.3,1.5-1.1,1.6c-0.1,0-0.2,0-0.3,0
				c-0.8-0.1-1.5-0.8-1.9-1.5c-0.1-0.2-0.3-0.4-0.4-0.6c-0.1-0.2-0.2-0.5-0.3-0.7c0-0.1-0.2-0.2-0.3-0.2s-0.2,0.2-0.2,0.3
				c0.2,1,0.7,1.9,1.4,2.5c0.4,0.4,0.8,0.6,1.3,0.8c0.4,0.1,0.8,0.1,1.2,0c0.3-0.1,0.5-0.3,0.7-0.5s0.3-0.5,0.4-0.8
				C-37.8,22.8-37.7,22.2-37.8,21.6z"/>
			<g>
				<path class="st0" d="M-40,25.4C-40,25.4-40,25.4-40,25.4c0.1-0.2,0.1-0.4,0.1-0.6c0-0.2,0-0.5-0.3-0.5c-0.2,0-0.3,0.2-0.3,0.4
					c0,0.2-0.2,1,0.2,1C-40.1,25.7-40.1,25.5-40,25.4z"/>
			</g>
			<g>
				<path class="st0" d="M-38.5,25.2c0-0.2-0.2-0.6-0.2-0.7c0,0,0,0,0,0c0,0-0.1-0.1-0.1-0.1c-0.1-0.1-0.2,0-0.3,0
					c0,0-0.1,0.1-0.1,0.1c0,0,0,0.1,0,0.1c0,0.1,0,0.2,0.1,0.3c0.1,0.2,0.1,0.3,0.3,0.5C-38.8,25.5-38.5,25.5-38.5,25.2
					C-38.5,25.2-38.5,25.2-38.5,25.2z"/>
			</g>
			<g>
				<path class="st0" d="M-37.5,24.2c-0.1-0.1-0.3-0.2-0.4-0.4c-0.1-0.1-0.3-0.2-0.5-0.2c-0.1,0-0.1,0.1-0.2,0.1c0,0.1,0,0.1,0,0.2
					c0,0,0,0.1,0.1,0.1c0.2,0.2,0.5,0.3,0.8,0.4c0,0,0,0,0,0c0.1,0,0.2,0.1,0.3,0C-37.4,24.4-37.4,24.2-37.5,24.2L-37.5,24.2z"/>
			</g>
		</g>
		<g>
			<path class="st0" d="M-32.9,21.6c0-0.5,0.1-1.1,0.2-1.6c0,0,0-0.1,0.1-0.2c0.1-0.1,0.2-0.2,0.3-0.2c0.1,0,0.2,0.1,0.2,0.2
				c0,0.1,0,0.3,0,0.4c0,0.1,0,0.2-0.1,0.4c-0.1,0.6-0.1,1.2,0,1.8c0.1,0.6,0.3,1.5,1.1,1.6c0.1,0,0.2,0,0.3,0
				c0.8-0.1,1.5-0.8,1.9-1.5c0.1-0.2,0.3-0.4,0.4-0.6c0.1-0.2,0.2-0.5,0.3-0.7c0-0.1,0.2-0.2,0.3-0.2s0.2,0.2,0.2,0.3
				c-0.2,1-0.7,1.9-1.4,2.5c-0.3,0.4-0.8,0.6-1.3,0.8c-0.4,0.1-0.8,0.1-1.2,0c-0.3-0.1-0.5-0.3-0.7-0.5s-0.3-0.5-0.4-0.8
				C-32.9,22.8-32.9,22.2-32.9,21.6z"/>
			<g>
				<path class="st0" d="M-30.6,25.4C-30.6,25.4-30.7,25.4-30.6,25.4c-0.1-0.2-0.1-0.4-0.1-0.6c0-0.2,0-0.5,0.3-0.5
					c0.2,0,0.3,0.2,0.3,0.4c0,0.2,0.2,1-0.2,1C-30.5,25.7-30.6,25.5-30.6,25.4z"/>
			</g>
			<g>
				<path class="st0" d="M-32.2,25.2c0-0.2,0.2-0.6,0.2-0.7c0,0,0,0,0,0c0,0,0.1-0.1,0.1-0.1c0.1-0.1,0.2,0,0.3,0
					c0,0,0.1,0.1,0.1,0.1c0,0,0,0.1,0,0.1c0,0.1,0,0.2-0.1,0.3c-0.1,0.2-0.1,0.3-0.3,0.5C-31.9,25.5-32.2,25.5-32.2,25.2
					C-32.2,25.2-32.2,25.2-32.2,25.2z"/>
			</g>
			<g>
				<path class="st0" d="M-33.2,24.2c0.1-0.1,0.3-0.2,0.4-0.4c0.1-0.1,0.3-0.2,0.5-0.2c0.1,0,0.1,0.1,0.2,0.1c0,0.1,0,0.1,0,0.2
					c0,0,0,0.1-0.1,0.1c-0.2,0.2-0.5,0.3-0.8,0.4c0,0,0,0,0,0c-0.1,0-0.2,0.1-0.3,0C-33.3,24.4-33.3,24.2-33.2,24.2L-33.2,24.2z"/>
			</g>
		</g>
		<path class="st0" d="M-34.1,25.6c0-0.1,0-0.1-0.1-0.2c0,0-0.1,0-0.1-0.1c-0.1,0-0.2,0-0.2,0.1c-0.1,0.1-0.1,0.2-0.1,0.4
			c0,0.2,0,0.7-0.2,0.8c-0.2,0.1-0.4,0-0.6-0.1c-0.2-0.1-0.3-0.3-0.4-0.5c-0.1-0.1-0.1-0.2-0.2-0.3c0-0.1-0.2-0.1-0.3-0.1
			c-0.1,0-0.2,0.2-0.1,0.3c0.1,0.2,0.2,0.5,0.3,0.7c0.2,0.3,0.5,0.6,0.9,0.6c0.5,0.1,0.9-0.3,1-0.7c0.1-0.2,0.1-0.4,0.1-0.6
			C-34.1,25.9-34.1,25.7-34.1,25.6z"/>
	</g>
	<path class="st5" d="M-44.5,28.5c0.7,1.8,3.7,0.5,2.3-1.3C-42.9,26.2-44.9,27.1-44.5,28.5C-44.5,28.5-44.5,28.5-44.5,28.5z"/>
	<path class="st5" d="M-28.6,27.2c0.7,1.8,3.7,0.5,2.3-1.3C-27.1,24.9-29.1,25.9-28.6,27.2C-28.6,27.2-28.6,27.2-28.6,27.2z"/>
	<g>
		<path class="st6" d="M-15.5,7.8c-0.6-0.3-2.2-0.4-2.2-0.4c0-0.2-0.1-1.3-0.1-1.6c0-0.1-0.1-0.2-0.2-0.2c-0.1,0-0.2,0-0.3,0.1
			c-0.3,0.6-0.6,1.1-0.8,1.7c-0.1,0-1.6-0.2-2-0.3c-0.1,0-0.2,0-0.3,0.1c0,0.1,0,0.2,0,0.3c0.5,0.5,1,1,1.5,1.5c0,0-0.7,0.9-0.7,1.3
			c0,0.1,0.2,0.2,0.3,0.2c0.5-0.1,0.9-0.3,1.3-0.5c0.1,0.1,0.7,0.7,1,1c0.1,0.1,0.2,0.1,0.3,0.1c0.1,0,0.2-0.1,0.2-0.3
			c0-0.4-0.1-0.9-0.1-1.3c0.3-0.2,1.7-0.9,2-1.1C-15.3,8.2-15.3,7.9-15.5,7.8z"/>
		<path class="st7" d="M-18.6,12.6c-0.1-0.1-0.2-0.1-0.3-0.1c-0.1,0-0.2,0-0.3,0.1c0-0.2,0-0.5-0.1-0.7c0-0.1-0.1-0.2-0.2-0.2
			c-0.1,0-0.2,0.1-0.2,0.2c-0.1,0.3-0.2,0.6-0.3,0.9c-0.4,0-0.8,0.1-1.2,0.1c-0.1,0-0.2,0.1-0.2,0.2c0,0.1,0,0.2,0.1,0.3
			c0.3,0.2,0.5,0.2,0.8,0.4c0,0-0.2,0.6-0.1,0.7c0.1,0.1,0.3,0.1,0.4,0c0,0,0.3-0.3,0.4-0.4c0.2,0.1,0.3,0.2,0.5,0.2
			c0.1,0,0.2,0,0.3,0S-19,14-19,13.9c0-0.2-0.1-0.4-0.1-0.5c0,0,0-0.1,0-0.1c0.2-0.1,0.3-0.2,0.5-0.4
			C-18.6,12.9-18.6,12.7-18.6,12.6z"/>
		<path class="st7" d="M-23.4,5.9c0-0.1-0.1-0.2-0.2-0.2c0-0.1-0.1-0.1-0.2-0.2l-0.1-0.1c0,0,0.1-0.1,0.1-0.1
			c0.1-0.1,0.2-0.2,0.3-0.3c0.1-0.1,0.1-0.2,0-0.3c-0.1-0.1-0.2-0.1-0.3-0.1c-0.2,0.1-0.4,0.2-0.6,0.3c-0.1-0.1-0.3-0.3-0.4-0.4
			c-0.1-0.1-0.2-0.1-0.3,0s-0.1,0.2-0.1,0.3s0,0.2,0.1,0.3c0,0,0,0.2,0,0.2c-0.2,0.1-0.4,0.2-0.7,0.3c-0.1,0-0.2,0.2-0.1,0.3
			c0,0.1,0.1,0.2,0.2,0.2c0.2,0,0.4,0,0.6,0c0,0,0.1,0.4,0.1,0.5c0.1,0.3,0.5,0.2,0.5,0.1c0.1-0.2,0.2-0.4,0.3-0.6c0,0,0,0,0,0
			c0.2,0,0.3,0.1,0.5,0.1c0.1,0,0.2,0,0.2-0.1C-23.4,6.1-23.4,6-23.4,5.9z"/>
	</g>
	<path class="st0" d="M-18.9,26.7c-1,0.6-2,1.1-3,1.6c-0.2,0.1-0.4,0.2-0.6,0.3c-3,1.3-6,2.3-9.2,3.1c-3.5,0.9-7.1,1.4-10.7,1.7
		c-1.2,0.1-2.4,0.2-3.6,0.2c-0.6,0-1.1,0-1.7-0.1c-2.3-0.2-4.8-0.5-6.6-2.1c-1.3-1.2-1.6-3-1-4.6c1-2.6,3.7-4.4,6.2-5.5
		c0.3-0.1,0.8-0.4,1.3-0.6c-0.5,1.1-0.8,2.2-1,3.4c-0.7,0.4-1.3,0.9-1.9,1.4c-0.7,0.6-1.5,1.5-1.7,2.5c-0.1,0.5,0.2,1,0.6,1.3
		c1,0.7,2.4,0.7,3.5,0.8c0,0,0,0,0,0c1,0.1,2.1,0.1,3.1,0.1c2.1,0,4.2-0.3,6.2-0.5c1.2-0.2,2.4-0.4,3.6-0.6
		c3.6-0.7,7.2-1.8,10.6-3.2c1-0.4,2-0.9,2.9-1.4c0.9-0.5,1.8-1,2.6-1.6c0.5-0.4,1.1-0.9,1.5-1.5c0.3-0.4,0.3-0.9-0.1-1.2
		c-1.1-0.8-2.8-0.8-4.1-0.9c-0.5,0-1.1,0-1.6,0c-0.1-0.1-0.1-0.2-0.2-0.3c-0.7-1-1.4-1.9-2.3-2.7c2.2-0.2,6.2-0.5,9.2,0.6
		c0.2,0.1,0.4,0.2,0.6,0.3c1.2,0.7,2,1.8,2.2,3.2v0C-13.8,23.1-16.7,25.3-18.9,26.7z"/>
	<g>
		<g>
			<path class="st8" d="M-32.8,10.1c-0.7,0.5-1.1,1.4-1.1,2.3c0,0.8,0.3,1.6,0.9,2.2c0.6,0.6,1.5,0.8,2.2,0.6
				c0.4,0.9,1.4,1.5,2.4,1.3c0.6-0.1,1.3-0.5,1.3-1.2c0.5,0.2,1,0,1.3-0.3c0.6-0.4,1-1.1,1-1.9c0-0.7-0.6-1.5-1.3-1.4
				c0.2-0.4,0.2-0.9,0-1.3c-0.2-0.4-0.6-0.7-1-1c-0.6-0.3-1.3-0.5-2-0.3c-0.4,0.1-0.8,0.4-1.1,0.7c-0.1,0.1-0.1,0.3-0.2,0.3
				c-0.1,0.1-0.2,0-0.3-0.1C-31.3,9.6-32.1,9.6-32.8,10.1z"/>
			<path class="st9" d="M-27.9,12.7c-0.1-0.1-0.2-0.2-0.4-0.3c-0.1,0-0.2-0.1-0.2-0.1c-0.1,0-0.2,0-0.3,0c-0.1,0-0.2,0.1-0.2,0.2
				c0,0.1,0.1,0.2,0.2,0.2c0.2,0,0.4,0.2,0.5,0.3c0.1,0.2,0,0.5-0.2,0.6c-0.2,0.1-0.5,0-0.6-0.2c-0.1-0.1-0.2-0.1-0.3-0.1
				c-0.1,0.1-0.1,0.1-0.2,0.1s-0.2,0-0.2,0c-0.2,0-0.3-0.2-0.4-0.4c0-0.2,0-0.5,0.1-0.7c0-0.1,0.1-0.2,0.2-0.3
				c0.1-0.1,0-0.2-0.1-0.3c-0.1-0.1-0.2,0-0.3,0.1c-0.3,0.4-0.5,1-0.3,1.5c0.1,0.4,0.5,0.6,0.9,0.6c0.1,0,0.3,0,0.4-0.1
				c0.3,0.3,0.8,0.4,1.2,0.1c0.2-0.1,0.3-0.4,0.4-0.6C-27.6,13.2-27.7,12.9-27.9,12.7z"/>
			<path class="st9" d="M-27.9,11.4c-0.2-0.2-0.5-0.3-0.8-0.2c-0.2,0.1-0.5,0.2-0.5,0.5c0,0.1,0.1,0.2,0.2,0.2
				c0.2,0,0.2-0.3,0.4-0.3c0.1,0,0.2,0,0.2,0c0.2,0.1,0.4,0.2,0.5,0C-27.8,11.6-27.8,11.4-27.9,11.4z"/>
		</g>
		<path class="st10" d="M-30.4,6.1c-1,0.3-2,0.8-2.7,1.7c-0.4,0.4-0.7,1-0.8,1.5c-0.1,0.3-0.1,0.6-0.1,0.9s0,0.6,0.1,0.9
			c0.1,0.2,0.2,0.3,0.3,0.5c0.1,0.1,0.3,0.2,0.5,0.1c1-0.3,1.5-1.3,1.9-2.1c0.3-0.6,0.6-1.3,0.8-2c0.2-0.4,0.3-0.8,0.4-1.1
			C-30,6.2-30.2,6-30.4,6.1z"/>
		<path class="st11" d="M-42.2,12c-0.4-0.6-1-1.1-1.6-1.4c-0.7-0.4-1.4-0.5-2.2-0.4c-0.5,0-0.9,0.1-1.4,0.1c-0.1,0-0.2,0.1-0.2,0.1
			c0,0.1-0.1,0.2,0,0.3c0.4,0.6,0.9,1.1,1.6,1.5c0.7,0.4,1.5,0.6,2.3,0.5c0.3,0,0.5-0.1,0.8-0.1c0.2-0.1,0.5-0.1,0.7-0.2
			C-42.2,12.3-42.1,12.1-42.2,12z"/>
		<path class="st10" d="M-41.8,10c-0.2-0.4-0.5-0.8-0.9-1.2C-43,8.4-43.4,8-43.8,7.6c-0.1-0.1-0.2-0.1-0.3-0.1
			c-0.1,0-0.2,0.1-0.2,0.2c0,0.5,0,0.9,0.1,1.4c0,0.4,0.1,0.9,0.2,1.3c0.1,0.4,0.2,0.9,0.6,1.2c0.4,0.4,1,0.6,1.5,0.5
			c0.3-0.1,0.4-0.4,0.4-0.6C-41.4,11-41.6,10.5-41.8,10z"/>
		<path class="st11" d="M-32.9,7.7c0-0.5-0.2-0.9-0.3-1.4c-0.2-0.5-0.3-1.1-0.5-1.6c0-0.1-0.1-0.2-0.2-0.2c-0.1,0-0.2,0.1-0.2,0.2
			c-0.2,0.4-0.3,0.8-0.5,1.3c-0.1,0.4-0.3,0.8-0.3,1.3c-0.1,0.4-0.1,0.9,0,1.3c0.2,0.5,0.7,0.9,1.2,1c0.3,0.1,0.5-0.2,0.6-0.4
			C-32.9,8.7-32.9,8.2-32.9,7.7z"/>
		<g>
			<path class="st5" d="M-41.1,9.2c-0.4,0.2-0.8,0.7-0.9,1.1c-0.2,0.7-0.2,1.5,0.2,2.1c0.3,0.6,1,1.1,1.7,1.2
				c-0.4,0.5-0.5,1.2-0.1,1.8c0.3,0.5,1,0.9,1.6,0.9c0.6,0,1.3-0.2,1.8-0.6c0.7,0.8,2,1,3,0.4c1-0.6,1.5-1.6,1.6-2.7
				c0-0.4,0-0.9-0.1-1.3c-0.2-0.4-0.5-0.8-0.9-0.9c0.7-0.6,0.8-1.6,0.5-2.5c-0.2-0.5-0.5-0.9-0.9-1.1c-0.3-0.2-0.6-0.2-0.9-0.2
				c-0.7-0.1-1.3,0.1-1.9,0.4c-0.5-0.6-1.4-0.8-2.1-0.5c-0.4,0.2-0.8,0.6-0.9,1c-0.1,0.2-0.1,0.4-0.1,0.7c0,0.1,0,0.2-0.1,0.2
				C-39.9,9.1-40,9-40.2,9C-40.5,9-40.8,9.1-41.1,9.2z"/>
			<g>
				<g>
					<path class="st12" d="M-38.3,12.6C-38.3,12.6-38.3,12.6-38.3,12.6C-38.3,12.6-38.3,12.6-38.3,12.6
						C-38.3,12.6-38.3,12.6-38.3,12.6z"/>
					<path class="st12" d="M-37.5,10.8C-37.5,10.8-37.5,10.8-37.5,10.8C-37.5,10.8-37.5,10.8-37.5,10.8L-37.5,10.8z"/>
					<path class="st12" d="M-37,10.4C-37,10.4-37,10.4-37,10.4C-37,10.4-37,10.3-37,10.4C-37,10.4-37,10.4-37,10.4z"/>
					<path class="st12" d="M-37,10.3L-37,10.3L-37,10.3z"/>
					<path class="st12" d="M-36.8,10.1C-36.8,10.1-36.8,10.1-36.8,10.1C-36.8,10.1-36.8,10.1-36.8,10.1L-36.8,10.1z"/>
					<path class="st12" d="M-38.1,10.7L-38.1,10.7C-38.1,10.7-38.1,10.7-38.1,10.7C-38.1,10.7-38.1,10.7-38.1,10.7z"/>
					<path class="st12" d="M-38.3,12.6C-38.3,12.6-38.3,12.6-38.3,12.6C-38.3,12.6-38.3,12.6-38.3,12.6
						C-38.3,12.6-38.3,12.6-38.3,12.6C-38.3,12.6-38.3,12.6-38.3,12.6z"/>
					<path class="st12" d="M-38.7,11.7C-38.7,11.7-38.7,11.7-38.7,11.7C-38.7,11.7-38.7,11.7-38.7,11.7
						C-38.7,11.7-38.7,11.7-38.7,11.7C-38.7,11.7-38.7,11.7-38.7,11.7z"/>
					<path class="st12" d="M-38.5,10.9C-38.5,10.9-38.5,10.9-38.5,10.9C-38.5,10.9-38.5,10.9-38.5,10.9
						C-38.5,10.9-38.5,10.9-38.5,10.9z"/>
					<polygon class="st12" points="-37.6,10.8 -37.5,10.8 -37.5,10.8 					"/>
					<polygon class="st12" points="-38.5,10.9 -38.5,10.9 -38.5,10.9 					"/>
					<path class="st12" d="M-35.8,10.2C-35.8,10.2-35.8,10.2-35.8,10.2C-35.8,10.2-35.8,10.2-35.8,10.2
						C-35.8,10.2-35.8,10.2-35.8,10.2z"/>
					<path class="st12" d="M-35.9,10.1L-35.9,10.1C-35.9,10.1-35.9,10.1-35.9,10.1C-35.9,10.1-35.9,10.1-35.9,10.1z"/>
					<polygon class="st12" points="-36.8,10.1 -36.8,10.1 -36.8,10.1 					"/>
					<polygon class="st12" points="-35.8,10.2 -35.8,10.2 -35.8,10.2 					"/>
					<path class="st12" d="M-36.5,9.9C-36.5,9.9-36.5,9.9-36.5,9.9C-36.5,9.9-36.5,9.9-36.5,9.9C-36.5,9.9-36.5,9.9-36.5,9.9z"/>
					<path class="st12" d="M-35.9,10.1L-35.9,10.1L-35.9,10.1z"/>
					<path class="st12" d="M-38.7,11.1L-38.7,11.1L-38.7,11.1C-38.7,11.1-38.7,11.1-38.7,11.1C-38.7,11.1-38.7,11.1-38.7,11.1z"/>
					<path class="st12" d="M-36.5,9.9L-36.5,9.9L-36.5,9.9L-36.5,9.9z"/>
					<path class="st12" d="M-36.8,10.1C-36.8,10.1-36.8,10.1-36.8,10.1L-36.8,10.1C-36.8,10.1-36.8,10.1-36.8,10.1z"/>
					<path class="st12" d="M-38.6,11L-38.6,11C-38.6,11-38.6,11-38.6,11z"/>
					<path class="st12" d="M-38.3,10.8C-38.3,10.7-38.3,10.8-38.3,10.8L-38.3,10.8z"/>
					<path class="st12" d="M-37.7,10.8C-37.6,10.8-37.7,10.8-37.7,10.8L-37.7,10.8z"/>
					<path class="st12" d="M-38.3,12.1L-38.3,12.1C-38.3,12.1-38.3,12.1-38.3,12.1z"/>
					<path class="st12" d="M-38.3,12.6C-38.3,12.6-38.3,12.6-38.3,12.6C-38.3,12.6-38.3,12.6-38.3,12.6
						C-38.3,12.6-38.3,12.6-38.3,12.6C-38.3,12.6-38.3,12.6-38.3,12.6C-38.3,12.6-38.3,12.6-38.3,12.6z"/>
					<path class="st12" d="M-35.2,10.3c-0.1-0.3-0.3-0.5-0.5-0.7c-0.5-0.3-1.2-0.3-1.6,0.2c-0.1,0.1-0.2,0.3-0.3,0.4
						c-0.4-0.1-0.9-0.1-1.2,0.1c-0.2,0.2-0.4,0.4-0.5,0.7c-0.1,0.3,0,0.6,0.1,0.9c0.1,0.2,0.2,0.3,0.3,0.4c-0.2,0.2-0.2,0.6-0.1,0.9
						c0.1,0.4,0.5,0.8,1,0.9c0.3,0.1,0.6,0,0.9-0.1c0.1,0,0.2-0.1,0.1-0.2c0-0.1-0.1-0.1-0.3-0.1c-0.2,0-0.3,0-0.5,0
						c-0.2,0-0.4-0.1-0.5-0.2c-0.1-0.1-0.3-0.3-0.3-0.4c0-0.1,0-0.3,0.1-0.4c0-0.1,0.1-0.1,0.2-0.1c0-0.1,0.1-0.1,0.1-0.2
						c0-0.2-0.3-0.2-0.4-0.4c0,0,0,0,0-0.1c-0.1-0.1-0.1-0.1-0.1-0.2c-0.1-0.3-0.1-0.7,0.2-0.9c0.2-0.1,0.7-0.2,0.9,0
						c0.1,0.1,0.2,0.1,0.3,0.1c0.1,0,0.2-0.1,0.2-0.2c0-0.1,0-0.2,0-0.3c0.1-0.2,0.2-0.4,0.4-0.4c0.2,0,0.3,0,0.5,0
						c0.3,0.1,0.5,0.4,0.5,0.7c0,0.1,0,0.3,0,0.4c0,0.1,0.1,0.2,0.2,0.2c0.1,0,0.2,0,0.3-0.1C-35,10.9-35.1,10.6-35.2,10.3z"/>
					<path class="st12" d="M-37.5,10.8C-37.5,10.8-37.5,10.8-37.5,10.8C-37.5,10.8-37.5,10.8-37.5,10.8
						C-37.5,10.8-37.5,10.8-37.5,10.8z"/>
					<path class="st12" d="M-36.5,9.9C-36.5,9.9-36.5,9.9-36.5,9.9C-36.5,9.9-36.5,9.9-36.5,9.9C-36.5,9.9-36.5,9.9-36.5,9.9z"/>
					<path class="st12" d="M-35.8,10.2C-35.8,10.2-35.8,10.2-35.8,10.2L-35.8,10.2C-35.8,10.2-35.8,10.2-35.8,10.2z"/>
					<path class="st12" d="M-37,10.4C-37,10.4-37,10.4-37,10.4L-37,10.4C-37,10.4-37,10.4-37,10.4z"/>
					<path class="st12" d="M-35.9,10.1C-35.9,10.1-35.9,10.1-35.9,10.1C-35.9,10.1-35.9,10.1-35.9,10.1L-35.9,10.1z"/>
					<path class="st12" d="M-38.5,10.9C-38.5,10.9-38.5,10.9-38.5,10.9L-38.5,10.9C-38.5,10.9-38.5,10.9-38.5,10.9z"/>
				</g>
				<g>
					<path class="st12" d="M-36.4,12.4C-36.4,12.3-36.4,12.3-36.4,12.4c0.2-0.3,0.1-0.5-0.1-0.6c-0.3-0.2-0.7,0.1-0.6,0.4
						c0,0.1,0.1,0.2,0.2,0.2C-36.8,12.5-36.6,12.5-36.4,12.4z"/>
				</g>
				<path class="st12" d="M-33.8,12.3c-0.1-0.2-0.2-0.4-0.5-0.5c-0.2-0.1-0.5,0-0.7,0.2c-0.1,0.1-0.1,0.2,0,0.3
					c0.1,0.2,0.3,0.1,0.4,0c0.1,0,0.2,0,0.3,0.1c0.1,0.1,0.1,0.3,0,0.4c-0.1,0.1-0.2,0.2-0.3,0.2c-0.1,0-0.1,0-0.2-0.1
					c-0.1,0-0.1,0-0.2,0.1c-0.2,0.2,0,0.4,0.1,0.5c0.1,0.1,0.1,0.3-0.1,0.4c-0.2,0.1-0.5,0-0.6-0.2c-0.1-0.1-0.1-0.2-0.1-0.3
					c0-0.1,0-0.2-0.1-0.2c-0.1,0-0.2,0-0.2,0.1c-0.1,0.2,0,0.5,0.1,0.7s0.3,0.3,0.6,0.4c0.2,0.1,0.5,0.1,0.7-0.1
					c0.2-0.1,0.3-0.4,0.3-0.6c0-0.1,0-0.2,0-0.3c0.2-0.1,0.4-0.3,0.5-0.4C-33.8,12.8-33.8,12.5-33.8,12.3z"/>
			</g>
		</g>
		<g>
			<g>
				<path class="st13" d="M-46.1,13c-0.5,0.8-0.2,1.9,0.5,2.5c-0.5,0.6-0.4,1.4,0.1,2c0.5,0.5,1.3,0.7,2,0.5s1.2-0.8,1.5-1.5
					c0.5,0.2,1,0.1,1.4-0.2c0.4-0.3,0.6-0.8,0.7-1.3c0.1-0.9-0.2-1.9-1-2.4c-0.7-0.5-1.6-0.5-2.3-0.2c-0.1,0-0.2,0.1-0.3,0.1
					c-0.1,0-0.1,0.1-0.1,0c0,0-0.5-0.7-1.6-0.2C-45.5,12.4-45.9,12.6-46.1,13z"/>
				<path class="st14" d="M-43.4,14.4c0.2,0,0.2-0.2,0.2-0.4s0.1-0.3,0.3-0.4c0.1,0,0.2,0,0.3,0.1c0.1,0.1,0.1,0.2,0.1,0.3
					c0,0.1,0,0.2,0.2,0.2c0.1,0,0.2,0,0.3-0.1c0.1-0.2,0.1-0.4,0-0.6c-0.1-0.2-0.2-0.3-0.4-0.4s-0.4-0.1-0.6,0
					c-0.2,0.1-0.4,0.2-0.5,0.4c0,0.1-0.1,0.2-0.1,0.3c0,0.1,0,0.1,0,0.2c0,0.1,0,0.1,0.1,0.2C-43.6,14.4-43.5,14.4-43.4,14.4z"/>
			</g>
			<path class="st14" d="M-41.9,16c0.2-0.2,0.3-0.4,0.2-0.7c0-0.3-0.3-0.5-0.5-0.6c-0.1,0-0.2,0-0.3,0.1c-0.1,0.2,0.1,0.3,0.2,0.4
				c0.1,0.1,0.1,0.2,0.1,0.3c-0.1,0.1-0.2,0.2-0.4,0.2c-0.1,0-0.2-0.1-0.3-0.1c-0.1,0,0-0.1,0-0.2s-0.1-0.1-0.1-0.1
				c-0.3-0.1-0.3,0.2-0.5,0.4c-0.1,0.1-0.3,0.2-0.4,0.2c-0.2-0.1-0.2-0.5-0.1-0.7c0.1-0.1,0.1-0.2,0.3-0.2c0.1-0.1,0.2-0.1,0.2-0.2
				c0-0.1-0.1-0.2-0.3-0.2c-0.2,0.1-0.5,0.2-0.6,0.4c-0.1,0.2-0.1,0.5-0.1,0.7c0.1,0.3,0.2,0.5,0.5,0.6c0.2,0.1,0.5,0.1,0.7,0
				c0.1,0,0.2-0.1,0.3-0.2c0.2,0.1,0.5,0.2,0.7,0.2C-42.3,16.2-42.1,16.1-41.9,16z"/>
		</g>
	</g>
	<g>
		<path class="st1" d="M-38.5,44.2c0.4,0,0.8-0.4,0.8-0.8c0-0.2-0.1-0.4-0.2-0.6c-0.2-0.1-0.3-0.2-0.6-0.2c-0.4,0-0.8,0.4-0.8,0.8
			c0,0.2,0.1,0.4,0.2,0.6C-38.9,44.1-38.7,44.2-38.5,44.2z"/>
	</g>
	<g>
		<path class="st3" d="M-38.5,41.8c0.4,0,0.8-0.4,0.8-0.8c0-0.2-0.1-0.4-0.2-0.6c-0.2-0.1-0.3-0.2-0.6-0.2c-0.4,0-0.8,0.4-0.8,0.8
			c0,0.2,0.1,0.4,0.2,0.6C-38.9,41.8-38.7,41.8-38.5,41.8z"/>
	</g>
	<g>
		<path class="st1" d="M-38.5,39.6c0.3,0,0.5-0.3,0.5-0.5c0-0.1,0-0.3-0.2-0.4c-0.1-0.1-0.2-0.2-0.4-0.2c-0.3,0-0.5,0.2-0.5,0.5
			c0,0.1,0,0.3,0.2,0.4C-38.8,39.5-38.7,39.6-38.5,39.6z"/>
	</g>
	<g>
		<path class="st2" d="M-30.6,48.4c0.4,0,0.8-0.4,0.8-0.8c0-0.2-0.1-0.4-0.2-0.6c-0.2-0.1-0.3-0.2-0.6-0.2c-0.4,0-0.8,0.4-0.8,0.8
			c0,0.2,0.1,0.4,0.2,0.6C-31,48.3-30.8,48.4-30.6,48.4z"/>
	</g>
	<g>
		<path class="st1" d="M-30.6,46.1c0.4,0,0.8-0.4,0.8-0.8c0-0.2-0.1-0.4-0.2-0.6c-0.2-0.1-0.3-0.2-0.6-0.2c-0.4,0-0.8,0.4-0.8,0.8
			c0,0.2,0.1,0.4,0.2,0.6C-31,46-30.8,46.1-30.6,46.1z"/>
	</g>
	<g>
		<path class="st1" d="M-30.6,41.8c0.4,0,0.8-0.4,0.8-0.8c0-0.2-0.1-0.4-0.2-0.6c-0.2-0.1-0.3-0.2-0.6-0.2c-0.4,0-0.8,0.4-0.8,0.8
			c0,0.2,0.1,0.4,0.2,0.6C-31,41.7-30.8,41.8-30.6,41.8z"/>
	</g>
	<g>
		<path class="st3" d="M-30.6,43.8c0.3,0,0.5-0.3,0.5-0.5c0-0.1,0-0.3-0.2-0.4c-0.1-0.1-0.2-0.2-0.4-0.2c-0.3,0-0.5,0.2-0.5,0.5
			c0,0.1,0,0.3,0.2,0.4C-30.9,43.8-30.7,43.8-30.6,43.8z"/>
	</g>
	<g>
		<path class="st2" d="M-30.6,39.3c0.3,0,0.5-0.3,0.5-0.5c0-0.1,0-0.3-0.2-0.4c-0.1-0.1-0.2-0.2-0.4-0.2c-0.3,0-0.5,0.2-0.5,0.5
			c0,0.1,0,0.3,0.2,0.4C-30.9,39.3-30.7,39.3-30.6,39.3z"/>
	</g>
	<g>
		<path class="st1" d="M-24.7,39.2c0.4,0,0.8-0.4,0.8-0.8c0-0.2-0.1-0.4-0.2-0.6c-0.2-0.1-0.3-0.2-0.6-0.2c-0.4,0-0.8,0.4-0.8,0.8
			c0,0.2,0.1,0.4,0.2,0.6C-25.1,39.1-24.9,39.2-24.7,39.2z"/>
	</g>
	<g>
		<path class="st1" d="M-24.7,36.8c0.3,0,0.5-0.3,0.5-0.5c0-0.1,0-0.3-0.2-0.4c-0.1-0.1-0.2-0.2-0.4-0.2c-0.3,0-0.5,0.2-0.5,0.5
			c0,0.1,0,0.3,0.2,0.4C-25,36.7-24.8,36.8-24.7,36.8z"/>
	</g>
	<g>
		<path class="st3" d="M-32.2,51.2l0.9-0.7l-0.4-1.1c0-0.1,0.1-0.1,0.1-0.1l0.9,0.6l0.9-0.7c0.1,0,0.2,0,0.1,0.1l-0.3,1.1l1,0.6
			c0.1,0,0,0.2,0,0.2l-1.1,0.1l-0.3,1.1c0,0.1-0.1,0.1-0.2,0l-0.4-1.1l-1.1,0.1C-32.2,51.3-32.3,51.2-32.2,51.2z"/>
	</g>
	<polygon class="st3" points="-24.7,40 -25.5,41.3 -24.7,42.6 -23.9,41.3 	"/>
</g>
</svg>
