<?xml version="1.0" encoding="utf-8"?>
<!-- Generator: Adobe Illustrator 27.5.0, SVG Export Plug-In . SVG Version: 6.00 Build 0)  -->
<svg version="1.1" id="Layer_1" xmlns="http://www.w3.org/2000/svg" xmlns:xlink="http://www.w3.org/1999/xlink" x="0px" y="0px"
	 viewBox="0 0 56.7 56.7" style="enable-background:new 0 0 56.7 56.7;" xml:space="preserve">
<style type="text/css">
	.st0{fill:#633518;}
	.st1{fill:#8F5632;}
	.st2{fill:#B36C3F;}
	.st3{fill:#FFE9C7;}
	.st4{opacity:0.3;fill:#1E0F00;}
	.st5{fill:#6E3B1A;}
	.st6{fill:#EAB4A8;}
	.st7{fill:#FFFFFF;}
	.st8{fill:#D9B48B;}
	.st9{fill:#BF815A;}
	.st10{fill:#95CFC6;}
	.st11{fill:#61B3A6;}
	.st12{fill:#6FB082;}
	.st13{fill:#8FC79E;}
	.st14{fill:#D99A8D;}
	.st15{fill:#AD6E61;}
	.st16{fill:#D4998C;}
	.st17{fill:#CC8050;}
</style>
<g>
	<g>
		<polygon class="st0" points="21.4,51 23.4,50.9 23.3,48.9 21,49 		"/>
		<polygon class="st1" points="18,34.1 21,49 23.3,48.9 22.8,34.1 		"/>
	</g>
	<g>
		<g>
			<path class="st1" d="M11.5,28.2c-0.8-0.1-1.5-0.7-1.9-1.3c-0.4-0.7-0.6-1.5-0.6-2.3c0.8,0.2,1.6,0.4,2.4,0.6
				c0.4,0.1,0.7,0.2,1,0.4c1.1,0.5,1.6,1.7,2,2.9C14.5,28.5,12.2,28.3,11.5,28.2z"/>
			<g>
				<polygon class="st1" points="40.1,24.9 35.6,33.8 37.7,48.1 40.1,47.9 				"/>
				<polygon class="st0" points="37.7,48.1 38,50.1 40.1,50.1 40.1,47.9 				"/>
			</g>
			<path class="st2" d="M41.1,26.4c0,0.1,0,0.2,0,0.4c-0.1,0.7-0.2,1.6-0.5,2.6c-0.4,1.5-2.1,3.5-3.2,4.6c-0.8,0.7-1.8,1.3-2.8,1.8
				c-0.3,0.1-0.6,0.3-1,0.4c-2.4,1-7.6,2.6-15,0.7c-2-0.5-3.7-1.8-4.6-3.6c-1-2-1-4.5,0.1-6.4c1.5-2.5,4.5-3.7,7.2-4.2
				c1.7-0.3,3.3-0.1,5-0.1c1.2,0,2.4-0.1,3.5-0.5c0,0,0.1,0,0.1-0.1l0,0c0.1-0.1,0.2-0.1,0.4-0.2c0.1,0,0.2-0.1,0.3-0.2l5.8,1.2
				l4.3,0.9C40.7,23.7,41.2,24.5,41.1,26.4z"/>
			<path class="st3" d="M41.1,26.4c0,0.1,0,0.2,0,0.4c-0.1,0.7-0.2,1.6-0.5,2.6c-0.4,1.5-2.1,3.5-3.2,4.6c-0.8,0.7-1.8,1.3-2.8,1.8
				l-1.3-2.8l3-10.1l4.3,0.9C40.7,23.7,41.2,24.5,41.1,26.4z"/>
			<g>
				<polygon class="st0" points="14.8,50.5 16.8,51 17.3,49 15,48.6 				"/>
				<polygon class="st2" points="16.1,33.3 15,48.6 17.3,49 20.7,34.7 				"/>
			</g>
			<g>
				<polygon class="st0" points="31.5,50.3 33.6,50.3 33.9,48.2 31.4,48.1 				"/>
				<path class="st2" d="M31.1,28v6.2l0.4,13.9l2.4,0l1.7-15.8c0.6-4.4,3.4-2.7,3.8-6.7C39.9,19.5,31.1,28,31.1,28z"/>
			</g>
			<g>
				<path class="st4" d="M41.1,26.4c0,0.1,0,0.2,0,0.4c-1.4,0.6-4.9,1.6-8,0c-1.5-0.7-3.1-2-3.2-4.9l0,0c0.2-0.1,0.2-0.1,0.4-0.2
					c0.2,1.6,1.1,2.9,2.6,3.9C35.1,26.9,38.5,27.1,41.1,26.4z"/>
			</g>
			<g>
				<g>
					<path class="st1" d="M45.5,12.8c0.6-0.3,1.9-0.5,2.1,0.5c0.1,0.5-0.3,0.9-0.7,1.1c-0.6,0.4-1.3,0.5-2,0.5
						c-0.2,0-1.6,0.2-2.1,0.2C42.9,15.2,43.6,13.8,45.5,12.8z"/>
					<path class="st5" d="M43.6,14.8c0.3-0.3,0.9-0.7,1.3-0.9c0.5-0.3,1.8-1.1,2-0.4c0.1,0.3-0.3,0.7-0.5,0.7
						c-0.8,0.4-1.9,0.6-2.8,0.8L43.6,14.8z"/>
				</g>
				<g>
					<path class="st1" d="M28.3,16.6c-0.7,0-2,0.3-1.7,1.2c0.1,0.5,0.6,0.7,1.1,0.8c0.7,0.1,1.4-0.1,2.1-0.3c0.2-0.1,1.5-0.4,2-0.6
						C31.6,17.8,30.4,16.7,28.3,16.6z"/>
					<path class="st5" d="M30.7,17.6c-0.4-0.1-1.1-0.3-1.6-0.3c-0.6-0.1-2-0.3-2,0.4c0,0.4,0.6,0.5,0.7,0.5c0.9,0,2-0.2,2.9-0.3
						L30.7,17.6z"/>
				</g>
				<path class="st0" d="M33.5,14.7c0-0.1-0.1-0.2-0.2-0.2c-0.1,0-0.2-0.1-0.3-0.1c-0.1,0-0.2-0.1-0.3-0.1c-0.2-0.1-0.5-0.2-0.7-0.2
					c-0.2-0.1-0.5-0.2-0.7-0.3c-0.1-0.1-0.3-0.1-0.4-0.2c0-0.1-0.1-0.2-0.1-0.3c-0.2-0.4-0.3-0.7-0.5-1.1c-0.2-0.4-0.3-0.8-0.5-1.2
					c0-0.1-0.1-0.1-0.1-0.1c-0.1,0-0.1,0-0.2,0c-0.1,0-0.2,0.2-0.2,0.3c0,0.4,0.1,0.8,0.2,1.2c0.1,0.2,0.1,0.4,0.2,0.6
					c-0.3-0.2-0.5-0.3-0.7-0.5c-0.3-0.3-0.7-0.5-1-0.8c-0.2-0.2-0.9-0.9-1-1c-0.1-0.1-0.3-0.3-0.4-0.4c-0.1-0.1-0.2-0.1-0.3,0
					c0,0-0.1,0.1-0.1,0.2c0,0.3,0.8,1.4,1,1.5c0.4,0.4,0.8,0.8,1.2,1.1c0.2,0.2,0.4,0.3,0.6,0.5c-0.2,0-0.5,0-0.7,0
					c-0.2,0-0.4,0-0.7,0c0,0,0,0,0.1,0c-0.2,0-0.5,0-0.7,0c-0.1,0-0.2,0-0.3,0.1c-0.1,0.1-0.1,0.3,0.1,0.3c0.4,0.2,0.9,0.4,1.4,0.4
					c0.5,0.1,1,0,1.5,0c0.1,0,0.3,0,0.4-0.1c0.1,0,0.1,0,0.2,0c0.1,0.1,0.3,0.1,0.4,0.2c0.2,0.1,0.5,0.2,0.8,0.4
					c0.5,0.2,1,0.5,1.5,0.6c0.1,0,0.2,0.1,0.3,0.1c0.1,0,0.1,0,0.2,0c0.1,0,0.1,0,0.2-0.1c0,0,0.1-0.1,0.1-0.1c0,0,0.1-0.1,0.1-0.2
					c0,0,0-0.1,0-0.1C33.5,14.8,33.5,14.7,33.5,14.7z"/>
				<path class="st0" d="M41.2,13.1c0-0.1,0-0.2,0.1-0.3c0.1-0.1,0.2-0.2,0.3-0.3c0.1-0.1,0.2-0.2,0.3-0.3c0.2-0.2,0.3-0.3,0.5-0.5
					c0.2-0.2,0.3-0.3,0.5-0.5c0.1-0.1,0.2-0.3,0.3-0.4c0-0.1,0-0.2,0-0.3c0-0.4,0-0.8-0.1-1.2c0-0.4-0.1-0.9-0.1-1.3
					C43,8,43,7.9,43,7.9c0,0,0.1-0.1,0.1-0.1c0.1,0,0.3,0,0.3,0.2c0.1,0.4,0.3,0.7,0.3,1.1c0,0.2,0.1,0.4,0.1,0.7
					c0.2-0.3,0.3-0.5,0.4-0.8c0.2-0.4,0.4-0.8,0.5-1.2c0.1-0.2,0.2-0.5,0.3-0.7c0.1-0.2,0.1-0.5,0.2-0.7c0.1-0.2,0.1-0.3,0.2-0.5
					c0-0.1,0.2-0.2,0.3-0.2C46,5.7,46,6,46,6.2c0,0.5-0.1,0.9-0.2,1.4c-0.1,0.5-0.4,1.1-0.6,1.6c-0.1,0.2-0.2,0.5-0.4,0.7
					c0.2-0.1,0.4-0.2,0.7-0.3c0.4-0.2,0.8-0.4,1.1-0.6c0.1-0.1,0.2-0.2,0.3-0.1c0.1,0,0.2,0.1,0.2,0.3c0,0.1,0,0.1-0.1,0.2
					c-0.3,0.4-0.6,0.7-1,0.9c-0.4,0.3-0.9,0.5-1.3,0.6c-0.1,0-0.2,0.1-0.4,0.1c-0.1,0-0.1,0-0.2,0c-0.1,0.1-0.2,0.3-0.3,0.4
					c-0.2,0.2-0.3,0.4-0.5,0.7c-0.3,0.4-0.7,0.9-1.1,1.3c-0.1,0.1-0.2,0.1-0.2,0.2c-0.1,0-0.1,0.1-0.2,0.1c-0.1,0-0.1,0-0.2,0
					c0,0-0.1,0-0.1,0c-0.1,0-0.1-0.1-0.1-0.1c0,0-0.1-0.1-0.1-0.1C41.3,13.3,41.3,13.2,41.2,13.1z"/>
				<path class="st2" d="M40.9,26.6c-2.5,0.8-5.7,0.9-8.1-0.3c-1.4-0.7-2.4-2-2.7-3.6c-0.3-1.9-0.3-3.8,0.5-5.5
					c0.1-0.3,0.3-0.6,0.4-0.9c0.1-0.2,0.3-0.4,0.4-0.7c0.1-0.1,0.2-0.2,0.2-0.3c0.2-0.2,0.4-0.4,0.6-0.7c0.4-0.4,0.8-0.7,1.3-1
					c1-0.7,2.2-1.1,3.5-1.2c1.4-0.1,2.8,0,4,0.6c0.1,0,0.1,0.1,0.2,0.1c0.1,0,0.2,0.1,0.3,0.1c0.6,0.3,1.2,0.7,1.7,1.2
					c0,0,0,0,0.1,0.1c1.6,1.6,2.4,3.5,2.7,5.8C46.6,23.6,43.8,25.7,40.9,26.6z"/>
				<path class="st6" d="M32.6,25.3c0.4,0.2,0.9,0.1,1.1-0.3c0.3-0.5,0-1.1-0.5-1.2c-0.6-0.2-1.4,0.4-1.1,1.1
					C32.3,25.1,32.4,25.2,32.6,25.3z"/>
				<path class="st6" d="M43.6,23.1c0.4,0.2,0.9,0.1,1.1-0.3c0.3-0.5,0-1.1-0.5-1.2c-0.6-0.2-1.4,0.4-1.1,1.1
					C43.3,22.9,43.4,23.1,43.6,23.1z"/>
				<path class="st3" d="M40.7,15.1c-1,2.1-1.5,4.6-1.2,7l-1.3,0.3c-0.8-2.3-2.2-4.3-4-5.8L40.7,15.1z"/>
				<g>
					<g>
						<path class="st5" d="M33.2,19.4C33.2,19.4,33.2,19.4,33.2,19.4C33.2,19.5,33.2,19.5,33.2,19.4c0,0.1,0,0.1,0,0.1c0,0,0,0,0,0
							c0,0,0,0,0,0c0,0,0,0,0,0.1c0,0,0,0,0,0.1c0,0.1,0.1,0.2,0.1,0.3c0,0.1,0.1,0.2,0.1,0.2c0,0.1,0.1,0.1,0.1,0.1
							c0,0,0.1,0.1,0.1,0.1c0.1,0.1,0.2,0.1,0.2,0c0.1,0,0.1-0.1,0-0.2c0,0,0-0.1-0.1-0.1c0,0,0,0,0,0c0,0,0,0,0,0c0,0,0,0,0,0
							c0,0,0,0,0-0.1c-0.1-0.1-0.1-0.1-0.1-0.2c0-0.1-0.1-0.2-0.1-0.2c0,0,0-0.1-0.1-0.1c0,0,0,0,0,0c0,0,0-0.1,0,0c0,0,0,0,0-0.1
							c0-0.1-0.1-0.1-0.2-0.1C33.2,19.3,33.2,19.3,33.2,19.4L33.2,19.4z"/>
					</g>
					<g>
						<path class="st5" d="M33.9,19.2C33.9,19.2,33.9,19.3,33.9,19.2c0,0.1,0,0.1,0,0.1c0,0,0,0,0,0c0,0.1,0,0.1,0,0.2
							c0,0.1,0,0.2,0.1,0.2c0,0.2,0.1,0.3,0.2,0.5c0,0.1,0.1,0.1,0.2,0.1c0.1,0,0.1-0.1,0.1-0.2c0-0.1-0.1-0.2-0.1-0.2
							c0-0.1-0.1-0.2-0.1-0.2c-0.1-0.2-0.1-0.3-0.1-0.5c0-0.1-0.1-0.1-0.1-0.1C34,19.1,33.9,19.1,33.9,19.2L33.9,19.2z"/>
					</g>
					<g>
						<path class="st5" d="M34.8,19.2c0,0.1-0.1,0.2-0.1,0.3c0,0.1,0,0.2,0,0.3c0,0.2,0,0.4,0,0.6c0,0.1,0.1,0.1,0.2,0.1
							c0.1,0,0.1-0.1,0.1-0.2c0-0.2,0-0.3,0-0.5c0-0.1,0-0.2,0-0.2c0,0,0-0.1,0-0.1c0,0,0,0,0,0c0,0,0,0,0,0c0,0,0,0,0-0.1
							c0-0.1,0-0.2-0.1-0.2C34.9,19.1,34.8,19.1,34.8,19.2L34.8,19.2z"/>
					</g>
					<g>
						<path class="st7" d="M33.3,20.7c-0.1,0.3-0.1,0.5,0,0.9c0.2,0.6,0.8,0.8,1.4,0.7c0.2,0,0.4-0.1,0.6-0.2
							c0.4-0.3,0.6-0.9,0.4-1.3c-0.1-0.4-0.5-0.6-0.9-0.7C34.2,19.8,33.5,20.1,33.3,20.7z"/>
						<path class="st5" d="M34.2,20.9c0.1-0.2,0.3-0.3,0.5-0.3c0.2,0,0.4,0,0.6,0.2c0.2,0.3,0.2,0.6-0.1,0.8
							c-0.2,0.1-0.6,0.2-0.8,0.1C34,21.4,34.1,21.1,34.2,20.9z"/>
					</g>
				</g>
				<g>
					<g>
						<path class="st5" d="M41.5,18.1C41.5,18.1,41.5,18.1,41.5,18.1C41.5,18.1,41.5,18.2,41.5,18.1c0,0.1,0,0.1,0,0.1c0,0,0,0,0,0
							c0,0,0,0,0,0c0,0,0,0,0,0.1c0,0,0,0,0,0.1c0,0.1,0.1,0.2,0.1,0.3c0,0.1,0.1,0.2,0.1,0.2c0,0.1,0.1,0.1,0.1,0.1
							c0,0,0.1,0.1,0.1,0.1c0.1,0.1,0.2,0.1,0.2,0c0.1,0,0.1-0.1,0-0.2c0,0,0-0.1-0.1-0.1c0,0,0,0,0,0c0,0,0,0,0,0c0,0,0,0,0,0
							c0,0,0,0,0-0.1c-0.1-0.1-0.1-0.1-0.1-0.2c0-0.1-0.1-0.2-0.1-0.2c0,0,0-0.1-0.1-0.1c0,0,0,0,0,0c0,0,0-0.1,0,0c0,0,0,0,0-0.1
							c0-0.1-0.1-0.1-0.2-0.1C41.5,18,41.5,18,41.5,18.1L41.5,18.1z"/>
					</g>
					<g>
						<path class="st5" d="M42.2,17.9C42.2,17.9,42.2,18,42.2,17.9c0,0.1,0,0.1,0,0.1c0,0,0,0,0,0c0,0.1,0,0.1,0,0.2
							c0,0.1,0,0.2,0.1,0.2c0,0.2,0.1,0.3,0.2,0.5c0,0.1,0.1,0.1,0.2,0.1c0.1,0,0.1-0.1,0.1-0.2c0-0.1-0.1-0.2-0.1-0.2
							c0-0.1-0.1-0.2-0.1-0.2c-0.1-0.2-0.1-0.3-0.1-0.5c0-0.1-0.1-0.1-0.1-0.1C42.3,17.8,42.2,17.8,42.2,17.9L42.2,17.9z"/>
					</g>
					<g>
						<path class="st5" d="M43.1,17.9c0,0.1-0.1,0.2-0.1,0.3c0,0.1,0,0.2,0,0.3c0,0.2,0,0.4,0,0.6c0,0.1,0.1,0.1,0.2,0.1
							c0.1,0,0.1-0.1,0.1-0.2c0-0.2,0-0.3,0-0.5c0-0.1,0-0.2,0-0.2c0,0,0-0.1,0-0.1c0,0,0,0,0,0c0,0,0,0,0,0c0,0,0,0,0-0.1
							c0-0.1,0-0.2-0.1-0.2C43.2,17.7,43.1,17.8,43.1,17.9L43.1,17.9z"/>
					</g>
					<g>
						<path class="st7" d="M41.6,19.3c-0.1,0.3-0.1,0.5,0,0.9c0.2,0.6,0.8,0.8,1.4,0.7c0.2,0,0.4-0.1,0.6-0.2
							c0.4-0.3,0.6-0.9,0.4-1.3c-0.1-0.4-0.5-0.6-0.9-0.7C42.4,18.5,41.8,18.8,41.6,19.3z"/>
					</g>
				</g>
				<g>
					<g>
						<path class="st8" d="M35.7,17.6C35.7,17.6,35.7,17.6,35.7,17.6C35.7,17.6,35.7,17.6,35.7,17.6C35.7,17.6,35.7,17.6,35.7,17.6
							C35.8,17.7,35.8,17.7,35.7,17.6c0.1,0.1,0.1,0.2,0.2,0.2c0,0,0,0.1,0.1,0.1c0,0,0.1,0.1,0.1,0.1c0,0.1,0.1,0.1,0.1,0
							c0.1,0,0.1-0.1,0.1-0.1c0-0.1,0-0.1-0.1-0.2c0,0-0.1-0.1-0.1-0.1c-0.1-0.1-0.1-0.2-0.2-0.3c0-0.1-0.1,0-0.2,0
							C35.6,17.5,35.6,17.5,35.7,17.6L35.7,17.6z"/>
					</g>
					<g>
						<path class="st8" d="M36.6,17.5c0,0.1,0,0.1,0.1,0.2c0,0,0,0.1,0,0.1c0,0,0,0.1,0.1,0.1c0,0,0,0,0.1,0.1c0,0,0,0,0.1,0
							c0.1,0,0.1-0.1,0.1-0.1c0,0,0-0.1,0-0.1c0,0,0-0.1,0-0.1c0-0.1,0-0.1-0.1-0.2c0,0,0-0.1-0.1-0.1c0,0-0.1,0-0.1,0
							C36.6,17.4,36.6,17.5,36.6,17.5L36.6,17.5z"/>
					</g>
					<g>
						<path class="st8" d="M37.2,16.9c0,0.1,0,0.1,0,0.2c0,0.1,0,0.1,0.1,0.2c0,0.1,0.1,0.1,0.1,0.1c0.1,0,0.1-0.1,0.1-0.1
							c0-0.1,0-0.2,0-0.3c0-0.1,0-0.2,0-0.2c0-0.1-0.1-0.1-0.2-0.1C37.2,16.7,37.2,16.8,37.2,16.9L37.2,16.9z"/>
					</g>
					<g>
						<path class="st8" d="M38.4,16.8c0,0.2,0,0.3,0,0.5c0,0,0,0.1,0,0.1c0,0,0.1,0,0.1,0c0.1,0,0.1-0.1,0.1-0.1c0-0.2,0-0.3,0-0.5
							c0,0,0-0.1,0-0.1c0,0-0.1,0-0.1,0C38.4,16.7,38.4,16.7,38.4,16.8L38.4,16.8z"/>
					</g>
					<g>
						<path class="st8" d="M37.9,17.6c0,0.1,0.1,0.3,0.1,0.4c0,0,0,0.1,0.1,0.1c0,0,0,0,0.1,0c0.1,0,0.1-0.1,0.1-0.1
							c0-0.1,0-0.3-0.1-0.4c0-0.1-0.1-0.1-0.1-0.1C37.9,17.4,37.9,17.5,37.9,17.6L37.9,17.6z"/>
					</g>
					<g>
						<path class="st8" d="M39.1,16.7c0,0.1,0,0.3,0,0.5c0,0,0,0.1,0,0.1c0,0,0.1,0,0.1,0c0.1,0,0.1-0.1,0.1-0.1c0-0.1,0-0.1,0-0.2
							c0-0.1,0-0.1,0-0.2c0,0,0-0.1,0-0.1c0,0,0,0-0.1,0C39.2,16.6,39.1,16.7,39.1,16.7L39.1,16.7z"/>
					</g>
					<g>
						<path class="st8" d="M39.6,16.5c0,0.1,0,0.2,0,0.3c0,0,0,0,0,0c0,0,0,0.1,0,0.1c0,0,0,0.1,0,0.1c0,0,0,0,0.1,0
							c0.1,0,0.1,0,0.1-0.1c0-0.1,0-0.3,0-0.4c0,0,0-0.1,0-0.1c0,0-0.1,0-0.1,0C39.7,16.4,39.6,16.4,39.6,16.5
							C39.6,16.5,39.6,16.5,39.6,16.5L39.6,16.5z"/>
					</g>
					<g>
						<path class="st8" d="M39.2,17.7c0,0.1,0,0.2,0,0.3c0,0,0,0,0,0.1c0,0,0,0,0,0.1c0,0,0,0.1,0.1,0.1c0,0,0.1,0,0.1,0
							c0,0,0.1,0,0.1-0.1c0-0.1,0-0.2,0-0.3c0,0,0,0,0-0.1c0,0,0,0,0-0.1c0,0,0-0.1-0.1-0.1C39.3,17.6,39.3,17.6,39.2,17.7
							C39.2,17.7,39.2,17.7,39.2,17.7L39.2,17.7z"/>
					</g>
					<g>
						<path class="st8" d="M38.6,18.3c0,0.1,0,0.2,0,0.3c0,0.1,0,0.2,0,0.3c0,0.1,0.1,0.1,0.1,0.1c0.1,0,0.1-0.1,0.1-0.1
							c0-0.1,0-0.2,0-0.3c0-0.1,0-0.2,0-0.3c0-0.1-0.1-0.1-0.1-0.1C38.6,18.2,38.6,18.2,38.6,18.3L38.6,18.3z"/>
					</g>
					<g>
						<path class="st8" d="M37.4,18.3c0,0.1,0.1,0.3,0.1,0.4c0,0.1,0.1,0.1,0.2,0.1c0.1,0,0.1-0.1,0.1-0.2c0-0.1-0.1-0.3-0.1-0.4
							c0-0.1-0.1-0.1-0.2-0.1C37.4,18.1,37.3,18.2,37.4,18.3L37.4,18.3z"/>
					</g>
					<g>
						<path class="st8" d="M36.6,18.7C36.7,18.7,36.7,18.8,36.6,18.7C36.7,18.8,36.7,18.8,36.6,18.7c0.1,0.1,0.1,0.2,0.2,0.2
							c0,0.1,0.1,0.1,0.1,0.2c0,0,0,0,0.1,0.1c0,0,0.1,0,0.1,0c0.1,0,0.1-0.1,0.1-0.1c0-0.1-0.1-0.2-0.1-0.3c0-0.1-0.1-0.2-0.2-0.2
							c0-0.1-0.1-0.1-0.2,0C36.6,18.6,36.6,18.7,36.6,18.7L36.6,18.7z"/>
					</g>
					<g>
						<path class="st8" d="M37.5,19.8c0,0.1,0.1,0.1,0.1,0.2c0,0.1,0.1,0.1,0.1,0.2c0,0.1,0.1,0.1,0.2,0c0,0,0,0,0.1-0.1
							c0,0,0-0.1,0-0.1c0-0.1-0.1-0.1-0.1-0.2c0-0.1-0.1-0.1-0.1-0.2c0-0.1-0.1-0.1-0.2,0C37.4,19.7,37.4,19.8,37.5,19.8L37.5,19.8z
							"/>
					</g>
					<g>
						<path class="st8" d="M37.9,19.2c0,0.1,0,0.2,0.1,0.3c0,0.1,0.1,0.1,0.1,0.1c0.1,0,0.1-0.1,0.1-0.1c0-0.1,0-0.2-0.1-0.3
							c0-0.1-0.1-0.1-0.1-0.1C37.9,19.1,37.9,19.2,37.9,19.2L37.9,19.2z"/>
					</g>
					<g>
						<path class="st8" d="M39,19.4c0,0.1,0,0.2,0,0.4c0,0.1,0.1,0.1,0.1,0.1c0.1,0,0.1-0.1,0.1-0.1c0-0.1,0-0.2,0-0.4
							c0-0.1-0.1-0.1-0.1-0.1C39.1,19.3,39,19.3,39,19.4L39,19.4z"/>
					</g>
					<g>
						<path class="st8" d="M38.4,20c0,0.1,0.1,0.3,0.1,0.4c0,0.1,0.1,0.1,0.2,0.1c0.1,0,0.1-0.1,0.1-0.2c0-0.1-0.1-0.3-0.1-0.4
							c0-0.1-0.1-0.1-0.2-0.1C38.4,19.9,38.4,20,38.4,20L38.4,20z"/>
					</g>
					<g>
						<path class="st8" d="M37.9,20.8c0,0.1,0.1,0.3,0.1,0.4c0,0,0.1,0.1,0.1,0.1c0,0,0.1,0,0.1,0c0,0,0.1,0,0.1-0.1
							c0,0,0-0.1,0-0.1c0,0,0,0,0-0.1c0,0,0,0,0,0c0-0.1-0.1-0.2-0.1-0.3c0-0.1-0.1-0.1-0.2-0.1C37.9,20.6,37.9,20.7,37.9,20.8
							L37.9,20.8z"/>
					</g>
					<g>
						<path class="st8" d="M39,20.6c0,0.1,0,0.1,0,0.2c0,0.1,0,0.1,0,0.2c0,0.1,0,0.1,0.1,0.1c0.1,0,0.1,0,0.1-0.1
							c0-0.1,0-0.1,0-0.2c0-0.1,0-0.1,0-0.2c0,0,0-0.1,0-0.1c0,0-0.1,0-0.1,0C39.1,20.5,39.1,20.5,39,20.6C39,20.6,39,20.6,39,20.6
							L39,20.6z"/>
					</g>
				</g>
				<g>
					<path class="st9" d="M39.1,22c0.9-0.1,1.9,0,2.8,0.5c0.6,0.3,1.2,0.9,1.4,1.5c0.5,1.5-1,2.2-2.1,2.6c-0.6,0.2-1.2,0.4-1.8,0.5
						c-1,0.2-2.4,0.3-3.3,0c-0.6-0.2-1-0.7-1.1-1.4c0-0.7,0.3-1.4,0.7-2c0.4-0.5,0.9-0.9,1.5-1.2C37.8,22.2,38.4,22,39.1,22z"/>
					<g>
						<g>
							<path class="st0" d="M38.7,22.6c0,0.1,0,0.3,0.1,0.4c0,0.1,0,0.3,0.1,0.4c0,0.1,0.1,0.3,0.1,0.4c0,0.1,0,0.1,0,0.2
								c0,0.1,0,0.2,0.1,0.2c0,0.1,0.1,0.1,0.2,0.1c0.1,0,0.1-0.1,0.1-0.2c0-0.1,0-0.2,0-0.2c0-0.1,0-0.1,0-0.2
								c0-0.1-0.1-0.3-0.1-0.4c0-0.1-0.1-0.3-0.1-0.4c0-0.1-0.1-0.3-0.1-0.4c0-0.1-0.1-0.1-0.2-0.1C38.7,22.5,38.7,22.5,38.7,22.6
								L38.7,22.6z"/>
						</g>
						<g>
							<path class="st0" d="M38,23.6c0.1,0.2,0.2,0.4,0.4,0.5c0.1,0.1,0.3,0.3,0.5,0.3c0.2,0.1,0.5,0.1,0.7,0
								c0.2-0.1,0.3-0.2,0.4-0.4c0.1-0.1,0.1-0.2,0.1-0.4c0-0.1,0.1-0.3,0-0.4c0-0.1-0.1-0.1-0.2-0.1c-0.1,0-0.1,0-0.2,0.1
								c0,0.1,0,0.2-0.1,0.3c0,0,0,0,0,0c0,0,0,0,0,0c0,0,0,0,0,0c0,0,0,0,0,0.1c0,0,0,0.1,0,0.1c0,0,0,0,0,0c0,0,0,0,0,0
								c0,0,0,0,0,0c0,0,0,0,0,0c0,0,0,0.1-0.1,0.1c0,0,0,0,0,0c0,0,0,0,0,0c0,0,0,0,0,0c0,0,0,0,0,0c0,0,0,0,0,0c0,0,0,0,0,0
								c0,0-0.1,0-0.1,0.1c0,0,0,0,0,0c0,0,0,0,0,0c0,0-0.1,0-0.1,0c0,0,0,0,0,0c0,0,0,0,0,0c0,0,0,0-0.1,0c0,0,0,0-0.1,0
								c0,0,0,0,0,0c0,0,0,0,0,0c0,0,0,0-0.1,0c0,0-0.1,0-0.1,0c0,0,0,0,0,0c0,0,0,0,0,0c0,0,0,0,0,0c0,0-0.1,0-0.1-0.1c0,0,0,0,0,0
								c0,0,0,0,0,0c0,0,0,0,0,0c-0.2-0.1-0.3-0.3-0.4-0.5c0,0-0.1,0-0.2,0C38,23.5,37.9,23.6,38,23.6L38,23.6z"/>
						</g>
					</g>
					<path class="st0" d="M38.8,21.2c0.5-0.1,0.9-0.1,1.3,0.1c0.2,0.1,0.4,0.2,0.4,0.5c-0.1,0.2-0.3,0.4-0.4,0.4
						c-0.3,0.2-0.7,0.3-1.1,0.3c-0.4,0.1-0.8,0.2-1.2,0.1c0,0-0.1,0-0.1,0c-0.2,0-0.4-0.1-0.5-0.2c-0.1-0.2,0-0.4,0.1-0.5
						c0.2-0.2,0.5-0.4,0.8-0.5C38.2,21.4,38.5,21.3,38.8,21.2z"/>
				</g>
				<g>
					<path class="st10" d="M43.4,14.5c-0.6,0.4-1.4,0.7-2.2,1c0,0-0.1,0-0.1,0c0,0,0,0,0,0c-0.9,0.4-1.9,0.7-2.7,0.9
						c0,0-0.1,0-0.1,0c-0.1,0-0.2,0-0.3,0.1c-1,0.2-1.9,0.4-2.8,0.5c-0.1,0-0.2,0-0.3,0c-1.1,0.1-2.1,0.2-2.9,0.2
						c-0.1,0-0.1,0-0.2,0c-0.4,0-0.8,0-1.2,0c0.1-0.3,0.3-0.6,0.4-0.9c0.1-0.2,0.3-0.4,0.4-0.7c0.1-0.1,0.2-0.2,0.2-0.3
						c0.2-0.2,0.4-0.4,0.6-0.7c0.3,0,0.6,0,1,0.1c0,0,0,0,0,0h0c0.1,0,0.1,0,0.2,0c0.8,0,1.7-0.1,2.5-0.2l0,0l0.2,0l0,0
						c0.9-0.2,1.8-0.4,2.7-0.7v0c0.1,0,0.2,0,0.2-0.1c0.4-0.1,0.8-0.3,1.2-0.5c0.2-0.1,0.5-0.2,0.7-0.3c0.1,0,0.1,0.1,0.2,0.1
						c0.1,0,0.2,0.1,0.3,0.1C42.3,13.5,42.9,13.9,43.4,14.5C43.4,14.4,43.4,14.4,43.4,14.5z"/>
					<path class="st11" d="M41.6,13.2c0,0.1,0,0.2,0,0.2c0,0.3-0.1,0.7-0.1,1c0,0.3,0,0.9-0.2,1.1c0,0-0.1,0-0.1,0c0,0,0,0,0,0
						c0,0,0,0,0,0c-0.1,0-0.1,0-0.1,0c0,0-0.9-0.7-1.2-0.9c-0.1-0.1-0.6-0.5-0.6-0.5c0,0.1-0.5,1.6-0.8,2.3c0,0-0.1,0-0.1,0
						c-0.1,0-0.2,0-0.3,0.1c-0.1-0.1-0.3-0.3-0.4-0.4c-0.3-0.2-0.5-0.5-0.8-0.7c-0.1-0.1-0.5-0.5-0.6-0.5c0,0-0.1-0.1-0.1-0.1
						c-0.1,0.1-0.1,0.3-0.2,0.4c-0.2,0.5-0.7,1.5-0.8,1.8c-0.1,0-0.2,0-0.3,0c-0.1-0.1-0.2-0.3-0.3-0.5c-0.2-0.3-0.4-0.6-0.6-0.9
						c-0.1-0.1-0.2-0.3-0.3-0.4c-0.1-0.1-0.1-0.2-0.2-0.3c0,0-0.1,0.1-0.1,0.1c-0.1,0.2-1.1,1.7-1.2,1.8c-0.1,0.1-0.1,0.1-0.2,0.2
						c0,0,0,0,0,0c-0.1,0-0.1,0-0.2,0c0,0,0-0.1,0-0.1c-0.1-0.2-0.2-1-0.2-1.2c0-0.1,0-0.2,0-0.3c0.1-0.1,0.2-0.2,0.2-0.3
						c0.1,0.7,0.2,1.4,0.2,1.5c0,0,0,0,0,0c0.1-0.2,0.6-1.1,0.8-1.3c0.1-0.2,0.2-0.4,0.4-0.6c0-0.1,0.1-0.1,0.1-0.2c0,0,0,0,0.1-0.1
						c0,0,0,0,0,0h0c0.1,0,0.1,0,0.2,0c0,0,0,0,0,0c0.1,0,0.2,0.2,0.2,0.2c0.1,0.1,0.1,0.2,0.2,0.3c0.2,0.3,0.4,0.6,0.6,0.9
						c0.1,0.1,0.2,0.3,0.3,0.4c0,0,0.1,0.2,0.2,0.2c0-0.1,0.1-0.2,0.1-0.3c0.3-0.6,0.5-1.2,0.8-1.8c0,0,0,0,0,0l0,0l0.2,0l0,0
						c0.1,0.1,0.4,0.3,0.5,0.4c0.3,0.2,0.5,0.4,0.8,0.7c0.2,0.2,0.5,0.4,0.7,0.7c0-0.1,0.1-0.2,0.1-0.4c0.2-0.7,0.4-1.3,0.6-2
						c0,0,0,0,0,0v0c0.1,0,0.2,0,0.2-0.1c0,0,0,0,0,0c0,0,0,0,0,0c0.2,0.1,0.3,0.2,0.5,0.3c0.1,0.1,0.5,0.4,0.6,0.4c0,0,0,0,0,0
						c0.1,0.1,0.1,0.1,0.2,0.1c0.1,0.1,0.3,0.2,0.4,0.3c0.1,0,0.1,0.1,0.2,0.1c0,0,0,0,0.1,0c0,0,0,0,0,0c0-0.1,0-0.2,0-0.3
						c0,0,0-0.1,0-0.1c0,0,0-0.1,0-0.1c0-0.1,0-0.2,0-0.2c0-0.2,0-0.3,0.1-0.5c0-0.3,0.1-0.5,0.1-0.8C41.4,13.1,41.5,13.1,41.6,13.2
						z"/>
				</g>
				<g>
					<path class="st12" d="M39.7,7.7c-0.1-0.3-0.2-0.5-0.3-0.8c0-0.1-0.1-0.1-0.2-0.1c-0.1,0-0.1,0-0.2,0.1c-0.2,0.5-0.3,1-0.3,1.5
						c0,0.5,0.1,1,0.3,1.4c0.2,0.4,0.3,0.8,0.5,1.1c0,0.1,0.1,0.1,0.2,0.1c0.1,0,0.1,0,0.2-0.1c0-0.1,0-0.1,0.1-0.2
						c0-0.3,0.1-0.6,0.1-0.9c0-0.3,0-0.5,0-0.8C40,8.7,39.9,8.2,39.7,7.7z"/>
					<path class="st13" d="M42.8,7.2c0,0-0.1-0.1-0.2,0c-0.6,0.3-1.2,0.7-1.7,1.2c-0.5,0.5-0.8,1.1-0.9,1.8c0,0.2,0,0.3,0,0.5
						c0,0.1,0,0.2,0,0.3c0,0.1,0,0.4,0.2,0.3c0.1-0.1,0.2-0.2,0.3-0.3c0.3-0.3,0.7-0.5,1-0.8c0.2-0.2,0.5-0.5,0.6-0.8
						c0.3-0.6,0.3-1.2,0.5-1.8c0-0.1,0.1-0.2,0.1-0.3C42.9,7.4,42.9,7.3,42.8,7.2z"/>
					<g>
						<path class="st14" d="M36.5,9.7c0.4-0.1,0.9,0.2,1,0.6c0.2-0.3,1-0.8,1.6-0.3c0.8,0.5,0.6,1.4,0.4,1.8c0.5,0.2,0.7,0.5,0.7,1
							c-0.1,1-1,0.9-1.3,0.9c0.2,0.4,0,0.9-0.5,1.2c-0.4,0.2-1.2,0-1.3-0.7c-0.1,0.4-0.6,0.9-1.4,0.8c-1.1-0.2-1-1.2-0.9-1.5
							c-0.2,0-0.4,0-0.5-0.2c-0.5-0.4-0.4-1.2-0.1-1.8c0.6-1,1.6-0.7,1.6-0.7s0-0.4,0.2-0.7C36,9.8,36.2,9.7,36.5,9.7z"/>
						<g>
							<path class="st15" d="M37.3,13.2c0,0-0.1,0-0.1,0c-0.1,0-0.2,0.1-0.2,0.2c0,0,0,0,0,0c0,0,0,0,0,0c-0.1,0.1-0.2,0.3-0.4,0.2
								c0,0,0,0,0,0c0,0-0.1,0-0.1-0.1c0,0-0.1-0.1-0.1-0.1c0,0,0,0,0-0.1c0-0.1-0.1-0.1-0.1-0.2c-0.1,0-0.2,0-0.2,0.1
								c-0.1,0.1-0.2,0.2-0.3,0.2c-0.1,0-0.2-0.1-0.3-0.1c0-0.1-0.1-0.1-0.1-0.2c0-0.1,0-0.3,0.1-0.4c0.1-0.1,0.1-0.2,0-0.2
								c0,0-0.1-0.1-0.1-0.1c-0.1,0-0.1,0-0.2,0c-0.1,0-0.2-0.2-0.2-0.3c0-0.1,0.1-0.2,0.2-0.3c0.1,0,0.1-0.1,0.1-0.2
								c0-0.1-0.1-0.1-0.2-0.1c-0.2,0.1-0.4,0.3-0.4,0.5c0,0.2,0.1,0.5,0.3,0.6c0,0,0.1,0,0.1,0.1c0,0.1,0,0.1,0,0.2
								c0,0.2,0,0.4,0.1,0.5c0.1,0.1,0.2,0.3,0.4,0.3c0.2,0.1,0.3,0.1,0.5,0c0.1,0,0.1-0.1,0.2-0.1c0.1,0.1,0.2,0.2,0.3,0.2
								c0.2,0.1,0.5,0,0.7-0.2c0,0,0.1-0.1,0.1-0.2c0-0.1,0-0.2,0-0.2C37.4,13.2,37.4,13.2,37.3,13.2z"/>
						</g>
						<g>
							<path class="st15" d="M37.3,12.1C37.3,12.1,37.3,12,37.3,12.1c-0.1-0.2-0.3-0.3-0.5-0.2c-0.1,0-0.1,0.1-0.2,0.2
								c-0.1,0.2,0,0.4,0.1,0.5c0.1,0.1,0.3,0.1,0.5,0C37.3,12.4,37.4,12.2,37.3,12.1z"/>
						</g>
						<g>
							<path class="st15" d="M37.3,11.1c0.2-0.1,0.4,0,0.5,0.2c0,0.1,0.1,0.3,0,0.4c0,0,0,0,0,0c0,0,0,0.1,0,0.1c0,0,0,0.1,0.1,0.1
								c0.1,0,0.2,0,0.2,0c0.2-0.4,0.1-0.9-0.3-1.1c-0.1,0-0.2,0-0.2,0c-0.1,0-0.3,0-0.3,0.1c-0.1,0-0.1,0.1,0,0.2
								c0,0,0.1,0.1,0.1,0.1C37.3,11.1,37.3,11.1,37.3,11.1C37.3,11.1,37.3,11.1,37.3,11.1z"/>
						</g>
					</g>
					<g>
						<path class="st6" d="M39.2,11.1c-0.4,0.3-0.5,0.9-0.2,1.3c-0.6,0.2-0.7,0.7-0.6,1.2c0.1,0.4,0.4,0.8,0.9,0.9
							c0.3,0.1,0.7,0.1,0.9-0.1c0.3,0.3,0.8,0.4,1.1,0.3c0.4-0.1,0.7-0.5,0.7-1c0.3,0,0.9-0.2,1.1-0.9c0-0.2,0-0.5-0.2-0.6
							c-0.2-0.2-0.4-0.2-0.7-0.2c0.2-0.3,0.2-0.7,0-1c-0.8-0.9-1.7,0-1.7,0s-0.3-0.2-0.8-0.1C39.5,10.9,39.3,11,39.2,11.1z"/>
						<path class="st16" d="M41.5,12.6c-0.1-0.2-0.2-0.3-0.4-0.3c-0.2,0-0.5,0.2-0.4,0.5c0,0.1,0.1,0.3,0.2,0.3
							c0.2,0.1,0.5,0,0.6-0.2C41.5,12.9,41.5,12.7,41.5,12.6z"/>
						<g>
							<path class="st16" d="M41.7,11.6c-0.1-0.2-0.3-0.3-0.5-0.3c-0.2,0-0.4,0.1-0.6,0.2c0,0-0.1,0.1-0.1,0.1
								c-0.2-0.1-0.5,0-0.7,0.1c-0.2,0.1-0.4,0.4-0.3,0.7c0,0.1,0,0.2,0.1,0.2c0.1,0.1,0.1,0.2,0.2,0.2c0.1,0,0.1,0,0.2-0.1
								c0-0.1,0-0.1,0-0.2c-0.1-0.1-0.1-0.1-0.1-0.2c0-0.1,0-0.2,0.1-0.3c0.1-0.1,0.2-0.1,0.3-0.2c0.1,0,0.3,0,0.4,0.1
								c0.1,0.1,0.2,0,0.2-0.1c0-0.1,0.1-0.3,0.3-0.3c0.1,0,0.1,0,0.2,0c0.1,0,0.1,0.1,0.1,0.1c0,0.1,0.1,0.1,0.2,0.1
								C41.7,11.8,41.8,11.7,41.7,11.6z"/>
						</g>
						<g>
							<path class="st16" d="M40.6,13.9c0.2,0.1,0.3,0.2,0.6,0.2c0.2,0,0.4-0.1,0.4-0.4c0-0.1,0-0.1-0.1-0.2c0,0-0.1,0-0.1,0
								c0,0-0.1,0.1-0.1,0.1c-0.1,0.1-0.2,0.1-0.3,0.1c-0.1,0-0.2-0.1-0.2-0.1c-0.1,0-0.1-0.1-0.2,0C40.6,13.7,40.6,13.8,40.6,13.9z
								"/>
						</g>
					</g>
				</g>
			</g>
		</g>
		<g>
			<g>
				<path class="st17" d="M15,29.9c0.1,0,0.3-0.1,0.3-0.3c0-0.2-0.1-0.3-0.3-0.3c-0.1,0-0.3,0.1-0.3,0.3
					C14.7,29.8,14.8,29.9,15,29.9L15,29.9z"/>
			</g>
			<g>
				<path class="st17" d="M15.6,27.9c0.1,0,0.2,0,0.3-0.1c0.2-0.2,0.1-0.7-0.3-0.7c-0.2,0-0.3,0.1-0.4,0.3c0,0.1,0,0.3,0.1,0.4
					C15.4,27.9,15.5,27.9,15.6,27.9z"/>
			</g>
			<g>
				<path class="st17" d="M17.3,28.8c0.2,0,0.3-0.1,0.3-0.3c0-0.1,0-0.3-0.1-0.4C17.4,28,17.2,28,17.1,28c-0.2,0.1-0.3,0.3-0.3,0.4
					C16.9,28.7,17.1,28.8,17.3,28.8z"/>
			</g>
			<g>
				<path class="st17" d="M18.1,26.8c0.1,0,0.2,0,0.3-0.1c0.1-0.1,0.2-0.4,0-0.6C18.3,26,18.3,26,18.1,26c-0.1,0-0.3,0.1-0.4,0.2
					c-0.1,0.1,0,0.3,0.1,0.5C17.9,26.7,18,26.8,18.1,26.8z"/>
			</g>
			<g>
				<path class="st17" d="M18.3,30.7c0.1,0,0.2-0.1,0.2-0.2c0-0.1-0.1-0.2-0.2-0.2c-0.1,0-0.2,0.1-0.2,0.2
					C18.1,30.6,18.2,30.7,18.3,30.7L18.3,30.7z"/>
			</g>
			<g>
				<path class="st17" d="M19.3,28.5c0.5,0,0.5-0.8,0-0.8c-0.1,0-0.2,0-0.3,0.1c-0.1,0.1-0.2,0.4,0,0.6
					C19.1,28.5,19.2,28.5,19.3,28.5z"/>
			</g>
			<g>
				<path class="st17" d="M16.2,31.5c0.1,0,0.2,0,0.2-0.1c0.2-0.1,0.2-0.4,0.1-0.6c-0.1-0.1-0.2-0.1-0.3-0.1c-0.2,0-0.3,0.1-0.4,0.3
					c0,0.2,0,0.3,0.2,0.4C16.1,31.5,16.2,31.5,16.2,31.5z"/>
			</g>
		</g>
	</g>
	<path class="st5" d="M42.9,19.4c-0.2-0.1-0.4-0.1-0.6-0.1c-0.2,0.1-0.4,0.2-0.4,0.4c-0.1,0.3,0.1,0.6,0.4,0.6
		c0.3,0,0.6-0.1,0.8-0.3C43.2,19.7,43.1,19.5,42.9,19.4z"/>
</g>
</svg>
