<?xml version="1.0" encoding="utf-8"?>
<!-- Generator: Adobe Illustrator 27.5.0, SVG Export Plug-In . SVG Version: 6.00 Build 0)  -->
<svg version="1.1" id="Layer_1" xmlns="http://www.w3.org/2000/svg" xmlns:xlink="http://www.w3.org/1999/xlink" x="0px" y="0px"
	 viewBox="0 0 56.7 56.7" style="enable-background:new 0 0 56.7 56.7;" xml:space="preserve">
<style type="text/css">
	.st0{fill:#6E3B1A;}
	.st1{fill:#9E6644;}
	.st2{fill:#854C27;}
	.st3{fill:#BF815A;}
	.st4{fill:#1E0F00;}
	.st5{opacity:0.2;fill:#1E0F00;}
	.st6{fill:#633518;}
	.st7{fill:#8F5632;}
	.st8{fill:#FFE9C7;}
	.st9{fill:#D9B48B;}
	.st10{fill:#D48F64;}
</style>
<g>
	<g>
		<polygon class="st0" points="21.8,50.4 24.6,50.4 24.8,47.5 21.6,47.5 		"/>
		<polygon class="st1" points="20.8,31.6 21.6,47.5 24.8,47.5 25.7,31.6 		"/>
	</g>
	<g>
		<polygon class="st0" points="35.6,50.2 37.9,50 37.9,47.1 35.1,47.4 		"/>
		<polygon class="st1" points="33.4,28.8 35.1,47.4 37.9,47.1 36.8,26.9 		"/>
	</g>
	<g>
		<path class="st2" d="M16.4,47.4c0,1.8,0,2.9,0,2.9l2.8,0.5l0.5-2.8L16.4,47.4z"/>
		<path class="st3" d="M22.3,30.4l-6.2-1.7c0,0.1,0.2,12.9,0.3,18.7l3.3,0.6L22.3,30.4z"/>
	</g>
	<g>
		<polygon class="st3" points="34.9,27.1 29.7,28.5 30.5,47.4 33.4,47.6 		"/>
		<polygon class="st2" points="30.5,47.4 30.6,50.3 33.2,50.4 33.4,47.6 		"/>
	</g>
	<g>
		<path class="st1" d="M14.9,24.7c-0.4-0.1-0.8-0.3-1.1-0.4c-1.3-0.6-2.5-1.5-3.3-2.8c1-0.1,2.1-0.2,3,0.1c1,0.3,1.9,0.9,2.3,1.9
			c0.1,0.4,0.2,1-0.3,1.2C15.4,24.8,15.1,24.8,14.9,24.7z"/>
		<path class="st3" d="M38.9,23.7C38.9,23.7,38.9,23.7,38.9,23.7c0,0.1-0.1,0.2-0.1,0.3v0c-0.1,0.2-0.2,0.4-0.4,0.6
			c-0.1,0.2-1.7,4.5-4.4,6.5c-4.8,3.5-10.5,3.4-13.9,2.6c-2.4-0.5-5.5-3.3-5-8.3c0.6-5.8,9.2-6.9,13.2-7l0.2,0l0.4,0h0
			c0.1,0,0.2,0,0.3,0c0.7,0,1,0,1,0l9.8,1.4C40.1,19.7,40.1,21.4,38.9,23.7z"/>
		<g>
			<polygon class="st4" points="29.2,18 29.2,18 29.2,18 			"/>
			<path class="st5" d="M38.9,23.7c0,0.1-0.1,0.2-0.1,0.3v0c-0.1,0.2-0.2,0.4-0.4,0.6c-1.6,0.6-4.6,1-7.2-1.1
				c-0.7-0.6-2.7-2-2.8-5.2l0.4,0h0c0.1,0,0.2,0,0.3,0c0,0,0,0.1,0,0.1c0.1,0.6,0.4,1.1,0.6,1.6c0.4,1.1,1.2,2.2,2.2,2.9
				c0,0,0,0,0,0c0.5,0.4,1,0.7,1.6,0.9c1.1,0.4,2.2,0.6,3.3,0.4c0.6-0.1,1.3-0.3,1.9-0.5C38.8,23.8,38.9,23.8,38.9,23.7z"/>
		</g>
		<g>
			<path class="st6" d="M29.8,15.1c-0.3-0.2-0.7-0.5-1-0.7c-0.2-0.1-0.3-0.2-0.5-0.3c0,0,0,0,0,0c-0.3-0.6-0.6-1.2-0.9-1.8
				c-0.1-0.1-0.1-0.3-0.2-0.3c-0.1-0.1-0.2-0.1-0.4,0c-0.1,0.1-0.2,0.2-0.2,0.3c0,0.4,0.4,0.8,0.6,1.1c0.1,0.1,0.1,0.2,0.2,0.3
				c-0.6-0.3-1.3-0.6-1.9-0.9c-0.4-0.2-0.9-0.4-1.4-0.5c-0.1,0-0.2,0-0.3,0.1c-0.1,0.1-0.1,0.1-0.2,0.2c-0.1,0.2,0,0.4,0.2,0.5
				c0.4,0.2,0.7,0.3,1.1,0.5c0.3,0.1,0.5,0.2,0.8,0.3c-0.1,0-0.1,0-0.2,0.1c-0.1,0.1-0.3,0.1-0.4,0.2c-0.3,0.1-0.8,0.4-0.6,0.7
				c0.1,0.2,0.3,0.2,0.4,0.2c0.3-0.1,0.6-0.3,0.8-0.4c0.1-0.1,0.2-0.2,0.4-0.2c0.1,0,0.1-0.1,0.2-0.1c0,0,0,0,0,0
				c0.6,0.3,1.2,0.5,1.8,0.8c0.4,0.2,0.8,0.4,1.2,0.6c0.1,0,0.2,0,0.3-0.1C29.9,15.3,29.9,15.1,29.8,15.1z"/>
			<path class="st6" d="M33.5,9c-0.1-0.1-0.2-0.1-0.3-0.1c-0.2,0-0.3,0.1-0.4,0.3c0.1-0.1,0-2.3-0.1-2.7c0-0.1,0-0.2-0.1-0.3
				c-0.1-0.1-0.2-0.2-0.3-0.2c-0.1,0-0.3,0.1-0.4,0.2c-0.2,0.2-0.1,0.6-0.1,0.8C31.9,7.1,32,8,32,8c0,0-0.1-0.1-0.1-0.1
				c-0.1-0.1-0.2-0.2-0.3-0.3c-0.1-0.1-0.2-0.3-0.4-0.4c-0.2-0.1-0.4-0.1-0.5,0c-0.1,0.1-0.1,0.1-0.1,0.2c0,0.1,0,0.2,0.1,0.3
				c0.1,0.1,0.2,0.3,0.4,0.4c0.1,0.1,0.9,0.7,1,0.7c0,0,0,0,0,0c0.1,0.7,0.1,1.4,0.2,2c0,0.4,0.1,0.9,0.1,1.3c0,0.1,0.1,0.2,0.3,0.2
				c0.1,0,0.2-0.1,0.2-0.3c0-0.7,0-1.4,0-2.1c0,0,0,0,0,0c0.1-0.1,0.2-0.1,0.3-0.2c0.1-0.1,0.3-0.2,0.4-0.3c0-0.1,0-0.1,0-0.2
				C33.6,9.1,33.6,9.1,33.5,9z"/>
			<path class="st7" d="M29.8,16.1c0-0.2-3.8-1-4.8,0.2c-0.4,0.4-0.4,1.2,0.1,1.5c1,0.6,3.5-0.5,4.3-1L29.8,16.1z"/>
			<path class="st7" d="M33.7,11.8c-0.2,0-0.2-4,1.1-4.7C35.4,6.9,36,7,36.3,7.6c0.4,1.1-1.2,3.4-1.8,4L33.7,11.8z"/>
			<g>
				<g>
					<path class="st3" d="M44.5,19.5c-1.5,2.7-4.1,4.8-7.4,5.2c-3.3,0.4-6.6-1.3-7.7-4.5c-0.4-1-0.5-2.2-0.4-3.3
						c0.1-1.1,0.5-2.1,1.2-3c0.9-1.1,2.1-2,3.5-2.4c0.7-0.2,1.3-0.3,2-0.3c1.2,0.1,2.6,0.7,3.7,1.1c0.1,0,0.2,0.1,0.2,0.1
						c0.1,0,0.1,0,0.2,0.1c0.1,0,0.2,0.1,0.2,0.1c0.2,0.1,0.3,0.1,0.5,0.1c0.7,0.2,1.4,0.4,2,0.5c-0.3,0.2-0.5,0.3-0.8,0.5
						c-0.5,0.4-0.9,0.9-1.2,1.4c-0.6,0.9-0.7,2-0.3,3.1c0.6,1.4,2.1,2.3,3.6,1.8C43.9,19.9,44.2,19.7,44.5,19.5z"/>
				</g>
				<path class="st8" d="M43.2,13.7l-0.7,1.3c-0.7,0-1.4,0-2.1,0c-1.4,0-2.7,0-4.1,0c-1.5,0-3,0.2-4.4,0.6c-1,0.3-2,0.7-2.9,1.2
					c0.1-1.1,0.5-2.1,1.2-3c0.9-1.1,2.1-2,3.5-2.4c0.8,0.2,1.6,0.4,2.1,0.6c2,0.7,3.8,1.5,5.9,1.6c0,0,0,0,0,0
					C42.1,13.6,42.6,13.7,43.2,13.7z"/>
				<g>
					<g>
						<path class="st6" d="M35.8,17.7c0.3,0.1,0.7,0.1,1.1,0c0.2-0.1,0.4-0.2,0.6-0.5c0.2-0.4,0.2-0.9-0.1-1.3
							c-0.1-0.1-0.2-0.2-0.2-0.3c-0.1-0.1-0.3-0.2-0.4-0.2c-0.1,0-0.3,0-0.4,0.2c-0.1,0.1,0,0.3,0.1,0.4c0,0,0,0,0,0
							c0.3,0.2,0.5,0.4,0.5,0.7c0,0.6-0.6,0.7-1.1,0.7c-0.1,0-0.2,0.1-0.2,0.2C35.7,17.5,35.7,17.7,35.8,17.7z"/>
					</g>
					<g>
						<path class="st6" d="M37.5,17.6c-0.1-0.1-0.2-0.2-0.3-0.3c-0.1-0.1-0.2-0.2-0.3-0.2c-0.1,0-0.2,0.1-0.3,0.2
							c0,0.1,0,0.3,0.1,0.3c0,0,0,0,0,0c0.1,0.1,0.3,0.2,0.5,0.3c0.1,0.1,0.2,0,0.3-0.1c0,0,0-0.1,0-0.1
							C37.6,17.7,37.6,17.7,37.5,17.6z"/>
					</g>
					<g>
						<path class="st6" d="M37.9,16.6c0,0-0.1,0-0.1,0C37.8,16.6,37.8,16.6,37.9,16.6c-0.2,0-0.4-0.1-0.5-0.1
							c-0.1,0-0.2,0.2-0.2,0.3c0,0.1,0.1,0.2,0.1,0.2c0.1,0.1,0.2,0.1,0.4,0.1c0.1,0,0.2,0,0.3,0c0.2,0,0.3-0.3,0.1-0.4
							C38.1,16.6,38,16.6,37.9,16.6z"/>
					</g>
					<g>
						<path class="st6" d="M37.8,15.5c-0.2,0-0.3,0.2-0.4,0.3c0,0-0.1,0.1-0.1,0.1c-0.1,0.1,0,0.3,0.1,0.4c0.1,0.1,0.3,0.1,0.4,0
							c0.1-0.1,0.2-0.2,0.3-0.3c0,0,0,0,0,0c0.1-0.1,0.3-0.2,0.1-0.4c0-0.1-0.1-0.1-0.2-0.1C37.9,15.5,37.8,15.5,37.8,15.5z"/>
					</g>
				</g>
				<g>
					<g>
						<path class="st6" d="M39.9,12.4c0,0.1,0,0.2-0.1,0.3c0,0,0,0,0,0c0,0,0,0.1-0.1,0.1c0,0,0,0.1-0.1,0.1
							c-0.1,0.1-0.2,0.2-0.3,0.2c0,0-0.1,0-0.2,0c-0.1,0-0.2,0-0.3,0c0,0-0.1,0-0.1,0c-0.1,0-0.1,0-0.2-0.1c-0.1,0-0.2-0.1-0.3-0.2
							c-0.1-0.1-0.1-0.2,0-0.3c0.1-0.1,0.2-0.1,0.3,0c0.2,0.1,0.4,0.2,0.6,0.1c0.2-0.1,0.3-0.2,0.3-0.4
							C39.7,12.3,39.9,12.4,39.9,12.4z"/>
					</g>
					<g>
						<path class="st6" d="M40.4,12.6C40.4,12.6,40.4,12.6,40.4,12.6c0,0,0,0.1-0.1,0.1c0,0-0.1,0-0.1,0c-0.1,0-0.2,0-0.3,0
							c0,0,0,0-0.1,0c0,0,0,0,0,0c-0.1,0-0.1,0-0.2-0.1c0-0.1-0.1-0.3-0.1-0.3S39.9,12.3,40.4,12.6z"/>
					</g>
					<g>
						<path class="st6" d="M39.5,13.3C39.5,13.2,39.5,13.2,39.5,13.3C39.5,13.2,39.5,13.2,39.5,13.3c-0.1-0.1-0.2-0.2-0.2-0.3
							c0-0.1,0-0.2,0.1-0.2c0.1,0,0.1,0,0.2,0c0.1,0.1,0.1,0.1,0.2,0.2c0,0.1,0.1,0.1,0.1,0.2C39.9,13.3,39.7,13.4,39.5,13.3
							C39.6,13.4,39.5,13.3,39.5,13.3z"/>
					</g>
					<g>
						<path class="st6" d="M38.8,13.5c0-0.1,0-0.3,0-0.3c0,0,0-0.1,0-0.1c0.1-0.1,0.2-0.1,0.2-0.1c0.1,0,0.1,0.2,0.1,0.3
							c0,0.1,0,0.2-0.1,0.3c0,0,0,0,0,0c0,0.1-0.1,0.2-0.2,0.2c0,0-0.1,0-0.1-0.1C38.8,13.6,38.8,13.5,38.8,13.5z"/>
					</g>
				</g>
				<path class="st9" d="M45.4,13.5c-0.6-0.2-1.6-0.2-3-0.4c-1.8,1-3.2,3.1-2.3,5.1c0.6,1.4,2.1,2.3,3.6,1.8
					c0.3-0.1,0.6-0.3,0.8-0.5c0.8-1.5,1.3-3.3,1.3-5.1C45.8,14,45.7,13.6,45.4,13.5z"/>
				<g>
					<path class="st6" d="M43.3,16.6c0.3,0.5,1.2,0.7,1.6,0.2c0.2-0.3,0.3-0.7,0.2-1c0-0.1-0.2-0.2-0.3-0.2c-0.1,0-0.3,0.1-0.3,0.2
						c0,0.1,0,0.3-0.1,0.5c-0.1,0.2-0.2,0.3-0.4,0.3c-0.2,0-0.3-0.1-0.4-0.2c-0.1-0.1-0.2-0.2-0.3-0.1
						C43.3,16.4,43.3,16.5,43.3,16.6z"/>
				</g>
				<path class="st6" d="M43.4,14.6C43.4,14.6,43.4,14.6,43.4,14.6c0.2,0.9,1.3,1.2,2,0.7c0.6-0.4,1-1.3,0.6-2
					c-0.3-0.4-0.9-0.6-1.4-0.5C43.9,13,43.2,13.8,43.4,14.6z"/>
				<g>
					<g>
						<path class="st9" d="M30.8,15.1c0.3,0,0.5,0,0.8-0.1c0.1,0,0.2-0.1,0.1-0.3c0-0.1-0.1-0.2-0.3-0.1c-0.1,0-0.2,0-0.3,0.1
							c0,0,0,0,0.1,0c-0.1,0-0.3,0-0.4,0c-0.1,0-0.2,0.1-0.2,0.2C30.6,15,30.7,15.1,30.8,15.1L30.8,15.1z"/>
					</g>
					<g>
						<path class="st9" d="M32,14c0.2,0,0.4,0.1,0.6,0.1c0.1,0,0.2-0.1,0.2-0.2c0-0.1,0-0.2-0.1-0.2c-0.2,0-0.4-0.1-0.6-0.1
							c0,0-0.1,0-0.1,0c0,0,0,0-0.1,0c-0.1,0-0.1,0.1-0.1,0.2c0,0.1,0,0.1,0,0.2c0,0,0,0,0.1,0.1C31.9,14,32,14,32,14L32,14z"/>
					</g>
					<g>
						<path class="st9" d="M32.9,13c0.1,0.1,0.3,0.1,0.4,0.2c0.1,0,0.3,0.1,0.4,0.1c0,0,0.1,0,0.1-0.1c0,0,0-0.1,0.1-0.1
							c0-0.1,0-0.2-0.1-0.2c-0.1,0-0.2-0.1-0.4-0.1c-0.1,0-0.1,0-0.2-0.1c0,0-0.1,0-0.1,0c0,0,0,0,0,0c0.1,0,0,0,0,0
							c-0.1,0-0.1,0-0.2,0c0,0-0.1,0.1-0.1,0.1c0,0,0,0.1,0,0.2C32.9,12.9,32.9,13,32.9,13L32.9,13z"/>
					</g>
					<g>
						<path class="st9" d="M34.7,12.6c0.1,0.1,0.1,0.1,0.2,0.2c0,0,0.1,0,0.1,0.1c0,0,0.1,0,0.1,0.1c0.1,0.1,0.2,0,0.3-0.1
							c0,0,0-0.1,0-0.1c0-0.1,0-0.1-0.1-0.1c0,0-0.1-0.1-0.1-0.1c0,0-0.1-0.1-0.1-0.1c-0.1-0.1-0.1-0.1-0.2-0.2c0,0-0.1,0-0.2,0
							c-0.1,0-0.1,0.1-0.1,0.1c0,0.1,0,0.1,0,0.2C34.6,12.5,34.6,12.5,34.7,12.6C34.6,12.6,34.6,12.6,34.7,12.6L34.7,12.6z"/>
					</g>
					<g>
						<path class="st9" d="M34.5,13.9c0.2,0,0.4,0,0.6,0c0.1,0,0.2-0.1,0.2-0.2c0-0.1,0-0.1-0.1-0.1c0,0-0.1-0.1-0.1-0.1
							c-0.2,0-0.4,0-0.6,0c-0.1,0-0.2,0.1-0.2,0.2C34.3,13.8,34.4,13.9,34.5,13.9L34.5,13.9z"/>
					</g>
					<g>
						<path class="st9" d="M33.5,14.9C33.5,14.9,33.5,14.9,33.5,14.9C33.5,14.9,33.5,14.9,33.5,14.9c0.1,0,0.2-0.1,0.3-0.1
							c-0.1,0,0.1,0,0.1,0c0.1,0,0.1,0,0.2-0.1c0,0,0.1-0.1,0.1-0.2c0-0.3-0.4-0.2-0.5-0.2c-0.1,0-0.2,0.1-0.3,0.1
							c0,0-0.1,0.1-0.1,0.1c0,0.1,0,0.1,0,0.2c0,0,0.1,0.1,0.1,0.1c0,0,0,0,0.1,0C33.4,15,33.5,15,33.5,14.9z"/>
					</g>
					<g>
						<path class="st9" d="M36.2,13.4c0.2,0.1,0.4,0.1,0.5,0.2c0.1,0,0.1,0,0.2,0c0,0,0.1-0.1,0.1-0.1c0-0.1,0-0.2-0.2-0.3
							c-0.2-0.1-0.4-0.1-0.5-0.2c-0.1,0-0.1,0-0.2,0c0,0-0.1,0.1-0.1,0.1C36,13.2,36,13.4,36.2,13.4L36.2,13.4z"/>
					</g>
					<g>
						<path class="st9" d="M36.1,14.5c0.2,0,0.3,0,0.5,0c0.1,0,0.1,0,0.1-0.1c0,0,0.1-0.1,0.1-0.1c0-0.1-0.1-0.2-0.2-0.2
							c-0.2,0-0.3,0-0.5,0c-0.1,0-0.1,0-0.1,0.1c0,0-0.1,0.1-0.1,0.1C35.9,14.4,36,14.5,36.1,14.5L36.1,14.5z"/>
					</g>
					<g>
						<path class="st9" d="M37.9,14.2c0.1,0,0.3,0.1,0.4,0.1c0.1,0,0.1,0,0.2,0c0,0,0.1-0.1,0.1-0.1c0-0.1,0-0.2-0.1-0.3
							c-0.1,0-0.3-0.1-0.4-0.1c-0.1,0-0.1,0-0.2,0c0,0-0.1,0.1-0.1,0.1c0,0.1,0,0.1,0,0.2C37.8,14.2,37.9,14.2,37.9,14.2L37.9,14.2z
							"/>
					</g>
					<g>
						<path class="st9" d="M40.1,14.2C40.1,14.2,40.1,14.2,40.1,14.2C40.1,14.2,40.1,14.2,40.1,14.2c0,0,0.1,0,0.2,0c0,0,0,0-0.1,0
							c0.1,0,0.1,0,0.2,0c0.1,0,0.1,0,0.2,0c0,0,0.1-0.1,0.1-0.1c0-0.1,0-0.1,0-0.2c0,0-0.1-0.1-0.1-0.1c-0.1,0-0.2,0-0.2,0
							c-0.1,0-0.2,0-0.3,0c-0.1,0-0.1,0.1-0.1,0.1c0,0,0,0.1,0,0.2c0,0.1,0.1,0.1,0.1,0.1c0,0,0,0,0.1,0
							C40,14.2,40.1,14.2,40.1,14.2L40.1,14.2z"/>
					</g>
					<g>
						<path class="st9" d="M39.6,14.8c0.1,0,0.2,0,0.3,0c0.1,0,0.1,0,0.1-0.1c0,0,0,0,0-0.1c0,0,0,0,0-0.1c0-0.1,0-0.1-0.1-0.1
							c0,0,0,0,0,0c0,0-0.1,0-0.1,0c-0.1,0-0.2,0-0.3,0c-0.1,0-0.1,0-0.1,0.1c0,0,0,0,0,0.1c0,0,0,0.1,0,0.1c0,0.1,0,0.1,0.1,0.1
							C39.5,14.8,39.5,14.8,39.6,14.8L39.6,14.8z"/>
					</g>
				</g>
			</g>
		</g>
	</g>
	<g>
		<g>
			<path class="st10" d="M18.2,25.4c0.2,0,0.4-0.2,0.4-0.4c0-0.2-0.2-0.4-0.4-0.4c-0.2,0-0.4,0.2-0.4,0.4
				C17.8,25.2,18,25.4,18.2,25.4L18.2,25.4z"/>
		</g>
		<g>
			<path class="st10" d="M18,28.5c0.3,0,0.5-0.2,0.5-0.5c0-0.3-0.2-0.5-0.5-0.5c-0.3,0-0.5,0.2-0.5,0.5C17.5,28.3,17.7,28.5,18,28.5
				L18,28.5z"/>
		</g>
		<g>
			<path class="st10" d="M20.7,26.3c0.3,0,0.5-0.2,0.5-0.5c0-0.3-0.2-0.5-0.5-0.5c-0.3,0-0.5,0.2-0.5,0.5
				C20.2,26.1,20.4,26.3,20.7,26.3L20.7,26.3z"/>
		</g>
		<g>
			<path class="st10" d="M20.7,23.1c0.3,0,0.5-0.2,0.5-0.5c0-0.3-0.2-0.5-0.5-0.5c-0.3,0-0.5,0.2-0.5,0.5
				C20.2,22.9,20.4,23.1,20.7,23.1L20.7,23.1z"/>
		</g>
		<g>
			<path class="st10" d="M21.9,29.1c0.2,0,0.4-0.2,0.4-0.4c0-0.2-0.2-0.4-0.4-0.4c-0.2,0-0.4,0.2-0.4,0.4
				C21.5,28.9,21.6,29.1,21.9,29.1L21.9,29.1z"/>
		</g>
		<g>
			<path class="st10" d="M23.2,25.2c0.3,0,0.5-0.2,0.5-0.5c0-0.3-0.2-0.5-0.5-0.5c-0.3,0-0.5,0.2-0.5,0.5
				C22.7,24.9,23,25.2,23.2,25.2L23.2,25.2z"/>
		</g>
	</g>
</g>
</svg>
