<?xml version="1.0" encoding="utf-8"?>
<!-- Generator: Adobe Illustrator 27.5.0, SVG Export Plug-In . SVG Version: 6.00 Build 0)  -->
<svg version="1.1" id="Layer_1" xmlns="http://www.w3.org/2000/svg" xmlns:xlink="http://www.w3.org/1999/xlink" x="0px" y="0px"
	 viewBox="0 0 56.7 56.7" style="enable-background:new 0 0 56.7 56.7;" xml:space="preserve">
<style type="text/css">
	.st0{fill:#E59349;}
	.st1{fill:#8F5632;}
	.st2{fill:#6E3B1A;}
	.st3{fill:#B36C3F;}
	.st4{fill:#FFE9C7;}
	.st5{fill:#D9B48B;}
	.st6{opacity:0.3;}
	.st7{fill:#1E0F00;}
	.st8{fill:#E6CD6C;}
	.st9{fill:#BF815A;}
	.st10{fill:#6FB082;}
	.st11{fill:#8FC79E;}
	.st12{fill:#CC7E37;}
	.st13{fill:#EAB4A8;}
	.st14{fill:#D4998C;}
	.st15{fill:#FFCB4C;}
	.st16{fill:#E8B538;}
</style>
<g>
	<g>
		<g>
			<g>
				<g>
					<g>
						<path class="st0" d="M27,48.4c-0.2-0.6-0.6-1.1-1.2-1.1c-0.4,0-0.7,0.2-0.9,0.4c-0.2,0.2-0.5,0.3-0.7,0.6
							c-0.2,0.2-0.5,0.7-0.3,0.9c0,0,0.1,0,0.2,0c0.2,0,0.4-0.1,0.6-0.2c0.2-0.1,0.4-0.3,0.6-0.4c0,0-0.5,1.2,0.1,1.3
							c0.5,0.1,0.7-0.9,0.7-1.1c0,0.2,0.5,1.2,0.9,1c0.3-0.2,0.2-0.6,0.1-1C27.1,48.7,27.1,48.5,27,48.4z"/>
					</g>
					<g>
						<path class="st0" d="M30.7,48.3c0.2-0.6,0.5-1.2,1.2-1.2c0.4,0,0.7,0.1,1,0.3c0.2,0.2,0.5,0.3,0.7,0.5
							c0.2,0.2,0.6,0.6,0.3,0.9c0,0-0.1,0.1-0.2,0.1c-0.2,0-0.4-0.1-0.6-0.2c-0.2-0.1-0.4-0.2-0.6-0.4c0,0,0.6,1.2,0,1.3
							c-0.5,0.1-0.8-0.8-0.8-1.1c0,0.2-0.4,1.3-0.8,1c-0.3-0.2-0.2-0.6-0.2-1C30.6,48.5,30.7,48.4,30.7,48.3z"/>
					</g>
				</g>
				<g>
					<path class="st1" d="M20.2,40c-0.1,0.1-1.6,1-3.1,0.7c-0.9-0.2-1.6-1-1.8-1.4c0-0.1,0-0.1-0.1-0.2c0,0-0.1,0-0.3,0.1l0,0
						c-0.3,0-0.9,0-1.4-0.3c-0.4-0.2-0.7-0.7-0.7-1.2l0,0c0-0.1,0-0.2,0-0.3c-0.1,0-0.2,0.1-0.4,0.2c-0.4,0.1-0.9,0.1-1.3-0.2
						c-0.9-0.5-1-1.6-0.8-2.2c0-0.1,0.1-0.2,0.1-0.3c-0.1,0-0.3,0-0.4,0c-0.5,0-1.2-0.3-1.7-0.7c-0.7-0.6-1.3-2-1.4-2.9
						c8.2,0.4,11.6-2,14-3.6c0.1-0.1,0.3-0.2,0.4-0.3c0.2-0.1,0.3-0.2,0.5-0.4c0.2-0.1,0.3,0.2,0.5,0.8c0,0.2,0.1,0.4,0.1,0.6
						C22.9,31.1,22.7,36.8,20.2,40z"/>
					<g>
						<path class="st2" d="M14.6,33.2c-0.4,0.3-0.7,0.5-1.1,0.7c-0.7,0.4-1.4,0.7-2.1,1c-0.3,0.1-0.6,0.2-1,0.4
							c0-0.1-0.2-0.3-0.3-0.3c0.1,0,0.1,0,0.2-0.1c0.7-0.3,1.4-0.5,2.2-0.9c0,0,0,0,0,0c0,0,0,0,0,0c0,0,0,0,0,0c0,0,0,0,0,0
							c0,0,0,0,0,0c0,0,0,0,0,0c0,0,0,0,0,0c0,0,0,0,0,0c0,0,0,0,0.1,0c0,0,0.1,0,0.1-0.1c0.1,0,0.2-0.1,0.3-0.1
							c0.2-0.1,0.3-0.2,0.5-0.3c0.3-0.2,0.7-0.4,1-0.6c0.1,0,0.1,0,0.2,0C14.6,33.1,14.6,33.1,14.6,33.2z"/>
					</g>
					<g>
						<path class="st2" d="M15.7,35.1c-0.1,0.1-0.2,0.3-0.3,0.5c-0.1,0.1-0.2,0.3-0.4,0.4c-0.5,0.5-1,1-1.5,1.4
							c-0.2,0.1-0.4,0.3-0.6,0.4c0-0.1-0.2-0.2-0.4-0.2c0,0,0,0,0.1,0c0.3-0.2,0.5-0.4,0.8-0.6c0.1-0.1,0.3-0.2,0.4-0.3c0,0,0,0,0,0
							c0,0,0,0,0,0c0,0,0,0,0,0c0,0,0,0,0,0c0,0,0,0,0,0c0,0,0.1-0.1,0.1-0.1c0.1-0.1,0.1-0.1,0.2-0.2c0.2-0.2,0.5-0.4,0.7-0.7
							c0.1-0.1,0.2-0.2,0.3-0.4c0.1-0.1,0.2-0.2,0.3-0.4c0,0,0.1,0,0.1,0C15.7,34.9,15.7,35,15.7,35.1z"/>
					</g>
					<g>
						<path class="st2" d="M16.8,37.5c-0.1,0.2-0.3,0.5-0.4,0.7c-0.3,0.4-0.6,0.8-1,1.1c0,0,0,0-0.1,0c0-0.1-0.2-0.2-0.4-0.1
							c0,0,0,0,0,0c0,0,0,0,0.1-0.1c0,0,0,0,0,0c0,0,0,0,0,0c0,0,0,0,0,0l0,0c0,0,0,0,0,0c0,0,0,0,0,0c0,0,0,0,0,0l0,0c0,0,0,0,0,0
							c0,0,0,0,0,0c0,0,0.1-0.1,0.1-0.1c0.2-0.2,0.4-0.3,0.5-0.5c0.2-0.2,0.3-0.4,0.5-0.6c0,0,0.1-0.1,0.1-0.1c0,0,0,0,0.1-0.1
							c0,0,0,0,0,0l0,0c0,0,0,0,0,0c0,0,0,0,0,0c0,0,0,0,0,0c0.1-0.1,0.1-0.2,0.2-0.3c0-0.1,0.1-0.1,0.1,0
							C16.8,37.3,16.8,37.4,16.8,37.5z"/>
					</g>
				</g>
				<g>
					<path class="st1" d="M49.7,29.9c0,0.9-0.6,2.4-1.3,3c-0.5,0.4-1.1,0.8-1.9,0.8c-0.1,0-0.3,0-0.4,0c0,0.1,0.1,0.2,0.1,0.3
						c0.2,0.6,0.2,1.6-0.7,2.2c-0.4,0.3-0.9,0.3-1.3,0.2c-0.2,0-0.4-0.1-0.5-0.1c0,0.1,0.1,0.2,0.1,0.3l0,0c0,0.5-0.2,0.9-0.6,1.2
						c-0.5,0.4-1,0.4-1.4,0.4l0,0c-0.2,0-0.3,0-0.3,0c0,0.1,0,0.1,0,0.2c-0.2,0.5-0.8,1.3-1.7,1.5c-1.5,0.4-3-0.4-3.1-0.5
						c-2.7-3.1-3.3-8.8-3-11.4c0-0.2,0.1-0.5,0.1-0.6c0.1-0.5,0.2-0.8,0.4-0.7c0.1,0.1,0.3,0.2,0.4,0.3c0.2,0.1,0.3,0.2,0.5,0.3
						C37.7,28.7,42.9,30.6,49.7,29.9z"/>
					<g>
						<path class="st2" d="M42,32.2c0.4,0.2,0.8,0.5,1.1,0.6c0.7,0.3,1.4,0.6,2.2,0.9c0.3,0.1,0.6,0.2,1,0.3c0-0.1,0.2-0.3,0.3-0.3
							c-0.1,0-0.1,0-0.2,0c-0.7-0.2-1.5-0.4-2.2-0.7c0,0,0,0,0,0c0,0,0,0,0,0c0,0,0,0,0,0c0,0,0,0,0,0c0,0,0,0,0,0c0,0,0,0,0,0
							c0,0,0,0,0,0c0,0,0,0,0,0c0,0,0,0-0.1,0c0,0-0.1,0-0.1-0.1c-0.1,0-0.2-0.1-0.3-0.1c-0.2-0.1-0.4-0.2-0.5-0.2
							c-0.4-0.2-0.7-0.3-1.1-0.5c-0.1,0-0.1,0-0.2,0C41.9,32.1,41.9,32.2,42,32.2z"/>
					</g>
					<g>
						<path class="st2" d="M41,34.2c0.1,0.1,0.2,0.3,0.4,0.4c0.1,0.1,0.3,0.3,0.4,0.4c0.5,0.5,1,0.9,1.6,1.3
							c0.2,0.1,0.4,0.3,0.6,0.4c0-0.1,0.2-0.2,0.4-0.2c0,0,0,0-0.1,0c-0.3-0.2-0.6-0.4-0.9-0.5c-0.1-0.1-0.3-0.2-0.4-0.3
							c0,0,0,0,0,0c0,0,0,0,0,0c0,0,0,0,0,0c0,0,0,0,0,0c0,0,0,0,0,0c0,0-0.1,0-0.1-0.1c-0.1-0.1-0.1-0.1-0.2-0.2
							c-0.3-0.2-0.5-0.4-0.8-0.6c-0.1-0.1-0.2-0.2-0.4-0.3c-0.1-0.1-0.2-0.2-0.4-0.3c0,0-0.1,0-0.1,0C40.9,34.1,40.9,34.1,41,34.2z"
							/>
					</g>
					<g>
						<path class="st2" d="M40.1,36.7c0.1,0.2,0.3,0.4,0.5,0.7c0.3,0.4,0.7,0.8,1.1,1.1c0,0,0,0,0.1,0c0-0.1,0.2-0.2,0.3-0.2
							c0,0,0,0,0,0c0,0,0,0-0.1-0.1c0,0,0,0,0,0c0,0,0,0,0,0c0,0,0,0,0,0l0,0c0,0,0,0,0,0c0,0,0,0,0,0c0,0,0,0,0,0l0,0c0,0,0,0,0,0
							c0,0,0,0,0,0c0,0-0.1-0.1-0.1-0.1c-0.2-0.1-0.4-0.3-0.5-0.5c-0.2-0.2-0.3-0.3-0.5-0.5c0,0-0.1-0.1-0.1-0.1c0,0,0,0-0.1-0.1
							c0,0,0,0,0,0l0,0c0,0,0,0,0,0c0,0,0,0,0,0c0,0,0,0,0,0c-0.1-0.1-0.1-0.2-0.2-0.3c0,0-0.1-0.1-0.1,0C40,36.5,40,36.6,40.1,36.7
							z"/>
					</g>
				</g>
				<path class="st3" d="M37.5,43.2c-0.2,0.3-0.4,0.6-0.7,0.9c-0.1,0.1-0.2,0.2-0.2,0.3c-4.8,5.3-14,4.5-17.6-1.7
					c-1.2-2-1.6-4.4-1.3-6.7c0.9-7.3,5.9-9.6,5.9-9.6l8.9-0.3c0,0,5.2,1.9,6.5,9.1c0,0.3,0.1,0.5,0.1,0.8c0,0.3,0.1,0.5,0.1,0.8
					C39.3,39,38.7,41.3,37.5,43.2z"/>
				<path class="st4" d="M32.2,27.5c0,0,6.3,5.1,3.5,11.9c-1.1,2.7-3.8,5.1-6.8,5.2c-3.1,0.1-6.2-2-7.6-4.7C18,33.3,24,27.8,24,27.8
					L32.2,27.5z"/>
				<g>
					<g>
						<path class="st5" d="M23.7,31.1c0,0.1,0,0.2,0.1,0.4c0,0.1,0,0.3,0.1,0.4c0,0.1,0.1,0.1,0.1,0.1c0.1,0,0.1-0.1,0.1-0.1
							c0-0.1,0-0.3,0-0.4c0-0.1-0.1-0.3-0.1-0.4c0-0.1-0.1-0.1-0.1-0.1C23.7,31,23.6,31,23.7,31.1L23.7,31.1z"/>
					</g>
					<g>
						<path class="st5" d="M24.9,31.5c0,0.3,0,0.5,0.1,0.8c0,0.1,0.1,0.1,0.1,0.1c0.1,0,0.1-0.1,0.1-0.1c0-0.3,0-0.5-0.1-0.8
							c0-0.1-0.1-0.1-0.1-0.1C25,31.4,24.9,31.5,24.9,31.5L24.9,31.5z"/>
					</g>
					<g>
						<path class="st5" d="M26.2,30.8c0,0.2,0,0.5,0,0.7c0,0.1,0.2,0.1,0.2,0c0-0.2,0-0.5,0-0.7c0-0.1-0.1-0.1-0.1-0.1
							C26.2,30.7,26.2,30.8,26.2,30.8L26.2,30.8z"/>
					</g>
					<g>
						<path class="st5" d="M24.1,32.7c0,0.1,0,0.2,0,0.3c0,0.1,0,0.2,0.1,0.3c0,0.1,0.1,0.1,0.1,0.1c0.1,0,0.1-0.1,0.1-0.1
							c0-0.1,0-0.2,0-0.3c0,0,0,0,0-0.1c0,0,0,0,0,0c0,0,0,0,0,0c0,0,0-0.1,0-0.1c0-0.1,0-0.1-0.1-0.1
							C24.1,32.6,24.1,32.6,24.1,32.7L24.1,32.7z"/>
					</g>
					<g>
						<path class="st5" d="M22.8,31.8c0,0.2,0,0.4,0,0.6c0,0.1,0.1,0.1,0.1,0.1c0.1,0,0.1-0.1,0.1-0.1c0-0.2,0-0.4,0-0.6
							c0-0.1-0.1-0.1-0.1-0.1C22.8,31.7,22.8,31.7,22.8,31.8L22.8,31.8z"/>
					</g>
					<g>
						<path class="st5" d="M23.3,33.7c0,0.2,0,0.4,0,0.6c0,0.1,0.1,0.1,0.1,0.1c0.1,0,0.1-0.1,0.1-0.1c0-0.2,0-0.4,0-0.6
							c0-0.1-0.1-0.1-0.1-0.1C23.4,33.6,23.3,33.6,23.3,33.7L23.3,33.7z"/>
					</g>
					<g>
						<path class="st5" d="M22.1,32.8c0,0.2,0,0.3,0,0.5c0,0.1,0.1,0.1,0.1,0.1c0.1,0,0.1-0.1,0.1-0.1c0-0.2,0-0.3,0-0.5
							c0-0.1-0.1-0.1-0.1-0.1C22.1,32.6,22.1,32.7,22.1,32.8L22.1,32.8z"/>
					</g>
					<g>
						<path class="st5" d="M22.8,34.4c0,0.2,0,0.5,0,0.7c0,0.1,0.1,0.1,0.1,0.1c0.1,0,0.1-0.1,0.1-0.1c0-0.2,0-0.5,0-0.7
							c0-0.1-0.1-0.1-0.1-0.1C22.9,34.3,22.8,34.4,22.8,34.4L22.8,34.4z"/>
					</g>
					<g>
						<path class="st5" d="M21.9,34.4c0,0.3,0,0.6,0,0.8c0,0.1,0.1,0.1,0.1,0.1c0.1,0,0.1-0.1,0.1-0.1c0-0.3,0-0.5,0-0.8
							c0-0.1-0.1-0.1-0.1-0.1C22,34.3,21.9,34.3,21.9,34.4L21.9,34.4z"/>
					</g>
					<g>
						<path class="st5" d="M24.8,34.1c0,0.1,0.1,0.3,0.1,0.4c0,0.1,0.1,0.1,0.2,0.1c0.1,0,0.1-0.1,0.1-0.2c0-0.1-0.1-0.3-0.1-0.4
							c0-0.1-0.1-0.1-0.2-0.1C24.8,34,24.8,34.1,24.8,34.1L24.8,34.1z"/>
					</g>
					<g>
						<path class="st5" d="M26,32.8c0,0.2,0,0.5,0.1,0.7c0,0.1,0.1,0.1,0.1,0.1c0.1,0,0.1-0.1,0.1-0.1c0-0.2,0-0.5-0.1-0.7
							c0-0.1-0.1-0.1-0.1-0.1C26,32.7,26,32.7,26,32.8L26,32.8z"/>
					</g>
					<g>
						<path class="st5" d="M27.7,33c0,0.3,0,0.5,0,0.8c0,0.1,0.2,0.1,0.2,0c0-0.3,0-0.6,0-0.8c0-0.1-0.1-0.1-0.1-0.1
							C27.7,32.9,27.7,32.9,27.7,33L27.7,33z"/>
					</g>
					<g>
						<path class="st5" d="M26.9,34.4c0,0.2,0,0.4,0,0.6c0,0.1,0.1,0.1,0.1,0.1c0.1,0,0.1-0.1,0.1-0.1c0-0.2,0-0.4,0-0.6
							c0-0.1-0.1-0.1-0.1-0.1C27,34.3,26.9,34.3,26.9,34.4L26.9,34.4z"/>
					</g>
					<g>
						<path class="st5" d="M26,34.8c0,0.2,0,0.5,0,0.7c0,0.1,0.1,0.1,0.1,0.1c0.1,0,0.1-0.1,0.1-0.1c0-0.2,0-0.5,0-0.7
							c0-0.1-0.1-0.1-0.1-0.1C26.1,34.7,26,34.7,26,34.8L26,34.8z"/>
					</g>
					<g>
						<path class="st5" d="M24.2,35.3c0,0.2,0,0.4,0,0.5c0,0.1,0.1,0.1,0.1,0.1c0.1,0,0.1-0.1,0.1-0.1c0-0.2,0-0.4-0.1-0.5
							c0-0.1-0.1-0.1-0.1-0.1C24.2,35.2,24.2,35.3,24.2,35.3L24.2,35.3z"/>
					</g>
					<g>
						<path class="st5" d="M25.4,35.9c0,0.2,0,0.4,0,0.6c0,0.1,0.1,0.1,0.1,0.1c0.1,0,0.1-0.1,0.1-0.1c0-0.2,0-0.4,0-0.6
							c0-0.1-0.1-0.1-0.1-0.1C25.4,35.8,25.4,35.8,25.4,35.9L25.4,35.9z"/>
					</g>
					<g>
						<path class="st5" d="M23.4,36c0,0.2,0,0.4,0,0.6c0,0.1,0.1,0.1,0.1,0.1c0.1,0,0.1-0.1,0.1-0.1c0-0.2,0-0.4,0-0.6
							c0-0.1-0.1-0.1-0.1-0.1C23.5,35.9,23.4,36,23.4,36L23.4,36z"/>
					</g>
					<g>
						<path class="st5" d="M22.3,36.3c0,0.2,0,0.4,0,0.6c0,0.1,0.1,0.1,0.1,0.1c0.1,0,0.1-0.1,0.1-0.1c0-0.2,0-0.4,0-0.6
							c0-0.1-0.1-0.1-0.1-0.1C22.3,36.1,22.3,36.2,22.3,36.3L22.3,36.3z"/>
					</g>
					<g>
						<path class="st5" d="M21,35.8c0,0.2,0,0.3,0,0.5c0,0.1,0.1,0.1,0.1,0.1c0.1,0,0.1-0.1,0.1-0.1c0-0.2,0-0.3,0-0.5
							c0-0.1-0.1-0.1-0.1-0.1C21.1,35.7,21,35.7,21,35.8L21,35.8z"/>
					</g>
					<g>
						<path class="st5" d="M21.6,37.4c0,0.2,0,0.4,0.1,0.6c0,0.1,0.1,0.1,0.1,0.1c0.1,0,0.1-0.1,0.1-0.1c0-0.2,0-0.4-0.1-0.6
							c0-0.1-0.1-0.1-0.1-0.1C21.6,37.3,21.6,37.3,21.6,37.4L21.6,37.4z"/>
					</g>
					<g>
						<path class="st5" d="M23.1,37.6c0,0.1,0,0.3,0,0.4c0,0.1,0.1,0.1,0.1,0.1c0.1,0,0.1-0.1,0.1-0.1c0-0.1,0-0.3,0-0.4
							c0,0,0-0.1,0-0.1c0,0-0.1,0-0.1,0C23.2,37.4,23.1,37.5,23.1,37.6C23.1,37.5,23.1,37.5,23.1,37.6L23.1,37.6z"/>
					</g>
					<g>
						<path class="st5" d="M24.5,36.9c0,0.2,0,0.4,0,0.6c0,0.1,0.1,0.1,0.1,0.1c0.1,0,0.1-0.1,0.1-0.1c0-0.2,0-0.4,0-0.6
							c0-0.1-0.1-0.1-0.1-0.1C24.6,36.8,24.5,36.9,24.5,36.9L24.5,36.9z"/>
					</g>
					<g>
						<path class="st5" d="M26.3,36.3c0,0.2,0,0.3,0,0.5c0,0.1,0.1,0.1,0.1,0.1c0.1,0,0.1-0.1,0.1-0.1c0-0.2,0-0.3,0-0.5
							c0-0.1-0.1-0.1-0.1-0.1C26.3,36.2,26.3,36.3,26.3,36.3L26.3,36.3z"/>
					</g>
					<g>
						<path class="st5" d="M27.5,35.8c0,0.2,0.1,0.4,0.1,0.6c0,0.1,0.1,0.1,0.1,0.1c0.1,0,0.1-0.1,0.1-0.1c0-0.2-0.1-0.4-0.1-0.6
							c0-0.1-0.1-0.1-0.1-0.1C27.6,35.7,27.5,35.8,27.5,35.8L27.5,35.8z"/>
					</g>
					<g>
						<path class="st5" d="M28.6,34.3c0,0.2,0,0.4,0,0.6c0,0.1,0.1,0.1,0.1,0.1c0.1,0,0.1-0.1,0.1-0.1c0-0.2,0-0.4,0-0.6
							c0-0.1-0.1-0.1-0.1-0.1C28.7,34.2,28.6,34.2,28.6,34.3L28.6,34.3z"/>
					</g>
					<g>
						<path class="st5" d="M27.4,31.3c0,0.2,0,0.4,0,0.6c0,0.1,0.1,0.1,0.1,0.1c0.1,0,0.1-0.1,0.1-0.1c0-0.2,0-0.4,0-0.6
							c0-0.1-0.1-0.1-0.1-0.1C27.4,31.2,27.4,31.2,27.4,31.3L27.4,31.3z"/>
					</g>
					<g>
						<path class="st5" d="M24.6,30.1c0,0.1,0,0.3,0,0.4c0,0.1,0.1,0.1,0.1,0.1c0.1,0,0.1-0.1,0.1-0.1c0-0.1,0-0.3,0-0.4
							c0-0.1-0.1-0.1-0.1-0.1C24.7,30,24.6,30,24.6,30.1L24.6,30.1z"/>
					</g>
					<g>
						<path class="st5" d="M22.8,29.9c0,0.2,0,0.4,0,0.5c0,0.1,0.1,0.1,0.1,0.1c0.1,0,0.1-0.1,0.1-0.1c0-0.1,0-0.2,0-0.2
							c0,0,0-0.1,0-0.1c0,0,0,0,0-0.1c0,0,0,0,0,0c0,0,0,0,0,0c0,0,0,0,0,0c0,0,0-0.1,0-0.1c0,0,0,0-0.1-0.1
							C22.9,29.8,22.8,29.9,22.8,29.9L22.8,29.9z"/>
					</g>
					<g>
						<path class="st5" d="M28.6,32c0,0.2,0,0.5,0,0.7c0,0.1,0.1,0.1,0.1,0.1c0.1,0,0.1-0.1,0.1-0.1c0-0.2,0-0.5,0-0.7
							c0-0.1-0.1-0.1-0.1-0.1C28.7,31.9,28.6,32,28.6,32L28.6,32z"/>
					</g>
					<g>
						<path class="st5" d="M30,33.2c0,0.2,0,0.4,0,0.5c0,0.1,0.1,0.1,0.1,0.1c0.1,0,0.1-0.1,0.1-0.1c0-0.2,0-0.4,0-0.5
							c0-0.1-0.1-0.1-0.1-0.1C30,33.1,30,33.2,30,33.2L30,33.2z"/>
					</g>
					<g>
						<path class="st5" d="M29.8,30.9c0,0.2,0,0.4,0.1,0.6c0,0.1,0.1,0.1,0.1,0.1c0.1,0,0.1-0.1,0.1-0.1c0-0.1,0-0.2-0.1-0.3
							c0,0,0,0,0,0c0,0,0,0,0,0c0,0,0,0,0,0c0,0,0,0,0-0.1c0,0,0-0.1,0-0.1c0-0.1-0.1-0.1-0.1-0.1C29.9,30.7,29.8,30.8,29.8,30.9
							L29.8,30.9z"/>
					</g>
					<g>
						<path class="st5" d="M28.7,30.5c0,0.2,0,0.4,0.1,0.6c0,0.1,0.1,0.1,0.1,0.1c0,0,0.1-0.1,0.1-0.1c0-0.1,0-0.1,0-0.2
							c0,0,0,0,0,0c0,0,0,0,0,0c0,0,0,0,0-0.1c0-0.1,0-0.2,0-0.3c0-0.1-0.1-0.1-0.1-0.1C28.7,30.4,28.7,30.4,28.7,30.5L28.7,30.5z"
							/>
					</g>
					<g>
						<path class="st5" d="M31,31.4c0,0.2,0.1,0.3,0.1,0.5c0,0,0,0.1,0.1,0.1c0,0,0.1,0,0.1,0c0,0,0.1,0,0.1-0.1c0,0,0-0.1,0-0.1
							c0-0.2-0.1-0.3-0.1-0.5c0,0,0-0.1-0.1-0.1c0,0-0.1,0-0.1,0C31.1,31.2,31.1,31.2,31,31.4C31,31.3,31,31.3,31,31.4L31,31.4z"/>
					</g>
					<g>
						<path class="st5" d="M31.4,30c0,0.2,0.1,0.3,0.1,0.5c0,0,0,0.1,0,0.1c0,0,0.1,0,0.1,0c0,0,0.1,0,0.1,0c0,0,0-0.1,0-0.1
							c0-0.2-0.1-0.3-0.1-0.5c0,0,0-0.1-0.1-0.1c0,0,0,0-0.1,0C31.5,29.9,31.4,30,31.4,30L31.4,30z"/>
					</g>
					<g>
						<path class="st5" d="M32.4,30c0,0.2,0.1,0.4,0.2,0.6c0,0.1,0.1,0.1,0.1,0.1c0.1,0,0.1-0.1,0.1-0.1c-0.1-0.2-0.1-0.4-0.2-0.6
							c0-0.1-0.1-0.1-0.1-0.1C32.4,29.9,32.4,29.9,32.4,30L32.4,30z"/>
					</g>
					<g>
						<path class="st5" d="M33.2,29.6c0.1,0.2,0.1,0.4,0.2,0.6c0,0.1,0.1,0.1,0.1,0.1c0.1,0,0.1-0.1,0.1-0.1
							c-0.1-0.2-0.1-0.4-0.2-0.6c0-0.1-0.1-0.1-0.1-0.1C33.2,29.4,33.2,29.5,33.2,29.6L33.2,29.6z"/>
					</g>
					<g>
						<path class="st5" d="M33,32c0,0.2,0.1,0.5,0.1,0.7c0,0.1,0.1,0.1,0.1,0.1c0.1,0,0.1-0.1,0.1-0.1c0-0.2-0.1-0.5-0.1-0.7
							c0-0.1,0-0.1-0.1-0.1C33.1,31.9,33,31.9,33,32L33,32z"/>
					</g>
					<g>
						<path class="st5" d="M32.1,32.3c0,0.3,0,0.5,0.1,0.8c0,0,0.1,0.1,0.1,0.1c0,0,0.1,0,0.1-0.1c0-0.2,0-0.5-0.1-0.7
							c0-0.1,0-0.1-0.1-0.1C32.1,32.2,32.1,32.2,32.1,32.3L32.1,32.3z"/>
					</g>
					<g>
						<path class="st5" d="M31.2,33.7c0,0.1,0,0.3,0.1,0.4c0,0,0,0.1,0.1,0.1c0,0,0,0,0.1,0c0,0,0.1-0.1,0.1-0.1
							c0-0.1,0-0.3-0.1-0.4c0,0,0-0.1,0-0.1c0,0-0.1,0-0.1,0C31.3,33.6,31.2,33.6,31.2,33.7C31.2,33.6,31.2,33.7,31.2,33.7
							L31.2,33.7z"/>
					</g>
					<g>
						<path class="st5" d="M30.2,34.9c0,0.3,0.1,0.5,0.1,0.8c0,0.1,0,0.1,0.1,0.1c0.1,0,0.1,0,0.1-0.1c0-0.3,0-0.5-0.1-0.8
							c0,0-0.1-0.1-0.1-0.1C30.3,34.8,30.2,34.9,30.2,34.9L30.2,34.9z"/>
					</g>
					<g>
						<path class="st5" d="M29.4,36.1c0,0.2,0,0.4,0,0.5c0,0.1,0.1,0.1,0.1,0.1c0.1,0,0.1-0.1,0.1-0.1c0-0.2,0-0.4-0.1-0.5
							c0-0.1-0.1-0.1-0.1-0.1C29.4,36,29.4,36,29.4,36.1L29.4,36.1z"/>
					</g>
					<g>
						<path class="st5" d="M28.5,36.5c0,0.3,0.1,0.6,0.1,0.8c0,0.1,0,0.1,0.1,0.1c0.1,0,0.1-0.1,0.1-0.1c0-0.3,0-0.6-0.1-0.9
							c0,0-0.1-0.1-0.1-0.1C28.6,36.4,28.5,36.4,28.5,36.5L28.5,36.5z"/>
					</g>
					<g>
						<path class="st5" d="M27.4,37.6c0,0.2,0.1,0.4,0.1,0.7c0,0.1,0.1,0.1,0.1,0.1c0.1,0,0.1-0.1,0.1-0.1c0-0.2-0.1-0.4-0.1-0.7
							c0-0.1-0.1-0.1-0.1-0.1C27.5,37.5,27.4,37.5,27.4,37.6L27.4,37.6z"/>
					</g>
					<g>
						<path class="st5" d="M26.5,38c0,0.1,0,0.3,0,0.4c0,0.1,0.1,0.1,0.1,0.1c0.1,0,0.1-0.1,0.1-0.1c0-0.1,0-0.3,0-0.4
							c0-0.1-0.1-0.1-0.1-0.1C26.5,37.9,26.5,37.9,26.5,38L26.5,38z"/>
					</g>
					<g>
						<path class="st5" d="M25.4,38.1c0,0.2,0,0.5,0,0.7c0,0.1,0.1,0.1,0.1,0.1c0.1,0,0.1-0.1,0.1-0.1c0-0.2,0-0.5,0-0.7
							c0-0.1-0.1-0.1-0.1-0.1C25.4,38,25.4,38,25.4,38.1L25.4,38.1z"/>
					</g>
					<g>
						<path class="st5" d="M23.8,38.4c0,0.1,0,0.3,0,0.4c0,0,0,0.1,0,0.1c0,0,0.1,0,0.1,0c0,0,0.1,0,0.1,0c0,0,0-0.1,0-0.1
							c0-0.1,0-0.3,0-0.4c0-0.1-0.1-0.1-0.1-0.1C23.8,38.3,23.8,38.4,23.8,38.4L23.8,38.4z"/>
					</g>
					<g>
						<path class="st5" d="M22.8,39.1c0,0.1,0,0.3,0.1,0.4c0,0,0,0.1,0,0.1c0,0,0.1,0,0.1,0c0.1,0,0.1-0.1,0.1-0.1
							c0-0.1,0-0.3-0.1-0.4c0,0,0-0.1,0-0.1c0,0-0.1,0-0.1,0C22.8,39,22.8,39,22.8,39.1L22.8,39.1z"/>
					</g>
					<g>
						<path class="st5" d="M21.8,39c0,0.2,0.1,0.3,0.1,0.5c0,0.1,0.1,0.1,0.1,0.1c0.1,0,0.1-0.1,0.1-0.1c0-0.2-0.1-0.3-0.1-0.5
							c0-0.1-0.1-0.1-0.1-0.1C21.9,38.9,21.8,38.9,21.8,39L21.8,39z"/>
					</g>
					<g>
						<path class="st5" d="M29.7,37.7c0,0.1,0,0.3,0,0.4c0,0,0,0.1,0,0.1c0,0,0.1,0,0.1,0c0.1,0,0.1-0.1,0.1-0.1c0-0.1,0-0.3,0-0.4
							c0,0,0-0.1,0-0.1c0,0-0.1,0-0.1,0C29.7,37.5,29.7,37.5,29.7,37.7C29.7,37.6,29.7,37.6,29.7,37.7L29.7,37.7z"/>
					</g>
					<g>
						<path class="st5" d="M28.6,38.9c0,0.2,0,0.3,0.1,0.5c0,0.1,0,0.1,0.1,0.1c0.1,0,0.1,0,0.1-0.1c0-0.2,0-0.3,0-0.5
							c0-0.1-0.1-0.1-0.1-0.1C28.7,38.8,28.6,38.9,28.6,38.9L28.6,38.9z"/>
					</g>
					<g>
						<path class="st5" d="M27.8,39.4c0,0.2,0,0.4,0.1,0.5c0,0.1,0.1,0.1,0.1,0.1c0.1,0,0.1-0.1,0.1-0.1c0-0.2,0-0.4-0.1-0.5
							c0-0.1-0.1-0.1-0.1-0.1C27.8,39.2,27.8,39.3,27.8,39.4L27.8,39.4z"/>
					</g>
					<g>
						<path class="st5" d="M31.4,35.3c0,0.2,0,0.3,0.1,0.5c0,0.1,0.1,0.1,0.1,0.1c0.1,0,0.1-0.1,0.1-0.1c0-0.2,0-0.3-0.1-0.5
							c0-0.1-0.1-0.1-0.1-0.1C31.4,35.2,31.4,35.3,31.4,35.3L31.4,35.3z"/>
					</g>
					<g>
						<path class="st5" d="M32.3,34.1c0,0.2,0,0.5,0,0.7c0,0.1,0.1,0.1,0.1,0.1c0.1,0,0.1-0.1,0.1-0.1c0-0.2,0-0.5,0-0.7
							c0-0.1-0.1-0.1-0.1-0.1C32.3,33.9,32.3,34,32.3,34.1L32.3,34.1z"/>
					</g>
					<g>
						<path class="st5" d="M33.5,33.8c0,0.2,0,0.4,0,0.5c0,0.1,0.1,0.1,0.1,0.1c0.1,0,0.1-0.1,0.1-0.1c0-0.2,0-0.4,0-0.5
							c0-0.1-0.1-0.1-0.1-0.1C33.6,33.7,33.6,33.8,33.5,33.8L33.5,33.8z"/>
					</g>
					<g>
						<path class="st5" d="M35.3,33.5c0,0.2,0,0.4,0,0.5c0,0.1,0.1,0.1,0.1,0.1c0.1,0,0.1-0.1,0.1-0.1c0-0.2,0-0.4,0-0.5
							c0-0.1-0.1-0.1-0.1-0.1C35.3,33.4,35.3,33.4,35.3,33.5L35.3,33.5z"/>
					</g>
					<g>
						<path class="st5" d="M34.6,34.8c0,0.2,0,0.5,0,0.7c0,0.1,0.1,0.1,0.1,0.1c0.1,0,0.1-0.1,0.1-0.1c0-0.2,0-0.5,0-0.7
							c0-0.1-0.1-0.1-0.1-0.1C34.7,34.7,34.6,34.8,34.6,34.8L34.6,34.8z"/>
					</g>
					<g>
						<path class="st5" d="M33.3,35.7c0,0.2,0,0.4,0,0.6c0,0.1,0.1,0.1,0.1,0.1c0.1,0,0.1-0.1,0.1-0.1c0-0.2,0-0.4,0-0.6
							c0-0.1-0.1-0.1-0.1-0.1C33.3,35.6,33.3,35.6,33.3,35.7L33.3,35.7z"/>
					</g>
					<g>
						<path class="st5" d="M34.4,36.7c0,0.3,0,0.5,0,0.8c0,0.1,0,0.1,0.1,0.1c0.1,0,0.1,0,0.1-0.1c0-0.3,0.1-0.6,0-0.9
							c0-0.1-0.1-0.1-0.1-0.1C34.4,36.5,34.4,36.6,34.4,36.7L34.4,36.7z"/>
					</g>
					<g>
						<path class="st5" d="M35.3,36.6C35.3,36.6,35.3,36.7,35.3,36.6C35.3,36.7,35.3,36.7,35.3,36.6C35.3,36.7,35.3,36.7,35.3,36.6
							C35.3,36.7,35.3,36.7,35.3,36.6C35.3,36.7,35.3,36.7,35.3,36.6c0,0.1,0,0.1,0,0.1c0,0,0,0.1,0,0.1c0,0.1,0,0.2,0,0.3
							c0,0.1,0,0.1,0.1,0.1c0.1,0,0.1,0,0.1-0.1c0-0.2,0.1-0.4,0.1-0.6c0-0.1-0.1-0.1-0.1-0.1C35.4,36.5,35.3,36.6,35.3,36.6
							L35.3,36.6z"/>
					</g>
					<g>
						<path class="st5" d="M32.2,36.5c0,0.2,0,0.5,0,0.7c0,0.1,0.1,0.1,0.1,0.1c0.1,0,0.1-0.1,0.1-0.1c0-0.2,0-0.5,0-0.7
							c0-0.1-0.1-0.1-0.1-0.1C32.3,36.4,32.2,36.4,32.2,36.5L32.2,36.5z"/>
					</g>
					<g>
						<path class="st5" d="M30.6,37c0,0.2,0,0.3,0,0.5c0,0.1,0.1,0.1,0.1,0.1c0.1,0,0.1-0.1,0.1-0.1c0-0.2,0-0.3,0-0.5
							c0,0,0-0.1,0-0.1c0,0-0.1,0-0.1,0C30.7,36.9,30.6,37,30.6,37L30.6,37z"/>
					</g>
					<g>
						<path class="st5" d="M31.8,38.3c0,0.2,0,0.4,0,0.7c0,0.1,0.1,0.1,0.1,0.1C32,39,32,39,32,38.9c0-0.2,0-0.4,0-0.6
							c0-0.1,0-0.1-0.1-0.1C31.9,38.2,31.8,38.2,31.8,38.3L31.8,38.3z"/>
					</g>
					<g>
						<path class="st5" d="M33.6,37.7c0,0.1,0,0.2,0,0.3c0,0,0,0.1,0,0.1c0,0,0,0,0.1,0.1c0,0,0.1,0,0.1,0c0,0,0,0,0.1-0.1
							c0-0.1,0-0.2,0-0.4c0,0,0-0.1,0-0.1c0,0,0,0-0.1-0.1C33.7,37.6,33.7,37.6,33.6,37.7C33.6,37.7,33.6,37.7,33.6,37.7L33.6,37.7z
							"/>
					</g>
					<g>
						<path class="st5" d="M34.9,38.1c0,0.2-0.1,0.4-0.1,0.6c0,0.1,0,0.1,0.1,0.1c0.1,0,0.1,0,0.1-0.1c0.1-0.2,0.1-0.4,0.1-0.6
							c0-0.1,0-0.1-0.1-0.1C35,38,34.9,38,34.9,38.1L34.9,38.1z"/>
					</g>
					<g>
						<path class="st5" d="M33.6,39.6c0,0.2-0.1,0.4-0.1,0.6c0,0.1,0,0.1,0.1,0.1c0.1,0,0.1,0,0.1-0.1c0-0.2,0.1-0.4,0.1-0.6
							c0-0.1,0-0.1-0.1-0.1C33.7,39.5,33.6,39.5,33.6,39.6L33.6,39.6z"/>
					</g>
					<g>
						<path class="st5" d="M30.6,39c0,0.2,0,0.4,0,0.6c0,0.1,0.1,0.1,0.1,0.1c0.1,0,0.1-0.1,0.1-0.1c0-0.2,0-0.4,0-0.6
							c0-0.1-0.1-0.1-0.1-0.1C30.6,38.9,30.6,39,30.6,39L30.6,39z"/>
					</g>
					<g>
						<path class="st5" d="M30.3,41.9c0,0.2,0,0.4,0,0.5c0,0.1,0,0.1,0.1,0.1c0,0,0.1,0,0.1-0.1c0-0.1,0-0.1,0-0.2c0,0,0-0.1,0-0.1
							c0-0.1,0-0.2,0-0.3c0-0.1-0.1-0.1-0.1-0.1C30.3,41.8,30.3,41.8,30.3,41.9L30.3,41.9z"/>
					</g>
					<g>
						<path class="st5" d="M31.6,40.1c0,0.2,0,0.4,0,0.6c0,0.1,0.1,0.1,0.1,0.1c0.1,0,0.1-0.1,0.1-0.1c0-0.2,0-0.4,0-0.6
							c0-0.1-0.1-0.1-0.1-0.1C31.6,40,31.6,40.1,31.6,40.1L31.6,40.1z"/>
					</g>
					<g>
						<path class="st5" d="M30,40.1c0,0.2,0,0.5,0,0.7c0,0.1,0.1,0.1,0.1,0.1c0.1,0,0.1-0.1,0.1-0.1c0-0.2,0-0.5,0-0.7
							c0-0.1-0.1-0.1-0.1-0.1C30,40,30,40.1,30,40.1L30,40.1z"/>
					</g>
					<g>
						<path class="st5" d="M32.9,39c0,0,0,0.1,0,0.1c0,0,0,0,0,0c0,0,0,0,0,0c0,0,0,0,0,0.1c0,0.1,0,0.2,0,0.3c0,0.1,0,0.1,0.1,0.1
							c0.1,0,0.1,0,0.1-0.1c0-0.2,0.1-0.4,0.1-0.6c0-0.1-0.1-0.1-0.1-0.1C33,38.8,32.9,38.9,32.9,39L32.9,39z"/>
					</g>
					<g>
						<path class="st5" d="M32.9,41.2c0,0.2,0,0.4-0.1,0.7c0,0.1,0,0.1,0.1,0.1c0.1,0,0.1,0,0.1-0.1c0.1-0.2,0.1-0.5,0.1-0.7
							c0-0.1-0.1-0.1-0.1-0.1C33,41.1,33,41.2,32.9,41.2L32.9,41.2z"/>
					</g>
					<g>
						<path class="st5" d="M31.9,41.8c0,0.2-0.1,0.4-0.1,0.6c0,0.1,0,0.1,0.1,0.1c0.1,0,0.1,0,0.1-0.1c0-0.2,0.1-0.4,0.1-0.6
							c0-0.1,0-0.1-0.1-0.1C32,41.7,31.9,41.7,31.9,41.8L31.9,41.8z"/>
					</g>
					<g>
						<path class="st5" d="M26.6,39.3c0,0.1,0,0.3,0,0.4c0,0,0,0.1,0,0.1c0,0,0.1,0,0.1,0c0.1,0,0.1-0.1,0.1-0.1
							c0-0.1,0-0.3-0.1-0.4c0,0,0-0.1,0-0.1c0,0-0.1,0-0.1,0C26.6,39.2,26.6,39.3,26.6,39.3L26.6,39.3z"/>
					</g>
					<g>
						<path class="st5" d="M25.3,39.5c0,0.2,0.1,0.5,0.1,0.7c0,0.1,0.1,0.1,0.1,0.1c0.1,0,0.1-0.1,0.1-0.1c0-0.2-0.1-0.5-0.1-0.7
							c0-0.1-0.1-0.1-0.1-0.1C25.3,39.4,25.2,39.5,25.3,39.5L25.3,39.5z"/>
					</g>
					<g>
						<path class="st5" d="M24,39.7c0,0.2,0.1,0.4,0.2,0.7c0,0,0.1,0.1,0.1,0.1c0,0,0.1-0.1,0.1-0.1c-0.1-0.2-0.1-0.4-0.2-0.6
							c0-0.1,0-0.1-0.1-0.1C24,39.6,24,39.7,24,39.7L24,39.7z"/>
					</g>
					<g>
						<path class="st5" d="M23.3,40.4c0.1,0.2,0.1,0.4,0.2,0.6c0,0.1,0.1,0.1,0.2,0c0.1,0,0.1-0.1,0-0.2c-0.1-0.1-0.1-0.2-0.1-0.3
							c0-0.1-0.1-0.2-0.1-0.3c0-0.1-0.1-0.1-0.1-0.1C23.3,40.2,23.2,40.3,23.3,40.4L23.3,40.4z"/>
					</g>
					<g>
						<path class="st5" d="M25.1,41.1c0,0.1,0,0.3,0.1,0.4c0,0,0,0.1,0,0.1c0,0,0.1,0,0.1,0c0.1,0,0.1-0.1,0.1-0.1
							c0-0.1,0-0.3-0.1-0.4c0,0,0-0.1,0-0.1c0,0,0,0-0.1,0C25.2,41,25.1,41,25.1,41.1L25.1,41.1z"/>
					</g>
					<g>
						<path class="st5" d="M23.9,41.7c0,0.2,0.1,0.4,0.1,0.5c0,0.1,0.1,0.1,0.1,0.1c0.1,0,0.1-0.1,0.1-0.1c0-0.2-0.1-0.3-0.1-0.5
							c0,0,0-0.1-0.1-0.1c0,0,0,0-0.1,0C24,41.6,23.9,41.7,23.9,41.7L23.9,41.7z"/>
					</g>
					<g>
						<path class="st5" d="M26.2,41.1c0,0.2,0,0.5,0.1,0.7c0,0.1,0.1,0.1,0.1,0.1c0.1,0,0.1-0.1,0.1-0.1c0-0.2-0.1-0.5-0.1-0.7
							c0-0.1-0.1-0.1-0.1-0.1C26.2,41,26.2,41,26.2,41.1L26.2,41.1z"/>
					</g>
					<g>
						<path class="st5" d="M27.7,41c0,0.2,0,0.5,0.1,0.7c0,0.1,0.1,0.1,0.1,0.1c0.1,0,0.1-0.1,0.1-0.1c0-0.2,0-0.5-0.1-0.7
							c0-0.1-0.1-0.1-0.1-0.1C27.7,40.9,27.6,40.9,27.7,41L27.7,41z"/>
					</g>
					<g>
						<path class="st5" d="M28.9,40.2c0,0.1,0,0.3,0,0.4c0,0,0,0.1,0,0.1c0,0,0.1,0,0.1,0c0,0,0.1,0,0.1,0c0,0,0-0.1,0-0.1
							c0,0,0,0,0,0c0,0,0,0,0,0c0,0,0,0,0,0c0,0,0,0,0-0.1c0,0,0-0.1,0-0.1c0-0.1,0-0.1,0-0.2c0-0.1-0.1-0.1-0.1-0.1
							C29,40.1,28.9,40.1,28.9,40.2L28.9,40.2z"/>
					</g>
					<g>
						<path class="st5" d="M29,42c0,0.2,0.1,0.3,0.1,0.5c0,0,0,0.1,0,0.1c0,0,0.1,0,0.1,0c0,0,0.1,0,0.1,0c0,0,0-0.1,0-0.1
							c0-0.2-0.1-0.3-0.1-0.5c0-0.1-0.1-0.1-0.1-0.1C29.1,41.9,29,42,29,42L29,42z"/>
					</g>
					<g>
						<path class="st5" d="M27.3,42.2c0,0.3,0.1,0.5,0.1,0.8c0,0.1,0.1,0.1,0.1,0.1c0,0,0.1-0.1,0.1-0.1c0-0.3-0.1-0.5-0.1-0.8
							c0-0.1,0-0.1-0.1-0.1C27.4,42.1,27.3,42.2,27.3,42.2L27.3,42.2z"/>
					</g>
					<g>
						<path class="st5" d="M25.5,42.4c0.1,0.2,0.1,0.3,0.2,0.5c0,0.1,0.1,0.1,0.1,0.1c0.1,0,0.1-0.1,0.1-0.1
							c-0.1-0.2-0.1-0.3-0.2-0.5c0-0.1-0.1-0.1-0.1-0.1C25.5,42.3,25.5,42.3,25.5,42.4L25.5,42.4z"/>
					</g>
					<g>
						<path class="st5" d="M28.3,43.2c0,0.1,0.1,0.3,0.1,0.4c0,0.1,0.1,0.1,0.1,0.1c0.1,0,0.1-0.1,0.1-0.1c0-0.1-0.1-0.3-0.1-0.4
							c0-0.1-0.1-0.1-0.1-0.1C28.3,43.1,28.3,43.2,28.3,43.2L28.3,43.2z"/>
					</g>
					<g>
						<path class="st5" d="M29.9,43.2c0,0.2,0,0.4,0,0.6c0,0.1,0,0.1,0.1,0.1c0,0,0.1,0,0.1-0.1c0-0.2,0-0.4,0-0.6
							c0-0.1-0.1-0.1-0.1-0.1C29.9,43.1,29.9,43.1,29.9,43.2L29.9,43.2z"/>
					</g>
					<g>
						<path class="st5" d="M31,43.1c0,0.1,0,0.1,0,0.2c0,0,0,0,0,0c0,0,0,0.1,0,0.1c0,0,0,0.1,0,0.1c0,0,0,0,0.1,0
							c0.1,0,0.1,0,0.1-0.1c0-0.1,0-0.2,0-0.4c0-0.1-0.1-0.1-0.1-0.1C31,43,31,43,31,43.1L31,43.1z"/>
					</g>
					<g>
						<path class="st5" d="M34.4,32.9c0,0.2,0,0.4,0,0.7c0,0.1,0,0.1,0.1,0.1c0.1,0,0.1,0,0.1-0.1c0-0.2,0-0.4,0-0.7
							c0-0.1-0.1-0.1-0.1-0.1C34.4,32.8,34.4,32.8,34.4,32.9L34.4,32.9z"/>
					</g>
					<g>
						<path class="st5" d="M35.5,35.4C35.5,35.4,35.5,35.4,35.5,35.4C35.5,35.4,35.5,35.4,35.5,35.4c0,0.2,0,0.3-0.1,0.4
							c0,0.1,0,0.1,0.1,0.1c0.1,0,0.1,0,0.1-0.1c0-0.1,0.1-0.3,0.1-0.4c0-0.1-0.1-0.1-0.1-0.1C35.6,35.2,35.5,35.3,35.5,35.4
							L35.5,35.4z"/>
					</g>
					<g>
						<path class="st5" d="M34.2,31c0,0.2,0,0.4,0,0.7c0,0.1,0.1,0.1,0.1,0.1c0.1,0,0.1-0.1,0.1-0.1c0-0.2,0-0.4,0-0.7
							c0-0.1-0.1-0.1-0.1-0.1C34.3,30.9,34.2,31,34.2,31L34.2,31z"/>
					</g>
					<g>
						<path class="st5" d="M32.1,31.1c0,0.1,0,0.2,0,0.3c0,0,0,0.1,0,0.1c0,0,0.1,0,0.1,0c0,0,0.1,0,0.1,0c0,0,0,0,0-0.1
							c0-0.1,0-0.2,0-0.3c0,0,0-0.1,0-0.1c0,0-0.1,0-0.1,0C32.2,31,32.2,31,32.1,31.1C32.2,31.1,32.1,31.1,32.1,31.1L32.1,31.1z"/>
					</g>
				</g>
				<g class="st6">
					<path class="st7" d="M35.2,27.3c0,0-1.2,0.9-2.9,1.4c-1.3,0.5-2.5,0.6-3.5,0.7c-1,0.1-2,0.1-3,0c-0.9-0.1-1.8-0.3-2.7-0.6
						c-0.2-0.1-0.5-0.2-0.7-0.3c-0.2-0.1-0.4-0.2-0.6-0.3c-0.2-0.1-0.4-0.2-0.6-0.3c-0.1-0.1-0.2-0.1-0.3-0.2
						c0.1-0.1,0.3-0.2,0.4-0.3c0.3,0.1,13-0.3,13.1-0.4c0,0,0.3-0.2,0.3-0.2C34.9,27.1,35,27.2,35.2,27.3z"/>
				</g>
			</g>
			<g>
				<g>
					<g>
						<polygon class="st2" points="36.3,18.8 38.2,13.6 32.9,16.1 						"/>
						<g>
							<g>
								<path class="st3" d="M38.1,12.4C38.1,12.4,38.1,12.5,38.1,12.4c0,0.1,0,0.1,0,0.2c0,0.1,0,0.1,0,0.2c0,0.1,0,0.2,0,0.3
									c0,0.1,0,0.2,0,0.3c0,0.1,0,0.2,0,0.3c0,0.1,0,0.1,0.1,0.1c0.1,0,0.1,0,0.1-0.1c0-0.1,0-0.2,0-0.3c0-0.1,0-0.2,0-0.3
									c0-0.1,0-0.2,0-0.3c0-0.1,0-0.1,0-0.2c0,0,0-0.1,0-0.1c0,0,0-0.1,0-0.1C38.2,12.3,38.1,12.3,38.1,12.4L38.1,12.4z"/>
							</g>
							<g>
								<path class="st3" d="M38.8,12.6c-0.1,0.2-0.2,0.4-0.4,0.6c-0.1,0.1-0.1,0.2-0.2,0.2c-0.1,0.1-0.1,0.1-0.2,0.2
									c0,0.1,0,0.2,0.1,0.1c0.1,0,0.2-0.1,0.2-0.2c0.1-0.1,0.1-0.2,0.2-0.3c0.1-0.2,0.3-0.4,0.4-0.6C39,12.5,38.9,12.5,38.8,12.6
									L38.8,12.6z"/>
							</g>
							<g>
								<path class="st3" d="M39.1,13c-0.2,0.1-0.3,0.2-0.5,0.2c-0.1,0-0.2,0.1-0.2,0.1c-0.1,0-0.2,0.1-0.2,0.2c0,0.1,0,0.1,0.1,0.1
									c0.1,0,0.2-0.1,0.3-0.1c0.1,0,0.2-0.1,0.2-0.1c0.2-0.1,0.3-0.2,0.5-0.3c0,0,0.1-0.1,0-0.1C39.2,13,39.2,13,39.1,13L39.1,13z
									"/>
							</g>
							<g>
								<path class="st3" d="M39.1,13.7c-0.1,0-0.2,0-0.3,0c-0.1,0-0.2,0-0.3,0c-0.1,0-0.2,0-0.2,0c0,0-0.1,0-0.1,0c0,0,0,0,0,0
									c0,0,0,0,0,0c0,0,0,0,0,0c0,0,0,0,0,0c-0.1-0.1-0.2,0-0.1,0.1c0,0.1,0.1,0.1,0.2,0.1c0.1,0,0.2,0,0.3,0c0.2,0,0.4,0,0.6,0
									C39.1,13.9,39.2,13.9,39.1,13.7C39.2,13.8,39.1,13.7,39.1,13.7L39.1,13.7z"/>
							</g>
							<g>
								<path class="st3" d="M37.7,12.7c0.1,0.2,0.1,0.4,0.1,0.5c0,0.1,0,0.2,0.1,0.3c0,0.1,0,0.2,0.1,0.3c0,0,0.1,0,0.1,0
									c0,0,0-0.1,0-0.1c0,0,0,0,0,0c0,0,0,0,0,0c0,0,0,0,0,0c0,0,0,0,0-0.1c0,0,0-0.1,0-0.1c0-0.1-0.1-0.2-0.1-0.3
									c-0.1-0.2-0.1-0.3-0.2-0.5C37.8,12.5,37.6,12.6,37.7,12.7L37.7,12.7z"/>
							</g>
						</g>
					</g>
					<g>
						<polygon class="st2" points="19.3,19.4 17.1,14.3 22.5,16.5 						"/>
						<g>
							<g>
								<path class="st3" d="M15.8,14.2c0.2,0.1,0.4,0.1,0.5,0.2c0.1,0,0.2,0.1,0.3,0.1c0.1,0,0.1,0,0.2,0c0.1,0,0.2,0,0.2,0
									c0.1-0.1,0.1-0.2,0-0.2c-0.1,0-0.1,0-0.2,0c0,0-0.1,0-0.1,0c0,0,0,0-0.1,0c-0.1,0-0.2,0-0.3-0.1c-0.2-0.1-0.4-0.1-0.5-0.2
									c0,0-0.1,0-0.1,0C15.8,14.1,15.8,14.2,15.8,14.2L15.8,14.2z"/>
							</g>
							<g>
								<path class="st3" d="M16.5,13.2c0.1,0.1,0.1,0.2,0.1,0.3c0,0,0,0,0,0c0,0,0,0,0,0c0,0,0,0,0,0c0,0,0,0,0,0c0,0,0,0,0,0
									c0,0,0,0,0,0c0,0,0,0,0,0c0,0,0,0,0,0.1c0,0.1,0.1,0.1,0.1,0.2c0,0,0,0.1,0,0.1c0,0,0,0,0,0.1c0,0,0,0,0,0c0,0,0,0,0,0
									c0,0,0,0,0,0c0,0,0,0.1,0,0.1c0,0,0,0.1,0,0.1c0,0.1,0,0.1,0.1,0.1c0.1,0.1,0.2,0,0.2,0c0-0.1,0-0.1,0-0.2c0,0,0-0.1,0-0.1
									c0-0.1,0-0.2-0.1-0.3c0-0.2-0.1-0.3-0.2-0.5c-0.1-0.1-0.1-0.2-0.2-0.3c0,0-0.1-0.1-0.1,0C16.5,13.1,16.5,13.1,16.5,13.2
									L16.5,13.2z"/>
							</g>
							<g>
								<path class="st3" d="M17.1,13.1C17.1,13.2,17.1,13.2,17.1,13.1c0,0.1,0,0.2,0,0.2c0,0.1,0,0.1,0,0.2c0,0.1,0,0.2,0,0.3
									c0,0,0,0,0,0c0,0,0,0,0,0c0,0,0,0.1,0,0.1c0,0.1,0,0.1,0,0.2c0,0,0,0.1,0,0.1c0,0,0,0,0,0c0,0,0,0,0,0c0,0,0,0,0,0
									c0,0,0,0.1,0,0.1c0,0,0,0.1,0,0.1c0,0.1,0.1,0.1,0.1,0.1c0,0,0.1,0,0.1-0.1c0,0,0-0.1,0-0.1c0-0.1,0-0.1,0.1-0.2
									c0-0.1,0.1-0.2,0.1-0.4c0-0.1,0-0.2,0-0.4c0-0.1,0-0.1,0-0.2c0-0.1,0-0.1-0.1-0.2C17.3,13,17.2,13,17.1,13.1
									C17.1,13,17.1,13.1,17.1,13.1L17.1,13.1z"/>
							</g>
							<g>
								<path class="st3" d="M15.9,13.5c0.1,0.1,0.1,0.2,0.2,0.3c0.1,0.1,0.2,0.2,0.3,0.3c0.1,0.1,0.2,0.2,0.3,0.2
									c0.1,0.1,0.2,0.1,0.3,0.2c0.1,0,0.1,0,0.2,0c0-0.1,0-0.1,0-0.2c0,0,0,0,0,0c0,0,0,0,0,0c0,0,0,0,0,0c0,0,0,0-0.1,0
									c0,0-0.1-0.1-0.1-0.1c-0.1-0.1-0.2-0.1-0.3-0.2c-0.1-0.1-0.2-0.2-0.3-0.2c-0.1-0.1-0.2-0.2-0.2-0.2
									C16,13.4,16,13.4,15.9,13.5C15.9,13.4,15.9,13.5,15.9,13.5L15.9,13.5z"/>
							</g>
							<g>
								<path class="st3" d="M16.1,14.7c0.2,0,0.4,0.1,0.6,0c0.2,0,0.4-0.1,0.5-0.2c0,0,0-0.1,0-0.2c0,0-0.1,0-0.2,0
									c-0.1,0.1-0.2,0.2-0.4,0.2c-0.2,0-0.4,0-0.6,0C16,14.5,16,14.7,16.1,14.7L16.1,14.7z"/>
							</g>
						</g>
					</g>
					<path class="st3" d="M28,13.9c4.3,0,8.7,2.2,9,7c0.1,1.3,0.2,2.3-0.1,3.5c-1.3,4.7-10.7,5.8-15,3.5c-1.5-0.8-2.2-1.8-2.7-3.4
						c-0.9-2.4-0.8-4.4,0.5-6.7c1.3-2.1,3.6-3.3,6-3.8C26.4,14,27.2,13.9,28,13.9z"/>
					<g>
						<path class="st8" d="M32.9,13.4C32.9,13.4,32.9,13.4,32.9,13.4C32.9,13.4,32.9,13.3,32.9,13.4C32.9,13.3,32.9,13.3,32.9,13.4
							C32.9,13.3,32.9,13.3,32.9,13.4C33,13.3,33,13.3,32.9,13.4c0.1-0.1,0.1-0.1,0.1-0.1c0,0,0,0,0,0c0,0,0,0,0.1,0c0,0,0,0,0,0
							c0,0,0,0,0,0c0,0,0,0,0,0c0,0,0,0,0,0c0,0,0,0,0,0c0,0,0,0,0,0c0,0,0,0,0,0c0,0,0,0,0,0c0,0,0,0,0,0c0,0,0,0,0,0c0,0,0,0,0,0
							c0,0,0,0,0,0c0,0,0,0,0,0c0,0,0,0,0,0c0,0,0,0.1,0.1,0.1c0,0,0,0,0,0c0,0,0,0,0,0c0,0,0,0,0,0.1c0,0.1,0.1,0.1,0.1,0.1
							c0.1,0,0.1-0.1,0.1-0.1c0-0.2-0.2-0.5-0.4-0.5c-0.2,0-0.5,0.2-0.5,0.4c0,0.1,0,0.1,0.1,0.1C32.9,13.5,32.9,13.4,32.9,13.4
							L32.9,13.4z"/>
					</g>
					<g>
						<g>
							<path class="st9" d="M28,24.7c0.9,1.2,3.9,2.8,7.6,1.7c-0.3-0.3-0.6-0.7-0.9-1c1,0.3,2.3,0.6,3.3,0.1
								c-0.3-0.2-0.9-0.6-1.1-0.9c1.1,0,2.2-0.7,2.8-1.5c-0.9-0.2-1.6-0.4-2-0.7c0.7-0.5,1.3-1.2,1.5-2.1c-0.5,0.2-1.1,0.3-1.6,0.3
								c0.4-0.3,1.2-1.5,1.3-2.7c-0.7,0.2-1.5,0.5-2.3,0.4c-0.8-0.1-1.5-0.3-2.2-0.4c-1.6-0.4-3.3-0.5-4.9,0.2
								c-0.9,0.4-1.7,1.5-1.7,1.5s-0.8-1-1.8-1.3c-1.6-0.6-3.3-0.3-4.9,0.2c-0.7,0.2-1.4,0.5-2.2,0.6c-0.8,0.1-1.5-0.1-2.3-0.3
								c0.2,1.2,1.1,2.3,1.4,2.6c-0.6,0-1.1,0-1.7-0.2c0.3,0.8,0.9,1.6,1.6,2c-0.4,0.3-1.1,0.6-2,0.8c0.6,0.8,1.8,1.4,2.9,1.3
								c-0.2,0.3-0.7,0.8-1.1,1c1.1,0.5,2.3,0.1,3.3-0.3c-0.2,0.4-0.5,0.8-0.8,1.1C24.2,27.7,27.1,26,28,24.7L28,24.7z"/>
						</g>
						<path class="st2" d="M26.9,20.4c0-0.1,0-0.1-0.1-0.2c0-0.1-0.1-0.1-0.2-0.1c-0.1,0-0.1,0.1-0.1,0.3c0.1,0.6,0.2,2.6-1.1,3.3
							c0,0-0.1,0-0.1,0c-0.6,0.3-1.4,0.2-2-0.3c-0.4-0.3-0.7-0.8-0.9-1.4c0,0,0,0,0,0c0-0.1-0.1-0.1-0.1-0.2c0,0,0,0,0,0
							c-0.1-0.2-0.1-0.4-0.2-0.6c0-0.1,0-0.2-0.1-0.2c0,0,0-0.1-0.1-0.1c0,0-0.1,0-0.1,0c-0.1,0-0.1,0.1-0.1,0.2
							c0,0.1,0,0.2,0.1,0.3c-0.2,0.3-0.6,0.6-0.9,0.6c-0.1,0-0.1,0.1-0.1,0.1c0,0.1,0,0.1,0.1,0.1c0,0,0,0,0,0
							c0.3,0,0.5-0.1,0.7-0.2c0.1-0.1,0.2-0.1,0.3-0.2c0,0.1,0.1,0.2,0.1,0.3c0,0,0,0,0,0l0,0c-0.1,0.1-0.2,0.2-0.3,0.3
							c-0.2,0.2-0.5,0.3-0.7,0.4c-0.1,0-0.1,0.1-0.1,0.1c0,0,0,0.1,0,0.1c0,0,0,0,0.1,0c0,0,0,0,0,0c0.2,0,0.5-0.1,0.7-0.2
							c0.2-0.1,0.4-0.2,0.5-0.4c0,0.1,0.1,0.2,0.1,0.2c0,0,0,0.1,0,0.1c-0.3,0.5-0.7,0.8-1.2,0.9c0,0,0,0-0.1,0c0,0,0,0.1,0,0.1
							c0,0.1,0.1,0.1,0.1,0.1c0,0,0,0,0,0c0.3,0,0.5-0.1,0.8-0.2c0.2-0.1,0.4-0.3,0.6-0.6c0,0,0,0,0-0.1c0.2,0.3,0.4,0.5,0.6,0.7
							c0.2,0.2,0.5,0.4,0.8,0.5c0.2,0.1,0.4,0.1,0.5,0.1c0.4,0,0.8-0.1,1.2-0.3c0.6-0.4,0.9-1,1.1-1.6c0,0,0,0,0,0
							C27,21.9,27,21.2,26.9,20.4z"/>
						<path class="st2" d="M34.9,23.3C34.9,23.3,34.8,23.2,34.9,23.3c-0.6-0.1-1-0.4-1.3-0.9c0,0,0-0.1,0-0.1c0-0.1,0.1-0.2,0.1-0.2
							c0.1,0.2,0.3,0.3,0.5,0.4c0.2,0.1,0.4,0.1,0.6,0.1c0,0,0.1,0,0.1,0c0,0,0.1,0,0.1,0c0,0,0-0.1,0-0.1c0-0.1-0.1-0.1-0.1-0.1
							c-0.3,0-0.5-0.1-0.8-0.3c-0.1-0.1-0.2-0.2-0.3-0.3l0,0c0,0,0,0,0,0c0-0.1,0-0.2,0.1-0.3c0.1,0.1,0.2,0.2,0.3,0.2
							c0.2,0.1,0.4,0.2,0.6,0.2c0,0,0,0,0,0c0.1,0,0.1-0.1,0.1-0.1c0-0.1,0-0.1-0.1-0.1c-0.3-0.1-0.7-0.3-0.9-0.6c0-0.1,0-0.2,0-0.3
							c0-0.1,0-0.1-0.1-0.2c0,0-0.1,0-0.1,0c0,0,0,0-0.1,0.1c0,0.1,0,0.2,0,0.3c0,0.2-0.1,0.4-0.1,0.6c0,0,0,0,0,0
							c0,0.1,0,0.1-0.1,0.2c0,0,0,0,0,0c-0.2,0.7-0.5,1.1-0.8,1.5c-0.5,0.5-1.3,0.7-2,0.4c0,0-0.1,0-0.1,0c-1.3-0.6-1.3-2.6-1.3-3.2
							c0-0.2-0.1-0.3-0.1-0.3c-0.1,0-0.1,0-0.2,0.1c0,0.1,0,0.1-0.1,0.2c-0.1,0.7,0,1.5,0.3,2.1c0.2,0.5,0.6,1.2,1.2,1.5
							c0.2,0.1,0.5,0.2,0.8,0.2c0.3,0,0.6,0,0.9-0.2c0.3-0.1,0.5-0.3,0.8-0.5c0.2-0.2,0.4-0.5,0.5-0.8c0,0,0,0,0,0.1
							c0.2,0.2,0.4,0.4,0.6,0.5c0.2,0.1,0.4,0.2,0.7,0.2c0,0,0.1,0,0.1,0C34.8,23.5,34.9,23.4,34.9,23.3
							C34.9,23.3,34.9,23.3,34.9,23.3z"/>
						<path class="st2" d="M29.1,24c-0.3,0-0.6,0-0.8,0c-0.4,0-0.9,0-1.3,0c-0.1,0-0.2,0-0.3,0c0,0,0,0,0,0c0,0,0,0,0,0
							c0,0-0.1,0-0.1,0c0,0,0,0.1,0,0.1c0.1,0.3,0.2,0.6,0.4,0.9c0.2,0.3,0.3,0.6,0.6,0.8c0.1,0.1,0.2,0.3,0.3,0.4c0,0,0.1,0,0.2,0
							c0.2-0.2,0.4-0.5,0.6-0.8c0.2-0.3,0.3-0.6,0.4-0.9c0.1-0.2,0.1-0.4,0.2-0.5C29.3,24.1,29.2,24,29.1,24z"/>
					</g>
				</g>
				<g>
					<g>
						<g>
							<path class="st10" d="M34.5,10.4c-0.5,0.2-1,0.3-1.5,0.6c-0.4,0.2-0.8,0.6-1,1c-0.1,0.2-0.2,0.5-0.2,0.8
								c0,0.1,0.1,0.1,0.1,0.1c0.1,0,0.1-0.1,0.1-0.1c0,0,0,0,0,0c0,0,0,0,0,0c0,0,0,0,0,0c0,0,0-0.1,0-0.1c0-0.1,0-0.1,0-0.2
								c0-0.1,0-0.1,0.1-0.2c0,0,0,0,0,0c0,0,0,0,0,0c0,0,0,0,0,0c0,0,0-0.1,0-0.1c0.1-0.1,0.1-0.2,0.2-0.3c0,0,0,0,0-0.1
								c0,0,0,0,0,0c0,0,0,0,0,0c0,0,0,0,0,0c0,0,0.1-0.1,0.1-0.1c0.1-0.1,0.2-0.2,0.2-0.2c0,0,0,0,0.1-0.1c0,0,0,0,0,0c0,0,0,0,0,0
								c0.1,0,0.1-0.1,0.2-0.1c0.2-0.1,0.4-0.2,0.7-0.4c0.3-0.1,0.5-0.2,0.8-0.3c0,0,0.1-0.1,0.1-0.1C34.6,10.4,34.5,10.4,34.5,10.4
								L34.5,10.4z"/>
						</g>
						<path class="st11" d="M33.2,9.2C33.1,9,33.1,8.9,33,8.8c-0.1-0.1-0.1-0.2-0.2-0.3c-0.1-0.1-0.2-0.1-0.2,0.1
							c0,0.2-0.1,0.3-0.1,0.5c-0.1,0.2-0.1,0.3-0.2,0.5c-0.1,0.4-0.2,0.8-0.1,1.1c0,0.1,0.1,0.3,0.1,0.4c0,0.1,0.1,0.2,0.1,0.2
							c0.2,0.2,0.4-0.1,0.5-0.3c0.2-0.2,0.3-0.4,0.4-0.7c0.1-0.2,0.1-0.4,0.1-0.6C33.4,9.6,33.3,9.4,33.2,9.2z"/>
						<path class="st11" d="M36.6,9.1c0,0-0.1,0.1-0.1,0.1c0,0,0,0-0.1,0c0,0,0,0,0,0c0,0,0,0,0,0c-0.1,0-0.2,0.1-0.3,0.1
							c-0.2,0.1-0.4,0.1-0.6,0.2c-0.2,0.1-0.4,0.2-0.7,0.3c-0.2,0.1-0.4,0.2-0.5,0.3c-0.1,0.1-0.3,0.3-0.4,0.5
							c-0.1,0.2,0.2,0.3,0.3,0.4c0.4,0.1,0.7,0.1,1.1-0.1c0.4-0.2,0.8-0.5,1.1-0.9c0.2-0.2,0.3-0.4,0.4-0.7
							C36.9,9.2,36.7,9.1,36.6,9.1z"/>
						<path class="st11" d="M35.2,12.6c-0.1-0.3-0.3-0.6-0.6-0.8c-0.1-0.1-0.3-0.2-0.5-0.3c-0.2-0.1-0.4-0.1-0.6-0.2
							c-0.2,0-0.4-0.1-0.6-0.1c-0.1,0-0.3,0-0.3,0.2c0.1,0.3,0.3,0.7,0.7,0.8c0.3,0.2,0.7,0.2,1,0.3c0.2,0,0.4,0.1,0.6,0.2
							C35.1,12.8,35.2,12.7,35.2,12.6z"/>
					</g>
					<g>
						<g>
							<path class="st10" d="M24.7,9.2c0.1,0.5,0.2,0.9,0.4,1.3c0.2,0.4,0.4,0.8,0.7,1.2c0.2,0.2,0.3,0.4,0.5,0.6c0.1,0,0.1,0,0.2,0
								c0-0.1,0-0.1,0-0.2c-0.2-0.1-0.3-0.3-0.5-0.5c0,0,0,0,0,0c0,0,0,0,0,0c0,0,0,0-0.1-0.1c0,0-0.1-0.1-0.1-0.1
								c-0.1-0.1-0.1-0.2-0.2-0.3c-0.1-0.2-0.2-0.4-0.3-0.6c0,0,0,0,0,0c0,0,0,0,0,0c0,0,0,0,0,0c0,0,0,0,0,0c0,0,0-0.1,0-0.1
								c0,0,0-0.1-0.1-0.2c0-0.1-0.1-0.2-0.1-0.3c-0.1-0.2-0.1-0.5-0.2-0.7c0,0-0.1-0.1-0.1-0.1C24.7,9.1,24.7,9.1,24.7,9.2
								L24.7,9.2z"/>
						</g>
						<path class="st11" d="M25.2,10.5c-0.1-0.1-0.1-0.2-0.2-0.2c-0.1-0.1-0.2-0.2-0.3-0.3c-0.2-0.2-0.5-0.3-0.7-0.5
							c-0.1-0.1-0.2-0.1-0.3-0.1c-0.1,0-0.2-0.1-0.3-0.1c0,0,0,0,0,0c-0.2-0.1-0.4-0.1-0.6-0.1c0,0-0.1,0-0.1,0c0,0,0,0.1,0,0.1
							c0.5,0.6,1.1,1.1,1.9,1.3c0.1,0,0.2,0.1,0.4,0.1c0.1,0,0.2,0.1,0.3,0C25.3,10.7,25.3,10.6,25.2,10.5z"/>
						<path class="st11" d="M25,7.4c-0.1-0.2-0.1-0.4-0.2-0.6c0-0.1-0.2-0.1-0.2,0c-0.4,0.7-0.4,1.5-0.1,2.2
							c0.1,0.1,0.3,0.7,0.5,0.5C25,9.6,25,9.4,25.1,9.3c0-0.1,0-0.2,0-0.3c0-0.2,0-0.4,0-0.6C25.2,8.1,25.1,7.8,25,7.4z"/>
					</g>
					<g>
						<path class="st0" d="M26.5,13c0,0,0.3-0.9-0.2-1.3c-0.7-0.5-1.4-0.4-1.7,0.1c-0.2-0.3-0.6-0.6-1-0.6c-0.4,0-0.8,0.2-1,0.6
							c-0.5-0.2-1.1-0.1-1.5,0.3c-0.3,0.4-0.3,1.1,0,1.5c-0.4,0.2-1.3,1.2-0.6,2.1c0.4,0.5,1.1,0.5,1.6,0.3c0.1,0.6,0.3,1,0.7,1.2
							c0.5,0.2,1-0.1,1.2-0.5c0.3,0.4,1,0.7,1.5,0.5c0.5-0.2,0.9-0.7,0.8-1.3c1.4-0.3,1.4-1.3,1.3-1.8C27.4,13.3,26.5,13,26.5,13z"
							/>
						<g>
							<g>
								<path class="st12" d="M22.4,13.8C22.4,13.8,22.4,13.8,22.4,13.8C22.4,13.8,22.4,13.8,22.4,13.8L22.4,13.8z"/>
								<path class="st12" d="M22.4,13.6C22.4,13.6,22.4,13.6,22.4,13.6C22.4,13.6,22.4,13.6,22.4,13.6
									C22.4,13.6,22.4,13.6,22.4,13.6z"/>
								<path class="st12" d="M24.3,15.4C24.3,15.4,24.3,15.4,24.3,15.4C24.3,15.4,24.3,15.4,24.3,15.4
									C24.3,15.4,24.3,15.4,24.3,15.4z"/>
								<path class="st12" d="M25.8,14.5c0.3-0.2,0.5-0.7,0.4-1.1c0-0.1-0.1-0.3-0.1-0.4c-0.1-0.1-0.2-0.3-0.3-0.4
									c-0.3-0.2-0.6-0.3-1-0.2c-0.2,0.1-0.4,0.2-0.5,0.3c-0.1,0.2-0.2,0.4-0.1,0.6c0,0,0.1,0.1,0.1,0.1c0,0,0.1,0,0.1-0.1
									c0-0.1,0-0.2,0-0.2c0,0,0-0.1,0-0.1c0.1-0.2,0.3-0.3,0.5-0.3c0.2,0,0.4,0,0.6,0.1c0.1,0.1,0.3,0.2,0.3,0.3
									c0.1,0.2,0.1,0.5,0,0.8c0,0,0,0,0,0c-0.1,0.2-0.2,0.4-0.5,0.4c-0.1,0-0.1,0.1-0.1,0.2c0,0,0,0.1,0.1,0.1c0,0,0.1,0,0.1,0
									c0.1,0,0.2,0.2,0.2,0.2c0,0.1,0,0.1,0.1,0.2c0,0.1,0,0.1,0,0.2c0,0.1,0,0.1-0.1,0.2c0,0,0,0,0,0c-0.2,0.3-0.6,0.5-0.9,0.3
									c-0.1,0-0.2-0.1-0.2-0.2c0,0,0-0.1-0.1-0.1c0,0,0-0.1,0-0.1c0-0.1,0-0.2-0.1-0.3c0,0-0.1-0.1-0.1-0.1c0,0-0.1,0.1-0.1,0.1
									c0,0,0,0,0,0.1c0,0,0,0,0,0c0.1,0.2-0.1,0.5-0.3,0.6c0,0,0,0,0,0c-0.2,0.1-0.4,0.1-0.5,0c-0.2-0.1-0.4-0.2-0.5-0.4
									c-0.1-0.2-0.1-0.4,0-0.6c0,0,0,0,0,0c0,0,0.1,0,0.1,0c0,0,0.1,0,0.1,0c0.1,0,0.1-0.1,0.1-0.2c0-0.1-0.1-0.1-0.1-0.1
									c-0.1,0-0.2,0-0.2,0c0,0-0.1,0-0.1,0c0,0-0.1,0-0.1-0.1c0,0-0.1,0-0.1,0c-0.1-0.1-0.2-0.3-0.2-0.4c0-0.1,0-0.1,0-0.2
									c0-0.1,0.1-0.3,0.2-0.4c0.1-0.1,0.3-0.2,0.5-0.2c0.1,0,0.1,0,0.2,0c0.1,0,0.3,0.1,0.4,0.2c0,0,0.1,0.1,0.1,0
									c0,0,0.1-0.1,0-0.1c0-0.1-0.1-0.1-0.1-0.1c0,0-0.1-0.1-0.2-0.1c-0.1-0.1-0.2-0.1-0.4-0.1c-0.3,0-0.6,0.1-0.8,0.3
									c-0.2,0.2-0.3,0.4-0.3,0.7c0,0.3,0.1,0.5,0.3,0.7c0.1,0.1,0.2,0.2,0.4,0.2c0,0,0,0,0,0c-0.1,0.1-0.1,0.3-0.1,0.5
									c0,0.2,0.2,0.5,0.4,0.6c0.2,0.2,0.5,0.2,0.7,0.2c0.2,0,0.5-0.1,0.7-0.3c0,0,0.1-0.1,0.1-0.1c0,0,0,0,0,0
									c0.1,0.1,0.1,0.2,0.2,0.2c0.2,0.1,0.4,0.1,0.6,0.1c0.4-0.1,0.7-0.5,0.7-1C26.1,14.8,26,14.6,25.8,14.5z M23.1,14.5
									C23.1,14.5,23.1,14.5,23.1,14.5C23.1,14.5,23.1,14.5,23.1,14.5z M23.2,13.2C23.2,13.2,23.2,13.2,23.2,13.2
									C23.2,13.2,23.2,13.2,23.2,13.2z M23.2,13.2C23.2,13.2,23.2,13.2,23.2,13.2L23.2,13.2z M22.8,14.5
									C22.8,14.5,22.8,14.5,22.8,14.5C22.8,14.5,22.8,14.5,22.8,14.5z M23.1,15.6C23.1,15.6,23.1,15.6,23.1,15.6
									C23.1,15.6,23.1,15.6,23.1,15.6z"/>
							</g>
							<g>
								<path class="st12" d="M24.6,13.9c-0.2-0.1-0.4-0.1-0.6,0c-0.2,0.1-0.3,0.3-0.3,0.5c0,0.1,0,0.2,0.1,0.3
									c0.1,0.1,0.1,0.2,0.2,0.2c0.2,0.1,0.4,0.1,0.5,0c0.1,0,0.2-0.1,0.3-0.2c0-0.1,0.1-0.1,0.1-0.2c0-0.1,0-0.1,0-0.2
									c0-0.1-0.2-0.1-0.2,0c0,0.1,0,0.1-0.1,0.2c0,0.1-0.1,0.1-0.2,0.1c0,0-0.1,0-0.1,0c0,0-0.1,0-0.1,0c-0.1,0-0.2-0.1-0.3-0.3
									c0-0.1,0-0.2,0.1-0.3c0.1-0.1,0.3-0.1,0.4,0c0,0,0.1,0,0.1,0C24.7,13.9,24.6,13.9,24.6,13.9z"/>
							</g>
						</g>
					</g>
					<g>
						<path class="st8" d="M29.3,12.8c-0.1,0.2,0,0.5,0.2,0.6c0.2,0.2,0.5,0.2,0.7,0.1c0.1-0.1,0.3-0.2,0.3-0.4
							c0-0.1-0.1-0.1-0.2-0.1c-0.1,0-0.1,0.1-0.1,0.1c0,0,0,0,0,0c0,0,0,0,0,0c0,0,0,0,0,0c0,0,0,0,0,0c0,0,0,0,0,0c0,0-0.1,0-0.1,0
							c0,0,0,0,0,0c0,0,0,0,0,0c0,0,0,0,0,0c0,0,0,0,0,0c0,0-0.1,0-0.1,0c0,0,0,0,0,0c0,0,0,0,0,0c0,0,0,0,0,0c0,0,0,0,0,0
							c0,0,0,0,0,0c0,0,0,0-0.1-0.1c0,0,0,0,0,0c0,0,0,0,0,0c0,0,0,0,0,0c0,0,0,0,0,0c0,0,0,0,0,0c0,0,0,0,0,0c0,0,0,0,0-0.1
							c0,0,0,0,0,0c0,0,0,0,0,0c0,0,0-0.1,0-0.1c0,0,0-0.1-0.1-0.1C29.3,12.7,29.3,12.7,29.3,12.8L29.3,12.8z"/>
					</g>
					<path class="st11" d="M29.1,14.1c0,0-0.1-0.1-0.2,0c0,0-0.1,0.1-0.1,0.1c0,0-0.1,0-0.1,0.1c-0.2,0.2-0.4,0.4-0.6,0.7
						c-0.2,0.3-0.3,0.7-0.4,1.1c0,0.2,0,0.5,0.1,0.7c0,0.1,0.2,0.1,0.3,0.1c0.2-0.2,0.5-0.5,0.7-0.8c0.1-0.1,0.2-0.3,0.2-0.5
						c0.1-0.2,0.1-0.4,0.1-0.6c0-0.1,0-0.2,0-0.3c0-0.1,0-0.2,0-0.3c0,0,0,0,0.1-0.1C29.2,14.2,29.1,14.2,29.1,14.1z"/>
					<g>
						<path class="st13" d="M31.4,11.5c0.2-0.1,0.3-0.3,0.4-0.5c0.1-0.2,0-0.4,0-0.7c-0.1-0.2-0.2-0.5-0.5-0.6
							c-0.4-0.2-1-0.1-1.2,0.3c-0.1-0.4-0.3-0.7-0.6-0.9c-0.3-0.2-0.7-0.4-1-0.2c-0.4,0.1-0.6,0.5-0.6,0.9c-0.1-0.3-0.4-0.6-0.8-0.6
							c-0.3,0-0.7,0.3-0.8,0.6s0,0.7,0.3,1c-0.3,0.1-0.6,0.3-0.7,0.6c-0.2,0.3-0.2,0.6-0.1,0.9c0.1,0.3,0.3,0.5,0.6,0.6
							c-0.1,0.2-0.2,0.4-0.1,0.6c0,0.1,0.1,0.3,0.2,0.4c0.2,0.3,0.6,0.5,1,0.5s0.8-0.1,1.1-0.4c0.1,0.4,0.5,0.7,1,0.8
							c0.4,0,0.8-0.1,1.1-0.4c0.3-0.3,0.4-0.7,0.3-1.1c0.8-0.1,1-0.7,1-1C31.9,11.9,31.7,11.6,31.4,11.5z"/>
						<g>
							<path class="st14" d="M28.7,10.8c-0.1-0.3-0.5-0.4-0.7-0.3c-0.3,0.1-0.5,0.3-0.5,0.6c0,0.1,0,0.2,0,0.2
								c0,0.1,0.1,0.1,0.1,0.2c0.1,0.1,0.2,0,0.2-0.1c-0.1-0.2-0.1-0.4,0.1-0.5c0.1,0,0.1-0.1,0.2-0.1c0.1,0,0.2,0,0.3,0
								c0,0,0.1,0,0.1,0.1c0,0,0.1,0.1,0.1,0.1c0,0,0.1,0,0.1,0C28.7,10.9,28.7,10.9,28.7,10.8z"/>
							<g>
								<path class="st14" d="M27.7,12.5c-0.1,0.1-0.3,0.2-0.3,0.3c-0.1,0.1-0.1,0.3,0,0.4c0.1,0.3,0.5,0.6,0.8,0.5
									c0.1,0,0.2-0.1,0.2-0.2c0.1-0.1,0.1-0.2,0.1-0.3c0-0.1-0.1-0.1-0.1-0.1c-0.1,0-0.1,0-0.1,0.1c0,0,0,0,0,0c0,0,0,0,0,0
									c0,0,0,0,0,0c0,0,0,0,0,0c0,0,0,0,0,0c0,0,0,0,0,0c0,0,0,0-0.1,0.1c0,0,0,0,0,0c0,0,0,0-0.1,0c0,0,0,0,0,0
									c-0.1,0.1-0.2,0-0.3-0.1c-0.1-0.1-0.1-0.2-0.2-0.3c0-0.2,0.1-0.3,0.2-0.4c0.1,0,0.1-0.1,0.1-0.1
									C27.8,12.5,27.8,12.4,27.7,12.5z"/>
							</g>
							<g>
								<path class="st14" d="M28.7,11.9c-0.1,0.1-0.1,0.3-0.1,0.4c0,0.1,0.2,0.2,0.3,0.3c0.3,0.1,0.6-0.2,0.6-0.4
									c0-0.2-0.1-0.3-0.3-0.3c-0.1,0-0.2,0.2,0,0.3c0,0,0,0,0,0c0,0,0,0,0,0c0,0,0,0,0,0c0,0,0,0,0,0c0,0,0,0,0,0c0,0,0,0,0,0
									c0,0,0,0,0,0c0,0,0,0,0,0c0,0,0,0,0,0c0,0,0,0,0,0c0,0,0,0,0,0c0,0,0,0,0,0c0,0,0,0,0,0c0,0.1-0.1,0.2-0.2,0.2
									c-0.2,0-0.2-0.2-0.2-0.3c0,0,0-0.1,0-0.1c0,0,0-0.1,0-0.1C28.8,11.9,28.7,11.9,28.7,11.9z"/>
							</g>
							<g>
								<path class="st14" d="M29.5,11.3c0.1-0.1,0.1-0.2,0.2-0.2c0.2-0.1,0.5-0.1,0.7,0.2c0.1,0.1,0.1,0.3,0,0.4
									c-0.1,0.2-0.2,0.2-0.4,0.3c-0.1,0-0.2,0.1-0.1,0.2c0,0.1,0.1,0.1,0.2,0.1c0.3,0,0.6-0.1,0.7-0.4c0.1-0.2,0.1-0.4,0-0.6
									c-0.1-0.3-0.5-0.5-0.9-0.4c-0.2,0.1-0.4,0.2-0.5,0.4c0,0,0,0.1,0,0.1C29.5,11.3,29.5,11.3,29.5,11.3z"/>
							</g>
						</g>
					</g>
					<g>
						<path class="st15" d="M30.8,12.4c-0.3,0.3-0.4,1.3-0.1,1.7c-0.3,0-0.5,0.2-0.6,0.4c-0.1,0.2-0.2,0.5-0.2,0.7
							c0,0.4,0.3,0.9,0.6,1.1c0.4,0.2,0.9,0.1,1.2-0.2c0.2,0.5,0.6,0.6,0.9,0.6c0.4,0,0.8-0.3,0.8-0.7c1.4-0.1,1.5-1.1,1.5-1.5
							c-0.1-2.1-2-1.9-2-1.9S32,11.3,30.8,12.4z"/>
						<g>
							<path class="st16" d="M34,14.2c-0.1-0.1-0.2-0.1-0.3-0.1c0,0-0.1,0-0.1,0.1c0,0,0,0.1,0.1,0.1c0,0,0,0,0,0c0,0,0,0,0,0
								c0,0,0,0,0,0c0.1,0.1,0.1,0.2,0,0.3c0,0.1-0.1,0.1-0.2,0.1c0-0.1-0.1-0.1-0.1-0.1c-0.1,0-0.2,0-0.2,0.1c0,0.1,0,0.1,0,0.2
								c0,0,0,0.1,0.1,0.1c0,0,0,0.1,0,0.1c0,0.1-0.1,0.1-0.2,0.2c0,0,0,0,0,0c-0.1,0-0.2,0-0.3,0c0,0,0,0,0,0
								c-0.1,0-0.1-0.1-0.2-0.1c0,0,0,0,0-0.1c0,0,0-0.1,0-0.1c0-0.1-0.1-0.1-0.1-0.1c-0.1,0-0.1,0.1-0.2,0.1c0,0,0,0-0.1,0
								c0,0,0,0,0,0c0,0,0,0,0,0c0,0,0,0,0,0c-0.1,0-0.1,0-0.2,0c-0.1,0-0.3-0.1-0.3-0.3c0-0.2,0-0.3,0.1-0.5c0,0,0.1-0.1,0.1-0.1
								c0.1,0,0.1-0.1,0.2,0c0,0,0.1,0,0.1-0.1c0,0,0-0.1-0.1-0.1c-0.2,0-0.4,0-0.5,0.2c-0.1,0.1-0.2,0.3-0.2,0.5
								c0,0.2,0.1,0.4,0.2,0.5c0.1,0.1,0.3,0.2,0.5,0.2c0.1,0,0.2,0,0.3,0c0,0,0,0,0,0c0,0.1,0.1,0.1,0.1,0.1
								c0.1,0.1,0.2,0.2,0.4,0.2c0.2,0,0.3,0,0.4-0.1c0.1-0.1,0.2-0.2,0.3-0.4c0,0,0,0,0-0.1c0,0,0.1,0,0.1,0c0.1,0,0.2-0.1,0.2-0.2
								C34.2,14.6,34.2,14.3,34,14.2z"/>
							<g>
								<path class="st16" d="M32.8,14c-0.1,0.1-0.1,0.3,0,0.4c0,0.1,0.1,0.1,0.2,0.1c0.1,0,0.1,0,0.2,0c0.1,0,0.1-0.1,0.2-0.1
									c0-0.1,0-0.1,0-0.2c0,0,0,0-0.1,0c0,0,0,0-0.1,0c0,0,0,0,0,0c0,0-0.1,0-0.1,0c0,0,0,0,0-0.1c0,0,0,0,0-0.1c0,0,0,0,0-0.1
									c0,0,0,0,0,0c0,0,0-0.1-0.1-0.1C32.9,13.9,32.8,13.9,32.8,14z"/>
							</g>
						</g>
					</g>
				</g>
			</g>
		</g>
		<g>
			<g>
				<path class="st3" d="M31.4,18.6c0.1,0,0.2-0.1,0.2-0.2c0-0.1-0.1-0.2-0.2-0.2c-0.1,0-0.2,0.1-0.2,0.2
					C31.2,18.5,31.3,18.6,31.4,18.6L31.4,18.6z"/>
			</g>
			<g>
				<path class="st3" d="M29.7,19c0.1,0,0.2-0.1,0.2-0.2c0-0.1-0.1-0.2-0.2-0.2c-0.1,0-0.2,0.1-0.2,0.2C29.4,18.9,29.5,19,29.7,19
					L29.7,19z"/>
			</g>
			<g>
				<path class="st3" d="M28.7,19.7c0.1,0,0.2-0.1,0.2-0.2c0-0.1-0.1-0.2-0.2-0.2c-0.1,0-0.2,0.1-0.2,0.2
					C28.5,19.6,28.6,19.7,28.7,19.7L28.7,19.7z"/>
			</g>
			<g>
				<path class="st3" d="M26.1,19c0.1,0,0.2-0.1,0.2-0.2c0-0.1-0.1-0.2-0.2-0.2c-0.1,0-0.2,0.1-0.2,0.2C25.9,18.8,26,19,26.1,19
					L26.1,19z"/>
			</g>
			<g>
				<path class="st3" d="M25.7,19.9c0.1,0,0.2-0.1,0.2-0.2c0-0.2-0.2-0.2-0.3-0.2c0,0-0.1,0-0.1,0.1c-0.1,0.1-0.1,0.2,0,0.3
					c0,0,0.1,0,0.1,0.1C25.6,19.9,25.6,19.9,25.7,19.9z"/>
			</g>
			<g>
				<path class="st3" d="M23.9,19c0.1,0,0.2-0.1,0.2-0.2c0-0.1-0.1-0.2-0.2-0.2c-0.1,0-0.2,0.1-0.2,0.2C23.7,18.9,23.8,19,23.9,19
					L23.9,19z"/>
			</g>
			<g>
				<path class="st3" d="M22.6,18.9c0.1,0,0.2-0.1,0.2-0.2c0-0.1-0.1-0.2-0.2-0.2c-0.1,0-0.2,0.1-0.2,0.2
					C22.4,18.8,22.5,18.9,22.6,18.9L22.6,18.9z"/>
			</g>
			<g>
				<path class="st3" d="M23.3,20.3c0.1,0,0.2-0.1,0.2-0.2c0-0.1-0.1-0.2-0.2-0.2c-0.1,0-0.2,0.1-0.2,0.2
					C23.1,20.2,23.2,20.3,23.3,20.3L23.3,20.3z"/>
			</g>
			<g>
				<path class="st3" d="M24.3,19.9c0.1,0,0.2-0.1,0.2-0.2c0-0.1-0.1-0.2-0.2-0.2c-0.1,0-0.2,0.1-0.2,0.2
					C24.1,19.8,24.2,19.9,24.3,19.9L24.3,19.9z"/>
			</g>
			<g>
				<path class="st3" d="M30.5,20.4c0.1,0,0.2-0.1,0.2-0.2c0-0.1-0.1-0.2-0.2-0.2c-0.1,0-0.2,0.1-0.2,0.2
					C30.2,20.3,30.3,20.4,30.5,20.4L30.5,20.4z"/>
			</g>
			<g>
				<path class="st3" d="M31.1,19.5c0.1,0,0.2-0.1,0.2-0.2c0-0.1-0.1-0.2-0.2-0.2c-0.1,0-0.2,0.1-0.2,0.2
					C30.9,19.4,31,19.5,31.1,19.5L31.1,19.5z"/>
			</g>
			<g>
				<path class="st3" d="M32.8,18.2c0.1,0,0.2-0.1,0.2-0.2c0-0.1-0.1-0.2-0.2-0.2c-0.1,0-0.2,0.1-0.2,0.2
					C32.7,18.1,32.7,18.2,32.8,18.2L32.8,18.2z"/>
			</g>
			<g>
				<path class="st3" d="M21.9,19.6c0.1,0,0.2-0.1,0.2-0.2c0-0.1-0.1-0.2-0.2-0.2c-0.1,0-0.2,0.1-0.2,0.2
					C21.8,19.6,21.8,19.6,21.9,19.6L21.9,19.6z"/>
			</g>
			<g>
				<path class="st3" d="M24.8,20.8c0.1,0,0.2-0.1,0.2-0.2c0-0.1-0.1-0.2-0.2-0.2c-0.1,0-0.2,0.1-0.2,0.2
					C24.7,20.7,24.7,20.8,24.8,20.8L24.8,20.8z"/>
			</g>
			<g>
				<path class="st3" d="M32.2,20.2c0.1,0,0.2-0.1,0.2-0.2c0-0.1-0.1-0.2-0.2-0.2c-0.1,0-0.2,0.1-0.2,0.2
					C32,20.1,32.1,20.2,32.2,20.2L32.2,20.2z"/>
			</g>
			<g>
				<path class="st3" d="M32.9,19.5c0.1,0,0.2-0.1,0.2-0.2c0-0.1-0.1-0.2-0.2-0.2c-0.1,0-0.2,0.1-0.2,0.2
					C32.6,19.4,32.7,19.5,32.9,19.5L32.9,19.5z"/>
			</g>
			<g>
				<path class="st3" d="M34.2,19.1c0.1,0,0.2-0.1,0.2-0.2c0-0.1-0.1-0.2-0.2-0.2c-0.1,0-0.2,0.1-0.2,0.2C34,19,34.1,19.1,34.2,19.1
					L34.2,19.1z"/>
			</g>
		</g>
	</g>
	<g>
		<g>
			<path class="st9" d="M26.7,17.4c0.1,0,0.2-0.1,0.2-0.2c0-0.1-0.1-0.2-0.2-0.2c-0.1,0-0.2,0.1-0.2,0.2
				C26.5,17.3,26.6,17.4,26.7,17.4L26.7,17.4z"/>
		</g>
		<g>
			<path class="st9" d="M27.7,18.2c0.1,0,0.2-0.1,0.2-0.2c0-0.1-0.1-0.2-0.2-0.2c-0.1,0-0.2,0.1-0.2,0.2
				C27.4,18.1,27.5,18.2,27.7,18.2L27.7,18.2z"/>
		</g>
		<g>
			<path class="st9" d="M28.7,17.3c0.1,0,0.2-0.1,0.2-0.2c0-0.1-0.1-0.2-0.2-0.2c-0.1,0-0.2,0.1-0.2,0.2
				C28.4,17.2,28.6,17.3,28.7,17.3L28.7,17.3z"/>
		</g>
		<g>
			<path class="st9" d="M30,17.3c0.4-0.1,0.2-0.7-0.2-0.6c-0.2,0.1-0.3,0.4-0.1,0.5C29.8,17.3,29.9,17.3,30,17.3z"/>
		</g>
		<g>
			<path class="st9" d="M29.5,16.3c0.1,0,0.2-0.1,0.2-0.2c0-0.1-0.1-0.2-0.2-0.2c-0.1,0-0.2,0.1-0.2,0.2
				C29.3,16.2,29.4,16.3,29.5,16.3L29.5,16.3z"/>
		</g>
		<g>
			<path class="st9" d="M31.2,17.4c0.1,0,0.2-0.1,0.2-0.2c0-0.1-0.1-0.2-0.2-0.2c-0.1,0-0.2,0.1-0.2,0.2
				C31,17.3,31.1,17.4,31.2,17.4L31.2,17.4z"/>
		</g>
		<g>
			<path class="st9" d="M27.2,16.5c0.1,0,0.2-0.1,0.2-0.2c0-0.1-0.1-0.2-0.2-0.2c-0.1,0-0.2,0.1-0.2,0.2
				C26.9,16.4,27,16.5,27.2,16.5L27.2,16.5z"/>
		</g>
		<g>
			<path class="st9" d="M25.9,17.7c0.1,0,0.2-0.1,0.2-0.2c0-0.1-0.1-0.2-0.2-0.2c-0.1,0-0.2,0.1-0.2,0.2
				C25.7,17.6,25.8,17.7,25.9,17.7L25.9,17.7z"/>
		</g>
		<g>
			<path class="st9" d="M24.2,17.5c0.1,0,0.2-0.1,0.2-0.2c0-0.1-0.1-0.2-0.2-0.2c-0.1,0-0.2,0.1-0.2,0.2
				C24,17.4,24.1,17.5,24.2,17.5L24.2,17.5z"/>
		</g>
		<g>
			<path class="st9" d="M32.4,17.1c0.1,0,0.2-0.1,0.2-0.2c0-0.1-0.1-0.2-0.2-0.2c-0.1,0-0.2,0.1-0.2,0.2
				C32.2,17,32.3,17.1,32.4,17.1L32.4,17.1z"/>
		</g>
	</g>
</g>
</svg>
