<?xml version="1.0" encoding="utf-8"?>
<!-- Generator: Adobe Illustrator 27.3.1, SVG Export Plug-In . SVG Version: 6.00 Build 0)  -->
<svg version="1.1" id="Layer_1" xmlns="http://www.w3.org/2000/svg" xmlns:xlink="http://www.w3.org/1999/xlink" x="0px" y="0px"
	 viewBox="0 0 56.69 56.69" style="enable-background:new 0 0 56.69 56.69;" xml:space="preserve">
<style type="text/css">
	.st0{fill:#5E5F64;}
	.st1{fill:#E8B539;}
	.st2{fill:#FFD674;}
	.st3{fill:#FFCC4C;}
	.st4{fill:none;}
	.st5{fill:#E69348;}
	.st6{fill:#FFE9C7;}
	.st7{fill:#EDD4AD;}
	.st8{fill:#C05C48;}
	.st9{fill:#A04D3C;}
	.st10{fill:#90C79F;}
	.st11{fill:#6EAF82;}
	.st12{fill:#B87130;}
	.st13{fill:#A8DAD2;}
	.st14{fill:#61B3A6;}
</style>
<g>
	<g>
		<g>
			<path class="st0" d="M18.71,48.12c0.02-0.91,0.03-1.83,0.03-2.74c0-0.89,0-1.78,0-2.68c0-0.89,0-1.78,0-2.67
				c0-0.89,0-1.78,0-2.67c0-0.46,0-0.91,0-1.37c0-0.46,0.01-0.91-0.01-1.37c-0.01-0.11-0.01-0.23-0.02-0.34
				c-0.01-0.1-0.08-0.19-0.19-0.19c-0.11,0-0.18,0.09-0.19,0.19c-0.01,0.23-0.03,0.46-0.03,0.69c0,0.23,0,0.46,0,0.68
				c0,0.46,0,0.91,0,1.37c0,0.89,0,1.78,0,2.68c0,0.89,0,1.78,0,2.67c0,0.89,0,1.78,0,2.67c0,0.91,0.01,1.82,0.02,2.73
				c0,0.11,0,0.23,0.01,0.34C18.35,48.35,18.71,48.35,18.71,48.12L18.71,48.12z"/>
		</g>
		<g>
			<path class="st1" d="M18.53,48.92c0.4,0,0.82-0.38,0.8-0.8c-0.01-0.21-0.08-0.42-0.23-0.57c-0.16-0.14-0.35-0.23-0.57-0.23
				c-0.41,0-0.82,0.36-0.8,0.8c0.01,0.21,0.08,0.42,0.23,0.57C18.12,48.83,18.31,48.92,18.53,48.92z"/>
		</g>
		<g>
			<path class="st2" d="M18.53,47.05c0.27,0,0.55-0.26,0.54-0.54c-0.01-0.14-0.05-0.28-0.16-0.38c-0.1-0.1-0.23-0.16-0.38-0.16
				c-0.27,0-0.55,0.24-0.54,0.54c0.01,0.14,0.05,0.28,0.16,0.38C18.25,46.99,18.38,47.05,18.53,47.05z"/>
		</g>
		<g>
			<path class="st1" d="M18.53,45.37c0.27,0,0.55-0.26,0.54-0.54c-0.01-0.14-0.05-0.28-0.16-0.38c-0.1-0.1-0.23-0.16-0.38-0.16
				c-0.27,0-0.55,0.24-0.54,0.54c0.01,0.14,0.05,0.28,0.16,0.38C18.25,45.31,18.38,45.37,18.53,45.37z"/>
		</g>
		<g>
			<path class="st2" d="M18.53,43.7c0.27,0,0.55-0.26,0.54-0.54c-0.01-0.14-0.05-0.28-0.16-0.38c-0.1-0.1-0.23-0.16-0.38-0.16
				c-0.27,0-0.55,0.24-0.54,0.54c0.01,0.14,0.05,0.28,0.16,0.38C18.25,43.64,18.38,43.7,18.53,43.7z"/>
		</g>
		<g>
			<path class="st1" d="M18.53,41.78c0.27,0,0.55-0.26,0.54-0.54c-0.01-0.14-0.05-0.28-0.16-0.38c-0.1-0.1-0.23-0.16-0.38-0.16
				c-0.27,0-0.55,0.24-0.54,0.54c0.01,0.14,0.05,0.28,0.16,0.38C18.25,41.72,18.38,41.78,18.53,41.78z"/>
		</g>
		<g>
			<path class="st3" d="M16.91,37.34l1.13-0.06l0.29-1.09c0.02-0.08,0.13-0.08,0.16-0.01l0.41,1.06l1.13-0.06
				c0.08,0,0.12,0.1,0.06,0.15l-0.88,0.71l0.41,1.06c0.03,0.08-0.05,0.14-0.12,0.1l-0.95-0.61l-0.88,0.71
				c-0.06,0.05-0.15-0.01-0.13-0.09l0.29-1.09l-0.95-0.61C16.8,37.45,16.83,37.35,16.91,37.34z"/>
		</g>
	</g>
	<g>
		<path class="st0" d="M24.85,43.29c0.01-0.79,0.03-1.58,0.03-2.37c0-0.79,0.01-1.58,0.01-2.36c0-0.45,0-0.89-0.01-1.34
			c0-0.11-0.09-0.21-0.21-0.21c-0.11,0.01-0.21,0.09-0.21,0.21c-0.01,0.79-0.01,1.58,0,2.37c0,0.79,0,1.58,0.02,2.36
			c0.01,0.45,0.01,0.89,0.02,1.34c0,0.09,0.08,0.18,0.18,0.18C24.77,43.47,24.85,43.39,24.85,43.29L24.85,43.29z"/>
	</g>
	<g>
		<path class="st0" d="M32.79,49.86c0.01-0.26,0.03-0.51,0.04-0.77c0-0.25,0-0.49,0-0.74c0-0.5,0-1,0.01-1.51
			c0-1,0.01-2.01,0.01-3.01c0-2,0.01-4,0.01-5.99c0-0.56,0-1.13,0-1.69c0-0.56,0.02-1.13-0.03-1.69c-0.01-0.11-0.09-0.21-0.21-0.21
			c-0.12,0-0.2,0.1-0.21,0.21c-0.01,0.12-0.03,0.25-0.03,0.37c0,0.13,0,0.27,0,0.4c0,0.25,0,0.49,0,0.74c0,0.5,0,1,0,1.51
			c0,1,0,2.01,0.01,3.01c0,2,0.01,4,0.01,5.99c0,0.56,0,1.13,0.01,1.69c0,0.28,0,0.55,0,0.83c0,0.29,0.02,0.57,0.04,0.86
			C32.46,50.08,32.77,50.08,32.79,49.86L32.79,49.86z"/>
	</g>
	<g>
		<path class="st0" d="M38.7,40.96c0.02-1.24,0.03-2.48,0.04-3.72c0-1.24,0.01-2.48,0.01-3.72c0-0.34,0-0.69,0-1.03
			c0-0.18,0-0.35,0-0.53c0-0.18-0.01-0.35-0.03-0.53c-0.01-0.11-0.09-0.21-0.21-0.21c-0.12,0.01-0.2,0.09-0.21,0.21
			c-0.01,0.16-0.02,0.31-0.02,0.47c0,0.16,0,0.31,0,0.47c0,0.31,0,0.61,0,0.92c0,0.62,0,1.24,0.01,1.87c0,1.24,0.01,2.48,0.02,3.72
			c0.01,0.69,0.01,1.39,0.02,2.08c0,0.09,0.08,0.18,0.18,0.18C38.62,41.14,38.7,41.06,38.7,40.96L38.7,40.96z"/>
	</g>
	<path class="st3" d="M39.48,18.8c-4.08-6.33-13.29-7.98-19.58-3.73c-1.44,0.98-2.68,2.25-3.61,3.73c-2.23,3.57-2.85,8.4-0.86,12.25
		c1.99,3.85,6.37,6.08,10.53,6.62c4.45,0.57,9.25-0.87,12.42-4.11c3.45-3.53,3.98-8.76,1.96-13.18
		C40.08,19.82,39.8,19.29,39.48,18.8z"/>
	<path class="st4" d="M18.75,28.53c0.48,1.26,2.64,0.79,2.47-0.56C20.98,26.13,18.16,27.01,18.75,28.53z"/>
	<g>
		<g>
			<path class="st0" d="M25.44,21.62c-0.02-0.54-0.09-1.09-0.22-1.61c-0.01-0.05-0.04-0.12-0.07-0.17c-0.06-0.12-0.21-0.2-0.34-0.16
				c-0.12,0.04-0.2,0.13-0.21,0.25c-0.03,0.14,0.02,0.29,0.05,0.43c0.02,0.12,0.04,0.24,0.06,0.36c0.08,0.6,0.11,1.23,0.04,1.84
				c-0.07,0.64-0.32,1.51-1.08,1.59c-0.11,0.01-0.21,0.01-0.32,0c-0.83-0.14-1.45-0.83-1.88-1.5c-0.14-0.21-0.26-0.42-0.38-0.64
				c-0.12-0.23-0.22-0.48-0.3-0.73c-0.04-0.13-0.18-0.23-0.32-0.18c-0.14,0.05-0.22,0.18-0.18,0.32c0.22,0.95,0.69,1.85,1.38,2.55
				c0.35,0.36,0.79,0.65,1.27,0.8c0.38,0.11,0.82,0.12,1.19-0.03c0.28-0.11,0.52-0.27,0.71-0.51c0.19-0.24,0.33-0.52,0.42-0.81
				C25.43,22.84,25.47,22.22,25.44,21.62z"/>
			<g>
				<path class="st0" d="M23.17,25.42c0-0.02,0.01-0.03,0.01-0.05c0.05-0.19,0.09-0.38,0.13-0.56c0.05-0.22,0.02-0.51-0.27-0.51
					c-0.24,0-0.3,0.22-0.34,0.41c-0.04,0.21-0.18,0.98,0.22,0.96C23.07,25.66,23.13,25.53,23.17,25.42z"/>
			</g>
			<g>
				<path class="st0" d="M24.69,25.2c-0.01-0.25-0.18-0.57-0.24-0.71c-0.01-0.02-0.01-0.03-0.02-0.05
					c-0.03-0.05-0.08-0.09-0.13-0.12c-0.08-0.06-0.21-0.05-0.29,0c-0.04,0.03-0.08,0.06-0.1,0.1c-0.03,0.04-0.04,0.09-0.04,0.14
					c-0.01,0.1,0.05,0.21,0.1,0.3c0.08,0.16,0.14,0.34,0.26,0.47c0.17,0.19,0.46,0.18,0.46-0.12C24.69,25.21,24.69,25.2,24.69,25.2z
					"/>
			</g>
			<g>
				<path class="st0" d="M25.71,24.16c-0.11-0.13-0.29-0.25-0.43-0.36c-0.14-0.1-0.31-0.22-0.49-0.18
					c-0.06,0.01-0.13,0.07-0.16,0.12c-0.03,0.06-0.04,0.13-0.03,0.2c0.01,0.05,0.04,0.11,0.08,0.14c0.2,0.2,0.49,0.3,0.75,0.41
					c-0.02-0.01-0.03-0.01-0.05-0.02c0.12,0.05,0.25,0.09,0.34-0.03C25.8,24.36,25.79,24.25,25.71,24.16
					C25.71,24.16,25.71,24.16,25.71,24.16z"/>
			</g>
		</g>
		<g>
			<path class="st0" d="M30.29,21.62c0.02-0.54,0.09-1.09,0.22-1.61c0.01-0.05,0.04-0.12,0.07-0.17c0.06-0.12,0.21-0.2,0.34-0.16
				c0.12,0.04,0.2,0.13,0.21,0.25c0.03,0.14-0.02,0.29-0.05,0.43c-0.02,0.12-0.04,0.24-0.06,0.36c-0.08,0.6-0.11,1.23-0.04,1.84
				c0.07,0.64,0.32,1.51,1.08,1.59c0.11,0.01,0.21,0.01,0.32,0c0.83-0.14,1.45-0.83,1.88-1.5c0.14-0.21,0.26-0.42,0.38-0.64
				c0.12-0.23,0.22-0.48,0.3-0.73c0.04-0.13,0.18-0.23,0.32-0.18c0.14,0.05,0.22,0.18,0.18,0.32c-0.22,0.95-0.69,1.85-1.38,2.55
				c-0.35,0.36-0.79,0.65-1.27,0.8c-0.38,0.11-0.82,0.12-1.19-0.03c-0.28-0.11-0.52-0.27-0.71-0.51c-0.19-0.24-0.33-0.52-0.42-0.81
				C30.3,22.84,30.27,22.22,30.29,21.62z"/>
			<g>
				<path class="st0" d="M32.57,25.42c0-0.02-0.01-0.03-0.01-0.05c-0.05-0.19-0.09-0.38-0.13-0.56c-0.05-0.22-0.02-0.51,0.27-0.51
					c0.24,0,0.3,0.22,0.34,0.41c0.04,0.21,0.18,0.98-0.22,0.96C32.67,25.66,32.61,25.53,32.57,25.42z"/>
			</g>
			<g>
				<path class="st0" d="M31.05,25.2c0.01-0.25,0.18-0.57,0.24-0.71c0.01-0.02,0.01-0.03,0.02-0.05c0.03-0.05,0.08-0.09,0.13-0.12
					c0.08-0.06,0.21-0.05,0.29,0c0.04,0.03,0.08,0.06,0.1,0.1c0.03,0.04,0.04,0.09,0.04,0.14c0.01,0.1-0.05,0.21-0.1,0.3
					c-0.08,0.16-0.14,0.34-0.26,0.47c-0.17,0.19-0.46,0.18-0.46-0.12C31.05,25.21,31.05,25.2,31.05,25.2z"/>
			</g>
			<g>
				<path class="st0" d="M30.03,24.16c0.11-0.13,0.29-0.25,0.43-0.36c0.14-0.1,0.31-0.22,0.49-0.18c0.06,0.01,0.13,0.07,0.16,0.12
					c0.03,0.06,0.04,0.13,0.03,0.2c-0.01,0.05-0.04,0.11-0.08,0.14c-0.2,0.2-0.49,0.3-0.75,0.41c0.02-0.01,0.03-0.01,0.05-0.02
					c-0.12,0.05-0.25,0.09-0.34-0.03C29.94,24.36,29.95,24.25,30.03,24.16C30.03,24.16,30.03,24.16,30.03,24.16z"/>
			</g>
		</g>
		<path class="st0" d="M29.11,25.62c-0.02-0.08-0.04-0.14-0.09-0.18c-0.04-0.03-0.08-0.05-0.13-0.06c-0.09-0.01-0.18,0.02-0.23,0.09
			c-0.1,0.11-0.09,0.22-0.09,0.37c0,0.25-0.02,0.66-0.25,0.82c-0.19,0.13-0.42,0.03-0.59-0.08c-0.17-0.11-0.28-0.3-0.37-0.48
			c-0.06-0.11-0.11-0.22-0.17-0.34c-0.05-0.11-0.2-0.14-0.29-0.1c-0.1,0.04-0.18,0.17-0.14,0.28c0.09,0.24,0.18,0.49,0.33,0.71
			c0.2,0.31,0.53,0.56,0.9,0.61c0.51,0.08,0.9-0.26,1.05-0.72c0.06-0.18,0.1-0.37,0.1-0.56C29.13,25.89,29.13,25.74,29.11,25.62z"/>
	</g>
	<path class="st5" d="M18.75,28.52c0.71,1.81,3.68,0.47,2.33-1.29c-0.81-1.06-2.81-0.08-2.34,1.25
		C18.74,28.49,18.75,28.51,18.75,28.52z"/>
	<path class="st5" d="M34.62,27.22c0.71,1.81,3.68,0.47,2.33-1.29c-0.81-1.06-2.81-0.08-2.34,1.25
		C34.61,27.19,34.61,27.21,34.62,27.22z"/>
	<g>
		<path class="st6" d="M47.73,7.79c-0.64-0.35-2.15-0.38-2.18-0.38c-0.01-0.19-0.07-1.27-0.09-1.62c-0.01-0.11-0.07-0.22-0.19-0.24
			c-0.11-0.02-0.23,0.01-0.29,0.12c-0.29,0.55-0.57,1.1-0.85,1.66C44.06,7.31,42.54,7.1,42.12,7c-0.11-0.02-0.24,0.01-0.3,0.12
			c-0.05,0.1-0.04,0.23,0.04,0.32c0.5,0.49,1,0.99,1.5,1.48c-0.02,0.04-0.73,0.95-0.68,1.26c0.02,0.14,0.2,0.24,0.34,0.2
			c0.45-0.15,0.89-0.31,1.33-0.48c0.07,0.07,0.74,0.72,0.99,0.97c0.08,0.08,0.2,0.1,0.31,0.06c0.09-0.04,0.18-0.15,0.17-0.26
			c-0.05-0.45-0.09-0.9-0.13-1.34c0.35-0.16,1.71-0.86,2.04-1.05C47.91,8.17,47.91,7.89,47.73,7.79z"/>
		<path class="st7" d="M44.61,12.63c-0.07-0.1-0.18-0.14-0.3-0.12c-0.1,0.02-0.2,0.04-0.3,0.06c-0.03-0.24-0.05-0.48-0.07-0.72
			c-0.01-0.12-0.08-0.21-0.2-0.23c-0.12-0.02-0.22,0.05-0.25,0.17c-0.09,0.3-0.19,0.59-0.28,0.89c-0.39,0.04-0.77,0.06-1.16,0.07
			c-0.11,0-0.22,0.08-0.24,0.19c-0.02,0.1,0.01,0.24,0.12,0.29c0.32,0.16,0.48,0.24,0.8,0.4c0,0-0.19,0.6-0.09,0.69
			c0.1,0.09,0.27,0.11,0.37,0c0.02-0.02,0.3-0.3,0.37-0.37c0.16,0.08,0.32,0.16,0.48,0.24c0.09,0.04,0.19,0.04,0.27-0.02
			c0.08-0.06,0.11-0.16,0.09-0.26c-0.03-0.17-0.06-0.35-0.09-0.52c0-0.02-0.01-0.05-0.01-0.07c0.15-0.12,0.3-0.24,0.45-0.36
			C44.65,12.88,44.66,12.72,44.61,12.63z"/>
		<path class="st7" d="M39.79,5.88c-0.04-0.1-0.09-0.18-0.16-0.25c-0.05-0.06-0.11-0.11-0.17-0.17l-0.1-0.1
			c0.03-0.04,0.06-0.09,0.09-0.13c0.09-0.12,0.18-0.24,0.28-0.35c0.09-0.1,0.1-0.24,0.02-0.35c-0.08-0.1-0.23-0.13-0.34-0.07
			C39.2,4.58,39,4.7,38.79,4.81c-0.14-0.14-0.29-0.28-0.43-0.41c-0.08-0.07-0.2-0.1-0.29-0.04c-0.09,0.06-0.13,0.16-0.11,0.27
			c0.02,0.11,0.04,0.22,0.06,0.34c0,0.03,0.05,0.22,0.02,0.23c-0.22,0.11-0.44,0.21-0.67,0.31c-0.1,0.04-0.15,0.2-0.12,0.3
			c0.03,0.11,0.14,0.2,0.25,0.19c0.19-0.01,0.39-0.02,0.58-0.01c0,0,0.06,0.36,0.1,0.52c0.08,0.34,0.45,0.23,0.52,0.12
			c0.08-0.15,0.19-0.4,0.26-0.55c0.01,0,0.01,0,0.02,0c0.17,0.03,0.34,0.07,0.5,0.12c0.09,0.02,0.19,0,0.25-0.07
			C39.78,6.08,39.82,5.97,39.79,5.88z"/>
	</g>
	<path class="st0" d="M44.28,26.68c-0.98,0.59-2,1.12-3.05,1.59c-0.2,0.09-0.4,0.18-0.61,0.27c-2.96,1.29-6.03,2.3-9.16,3.08
		c-3.5,0.87-7.08,1.38-10.67,1.68c-1.21,0.1-2.41,0.17-3.62,0.16c-0.57,0-1.13-0.02-1.7-0.07c-2.32-0.16-4.85-0.49-6.64-2.11
		c-1.29-1.16-1.56-3-0.98-4.59c0.97-2.64,3.74-4.42,6.2-5.5c0.33-0.14,0.81-0.37,1.29-0.58c-0.46,1.08-0.79,2.22-0.97,3.39
		c-0.68,0.41-1.33,0.88-1.91,1.42c-0.67,0.63-1.53,1.53-1.71,2.47c-0.1,0.53,0.18,0.98,0.62,1.27c1.02,0.67,2.37,0.74,3.54,0.83
		c0.02,0,0.03,0,0.05,0c1.03,0.08,2.07,0.1,3.1,0.08c2.09-0.04,4.17-0.26,6.24-0.55c1.21-0.16,2.41-0.36,3.6-0.6
		c3.62-0.74,7.21-1.8,10.63-3.23c0.98-0.42,1.96-0.88,2.91-1.4c0.89-0.49,1.76-1.03,2.57-1.64c0.54-0.41,1.14-0.9,1.52-1.47
		c0.29-0.43,0.3-0.88-0.14-1.21c-1.12-0.82-2.79-0.8-4.11-0.87c-0.54-0.03-1.08-0.03-1.62-0.02c-0.06-0.1-0.12-0.2-0.19-0.3
		c-0.66-1.02-1.44-1.92-2.33-2.69c2.17-0.23,6.23-0.47,9.18,0.63c0.21,0.08,0.4,0.19,0.6,0.3c1.16,0.67,2.04,1.81,2.19,3.16
		c0,0,0,0.01,0,0.01C49.43,23.14,46.47,25.34,44.28,26.68z"/>
	<g>
		<g>
			<path class="st8" d="M30.44,10.06c-0.74,0.5-1.11,1.43-1.1,2.32c0.01,0.8,0.31,1.6,0.89,2.15c0.58,0.55,1.45,0.81,2.21,0.58
				c0.41,0.89,1.43,1.45,2.39,1.32c0.63-0.08,1.28-0.54,1.31-1.17c0.46,0.17,0.97-0.04,1.35-0.34c0.59-0.44,1.04-1.12,1.02-1.86
				c-0.02-0.73-0.62-1.46-1.35-1.45c0.22-0.4,0.2-0.91-0.01-1.33c-0.2-0.41-0.56-0.73-0.96-0.96C35.6,9,34.88,8.87,34.23,9.05
				c-0.39,0.1-0.83,0.38-1.1,0.7c-0.08,0.09-0.14,0.27-0.25,0.33c-0.1,0.06-0.22-0.02-0.31-0.07C31.92,9.61,31.07,9.64,30.44,10.06z
				"/>
			<path class="st9" d="M35.32,12.73c-0.1-0.13-0.23-0.25-0.37-0.34c-0.07-0.04-0.16-0.08-0.24-0.1c-0.1-0.01-0.2,0-0.29,0.04
				c-0.09,0.03-0.16,0.14-0.15,0.23c0.01,0.09,0.08,0.2,0.19,0.2c0.21,0.01,0.41,0.16,0.5,0.34c0.11,0.21,0.02,0.5-0.22,0.58
				c-0.22,0.08-0.48-0.02-0.61-0.2c-0.08-0.1-0.25-0.15-0.35-0.06c-0.06,0.05-0.09,0.1-0.16,0.13c-0.07,0.03-0.15,0.04-0.22,0.02
				c-0.22-0.04-0.35-0.22-0.38-0.43c-0.04-0.24,0-0.51,0.1-0.72c0.05-0.11,0.11-0.22,0.17-0.32c0.06-0.1,0-0.25-0.1-0.3
				c-0.12-0.05-0.23,0-0.3,0.1c-0.29,0.45-0.48,0.99-0.29,1.52c0.14,0.39,0.49,0.65,0.91,0.65c0.14,0,0.29-0.04,0.41-0.11
				c0.33,0.27,0.82,0.35,1.2,0.1c0.21-0.14,0.35-0.36,0.41-0.6C35.57,13.21,35.49,12.94,35.32,12.73z"/>
			<path class="st9" d="M35.33,11.37c-0.22-0.17-0.49-0.28-0.78-0.22c-0.24,0.05-0.46,0.24-0.51,0.49
				c-0.02,0.11,0.06,0.24,0.17,0.25c0.24,0.03,0.22-0.27,0.43-0.29c0.08-0.01,0.16,0.01,0.24,0.04c0.15,0.06,0.36,0.18,0.48,0
				C35.42,11.56,35.41,11.44,35.33,11.37z"/>
		</g>
		<path class="st10" d="M32.82,6.09c-1.04,0.29-2.03,0.83-2.73,1.66c-0.38,0.45-0.67,0.97-0.83,1.53c-0.08,0.28-0.13,0.57-0.15,0.86
			c-0.02,0.29-0.03,0.61,0.08,0.89c0.06,0.17,0.16,0.34,0.27,0.48c0.13,0.15,0.33,0.18,0.51,0.13c0.97-0.27,1.54-1.28,1.94-2.12
			c0.3-0.64,0.57-1.3,0.83-1.96c0.15-0.37,0.29-0.75,0.43-1.13C33.25,6.24,33.02,6.04,32.82,6.09z"/>
		<path class="st11" d="M21.03,12.01c-0.39-0.57-0.96-1.05-1.57-1.38c-0.69-0.36-1.42-0.46-2.2-0.42c-0.47,0.02-0.94,0.05-1.41,0.08
			c-0.09,0.01-0.17,0.05-0.22,0.13c-0.04,0.08-0.05,0.18,0,0.26c0.4,0.62,0.95,1.14,1.6,1.49c0.7,0.38,1.5,0.56,2.3,0.51
			c0.26-0.02,0.52-0.07,0.77-0.13c0.21-0.05,0.51-0.08,0.68-0.21C21.06,12.26,21.1,12.11,21.03,12.01z"/>
		<path class="st10" d="M21.39,10.04c-0.24-0.42-0.55-0.8-0.86-1.17c-0.36-0.43-0.74-0.84-1.11-1.26c-0.07-0.07-0.19-0.09-0.27-0.05
			c-0.09,0.04-0.15,0.13-0.15,0.23c0,0.46,0.02,0.91,0.06,1.36c0.04,0.43,0.1,0.87,0.21,1.29c0.11,0.41,0.25,0.88,0.56,1.18
			c0.36,0.35,0.98,0.59,1.48,0.46c0.29-0.07,0.39-0.36,0.43-0.62C21.8,10.96,21.64,10.48,21.39,10.04z"/>
		<path class="st11" d="M30.27,7.72c-0.05-0.48-0.19-0.95-0.33-1.41c-0.16-0.54-0.34-1.07-0.52-1.6c-0.03-0.09-0.14-0.16-0.23-0.16
			c-0.1,0-0.19,0.06-0.23,0.15c-0.18,0.42-0.35,0.84-0.49,1.28c-0.14,0.41-0.26,0.84-0.32,1.27c-0.06,0.42-0.12,0.9,0.05,1.31
			c0.19,0.47,0.67,0.93,1.18,1.01c0.29,0.05,0.5-0.17,0.64-0.4C30.28,8.72,30.32,8.21,30.27,7.72z"/>
		<g>
			<path class="st5" d="M22.16,9.21c-0.44,0.24-0.76,0.66-0.93,1.14c-0.24,0.68-0.18,1.46,0.18,2.09c0.35,0.63,0.99,1.1,1.69,1.25
				c-0.44,0.46-0.48,1.23-0.14,1.78c0.34,0.54,0.98,0.86,1.62,0.87c0.64,0.01,1.27-0.25,1.77-0.64c0.69,0.85,2.04,0.97,2.98,0.42
				c0.95-0.55,1.5-1.63,1.62-2.71c0.05-0.44,0.03-0.89-0.14-1.3c-0.16-0.41-0.49-0.76-0.92-0.89c0.66-0.6,0.82-1.62,0.53-2.46
				c-0.16-0.47-0.47-0.9-0.9-1.14c-0.27-0.15-0.59-0.22-0.9-0.25c-0.67-0.05-1.35,0.09-1.93,0.41c-0.48-0.61-1.38-0.84-2.09-0.52
				c-0.43,0.19-0.76,0.57-0.92,1c-0.08,0.22-0.12,0.45-0.12,0.69c0,0.12,0,0.23-0.14,0.18c-0.13-0.05-0.25-0.08-0.39-0.09
				C22.74,9,22.43,9.07,22.16,9.21z"/>
			<g>
				<g>
					<path class="st12" d="M24.93,12.65C24.92,12.65,24.92,12.65,24.93,12.65C24.92,12.65,24.92,12.65,24.93,12.65
						C24.92,12.65,24.93,12.65,24.93,12.65z"/>
					<path class="st12" d="M25.67,10.83c0.01,0.01,0.01,0.01,0.02,0.02C25.69,10.84,25.68,10.83,25.67,10.83
						C25.67,10.83,25.67,10.83,25.67,10.83z"/>
					<path class="st12" d="M26.21,10.36c-0.01,0.01-0.01,0.02,0,0.01c0-0.01,0.01-0.02,0.01-0.03
						C26.22,10.35,26.21,10.35,26.21,10.36z"/>
					<polygon class="st12" points="26.22,10.34 26.22,10.34 26.22,10.34 					"/>
					<path class="st12" d="M26.43,10.07c-0.01,0-0.01,0.01-0.02,0.01C26.42,10.08,26.43,10.08,26.43,10.07L26.43,10.07z"/>
					<path class="st12" d="M25.11,10.7c0,0,0.01,0,0.01,0c0.01,0,0.01,0,0.02,0C25.13,10.69,25.12,10.69,25.11,10.7z"/>
					<path class="st12" d="M24.93,12.65C24.93,12.64,24.93,12.64,24.93,12.65C24.94,12.64,24.94,12.64,24.93,12.65
						c0.01-0.01,0.01-0.01,0.02-0.01C24.94,12.64,24.94,12.64,24.93,12.65z"/>
					<path class="st12" d="M24.54,11.71c0,0.01,0.01,0.01,0.01,0.02c0,0,0,0,0-0.01C24.54,11.72,24.54,11.72,24.54,11.71
						C24.54,11.72,24.54,11.71,24.54,11.71z"/>
					<path class="st12" d="M24.71,10.86c-0.01,0.01-0.02,0.02-0.02,0.02C24.71,10.87,24.71,10.86,24.71,10.86
						C24.72,10.85,24.72,10.86,24.71,10.86z"/>
					<polygon class="st12" points="25.66,10.82 25.67,10.82 25.67,10.83 					"/>
					<polygon class="st12" points="24.72,10.85 24.72,10.85 24.73,10.85 					"/>
					<path class="st12" d="M27.41,10.22c0-0.01-0.01-0.01-0.01-0.01C27.4,10.22,27.41,10.22,27.41,10.22
						C27.41,10.23,27.41,10.22,27.41,10.22z"/>
					<path class="st12" d="M27.28,10.1C27.28,10.1,27.28,10.1,27.28,10.1c0,0,0,0.01,0.01,0.01C27.3,10.12,27.3,10.11,27.28,10.1z"
						/>
					<polygon class="st12" points="26.43,10.07 26.43,10.07 26.44,10.06 					"/>
					<polygon class="st12" points="27.41,10.23 27.41,10.23 27.42,10.24 					"/>
					<path class="st12" d="M26.7,9.95C26.71,9.95,26.71,9.95,26.7,9.95c0.01,0,0.01,0,0.01,0C26.71,9.95,26.71,9.95,26.7,9.95z"/>
					<polygon class="st12" points="27.27,10.09 27.27,10.09 27.27,10.09 					"/>
					<path class="st12" d="M24.52,11.1C24.52,11.1,24.52,11.1,24.52,11.1C24.52,11.1,24.52,11.1,24.52,11.1c0-0.01,0-0.01,0-0.01
						C24.53,11.09,24.52,11.1,24.52,11.1z"/>
					<path class="st12" d="M26.72,9.95c0,0,0.01,0,0.01,0C26.73,9.95,26.72,9.95,26.72,9.95C26.72,9.95,26.72,9.95,26.72,9.95z"/>
					<path class="st12" d="M26.42,10.08c-0.01,0.01-0.01,0.01,0.02-0.02c0,0,0,0,0,0C26.43,10.08,26.42,10.08,26.42,10.08z"/>
					<path class="st12" d="M24.61,10.96C24.61,10.96,24.61,10.96,24.61,10.96C24.59,10.98,24.58,11.01,24.61,10.96z"/>
					<path class="st12" d="M24.88,10.76C24.93,10.74,24.9,10.75,24.88,10.76L24.88,10.76z"/>
					<path class="st12" d="M25.53,10.75C25.57,10.77,25.55,10.76,25.53,10.75L25.53,10.75z"/>
					<path class="st12" d="M24.93,12.13C24.93,12.13,24.93,12.13,24.93,12.13C24.88,12.1,24.91,12.12,24.93,12.13z"/>
					<path class="st12" d="M24.93,12.65C24.93,12.65,24.92,12.65,24.93,12.65C24.92,12.65,24.92,12.65,24.93,12.65
						C24.92,12.65,24.93,12.65,24.93,12.65C24.94,12.64,24.94,12.64,24.93,12.65C24.93,12.64,24.93,12.64,24.93,12.65z"/>
					<path class="st12" d="M28.05,10.31c-0.1-0.29-0.28-0.54-0.53-0.7c-0.49-0.32-1.17-0.26-1.57,0.17
						c-0.12,0.13-0.21,0.29-0.27,0.45c-0.4-0.14-0.86-0.1-1.22,0.15c-0.25,0.17-0.43,0.42-0.5,0.72c-0.06,0.3-0.02,0.6,0.11,0.88
						c0.08,0.17,0.2,0.32,0.35,0.44c-0.17,0.25-0.23,0.58-0.15,0.87c0.13,0.45,0.54,0.78,1,0.85c0.29,0.05,0.59,0.01,0.87-0.09
						c0.1-0.03,0.18-0.14,0.14-0.25c-0.04-0.13-0.14-0.15-0.26-0.14c-0.15,0.02-0.31,0.03-0.46,0.02c-0.18-0.01-0.36-0.07-0.51-0.17
						s-0.26-0.27-0.28-0.45c-0.02-0.14,0.03-0.29,0.13-0.39c0.05-0.05,0.12-0.07,0.16-0.12c0.05-0.06,0.07-0.14,0.06-0.21
						c-0.03-0.2-0.26-0.23-0.39-0.35c-0.02-0.02-0.03-0.03-0.05-0.05c-0.06-0.07-0.1-0.14-0.13-0.22c-0.13-0.32-0.08-0.72,0.23-0.91
						c0.25-0.15,0.65-0.17,0.89,0.02c0.1,0.08,0.2,0.14,0.33,0.09c0.09-0.04,0.18-0.14,0.17-0.25c-0.01-0.09,0.01-0.18,0.04-0.27
						c0.07-0.2,0.22-0.36,0.43-0.42c0.15-0.04,0.31-0.04,0.45,0.02c0.28,0.11,0.47,0.39,0.49,0.69c0.01,0.13-0.02,0.26-0.02,0.38
						c0,0.1,0.07,0.21,0.18,0.23c0.11,0.03,0.21-0.02,0.27-0.11C28.18,10.94,28.14,10.58,28.05,10.31z"/>
					<path class="st12" d="M25.67,10.82c0.03,0.03,0.03,0.03,0.02,0.02C25.68,10.84,25.68,10.83,25.67,10.82
						C25.67,10.83,25.67,10.83,25.67,10.82z"/>
					<path class="st12" d="M26.71,9.95c0.04,0,0.04,0,0.02,0C26.72,9.95,26.72,9.95,26.71,9.95C26.72,9.95,26.71,9.95,26.71,9.95z"
						/>
					<path class="st12" d="M27.4,10.21c-0.01,0-0.01,0,0.02,0.02c0,0,0,0,0,0C27.41,10.22,27.4,10.22,27.4,10.21z"/>
					<path class="st12" d="M26.21,10.37c0,0,0.01-0.01,0.01-0.03c0,0,0,0,0,0C26.22,10.35,26.21,10.36,26.21,10.37z"/>
					<path class="st12" d="M27.27,10.09c0,0.01,0.01,0.01,0.02,0.02C27.28,10.1,27.28,10.1,27.27,10.09L27.27,10.09z"/>
					<path class="st12" d="M24.7,10.87c0,0,0.01-0.01,0.03-0.02c0,0,0,0,0,0C24.71,10.86,24.71,10.87,24.7,10.87z"/>
				</g>
				<g>
					<path class="st12" d="M26.78,12.35c0.02-0.02,0.05-0.05,0.06-0.08c0.12-0.19,0.04-0.42-0.14-0.54
						c-0.29-0.18-0.67,0.11-0.58,0.43c0.02,0.09,0.08,0.18,0.17,0.23C26.44,12.5,26.65,12.47,26.78,12.35z"/>
				</g>
				<path class="st12" d="M29.37,12.31c-0.08-0.23-0.25-0.41-0.48-0.49c-0.25-0.09-0.54-0.02-0.73,0.17
					c-0.08,0.08-0.09,0.21-0.02,0.3c0.12,0.16,0.27,0.05,0.42,0c0.11-0.04,0.23-0.02,0.31,0.07c0.1,0.12,0.06,0.26-0.02,0.37
					c-0.07,0.09-0.17,0.17-0.27,0.22c-0.06,0.03-0.11-0.04-0.17-0.05c-0.07-0.01-0.13,0-0.19,0.05c-0.24,0.18,0.03,0.37,0.11,0.54
					c0.07,0.13,0.07,0.32-0.06,0.42c-0.19,0.15-0.51-0.03-0.63-0.19c-0.08-0.1-0.09-0.21-0.08-0.33c0-0.1-0.03-0.2-0.14-0.23
					c-0.1-0.02-0.22,0.03-0.24,0.14c-0.06,0.22-0.02,0.47,0.11,0.67c0.13,0.2,0.33,0.34,0.56,0.41c0.25,0.08,0.52,0.05,0.73-0.11
					c0.17-0.14,0.27-0.37,0.27-0.59c0-0.1-0.02-0.2-0.05-0.3c0.2-0.09,0.38-0.26,0.49-0.42C29.4,12.77,29.45,12.52,29.37,12.31z"/>
			</g>
		</g>
		<g>
			<g>
				<path class="st13" d="M17.1,13.01c-0.48,0.79-0.25,1.91,0.51,2.47c-0.45,0.57-0.36,1.45,0.14,1.97
					c0.51,0.52,1.35,0.68,2.05,0.45c0.7-0.23,1.25-0.8,1.52-1.47c0.47,0.19,1.04,0.07,1.43-0.24c0.39-0.31,0.62-0.79,0.7-1.27
					c0.15-0.91-0.24-1.91-1.02-2.44c-0.67-0.46-1.6-0.54-2.33-0.18c-0.09,0.04-0.18,0.09-0.26,0.15c-0.06,0.04-0.06,0.06-0.12,0.02
					c-0.04-0.02-0.5-0.68-1.63-0.24C17.68,12.37,17.32,12.64,17.1,13.01z"/>
				<path class="st14" d="M19.86,14.42c0.19-0.04,0.2-0.2,0.21-0.36c0.01-0.16,0.08-0.31,0.26-0.36c0.09-0.03,0.21-0.01,0.29,0.05
					c0.11,0.08,0.1,0.2,0.11,0.32c0.02,0.1,0.05,0.19,0.16,0.22c0.1,0.03,0.24-0.01,0.28-0.12c0.07-0.18,0.07-0.38-0.01-0.55
					c-0.09-0.18-0.24-0.34-0.44-0.41c-0.2-0.07-0.42-0.08-0.63,0c-0.2,0.08-0.36,0.22-0.47,0.4c-0.05,0.09-0.09,0.19-0.11,0.29
					c-0.01,0.06-0.01,0.12-0.01,0.18c0,0.08,0.02,0.15,0.06,0.23C19.63,14.41,19.76,14.44,19.86,14.42z"/>
			</g>
			<path class="st14" d="M21.3,15.97c0.18-0.19,0.26-0.44,0.22-0.7c-0.05-0.28-0.27-0.52-0.55-0.59c-0.12-0.03-0.25,0.03-0.3,0.14
				c-0.09,0.19,0.09,0.28,0.22,0.4c0.09,0.08,0.14,0.21,0.09,0.32c-0.06,0.15-0.22,0.19-0.37,0.17c-0.13-0.02-0.25-0.07-0.35-0.14
				c-0.06-0.04-0.02-0.12-0.04-0.19c-0.02-0.07-0.08-0.12-0.14-0.15c-0.3-0.13-0.34,0.22-0.46,0.38c-0.09,0.13-0.27,0.23-0.44,0.16
				c-0.24-0.1-0.24-0.49-0.15-0.69c0.06-0.12,0.15-0.19,0.28-0.24c0.1-0.05,0.18-0.13,0.15-0.25c-0.03-0.11-0.14-0.19-0.26-0.16
				c-0.25,0.06-0.47,0.23-0.59,0.44c-0.13,0.22-0.15,0.48-0.1,0.73c0.06,0.27,0.22,0.51,0.49,0.62c0.22,0.09,0.5,0.07,0.71-0.05
				c0.1-0.05,0.19-0.12,0.26-0.2c0.19,0.14,0.46,0.22,0.67,0.24C20.87,16.23,21.13,16.15,21.3,15.97z"/>
		</g>
	</g>
	<g>
		<path class="st1" d="M24.69,44.21c0.4,0,0.82-0.38,0.8-0.8c-0.01-0.21-0.08-0.42-0.23-0.57c-0.16-0.14-0.35-0.23-0.57-0.23
			c-0.41,0-0.82,0.36-0.8,0.8c0.01,0.21,0.08,0.42,0.23,0.57C24.28,44.12,24.47,44.21,24.69,44.21z"/>
	</g>
	<g>
		<path class="st3" d="M24.69,41.85c0.4,0,0.82-0.38,0.8-0.8c-0.01-0.21-0.08-0.42-0.23-0.57c-0.16-0.14-0.35-0.23-0.57-0.23
			c-0.41,0-0.82,0.36-0.8,0.8c0.01,0.21,0.08,0.42,0.23,0.57C24.28,41.76,24.47,41.85,24.69,41.85z"/>
	</g>
	<g>
		<path class="st1" d="M24.69,39.61c0.27,0,0.55-0.26,0.54-0.54c-0.01-0.14-0.05-0.28-0.16-0.38c-0.1-0.1-0.23-0.16-0.38-0.16
			c-0.27,0-0.55,0.24-0.54,0.54c0.01,0.14,0.05,0.28,0.16,0.38C24.41,39.55,24.54,39.61,24.69,39.61z"/>
	</g>
	<g>
		<path class="st2" d="M32.62,48.42c0.4,0,0.82-0.38,0.8-0.8c-0.01-0.21-0.08-0.42-0.23-0.57c-0.16-0.14-0.35-0.23-0.57-0.23
			c-0.41,0-0.82,0.36-0.8,0.8c0.01,0.21,0.08,0.42,0.23,0.57C32.21,48.33,32.4,48.42,32.62,48.42z"/>
	</g>
	<g>
		<path class="st1" d="M32.62,46.06c0.4,0,0.82-0.38,0.8-0.8c-0.01-0.21-0.08-0.42-0.23-0.57c-0.16-0.14-0.35-0.23-0.57-0.23
			c-0.41,0-0.82,0.36-0.8,0.8c0.01,0.21,0.08,0.42,0.23,0.57C32.21,45.97,32.4,46.06,32.62,46.06z"/>
	</g>
	<g>
		<path class="st1" d="M32.62,41.76c0.4,0,0.82-0.38,0.8-0.8c-0.01-0.21-0.08-0.42-0.23-0.57c-0.16-0.14-0.35-0.23-0.57-0.23
			c-0.41,0-0.82,0.36-0.8,0.8c0.01,0.21,0.08,0.42,0.23,0.57C32.21,41.67,32.4,41.76,32.62,41.76z"/>
	</g>
	<g>
		<path class="st3" d="M32.62,43.81c0.27,0,0.55-0.26,0.54-0.54c-0.01-0.14-0.05-0.28-0.16-0.38c-0.1-0.1-0.23-0.16-0.38-0.16
			c-0.27,0-0.55,0.24-0.54,0.54c0.01,0.14,0.05,0.28,0.16,0.38C32.34,43.75,32.47,43.81,32.62,43.81z"/>
	</g>
	<g>
		<path class="st2" d="M32.62,39.33c0.27,0,0.55-0.26,0.54-0.54c-0.01-0.14-0.05-0.28-0.16-0.38c-0.1-0.1-0.23-0.16-0.38-0.16
			c-0.27,0-0.55,0.24-0.54,0.54c0.01,0.14,0.05,0.28,0.16,0.38C32.34,39.27,32.47,39.33,32.62,39.33z"/>
	</g>
	<g>
		<path class="st1" d="M38.52,39.18c0.4,0,0.82-0.38,0.8-0.8c-0.01-0.21-0.08-0.42-0.23-0.57c-0.16-0.14-0.35-0.23-0.57-0.23
			c-0.41,0-0.82,0.36-0.8,0.8c0.01,0.21,0.08,0.42,0.23,0.57C38.11,39.09,38.3,39.18,38.52,39.18z"/>
	</g>
	<g>
		<path class="st1" d="M38.52,36.75c0.27,0,0.55-0.26,0.54-0.54c-0.01-0.14-0.05-0.28-0.16-0.38c-0.1-0.1-0.23-0.16-0.38-0.16
			c-0.27,0-0.55,0.24-0.54,0.54c0.01,0.14,0.05,0.28,0.16,0.38C38.25,36.69,38.38,36.75,38.52,36.75z"/>
	</g>
	<g>
		<path class="st3" d="M31,51.16l0.88-0.71l-0.4-1.06c-0.03-0.08,0.06-0.14,0.12-0.1l0.95,0.62l0.88-0.71
			c0.06-0.05,0.15,0.01,0.13,0.09l-0.29,1.09L34.22,51c0.07,0.04,0.04,0.15-0.04,0.15l-1.13,0.06l-0.29,1.09
			c-0.02,0.08-0.13,0.08-0.16,0.01l-0.4-1.06l-1.13,0.06C30.98,51.32,30.94,51.21,31,51.16z"/>
	</g>
	<polygon class="st3" points="38.52,40.05 37.73,41.35 38.52,42.64 39.31,41.35 	"/>
</g>
</svg>
