<?xml version="1.0" encoding="utf-8"?>
<!-- Generator: Adobe Illustrator 27.3.1, SVG Export Plug-In . SVG Version: 6.00 Build 0)  -->
<svg version="1.1" id="Layer_1" xmlns="http://www.w3.org/2000/svg" xmlns:xlink="http://www.w3.org/1999/xlink" x="0px" y="0px"
	 viewBox="0 0 56.69 56.69" style="enable-background:new 0 0 56.69 56.69;" xml:space="preserve">
<style type="text/css">
	.st0{fill:#5E5F64;}
	.st1{fill:#A8DAD2;}
	.st2{fill:#E69348;}
	.st3{fill:#FFCC4C;}
	.st4{fill:#C05C48;}
	.st5{fill:#90C79F;}
	.st6{fill:#64361A;}
	.st7{fill:#E8B539;}
	.st8{fill:#D56F5A;}
	.st9{fill:#A04D3C;}
	.st10{fill:#FFE9C7;}
</style>
<g>
	<g>
		<g>
			<g>
				<path class="st0" d="M23.21,42.01c0.06-1.98,0.07-3.96,0.08-5.94c0-0.56,0.02-1.12,0-1.69c-0.01-0.2-0.17-0.39-0.38-0.38
					c-0.21,0.01-0.37,0.17-0.38,0.38c-0.01,0.5,0,1,0,1.49c0,0.5,0.01,1,0.01,1.49c0.01,0.98,0.02,1.97,0.03,2.95
					c0.01,0.56,0.02,1.12,0.04,1.69c0,0.15,0.13,0.3,0.29,0.29C23.08,42.3,23.21,42.18,23.21,42.01L23.21,42.01z"/>
			</g>
			<g>
				<path class="st0" d="M27.86,51.05c0.03-1.15,0.05-2.3,0.06-3.45c0.01-1.14,0.01-2.28,0.01-3.41c0-2.28,0.01-4.55,0.01-6.83
					c0-1.28,0.01-2.56-0.02-3.84c0-0.19-0.17-0.38-0.37-0.37c-0.2,0.01-0.36,0.16-0.37,0.37c-0.05,2.29-0.02,4.58-0.01,6.86
					c0,2.28-0.01,4.55,0.01,6.83c0.01,1.28,0.04,2.56,0.07,3.84c0,0.16,0.14,0.31,0.3,0.3C27.72,51.35,27.85,51.22,27.86,51.05
					L27.86,51.05z"/>
			</g>
			<g>
				<path class="st0" d="M31.93,45.98c0.08-1.02,0.07-2.04,0.07-3.06c0.01-1.01,0.01-2.01,0.01-3.02c0-2.03,0-4.05,0-6.08
					c0-1.14,0.01-2.27,0-3.41c0-0.2-0.17-0.38-0.37-0.37c-0.2,0.01-0.37,0.16-0.37,0.37c-0.03,2.03,0,4.05,0,6.08
					c0,2.03,0,4.05,0.01,6.08c0.01,1.14-0.01,2.28,0.08,3.41c0.01,0.15,0.12,0.29,0.29,0.29C31.81,46.26,31.92,46.14,31.93,45.98
					L31.93,45.98z"/>
			</g>
			<g>
				<path class="st0" d="M35.62,35.25c0.01-1.25,0.02-2.49,0.03-3.74c0.01-1.25,0.01-2.49,0.02-3.74c0-0.7,0.01-1.41,0.01-2.11
					c0-0.19-0.17-0.37-0.36-0.36c-0.19,0.01-0.36,0.16-0.36,0.36c0.01,1.25,0.01,2.49,0.02,3.74c0.01,1.25,0.01,2.49,0.02,3.74
					c0.01,0.7,0.01,1.41,0.02,2.11c0,0.16,0.14,0.31,0.3,0.3C35.48,35.55,35.62,35.42,35.62,35.25L35.62,35.25z"/>
			</g>
			<g>
				<path class="st1" d="M35.32,37.4c-0.99,0-1.8-0.81-1.8-1.8c0-0.99,0.81-1.8,1.8-1.8c0.99,0,1.8,0.81,1.8,1.8
					C37.12,36.59,36.31,37.4,35.32,37.4z"/>
			</g>
			<g>
				<path class="st2" d="M27.56,47.16c-0.72,0-1.31-0.59-1.31-1.31s0.59-1.31,1.31-1.31c0.72,0,1.31,0.59,1.31,1.31
					S28.28,47.16,27.56,47.16z"/>
			</g>
			<g>
				<path class="st1" d="M27.56,42.6c-0.72,0-1.31-0.59-1.31-1.31c0-0.72,0.59-1.31,1.31-1.31c0.72,0,1.31,0.59,1.31,1.31
					C28.86,42.01,28.28,42.6,27.56,42.6z"/>
			</g>
			<g>
				<path class="st2" d="M27.56,38.21c-0.72,0-1.31-0.59-1.31-1.31s0.59-1.31,1.31-1.31c0.72,0,1.31,0.59,1.31,1.31
					S28.28,38.21,27.56,38.21z"/>
			</g>
			<g>
				<path class="st3" d="M31.64,41.54c-0.86,0-1.55-0.7-1.55-1.55c0-0.86,0.7-1.55,1.55-1.55c0.86,0,1.55,0.7,1.55,1.55
					C33.19,40.84,32.5,41.54,31.64,41.54z"/>
			</g>
			<g>
				<path class="st4" d="M22.92,43.81c-0.99,0-1.8-0.81-1.8-1.8c0-0.99,0.81-1.8,1.8-1.8c0.99,0,1.8,0.81,1.8,1.8
					C24.71,43,23.91,43.81,22.92,43.81z"/>
			</g>
			<g>
				<g>
					<path class="st5" d="M31.26,47.62c0.02-0.07,0.05-0.13,0.07-0.2c0.01-0.03,0.02-0.06,0.03-0.09c0.01-0.02,0.01-0.02,0,0.01
						c0.01-0.02,0.01-0.03,0.02-0.05c0.05-0.12,0.11-0.24,0.17-0.36c0.06-0.12,0.11-0.24,0.17-0.36c0.09-0.17,0.21-0.34,0.16-0.54
						c-0.04-0.16-0.23-0.27-0.39-0.22c-0.13,0.05-0.21,0.13-0.27,0.25c-0.03,0.06-0.06,0.13-0.09,0.19
						c-0.06,0.14-0.13,0.28-0.18,0.42c-0.09,0.26-0.17,0.52-0.24,0.78c-0.04,0.14,0.05,0.31,0.2,0.35
						C31.07,47.85,31.21,47.77,31.26,47.62L31.26,47.62z"/>
				</g>
				<g>
					<path class="st5" d="M32.27,47.83c-0.03-0.15-0.06-0.3-0.08-0.46c0-0.03-0.01-0.07-0.01-0.1c0-0.01-0.01-0.1-0.01-0.04
						c-0.01-0.08-0.02-0.15-0.03-0.23c-0.01-0.05-0.01-0.11-0.02-0.16c0.01,0.07,0-0.04-0.01-0.06c-0.01-0.07-0.02-0.14-0.02-0.21
						c-0.02-0.19-0.01-0.39-0.1-0.56c-0.06-0.12-0.2-0.17-0.33-0.16c-0.14,0.02-0.23,0.11-0.28,0.24c-0.06,0.16-0.01,0.36,0.01,0.52
						c0.02,0.17,0.04,0.34,0.07,0.5c0.06,0.3,0.14,0.59,0.23,0.88c0.05,0.15,0.21,0.26,0.36,0.21
						C32.23,48.14,32.31,47.99,32.27,47.83L32.27,47.83z"/>
				</g>
				<g>
					<path class="st5" d="M33.11,47.31c-0.22-0.27-0.44-0.54-0.66-0.81c-0.03-0.04-0.01,0,0.01,0.01c-0.01-0.01-0.02-0.03-0.03-0.04
						c-0.02-0.03-0.05-0.07-0.07-0.1c-0.04-0.06-0.08-0.13-0.12-0.19c-0.01-0.02-0.02-0.04-0.03-0.06c0-0.01-0.03-0.06-0.01-0.02
						c0.02,0.05,0-0.01-0.01-0.02c-0.01-0.02-0.01-0.04-0.02-0.06c-0.02-0.06-0.04-0.11-0.06-0.16c-0.03-0.06,0.02,0.05,0,0
						c-0.01-0.02-0.02-0.04-0.02-0.06c-0.05-0.16-0.2-0.26-0.37-0.24c-0.17,0.02-0.28,0.16-0.29,0.33
						c-0.03,0.41,0.22,0.77,0.46,1.07c0.23,0.29,0.52,0.53,0.78,0.79c0.12,0.11,0.32,0.12,0.44,0
						C33.23,47.62,33.22,47.44,33.11,47.31L33.11,47.31z"/>
				</g>
				<g>
					<path class="st5" d="M30.38,46.75c0.22-0.06,0.43-0.15,0.64-0.25c0.09-0.04,0.18-0.09,0.27-0.15c0.13-0.08,0.26-0.16,0.33-0.29
						c0.06-0.11,0.05-0.26-0.03-0.36c-0.08-0.11-0.21-0.15-0.34-0.12c-0.12,0.03-0.2,0.1-0.3,0.16c-0.07,0.05-0.14,0.1-0.22,0.14
						c-0.15,0.09-0.31,0.17-0.48,0.24c0.03-0.01,0.05-0.02,0.08-0.03c-0.04,0.02-0.08,0.03-0.12,0.05
						c-0.08,0.03-0.14,0.07-0.19,0.14c-0.04,0.07-0.06,0.16-0.03,0.24C30.05,46.69,30.22,46.8,30.38,46.75L30.38,46.75z"/>
				</g>
				<g>
					<path class="st5" d="M32.94,45.93c-0.06-0.02-0.12-0.05-0.17-0.07c0.03,0.01,0.05,0.02,0.08,0.03
						c-0.16-0.07-0.32-0.14-0.47-0.22c-0.08-0.04-0.15-0.08-0.23-0.12c-0.1-0.06-0.19-0.12-0.31-0.14c-0.15-0.03-0.32,0.02-0.4,0.16
						c-0.08,0.14-0.05,0.3,0.05,0.42c0.09,0.1,0.2,0.15,0.32,0.21c0.12,0.06,0.24,0.11,0.36,0.16c0.19,0.08,0.4,0.14,0.6,0.19
						c0.16,0.04,0.36-0.05,0.4-0.22c0.02-0.08,0.01-0.17-0.03-0.25C33.08,46,33.02,45.96,32.94,45.93L32.94,45.93z"/>
				</g>
			</g>
			<path class="st3" d="M29.27,49.87c-0.25-0.37-0.71-0.53-1.14-0.44c-0.21,0.04-0.42,0.17-0.57,0.32
				c-0.13-0.13-0.28-0.22-0.45-0.29c-0.38-0.15-0.86-0.03-1.14,0.26c-0.33,0.35-0.34,0.88-0.22,1.32c0.12,0.41,0.36,0.77,0.63,1.11
				c0.14,0.18,0.3,0.35,0.45,0.52c0.18,0.2,0.36,0.4,0.53,0.6c0.05,0.06,0.14,0.09,0.22,0.08c0.07,0,0.13-0.03,0.18-0.08
				c0.15-0.17,0.31-0.35,0.46-0.52c0.15-0.16,0.3-0.32,0.43-0.48c0.27-0.33,0.52-0.68,0.67-1.09c0.07-0.2,0.11-0.41,0.11-0.62
				C29.44,50.33,29.4,50.07,29.27,49.87z"/>
			<g>
				<path class="st4" d="M31.64,8.46c-0.3,0.29-0.6,0.58-0.91,0.86c-0.18,0.17-0.37,0.34-0.56,0.51c-0.43,0.39-0.87,0.78-1.31,1.16
					c-0.19,0.17-0.39,0.33-0.58,0.5c-0.57,0.48-1.15,0.96-1.73,1.42c-0.19,0.15-0.38,0.3-0.57,0.45c-0.51,0.4-1.03,0.78-1.55,1.16
					c-1.44-3.16-3.96-5.94-7.26-7.11c-0.32-0.12-0.65-0.21-0.99-0.3c-0.06-0.01-0.11-0.04-0.16-0.08c-0.12-0.1-0.18-0.27-0.13-0.43
					c0.05-0.16,0.87-0.39,1.52-0.53c0.23-0.05,0.44-0.09,0.58-0.12c0.03,0,0.05-0.01,0.07-0.01c2.14-0.38,4.32-0.45,6.47-0.16
					C27.06,6.13,29.54,7.02,31.64,8.46z"/>
				<path class="st3" d="M37.58,18.06c-0.06-0.34-0.13-0.68-0.21-1.02c-0.76-3.19-2.54-6.19-5.18-8.18
					c-0.18-0.14-0.37-0.27-0.55-0.39c-2.26,2.18-4.67,4.21-7.21,6.07c0.09,0.19,0.17,0.38,0.25,0.56c0.9,2.2,1.35,4.54,1.33,6.91
					c-0.04,4.36-1.93,8.54-4.77,11.79c-0.17,0.19-1.86,1.82-0.65,1.8c2.2-0.04,4.41-0.36,6.52-0.98c2.17-0.63,4.23-1.67,5.98-3.11
					C36.97,28.31,38.4,22.91,37.58,18.06z"/>
			</g>
			<g>
				<g>
					<path class="st6" d="M27.96,17.94c0.11,0.43,0.28,0.85,0.54,1.21c0.28,0.38,0.66,0.72,1.14,0.81c0.52,0.1,1.1-0.08,1.47-0.46
						c0.53-0.55,0.63-1.38,0.49-2.1c-0.04-0.23-0.12-0.5-0.24-0.7c-0.11-0.17-0.31-0.24-0.49-0.16c-0.17,0.07-0.29,0.28-0.23,0.47
						c0.15,0.48,0.25,0.94,0.12,1.45c-0.07,0.29-0.24,0.53-0.52,0.65c-0.26,0.11-0.56,0.08-0.8-0.05c-0.36-0.21-0.62-0.56-0.81-0.93
						c-0.05-0.11-0.1-0.22-0.14-0.33c-0.05-0.14-0.19-0.25-0.35-0.2C28.01,17.64,27.92,17.79,27.96,17.94z"/>
				</g>
				<g>
					<path class="st6" d="M29.23,19.7c0,0.19-0.01,0.38,0.05,0.56c0.01,0.02,0.02,0.05,0.03,0.07c0.08,0.15,0.28,0.19,0.43,0.11
						c0.07-0.04,0.12-0.11,0.14-0.19c0.02-0.06,0.02-0.13,0.03-0.19c0.01-0.17,0.03-0.42-0.08-0.57c-0.11-0.15-0.37-0.18-0.5-0.03
						C29.27,19.53,29.23,19.61,29.23,19.7z"/>
				</g>
				<g>
					<path class="st6" d="M30.45,19.73c0.03,0.08,0.08,0.15,0.12,0.22c0.02,0.04,0.04,0.07,0.06,0.11c0.08,0.13,0.19,0.26,0.36,0.24
						c0.11-0.01,0.21-0.09,0.25-0.19c0.03-0.08,0.02-0.18-0.01-0.26c-0.05-0.14-0.15-0.27-0.23-0.4c-0.11-0.19-0.37-0.24-0.52-0.07
						C30.39,19.5,30.41,19.62,30.45,19.73z"/>
				</g>
				<g>
					<path class="st6" d="M31.24,19.08c0.05,0.06,0.12,0.11,0.19,0.16c0.12,0.09,0.25,0.18,0.41,0.15c0.14-0.02,0.24-0.11,0.27-0.25
						c0.05-0.23-0.19-0.38-0.36-0.47c0.01,0.01,0.02,0.02,0.03,0.02c-0.12-0.1-0.29-0.21-0.45-0.14c-0.1,0.05-0.2,0.17-0.19,0.29
						c0,0.03,0.01,0.06,0.01,0.09C31.17,18.99,31.2,19.04,31.24,19.08z"/>
				</g>
			</g>
			<g>
				<path class="st6" d="M27.17,25.55c0.22,0.5,0.58,0.95,1.12,1.11c0.64,0.18,1.29-0.15,1.65-0.67c0.19-0.27,0.33-0.64,0.29-0.98
					c-0.02-0.2-0.14-0.36-0.34-0.39c-0.19-0.03-0.38,0.09-0.44,0.28c-0.08,0.28-0.14,0.62-0.39,0.81c-0.13,0.09-0.29,0.13-0.45,0.12
					c-0.33-0.03-0.61-0.27-0.82-0.51c-0.13-0.15-0.3-0.37-0.51-0.23C27.13,25.19,27.1,25.37,27.17,25.55z"/>
			</g>
			<path class="st4" d="M32.61,23.24c0.03,0.1,0.07,0.21,0.12,0.3c0.46,0.85,1.72,0.94,2.31,0.17c0.37-0.49,0.37-1.23-0.01-1.7
				c-0.38-0.48-1.1-0.65-1.66-0.39C32.77,21.91,32.45,22.61,32.61,23.24z"/>
		</g>
		<g>
			<g>
				<path class="st7" d="M31.71,31.73c0.16,0,0.32-0.14,0.31-0.31c-0.01-0.17-0.14-0.31-0.31-0.31c-0.16,0-0.32,0.14-0.31,0.31
					C31.4,31.59,31.53,31.73,31.71,31.73L31.71,31.73z"/>
			</g>
			<g>
				<path class="st7" d="M26.64,33.8c0.2,0,0.4-0.18,0.39-0.39c-0.01-0.21-0.17-0.39-0.39-0.39c-0.2,0-0.4,0.18-0.39,0.39
					C26.26,33.62,26.42,33.8,26.64,33.8L26.64,33.8z"/>
			</g>
			<g>
				<path class="st7" d="M28.98,33.35c0.2,0,0.4-0.18,0.39-0.39c-0.01-0.21-0.17-0.39-0.39-0.39c-0.2,0-0.4,0.18-0.39,0.39
					C28.6,33.18,28.76,33.35,28.98,33.35L28.98,33.35z"/>
			</g>
			<g>
				<path class="st7" d="M30.09,31.42c0.32,0,0.62-0.28,0.6-0.6c-0.01-0.33-0.26-0.6-0.6-0.6c-0.32,0-0.62,0.28-0.6,0.6
					C29.5,31.14,29.75,31.42,30.09,31.42L30.09,31.42z"/>
			</g>
			<g>
				<path class="st7" d="M31.4,29.44c0.16,0,0.32-0.14,0.31-0.31c-0.01-0.17-0.14-0.31-0.31-0.31c-0.16,0-0.32,0.14-0.31,0.31
					C31.09,29.3,31.22,29.44,31.4,29.44L31.4,29.44z"/>
			</g>
			<g>
				<path class="st7" d="M28.2,30.82c0.2,0,0.4-0.18,0.39-0.39c-0.01-0.21-0.17-0.39-0.39-0.39c-0.2,0-0.4,0.18-0.39,0.39
					C27.82,30.64,27.99,30.82,28.2,30.82L28.2,30.82z"/>
			</g>
		</g>
		<g>
			<polygon class="st8" points="27.65,15.63 27.66,15.64 27.65,15.63 			"/>
			<polygon class="st8" points="27.66,15.65 27.66,15.64 27.66,15.64 			"/>
			<path class="st8" d="M30.73,9.33c-0.18,0.17-0.37,0.34-0.56,0.51c-0.38-0.26-0.76-0.51-1.15-0.75c-0.43-0.26-0.86-0.51-1.3-0.74
				c-0.22-0.11-0.44-0.22-0.66-0.32c-0.07-0.03-0.14-0.06-0.2-0.09L26.8,7.91c-0.01,0-0.01,0-0.01-0.01c0,0-0.01,0-0.02-0.01
				c-0.11-0.04-0.22-0.09-0.33-0.13c-0.93-0.36-1.9-0.61-2.88-0.79c-0.24-0.04-0.48-0.08-0.72-0.12c-0.07-0.01-0.14-0.02-0.21-0.03
				c-0.01,0-0.03,0-0.03,0c-0.03,0-0.05-0.01-0.08-0.01c-0.12-0.02-0.24-0.03-0.37-0.04c-0.49-0.05-0.99-0.09-1.49-0.13
				c-0.3-0.02-0.59-0.03-0.89-0.05c0.29,0.05,0.58,0.11,0.87,0.18c1.1,0.26,2.17,0.63,3.21,1.07c0.98,0.42,1.91,0.91,2.79,1.5
				c0.76,0.51,1.49,1.08,2.21,1.65c-0.19,0.17-0.39,0.33-0.58,0.5c-0.16-0.13-0.32-0.25-0.48-0.38c-0.05-0.04-0.1-0.08-0.16-0.12
				c-0.02-0.02-0.05-0.04-0.07-0.05c0,0-0.01,0-0.01-0.01c0,0-0.01,0-0.01-0.01c-0.1-0.08-0.21-0.16-0.32-0.24
				c-0.41-0.31-0.83-0.61-1.26-0.89c-0.43-0.28-0.87-0.54-1.33-0.77c-0.24-0.12-0.49-0.24-0.73-0.35c-0.12-0.05-0.25-0.11-0.37-0.16
				c-0.07-0.03-0.14-0.06-0.21-0.09c-0.01-0.01-0.04-0.02-0.05-0.02c-0.02-0.01-0.05-0.02-0.07-0.03c-1.01-0.42-2.06-0.77-3.13-1.01
				c-0.27-0.06-0.54-0.11-0.8-0.16c-0.11-0.02-0.21-0.04-0.32-0.05c0.2,0.06,0.4,0.13,0.59,0.21c1.84,0.76,3.47,1.99,4.92,3.34
				c0.72,0.67,1.39,1.38,2.02,2.13c0.02,0.02,0.04,0.05,0.06,0.07c-0.19,0.15-0.38,0.3-0.57,0.45c-0.08-0.09-0.16-0.19-0.24-0.28
				c-0.63-0.73-1.3-1.42-2.01-2.06c-0.36-0.33-0.73-0.64-1.11-0.94c-0.05-0.04-0.1-0.07-0.14-0.11c-0.02-0.02-0.05-0.04-0.07-0.06
				c0,0-0.02-0.02-0.03-0.03c-0.09-0.07-0.18-0.14-0.27-0.2c-0.19-0.14-0.38-0.28-0.58-0.42c-0.4-0.28-0.81-0.54-1.24-0.77
				c-0.21-0.12-0.43-0.23-0.65-0.33c-0.11-0.05-0.22-0.1-0.33-0.15c-0.01,0-0.01,0-0.01-0.01c0,0-0.01,0-0.02-0.01L19.2,7.96
				c-0.05-0.02-0.09-0.04-0.14-0.05c-0.45-0.17-0.91-0.31-1.37-0.41c-0.12-0.02-0.23-0.05-0.35-0.06c-0.03-0.01-0.06-0.01-0.09-0.01
				c-0.01,0-0.01,0-0.02,0c-0.01,0-0.01,0-0.02,0c-0.01,0-0.03,0-0.04,0c-0.05-0.01-0.09-0.01-0.14-0.02
				c-0.24-0.02-0.48-0.03-0.72-0.03c-0.17,0-0.29-0.14-0.3-0.3c0-0.01,0-0.03,0-0.04c0.02-0.15,0.15-0.25,0.3-0.26
				c0.09,0,0.19,0,0.28-0.01c-0.01-0.03-0.02-0.06-0.02-0.09c-0.01-0.17,0.15-0.31,0.32-0.32c0.14,0,0.28,0,0.42,0
				c0.02,0,0.04,0,0.05,0c-0.01-0.04-0.02-0.07-0.03-0.11c0-0.06,0.02-0.13,0.06-0.17c0.05-0.07,0.15-0.12,0.24-0.12
				c0.14,0,0.28-0.01,0.41-0.01c1-0.02,2-0.02,2.99,0.03c2.01,0.1,4.05,0.43,5.91,1.21C28.31,7.74,29.55,8.5,30.73,9.33z"/>
		</g>
		<path class="st9" d="M15.14,3.43c2.73-0.73,3.62,3.08,1.36,4.29c-0.78,0.42-1.8,0.36-2.5-0.19c-1.11-0.87-0.93-2.53,0-3.46
			C14.32,3.76,14.72,3.54,15.14,3.43z"/>
	</g>
	<g>
		<path class="st10" d="M17.94,21.46c-0.1-0.15-0.28-0.23-0.45-0.18c-0.34,0.1-2.02,0.31-2.07,0.27c-0.04-0.02-0.37-1.14-0.47-1.48
			c-0.1-0.34-0.6-0.35-0.7,0c-0.17,0.6-0.34,1.2-0.5,1.81c-0.72,0.05-1.44,0.11-2.17,0.16c-0.17,0.01-0.32,0.1-0.39,0.26
			c-0.07,0.16-0.03,0.34,0.09,0.46c0.21,0.22,0.42,0.44,0.63,0.66c0.11,0.11,0.43,0.46,0.44,0.48c0,0.01-0.03,0.67-0.03,0.82
			c-0.02,0.31-0.04,0.61-0.05,0.92c-0.01,0.17,0.11,0.32,0.26,0.38c0.14,0.06,0.35,0.04,0.46-0.09c0.25-0.31,0.89-0.93,1.38-1.14
			c0.19-0.08,0.89,0.48,1.06,0.62c0.13,0.11,0.29,0.16,0.45,0.09c0.14-0.06,0.27-0.22,0.25-0.38c-0.03-0.29-0.14-1.22-0.13-1.4
			c0.01-0.18,0.07-0.26,0.21-0.37c0.11-0.09,1.63-1.36,1.68-1.4C18,21.84,18.03,21.6,17.94,21.46z"/>
		<path class="st10" d="M22.88,45.82c-0.1-0.15-0.28-0.23-0.45-0.18c-0.34,0.1-2.02,0.31-2.07,0.27c-0.04-0.02-0.37-1.14-0.47-1.48
			c-0.1-0.34-0.6-0.35-0.7,0c-0.17,0.6-0.34,1.2-0.5,1.81c-0.72,0.05-1.44,0.11-2.17,0.16c-0.17,0.01-0.32,0.1-0.39,0.26
			c-0.07,0.16-0.03,0.34,0.09,0.46c0.21,0.22,0.42,0.44,0.63,0.66c0.11,0.11,0.43,0.46,0.44,0.48c0,0.01-0.03,0.67-0.03,0.82
			c-0.02,0.31-0.04,0.61-0.05,0.92c-0.01,0.17,0.11,0.32,0.26,0.38c0.14,0.06,0.35,0.04,0.46-0.09c0.25-0.31,0.89-0.93,1.38-1.14
			c0.19-0.08,0.89,0.48,1.06,0.62c0.13,0.11,0.29,0.16,0.45,0.09c0.14-0.06,0.27-0.22,0.25-0.38c-0.03-0.29-0.14-1.22-0.13-1.4
			c0.01-0.18,0.07-0.26,0.21-0.37c0.11-0.09,1.63-1.36,1.68-1.4C22.95,46.2,22.97,45.96,22.88,45.82z"/>
		<path class="st10" d="M45.75,8.11c-0.07-0.12-0.2-0.19-0.33-0.19c-0.33,0.01-0.65,0.08-0.96,0.2c-0.05,0-0.23-1.27-0.25-1.41
			c-0.02-0.15-0.1-0.31-0.26-0.35c-0.17-0.04-0.31,0.03-0.4,0.16c-0.43,0.6-0.79,1.23-1.07,1.91c-0.34,0.18-2.51,0.92-2.51,1.49
			c0,0.16,0.08,0.28,0.21,0.37c0.31,0.21,0.65,0.35,1,0.44c-0.1,0.46-0.16,0.93-0.18,1.4c-0.01,0.38,0.48,0.57,0.74,0.3
			c0.22-0.23,0.92-1.02,1.07-1.1c0.16-0.09,1.24,0.59,1.51,0.74c0.25,0.14,0.63-0.03,0.61-0.35c-0.02-0.32-0.15-1.48-0.1-1.72
			c0.06-0.3,0.79-1.25,0.91-1.52C45.81,8.37,45.82,8.23,45.75,8.11z"/>
		<path class="st10" d="M14.45,13.4c-0.27-0.16-0.62-0.28-0.93-0.17c-0.62,0.22-0.82,1.01-0.63,1.58c0.09,0.28,0.29,0.53,0.57,0.65
			c0.63,0.27,1.19-0.3,1.42-0.83c0.09-0.21,0.13-0.46,0.06-0.68c-0.07-0.21-0.22-0.38-0.4-0.5C14.5,13.43,14.48,13.42,14.45,13.4z"
			/>
		<path class="st10" d="M20.28,25.57c-0.23-0.27-0.59-0.45-1-0.41c-0.4,0.04-0.74,0.28-0.91,0.64c-0.11,0.24-0.14,0.54-0.05,0.79
			c0.16,0.48,0.62,0.82,1.13,0.76c0.27-0.03,0.51-0.13,0.72-0.32C20.66,26.61,20.61,25.98,20.28,25.57z"/>
		<path class="st10" d="M39.5,39.35c-0.23-0.27-0.59-0.45-1-0.41c-0.4,0.04-0.74,0.28-0.91,0.64c-0.11,0.24-0.14,0.54-0.05,0.79
			c0.16,0.48,0.62,0.82,1.13,0.76c0.27-0.03,0.51-0.13,0.72-0.32C39.89,40.38,39.84,39.76,39.5,39.35z"/>
		<path class="st10" d="M44.26,45.87c-0.23-0.27-0.59-0.45-1-0.41c-0.4,0.04-0.74,0.28-0.91,0.64c-0.11,0.24-0.14,0.54-0.05,0.79
			c0.16,0.48,0.62,0.82,1.13,0.76c0.27-0.03,0.51-0.13,0.72-0.32C44.65,46.9,44.6,46.28,44.26,45.87z"/>
		<path class="st10" d="M43.13,31.89c-0.23-0.27-0.59-0.45-1-0.41c-0.4,0.04-0.74,0.28-0.91,0.64c-0.11,0.24-0.14,0.54-0.05,0.79
			c0.16,0.48,0.62,0.82,1.13,0.76c0.27-0.03,0.51-0.13,0.72-0.32C43.51,32.92,43.46,32.3,43.13,31.89z"/>
		<path class="st10" d="M16.64,37.74c-0.23-0.27-0.59-0.45-1-0.41c-0.4,0.04-0.74,0.28-0.91,0.64c-0.11,0.24-0.14,0.54-0.05,0.79
			c0.16,0.48,0.62,0.82,1.13,0.76c0.27-0.03,0.51-0.13,0.72-0.32C17.03,38.78,16.98,38.15,16.64,37.74z"/>
		<g>
			<path class="st10" d="M9.28,24.26c0.26,0,0.5-0.23,0.49-0.49c-0.01-0.27-0.22-0.49-0.49-0.49c-0.26,0-0.5,0.23-0.49,0.49
				C8.8,24.04,9,24.26,9.28,24.26L9.28,24.26z"/>
		</g>
		<g>
			<path class="st10" d="M17.71,17.5c0.26,0,0.5-0.23,0.49-0.49c-0.01-0.27-0.22-0.49-0.49-0.49c-0.26,0-0.5,0.23-0.49,0.49
				C17.23,17.28,17.44,17.5,17.71,17.5L17.71,17.5z"/>
		</g>
		<g>
			<path class="st10" d="M47.42,35.37c0.26,0,0.5-0.23,0.49-0.49c-0.01-0.27-0.22-0.49-0.49-0.49c-0.26,0-0.5,0.23-0.49,0.49
				C46.94,35.14,47.14,35.37,47.42,35.37L47.42,35.37z"/>
		</g>
		<g>
			<path class="st10" d="M15.72,29.82c0.26,0,0.5-0.23,0.49-0.49c-0.01-0.27-0.22-0.49-0.49-0.49c-0.26,0-0.5,0.23-0.49,0.49
				C15.24,29.59,15.45,29.82,15.72,29.82L15.72,29.82z"/>
		</g>
		<g>
			<path class="st10" d="M44.11,39.47c0.26,0,0.5-0.23,0.49-0.49c-0.01-0.27-0.22-0.49-0.49-0.49c-0.26,0-0.5,0.23-0.49,0.49
				C43.63,39.25,43.84,39.47,44.11,39.47L44.11,39.47z"/>
		</g>
		<g>
			<path class="st10" d="M11.28,44.21c0.26,0,0.5-0.23,0.49-0.49c-0.01-0.27-0.22-0.49-0.49-0.49c-0.26,0-0.5,0.23-0.49,0.49
				C10.8,43.99,11.01,44.21,11.28,44.21L11.28,44.21z"/>
		</g>
		<path class="st10" d="M40.63,4.3c-0.2-0.45-0.79-0.68-1.25-0.52c-0.57,0.2-0.82,0.81-0.74,1.38c0.04,0.27,0.17,0.5,0.39,0.65
			c0.35,0.25,0.87,0.18,1.2-0.06c0.22-0.16,0.37-0.37,0.45-0.62C40.77,4.86,40.75,4.56,40.63,4.3z"/>
		<path class="st10" d="M45.85,15.14c-0.17-0.33-0.5-0.58-0.95-0.47c-0.61,0.14-0.63,1.01-0.31,1.43c0.17,0.22,0.47,0.35,0.75,0.31
			C45.98,16.3,46.09,15.62,45.85,15.14z"/>
		<g>
			<path class="st10" d="M46.4,5.77c0.26,0,0.5-0.23,0.49-0.49c-0.01-0.27-0.22-0.49-0.49-0.49c-0.26,0-0.5,0.23-0.49,0.49
				C45.92,5.55,46.12,5.77,46.4,5.77L46.4,5.77z"/>
		</g>
		<g>
			<path class="st10" d="M38.43,13.06c0.26,0,0.5-0.23,0.49-0.49c-0.01-0.27-0.22-0.49-0.49-0.49c-0.26,0-0.5,0.23-0.49,0.49
				C37.95,12.83,38.16,13.06,38.43,13.06L38.43,13.06z"/>
		</g>
	</g>
</g>
</svg>
