<?xml version="1.0" encoding="utf-8"?>
<!-- Generator: Adobe Illustrator 27.3.1, SVG Export Plug-In . SVG Version: 6.00 Build 0)  -->
<svg version="1.1" id="Layer_1" xmlns="http://www.w3.org/2000/svg" xmlns:xlink="http://www.w3.org/1999/xlink" x="0px" y="0px"
	 viewBox="0 0 56.69 56.69" style="enable-background:new 0 0 56.69 56.69;" xml:space="preserve">
<style type="text/css">
	.st0{fill:#38393C;}
	.st1{fill:#E69348;}
	.st2{fill:#AE6F62;}
	.st3{fill:#FFCC4C;}
	.st4{fill:#F1BAAE;}
	.st5{fill:#E9B4A8;}
	.st6{fill:#EFEBEC;}
	.st7{opacity:0.07;fill:#010101;}
	.st8{fill:#95CFC5;}
	.st9{fill:#FFFFFF;}
</style>
<g>
	<g>
		<g>
			<path class="st0" d="M12.92,43.8c0.04-1.96,0.05-3.91,0.05-5.87c0-0.55,0-1.11,0-1.66c0-0.17-0.15-0.33-0.33-0.33
				c-0.18,0.01-0.33,0.14-0.33,0.33c0,1.95-0.01,3.91,0.02,5.87c0.01,0.55,0.02,1.11,0.03,1.66c0,0.15,0.12,0.27,0.27,0.27
				C12.8,44.07,12.92,43.95,12.92,43.8L12.92,43.8z"/>
		</g>
		<g>
			<path class="st0" d="M17.1,47.2c0.03-2.32,0.04-4.63,0.04-6.95c0-0.65,0-1.3,0-1.95c0-0.16-0.14-0.32-0.31-0.31
				c-0.17,0.01-0.31,0.14-0.31,0.31c0,2.32,0.01,4.63,0.02,6.95c0,0.65,0.01,1.3,0.02,1.95c0,0.15,0.12,0.27,0.27,0.27
				C16.98,47.47,17.1,47.35,17.1,47.2L17.1,47.2z"/>
		</g>
		<g>
			<path class="st0" d="M21.55,46.12c0-1.15,0.02-2.29,0.04-3.44c0.02-1.13,0.01-2.27,0.02-3.4c0-0.65,0.03-1.3-0.01-1.95
				c-0.01-0.16-0.14-0.32-0.32-0.32c-0.18,0.01-0.31,0.14-0.32,0.32c-0.04,0.57-0.01,1.15-0.01,1.72c0,0.57,0.01,1.15,0.01,1.72
				c0.01,1.13,0.02,2.27,0.03,3.4c0.01,0.65,0.02,1.3,0.02,1.95c0,0.14,0.12,0.27,0.27,0.27C21.42,46.38,21.55,46.26,21.55,46.12
				L21.55,46.12z"/>
		</g>
		<g>
			<path class="st0" d="M37.12,45.42c0.02-2.01,0.03-4.02,0.03-6.04c0-0.57,0-1.15-0.01-1.72c0-0.16-0.13-0.31-0.3-0.3
				c-0.16,0.01-0.29,0.13-0.3,0.3c-0.02,1.01-0.01,2.01-0.01,3.02c0,1.01,0.01,2.01,0.02,3.02c0,0.57,0.01,1.15,0.01,1.72
				c0,0.15,0.13,0.28,0.28,0.28C37,45.69,37.12,45.57,37.12,45.42L37.12,45.42z"/>
		</g>
		<g>
			<path class="st0" d="M41.35,47.61c0.01-1.11,0.02-2.22,0.03-3.33c0.01-1.21,0.01-2.42,0.02-3.63c0-0.59,0-1.17-0.02-1.76
				c-0.01-0.15-0.13-0.3-0.29-0.29c-0.16,0.01-0.29,0.13-0.29,0.29c-0.04,1.11-0.02,2.22-0.02,3.33c0,1.21,0.02,2.42,0.03,3.63
				c0,0.59,0.01,1.17,0.01,1.76c0,0.15,0.12,0.27,0.27,0.27C41.23,47.88,41.35,47.76,41.35,47.61L41.35,47.61z"/>
		</g>
		<g>
			<path class="st0" d="M45.55,43.65c0.01-1.86,0.03-3.71,0.05-5.57c0-0.52,0-1.04-0.01-1.56c0-0.16-0.14-0.31-0.3-0.3
				c-0.16,0.01-0.3,0.13-0.3,0.3c-0.01,0.93-0.01,1.86,0,2.78c0.01,0.93,0.01,1.86,0.02,2.78c0.01,0.52,0.01,1.04,0.02,1.56
				C45.03,43.98,45.55,43.99,45.55,43.65L45.55,43.65z"/>
		</g>
		<circle class="st1" cx="12.4" cy="44.28" r="1.62"/>
		<circle class="st1" cx="45.29" cy="44.1" r="1.62"/>
		<path class="st2" d="M16.55,46.65L15.13,49c-0.06,0.1-0.06,0.24,0,0.34l1.42,2.33c0.13,0.21,0.43,0.21,0.56,0l1.42-2.33
			c0.06-0.1,0.06-0.23,0-0.34l-1.42-2.35C16.98,46.44,16.68,46.44,16.55,46.65z"/>
		<path class="st2" d="M36.57,42.37l-1.42,2.35c-0.06,0.1-0.06,0.24,0,0.34l1.42,2.33c0.13,0.21,0.43,0.21,0.56,0l1.42-2.33
			c0.06-0.1,0.06-0.23,0-0.34l-1.42-2.35C37,42.16,36.7,42.16,36.57,42.37z"/>
		<path class="st3" d="M23.26,43.22c-0.28-0.4-0.77-0.58-1.24-0.48c-0.23,0.05-0.45,0.18-0.62,0.35c-0.14-0.14-0.3-0.24-0.49-0.31
			c-0.41-0.16-0.94-0.04-1.24,0.28c-0.36,0.38-0.37,0.96-0.24,1.44c0.13,0.45,0.39,0.84,0.68,1.2c0.15,0.2,0.32,0.38,0.49,0.57
			c0.2,0.22,0.39,0.43,0.58,0.65c0.06,0.07,0.15,0.1,0.24,0.09c0.07,0,0.14-0.03,0.2-0.09c0.17-0.19,0.33-0.38,0.5-0.57
			c0.16-0.17,0.32-0.35,0.47-0.53c0.3-0.36,0.57-0.74,0.73-1.18c0.08-0.21,0.12-0.44,0.12-0.67C23.45,43.72,23.41,43.44,23.26,43.22
			z"/>
		<path class="st4" d="M42.94,47.8c-0.28-0.4-0.77-0.58-1.24-0.48c-0.23,0.05-0.45,0.18-0.62,0.35c-0.14-0.14-0.3-0.24-0.49-0.31
			c-0.41-0.16-0.94-0.04-1.24,0.28c-0.36,0.38-0.37,0.96-0.24,1.44c0.13,0.45,0.39,0.84,0.68,1.2c0.15,0.2,0.32,0.38,0.49,0.57
			c0.2,0.22,0.39,0.43,0.58,0.65c0.06,0.07,0.15,0.1,0.24,0.09c0.07,0,0.14-0.03,0.2-0.09c0.17-0.19,0.33-0.38,0.5-0.57
			c0.16-0.17,0.32-0.35,0.47-0.53c0.3-0.36,0.57-0.74,0.73-1.18c0.08-0.21,0.12-0.44,0.12-0.67C43.14,48.3,43.09,48.02,42.94,47.8z"
			/>
	</g>
	<g>
		<g>
			<path class="st1" d="M35.93,33.42c0.1-1.72,0.07-3.44-0.1-5.15c-0.02-0.17-0.04-0.33-0.05-0.5c-0.1-0.9-0.24-1.79-0.42-2.67
				c-0.55-2.76-1.6-5.92-4.2-7.4c-2.01-1.15-4.78-1.27-6.39,0.61c-1.12,1.31-1.43,3.13-1.57,4.79c-0.12,1.41-0.17,2.82-0.14,4.24
				c0,0.37,0.02,0.73,0.03,1.1c0.08,1.83,0.28,3.64,0.6,5.44c0,0-1.71-0.32-3.62-0.68c-0.18-2.21-0.37-4.52-0.37-6.78
				c0-0.18,0-0.36,0-0.54c0.03-2.51,0.31-4.94,1.12-7.07c1.21-3.19,4.09-5.65,7.63-5.88c3.53-0.23,6.08,2,7.36,5.09
				c0.09,0.2,0.17,0.41,0.25,0.62c0.08,0.21,0.16,0.41,0.24,0.62c0.08,0.21,0.15,0.42,0.23,0.62c0.06,0.18,0.13,0.36,0.19,0.53
				c0.05,0.14,0.1,0.28,0.14,0.42c0.06,0.19,0.12,0.37,0.18,0.56c0.03,0.09,0.06,0.18,0.08,0.27c0.03,0.09,0.06,0.19,0.08,0.28
				c0.12,0.41,0.24,0.83,0.35,1.25c0.03,0.11,0.06,0.23,0.09,0.34c0.02,0.09,0.05,0.18,0.07,0.27c0.04,0.18,0.09,0.35,0.13,0.53
				c0.05,0.22,0.1,0.43,0.14,0.65c0.05,0.22,0.09,0.43,0.13,0.65c0.04,0.22,0.08,0.44,0.12,0.65c0.04,0.22,0.08,0.44,0.11,0.65
				c0.03,0.21,0.07,0.41,0.1,0.62c0,0.01,0,0.02,0,0.04c0.03,0.2,0.06,0.4,0.08,0.6c0.08,0.57,0.14,1.14,0.19,1.72
				c0.01,0.16,0.03,0.31,0.04,0.47c0,0.01,0,0.02,0,0.04c0.02,0.3,0.04,0.61,0.06,0.91c0.02,0.47,0.04,0.94,0.05,1.42
				C37.87,32.94,36.89,33.15,35.93,33.42z"/>
			<path class="st5" d="M44.28,28.7c0,0.07,0,0.34-0.01,0.69c-0.01,1.07-0.03,2.98-0.04,2.98c-0.75-0.01-1.5,0-2.25,0.04
				c-0.13-1.95-0.29-3.89-0.52-5.83c-0.01-0.12-0.03-0.24-0.04-0.37c-0.03-0.27-0.07-0.54-0.1-0.81c-0.02-0.14-0.04-0.28-0.06-0.42
				c-0.02-0.16-0.05-0.32-0.07-0.48c-0.02-0.14-0.04-0.28-0.06-0.42c-0.02-0.15-0.04-0.29-0.07-0.44c-0.03-0.2-0.06-0.39-0.1-0.59
				c-0.07-0.39-0.14-0.78-0.21-1.17c-0.74-3.85-1.79-8.42-4.63-11.3c-2.35-2.4-5.99-3.45-9.26-2.68c-3.05,0.72-5.62,2.89-7.29,5.54
				c-1.67,2.64-2.53,5.73-3,8.82c-0.22,1.42-0.36,2.86-0.43,4.3c-0.01,0.26-0.02,0.51-0.03,0.77c-0.05,1.73,0.02,3.45,0.19,5.17
				c-0.91-0.17-1.52-0.28-1.52-0.28c-0.68-0.13-1.01-3.88-1.14-6.12c-0.01-0.17-0.02-0.33-0.03-0.48c-0.03-0.52-0.04-0.91-0.04-1.08
				c-0.06-2.76,0.25-5.57,0.99-8.22C16.87,8.21,26.34,2.62,34.5,5.76c0.74,0.29,1.46,0.66,2.14,1.07c0.04,0.03,0.09,0.06,0.13,0.08
				c7.07,4.36,7.49,13.93,7.5,21.39C44.28,28.44,44.28,28.57,44.28,28.7z"/>
			<path class="st6" d="M36.13,10.59c-2.35-2.4-5.99-3.45-9.26-2.68c-3.05,0.72-5.62,2.89-7.29,5.54c-1.67,2.64-2.53,5.73-3,8.82
				c-0.52,3.38-0.61,6.83-0.27,10.23c1.03,0.19,2.43,0.45,3.74,0.7c-0.39-4.86-0.83-10.19,0.75-14.38c1.21-3.19,4.09-5.65,7.63-5.88
				c3.53-0.23,6.08,2,7.36,5.09c1.94,4.66,2.98,9.69,3.06,14.74c1.04-0.17,2.08-0.29,3.13-0.35c-0.23-3.53-0.56-7.05-1.23-10.52
				C40.03,18.05,38.97,13.48,36.13,10.59z"/>
		</g>
		<path class="st7" d="M23.08,28.44c-0.07-0.16-0.14-0.32-0.23-0.46c-0.17-0.27-0.39-0.51-0.63-0.71c-0.46-0.39-1.02-0.65-1.6-0.77
			c-0.28-0.06-3.33,1.61-3.29,1.78c0.07,0.29-0.37,0.5-0.5,0.21c-0.19-0.43-0.4-0.82-0.69-1.15c-0.17-0.19-0.36-0.36-0.59-0.52
			c-0.57-0.39-1.22-0.58-1.88-0.71c-0.01-0.17-0.02-0.33-0.03-0.48c0.86,0.07,1.8,0.39,2.53,0.94c0.29,0.22,0.54,0.48,0.74,0.77
			c0.49-0.94,1.69-1.39,2.78-1.45c0.31-0.02,0.61,0,0.88,0.04c0.73,0.12,1.42,0.44,1.99,0.91c0.16,0.14,0.33,0.3,0.49,0.49
			C23.06,27.71,23.07,28.07,23.08,28.44z"/>
		<path class="st7" d="M44.28,28.7c0,0.07,0,0.34-0.01,0.69c-0.11-0.01-0.21-0.07-0.26-0.2c-0.38-1.01-1.28-1.92-2.39-2.05
			c-0.03,0-0.06-0.01-0.09-0.01c-1.07-0.08-1.85,2.76-1.65,3.06c0.18,0.26-0.93-0.87-1.26-1.14c-0.27-0.21-0.57-0.39-0.91-0.53
			c-0.59-0.24-1.25-0.32-1.89-0.26c-0.02-0.17-0.04-0.33-0.05-0.5c0.93-0.17,1.92,0.03,2.76,0.5c0.14,0.08,0.27,0.16,0.4,0.25
			c0.25-1.16,1.33-1.98,2.54-1.95c0.03,0,0.06,0,0.09,0c1.04,0.06,2.15,0.78,2.72,1.72C44.28,28.44,44.28,28.57,44.28,28.7z"/>
		<g>
			<path class="st8" d="M32.91,29.9c-0.89,0.93-0.52,2.67,0.43,3.52c-1.42,0.58-2.26,2.25-1.97,3.76c0.3,1.5,1.64,2.71,3.16,2.94
				c1.52,0.22,3.11-0.5,4.01-1.74c0.39,1.59,2.28,2.55,3.85,2.1c1.57-0.44,2.66-2.07,2.69-3.7c0.86,0.8,2.08,1.23,3.23,1.02
				c1.15-0.21,2.19-1.09,2.47-2.23c0.28-1.14-0.3-2.46-1.37-2.94c0.66-1.05,1.22-2.32,0.83-3.5c-0.42-1.24-1.83-1.95-3.14-1.88
				c-1.31,0.07-2.17,0.86-3.19,1.68c-0.2-1.3-2.06-2.3-3.3-1.85c-1.02,0.37-1.41,1.41-1.47,2.4C38.35,28.6,35.82,26.84,32.91,29.9z"
				/>
			<g>
				<g>
					<path class="st9" d="M48.13,29.99c0.01,0.05,0.03,0.1,0.06,0.14c0.14,0.23,0.46,0.23,0.6,0c0.03-0.04,0.05-0.09,0.06-0.14
						c0.04-0.24-0.1-0.47-0.36-0.47C48.24,29.52,48.09,29.76,48.13,29.99L48.13,29.99z"/>
				</g>
				<g>
					<path class="st9" d="M47.11,31.8c0.01-0.03,0.03-0.05,0.04-0.08c0.16-0.3-0.16-0.62-0.46-0.46c-0.03,0.01-0.05,0.03-0.08,0.04
						c-0.21,0.11-0.23,0.41-0.07,0.57C46.7,32.03,47,32.01,47.11,31.8L47.11,31.8z"/>
				</g>
				<g>
					<path class="st9" d="M46.7,29.26c0.01,0.11,0.04,0.19,0.08,0.28c0.08,0.19,0.43,0.19,0.51,0c0.04-0.1,0.07-0.18,0.08-0.28
						C47.39,28.83,46.67,28.83,46.7,29.26L46.7,29.26z"/>
				</g>
				<g>
					<path class="st9" d="M44.6,31.46c0.43,0,0.43-0.66,0-0.66C44.17,30.8,44.17,31.46,44.6,31.46L44.6,31.46z"/>
				</g>
				<g>
					<path class="st9" d="M48.13,33.21c0.4,0,0.4-0.61,0-0.61C47.73,32.59,47.73,33.21,48.13,33.21L48.13,33.21z"/>
				</g>
			</g>
		</g>
		<g>
			<path class="st8" d="M26.04,28.75c2.91,1.92,0.61,4.73-0.62,5.24c1.05,1.76,0.31,4.34-1.51,5.28c-1.82,0.94-4.35,0.05-5.18-1.82
				c-0.19,1.82-2.1,3.21-3.92,3.01s-3.33-1.8-3.61-3.61c-1.33,0.71-4.27,0.56-5.19-1.95c-0.76-2.06,1.23-5.16,3.62-4.74
				c0.15-1.71,1.16-3.42,2.77-4.01c1.61-0.59,4.02,0.44,4.41,2.11c0.97-1.71,2.07-1.92,3.45-1.92c2.09,0,2.94,2.4,2.94,2.4
				S25.04,28.09,26.04,28.75z"/>
			<g>
				<g>
					<path class="st9" d="M24.21,32.98c0.01,0.05,0.03,0.1,0.06,0.14c0.14,0.23,0.46,0.23,0.6,0c0.03-0.04,0.05-0.09,0.06-0.14
						c0.04-0.24-0.1-0.47-0.36-0.47C24.31,32.51,24.17,32.74,24.21,32.98L24.21,32.98z"/>
				</g>
				<g>
					<path class="st9" d="M25.61,31c0.01-0.03,0.03-0.05,0.04-0.08c0.16-0.3-0.16-0.62-0.46-0.46c-0.03,0.01-0.05,0.03-0.08,0.04
						c-0.21,0.11-0.23,0.41-0.07,0.57C25.2,31.23,25.5,31.21,25.61,31L25.61,31z"/>
				</g>
				<g>
					<path class="st9" d="M20.92,31.92c0.01,0.11,0.04,0.19,0.08,0.28c0.08,0.19,0.43,0.19,0.51,0c0.04-0.1,0.07-0.18,0.08-0.28
						C21.61,31.49,20.89,31.49,20.92,31.92L20.92,31.92z"/>
				</g>
				<g>
					<path class="st9" d="M20.6,29.27c0.43,0,0.43-0.66,0-0.66C20.17,28.61,20.17,29.27,20.6,29.27L20.6,29.27z"/>
				</g>
			</g>
		</g>
	</g>
</g>
</svg>
