<?xml version="1.0" encoding="utf-8"?>
<!-- Generator: Adobe Illustrator 27.3.1, SVG Export Plug-In . SVG Version: 6.00 Build 0)  -->
<svg version="1.1" id="Layer_1" xmlns="http://www.w3.org/2000/svg" xmlns:xlink="http://www.w3.org/1999/xlink" x="0px" y="0px"
	 viewBox="0 0 56.69 56.69" style="enable-background:new 0 0 56.69 56.69;" xml:space="preserve">
<style type="text/css">
	.st0{fill:#B1B3BC;}
	.st1{fill:#C6C7D0;}
	.st2{fill:#E9E5E5;}
	.st3{fill:#FFE9C7;}
	.st4{fill:#5E5F64;}
	.st5{fill:#A8DAD2;}
	.st6{fill:#C05C48;}
	.st7{fill:#FFCC4C;}
</style>
<g>
	<g>
		<g>
			<path class="st0" d="M39.4,38.35c2.39-0.35,4.79-0.7,7.18-1.05l-1.24-1.66c-0.09-0.12-0.24-0.18-0.39-0.16l-6.75,1.14
				c-0.1,0.02-0.19,0.08-0.26,0.16c-0.08,0.06-0.14,0.15-0.15,0.26l-1.04,6.77c-0.02,0.13,0.02,0.26,0.11,0.35
				c0.01,0.01,0.03,0.03,0.05,0.04l1.93,1.39C38.81,43.17,38.99,40.74,39.4,38.35z"/>
			<path class="st1" d="M40.92,39.98c2.24-0.55,4.52-0.93,6.82-1.12l-1.16-1.56c-2.39,0.35-4.79,0.7-7.18,1.05
				c-0.41,2.39-0.6,4.82-0.55,7.25l2.31,1.66C40.91,44.85,40.83,42.41,40.92,39.98z"/>
			<path class="st2" d="M48.08,51.36l-2-6.57l6.6,1.9c0.17,0.05,0.34-0.02,0.44-0.16c0.1-0.14,0.09-0.33-0.01-0.47l-2-2.68
				c-2.04,0.06-4.09,0.12-6.13,0.19c0.05,2.07-0.02,4.41,0.13,6.53l2.35,1.7c0.14,0.1,0.33,0.1,0.47,0
				C48.07,51.7,48.13,51.53,48.08,51.36z"/>
			<path class="st1" d="M44.98,43.57c2.04-0.06,4.09-0.12,6.13-0.19l-1.62-2.18c-2.12,0.1-4.24,0.37-6.32,0.82
				c-0.12,2.23-0.11,4.47,0.03,6.7l1.92,1.38C44.96,47.99,45.03,45.64,44.98,43.57z"/>
			<path class="st3" d="M43.17,42.03c2.08-0.45,4.2-0.72,6.32-0.82l-1.75-2.34c-2.3,0.19-4.58,0.57-6.82,1.12
				c-0.08,2.43,0,4.86,0.24,7.28l2.03,1.46C43.05,46.5,43.05,44.26,43.17,42.03z"/>
		</g>
		<g>
			<path class="st4" d="M16.34,16.09c1.8,1.77,3.6,3.55,5.4,5.32c2.04,2,4.07,4.01,6.11,6.01c2.09,2.05,4.17,4.11,6.26,6.16
				c1.97,1.94,10.22,10.06,10.56,10.4c0.37,0.37,0.71,0.75,1.19,0.99c0.1,0.05,0.38,0.2,0.48,0.1c0.11-0.11-0.07-0.4-0.12-0.5
				c-0.19-0.36-0.48-0.66-0.77-0.94c-0.3-0.3-8.07-7.94-10.02-9.86c-2.08-2.05-4.16-4.1-6.24-6.14c-2.05-2.02-4.11-4.04-6.16-6.06
				c-1.84-1.81-3.68-3.62-5.52-5.43c-0.2-0.2-0.41-0.4-0.61-0.6C16.53,15.15,15.97,15.72,16.34,16.09z"/>
		</g>
		<circle class="st5" cx="21.96" cy="21.06" r="1.77"/>
		<path class="st6" d="M35.23,34.12c-0.69,0.7-1.81,0.71-2.51,0.02c-0.7-0.69-0.71-1.81-0.02-2.51c0.69-0.7,1.81-0.71,2.51-0.02
			C35.91,32.3,35.91,33.42,35.23,34.12z"/>
		<path class="st7" d="M28.86,27.85c-0.49,0.5-1.29,0.5-1.78,0.01c-0.5-0.49-0.5-1.29-0.01-1.78c0.49-0.5,1.29-0.5,1.78-0.01
			C29.35,26.56,29.35,27.36,28.86,27.85z"/>
		<g>
			<path class="st0" d="M20.55,11.85c0.08-0.23,0.05-0.51-0.09-0.71c-0.16-0.25-0.43-0.35-0.68-0.47
				C18.82,10.21,9.39,6.11,7.87,5.71c-0.34-0.09-0.7-0.16-1.06-0.15C6.48,5.57,6.14,5.66,5.9,5.9c-0.58,0.6-0.36,1.52-0.08,2.2
				c0.34,0.83,5.03,9.7,5.51,10.58c0.11,0.21,0.23,0.42,0.34,0.63c0.12,0.23,0.25,0.46,0.51,0.56c0.35,0.15,0.74,0.08,1.01-0.2
				C13.3,19.55,20.37,12.33,20.55,11.85z"/>
			<g>
				<path class="st3" d="M11.22,7.07c0.02,0.11,0.03,0.22,0.05,0.33c0.02,0.13,0.04,0.26,0.06,0.39c0.01,0.08,0.02,0.16,0.04,0.24
					c0,0.02,0.01,0.04,0.01,0.07c0,0.01,0,0.02,0,0.03c0,0,0,0.01,0,0.01c0.01,0.05-0.01-0.06-0.01-0.06
					c0.01,0.07,0.02,0.15,0.04,0.22c0.07,0.45,0.15,0.89,0.22,1.34c0.09,0.55,0.18,1.09,0.27,1.64c0.1,0.6,0.2,1.19,0.3,1.78
					c0.1,0.6,0.2,1.21,0.3,1.81c0.09,0.56,0.19,1.12,0.28,1.69c0.08,0.47,0.16,0.95,0.24,1.42c0.06,0.34,0.11,0.68,0.17,1.03
					c0.03,0.16,0.05,0.32,0.08,0.48c0,0.01,0,0.01,0,0.02c0.03,0.19,0.28,0.32,0.46,0.27c0.21-0.06,0.29-0.25,0.26-0.45
					c-0.02-0.11-0.04-0.22-0.06-0.33c-0.05-0.3-0.1-0.6-0.15-0.91c-0.07-0.45-0.15-0.89-0.22-1.34c-0.09-0.55-0.18-1.09-0.27-1.64
					c-0.1-0.59-0.2-1.19-0.3-1.78c-0.1-0.6-0.2-1.21-0.31-1.81c-0.1-0.56-0.19-1.12-0.29-1.68c-0.08-0.47-0.16-0.95-0.24-1.42
					c-0.06-0.34-0.12-0.68-0.18-1.02c-0.03-0.16-0.05-0.32-0.09-0.48c0-0.01,0-0.01,0-0.02c-0.03-0.18-0.26-0.29-0.42-0.24
					C11.26,6.71,11.19,6.88,11.22,7.07L11.22,7.07z"/>
			</g>
			<g>
				<path class="st3" d="M7.36,11.64c0.11,0.02,0.21,0.04,0.32,0.05c0.29,0.05,0.58,0.1,0.87,0.15c0.43,0.07,0.86,0.13,1.29,0.2
					c0.53,0.08,1.05,0.17,1.58,0.25c0.57,0.09,1.15,0.18,1.72,0.27c0.58,0.09,1.16,0.18,1.75,0.27c0.54,0.08,1.09,0.17,1.63,0.25
					c0.46,0.07,0.91,0.14,1.37,0.21c0.33,0.05,0.66,0.1,0.99,0.15c0.16,0.02,0.31,0.05,0.47,0.07c0.01,0,0.01,0,0.02,0
					c0.1,0.01,0.18,0.02,0.27-0.03c0.08-0.04,0.15-0.13,0.16-0.22c0.03-0.17-0.07-0.41-0.26-0.44c-0.11-0.02-0.21-0.03-0.32-0.05
					c-0.29-0.04-0.58-0.09-0.88-0.13c-0.43-0.07-0.86-0.13-1.29-0.2c-0.53-0.08-1.05-0.16-1.58-0.24c-0.57-0.09-1.15-0.18-1.72-0.26
					c-0.58-0.09-1.16-0.18-1.75-0.27c-0.54-0.08-1.09-0.16-1.63-0.24C9.91,11.35,9.45,11.28,9,11.21c-0.1-0.01-0.19-0.03-0.29-0.04
					c-0.02,0-0.04-0.01-0.06-0.01c-0.05-0.01-0.23-0.03-0.07-0.01c-0.04-0.01-0.08-0.01-0.13-0.02C8.3,11.11,8.15,11.09,8,11.07
					c-0.16-0.02-0.31-0.04-0.47-0.06c-0.01,0-0.01,0-0.02,0c-0.09-0.01-0.16-0.01-0.24,0.03c-0.07,0.04-0.14,0.12-0.15,0.2
					C7.09,11.4,7.18,11.61,7.36,11.64L7.36,11.64z"/>
			</g>
		</g>
	</g>
	<g>
		<g>
			<path class="st0" d="M16.84,38.65c0.4,2.38,0.81,4.77,1.21,7.15l1.63-1.27c0.12-0.09,0.18-0.24,0.15-0.39l-1.3-6.73
				c-0.02-0.1-0.08-0.19-0.16-0.25c-0.06-0.08-0.16-0.13-0.26-0.15l-6.79-0.88c-0.13-0.02-0.26,0.03-0.34,0.12
				c-0.01,0.01-0.03,0.03-0.04,0.05l-1.35,1.96C12.01,38.17,14.44,38.3,16.84,38.65z"/>
			<path class="st1" d="M15.25,40.21c0.6,2.23,1.03,4.5,1.27,6.8l1.53-1.19c-0.4-2.38-0.81-4.77-1.21-7.15
				c-2.4-0.36-4.83-0.49-7.26-0.39l-1.61,2.35C10.38,40.31,12.82,40.18,15.25,40.21z"/>
			<path class="st2" d="M4.03,47.62l6.52-2.15l-1.75,6.64c-0.04,0.17,0.02,0.34,0.17,0.44c0.14,0.09,0.33,0.09,0.47-0.02l2.63-2.06
				c-0.11-2.04-0.22-4.08-0.33-6.12c-2.07,0.09-4.41,0.08-6.53,0.28l-1.64,2.39c-0.1,0.14-0.09,0.33,0.01,0.47
				C3.69,47.62,3.87,47.68,4.03,47.62z"/>
			<path class="st1" d="M11.75,44.35c0.11,2.04,0.22,4.08,0.33,6.12l2.14-1.67c-0.15-2.12-0.47-4.23-0.96-6.3
				c-2.23-0.07-4.47-0.01-6.7,0.18l-1.34,1.95C7.34,44.43,9.68,44.44,11.75,44.35z"/>
			<path class="st3" d="M13.26,42.5c0.49,2.07,0.82,4.18,0.96,6.3l2.3-1.8c-0.24-2.29-0.67-4.57-1.27-6.8
				c-2.43-0.03-4.86,0.11-7.28,0.41l-1.42,2.06C8.78,42.49,11.02,42.43,13.26,42.5z"/>
		</g>
		<g>
			<path class="st4" d="M38.58,15.09c-1.73,1.84-3.46,3.68-5.2,5.52c-1.96,2.08-3.92,4.16-5.87,6.24c-2.01,2.13-4.01,4.26-6.02,6.4
				c-1.9,2.02-9.83,10.45-10.15,10.8c-0.36,0.38-0.74,0.73-0.96,1.21c-0.05,0.1-0.19,0.38-0.09,0.48c0.11,0.1,0.4-0.08,0.49-0.13
				c0.36-0.2,0.65-0.5,0.93-0.79c0.29-0.31,7.76-8.25,9.63-10.24c2-2.13,4-4.25,6-6.38c1.97-2.1,3.95-4.2,5.92-6.3
				c1.77-1.88,3.54-3.76,5.31-5.64c0.2-0.21,0.39-0.42,0.59-0.63C39.51,15.26,38.93,14.71,38.58,15.09z"/>
		</g>
		<circle class="st5" cx="33.73" cy="20.83" r="1.77"/>
		<circle class="st6" cx="22.19" cy="33.09" r="1.77"/>
		<circle class="st7" cx="27.96" cy="26.96" r="1.26"/>
		<g>
			<path class="st0" d="M42.91,19.2c0.23,0.08,0.51,0.03,0.71-0.1c0.24-0.17,0.34-0.43,0.45-0.69c0.44-0.97,4.32-10.49,4.69-12.02
				c0.08-0.34,0.14-0.7,0.12-1.06C48.86,5,48.77,4.66,48.52,4.42c-0.61-0.57-1.53-0.33-2.2-0.03c-0.82,0.35-9.58,5.25-10.45,5.75
				c-0.21,0.12-0.41,0.24-0.62,0.36c-0.23,0.13-0.45,0.26-0.55,0.52c-0.14,0.35-0.06,0.74,0.22,1
				C35.04,12.13,42.42,19.04,42.91,19.2z"/>
			<g>
				<path class="st3" d="M47.48,9.76c-0.11,0.02-0.22,0.04-0.33,0.06c-0.13,0.02-0.26,0.05-0.39,0.07
					c-0.08,0.01-0.16,0.03-0.24,0.04c-0.02,0-0.04,0.01-0.07,0.01c-0.01,0-0.02,0-0.03,0.01c0,0-0.01,0-0.01,0
					c-0.05,0.01,0.06-0.01,0.06-0.01c-0.07,0.01-0.15,0.03-0.22,0.04c-0.44,0.08-0.89,0.17-1.33,0.25c-0.54,0.1-1.09,0.2-1.63,0.31
					c-0.59,0.11-1.19,0.22-1.78,0.34c-0.6,0.11-1.2,0.23-1.8,0.34c-0.56,0.11-1.12,0.21-1.68,0.32c-0.47,0.09-0.94,0.18-1.41,0.27
					c-0.34,0.07-0.68,0.13-1.02,0.2c-0.16,0.03-0.32,0.06-0.48,0.09c-0.01,0-0.01,0-0.02,0c-0.19,0.04-0.31,0.29-0.26,0.46
					c0.07,0.21,0.25,0.29,0.46,0.25c0.11-0.02,0.22-0.04,0.33-0.06c0.3-0.06,0.6-0.12,0.9-0.17c0.44-0.08,0.89-0.17,1.33-0.25
					c0.54-0.1,1.09-0.21,1.63-0.31c0.59-0.11,1.18-0.23,1.78-0.34c0.6-0.11,1.2-0.23,1.8-0.35c0.56-0.11,1.12-0.22,1.68-0.33
					c0.47-0.09,0.94-0.18,1.41-0.28c0.34-0.07,0.68-0.14,1.02-0.21c0.16-0.03,0.32-0.06,0.48-0.1c0.01,0,0.01,0,0.02,0
					c0.18-0.04,0.29-0.26,0.23-0.43C47.83,9.8,47.67,9.73,47.48,9.76L47.48,9.76z"/>
			</g>
			<g>
				<path class="st3" d="M42.82,6.01c-0.02,0.11-0.03,0.21-0.05,0.32c-0.04,0.29-0.09,0.58-0.13,0.88
					c-0.06,0.43-0.12,0.86-0.17,1.29c-0.07,0.53-0.14,1.06-0.21,1.58c-0.08,0.58-0.15,1.15-0.23,1.73
					c-0.08,0.58-0.15,1.17-0.23,1.75c-0.07,0.54-0.14,1.09-0.21,1.63c-0.06,0.46-0.12,0.92-0.18,1.37
					c-0.04,0.33-0.09,0.66-0.13,0.99c-0.02,0.16-0.04,0.31-0.06,0.47c0,0.01,0,0.01,0,0.02c-0.01,0.1-0.01,0.18,0.04,0.27
					c0.05,0.08,0.13,0.14,0.22,0.16c0.17,0.03,0.41-0.07,0.43-0.27c0.01-0.11,0.03-0.22,0.04-0.32c0.04-0.29,0.08-0.59,0.11-0.88
					c0.06-0.43,0.11-0.86,0.17-1.29c0.07-0.53,0.14-1.06,0.21-1.58c0.08-0.58,0.15-1.15,0.23-1.73c0.08-0.58,0.15-1.17,0.23-1.75
					c0.07-0.54,0.14-1.09,0.21-1.63c0.06-0.46,0.12-0.92,0.17-1.38c0.01-0.1,0.02-0.19,0.04-0.29c0-0.02,0.01-0.04,0.01-0.07
					c0.01-0.05,0.03-0.23,0.01-0.07c0.01-0.04,0.01-0.08,0.01-0.13c0.02-0.15,0.03-0.29,0.05-0.44c0.02-0.16,0.04-0.31,0.05-0.47
					c0-0.01,0-0.01,0-0.02c0.01-0.09,0.01-0.16-0.04-0.24c-0.04-0.07-0.12-0.13-0.2-0.15C43.06,5.73,42.85,5.83,42.82,6.01
					L42.82,6.01z"/>
			</g>
		</g>
	</g>
</g>
</svg>
