<?xml version="1.0" encoding="utf-8"?>
<!-- Generator: Adobe Illustrator 27.3.1, SVG Export Plug-In . SVG Version: 6.00 Build 0)  -->
<svg version="1.1" id="Layer_1" xmlns="http://www.w3.org/2000/svg" xmlns:xlink="http://www.w3.org/1999/xlink" x="0px" y="0px"
	 viewBox="0 0 56.69 56.69" style="enable-background:new 0 0 56.69 56.69;" xml:space="preserve">
<style type="text/css">
	.st0{fill:#5E5F64;}
	.st1{fill:#95CFC5;}
	.st2{fill:#C05C48;}
	.st3{fill:#E9B4A8;}
	.st4{fill:#E69348;}
	.st5{fill:#FFE9C7;}
	.st6{fill:#FFCC4C;}
	.st7{fill:#EDD4AD;}
	.st8{fill:#B2DFDA;}
</style>
<g>
	<g>
		<path class="st0" d="M12.66,41.98c0.02-2.25,0.04-4.5,0.06-6.75c0.02-2.25,0.03-4.5,0.04-6.75c0.01-1.26,0.02-2.52,0-3.78
			c0-0.24-0.21-0.48-0.47-0.47c-0.26,0.01-0.46,0.2-0.47,0.47c-0.02,1.13,0,2.26,0,3.39c0,1.12,0.01,2.24,0.01,3.36
			c0.01,2.25,0.04,4.5,0.06,6.75c0.01,1.26,0.02,2.52,0.03,3.78c0,0.19,0.17,0.37,0.37,0.37C12.5,42.34,12.66,42.19,12.66,41.98
			L12.66,41.98z"/>
	</g>
	<g>
		<path class="st0" d="M19.59,43.13c0.02-2.25,0.04-4.5,0.06-6.75c0.02-2.25,0.03-4.5,0.04-6.75c0.01-1.26,0.02-2.52,0-3.78
			c0-0.24-0.21-0.48-0.47-0.47c-0.26,0.01-0.46,0.2-0.47,0.47c-0.02,1.13,0,2.26,0,3.39c0,1.12,0.01,2.24,0.01,3.36
			c0.01,2.25,0.04,4.5,0.06,6.75c0.01,1.26,0.02,2.52,0.03,3.78c0,0.19,0.17,0.37,0.37,0.37C19.42,43.48,19.58,43.33,19.59,43.13
			L19.59,43.13z"/>
	</g>
	<g>
		<path class="st0" d="M28.09,43.14c0.02-2.25,0.04-4.5,0.06-6.75c0.02-2.25,0.03-4.5,0.04-6.75c0.01-1.26,0.02-2.52,0-3.78
			c0-0.24-0.21-0.48-0.47-0.47c-0.26,0.01-0.46,0.2-0.47,0.47c-0.02,1.13,0,2.26,0,3.39c0,1.12,0.01,2.24,0.01,3.36
			c0.01,2.25,0.04,4.5,0.06,6.75c0.01,1.26,0.02,2.52,0.03,3.78c0,0.19,0.17,0.37,0.37,0.37C27.93,43.5,28.09,43.35,28.09,43.14
			L28.09,43.14z"/>
	</g>
	<g>
		<path class="st0" d="M36.9,45.67c0.01-1.24,0.02-2.47,0.03-3.71c0.01-1.39,0.02-2.78,0.03-4.18c0.01-1.44,0.03-2.89,0.03-4.33
			c0-1.4,0.01-2.81,0.01-4.21c0-1.26,0.02-2.52,0.01-3.78c0-0.14,0-0.28-0.01-0.42c0-0.24-0.21-0.48-0.47-0.47
			c-0.26,0.01-0.46,0.2-0.47,0.47c-0.02,1.24-0.01,2.47,0,3.71c0,1.39,0.01,2.78,0.01,4.18c0,1.44,0.02,2.89,0.03,4.33
			c0.01,1.4,0.02,2.81,0.03,4.21c0.01,1.26,0.02,2.52,0.03,3.78c0,0.14,0,0.28,0,0.42c0,0.19,0.17,0.37,0.37,0.37
			C36.74,46.03,36.9,45.87,36.9,45.67L36.9,45.67z"/>
	</g>
	<g>
		<path class="st0" d="M44.28,42.91c0.02-2.25,0.04-4.5,0.06-6.75c0.02-2.25,0.03-4.5,0.04-6.75c0.01-1.26,0.02-2.52,0-3.78
			c0-0.24-0.21-0.48-0.47-0.47c-0.26,0.01-0.46,0.2-0.47,0.47c-0.02,1.13,0,2.26,0,3.39c0,1.12,0.01,2.24,0.01,3.36
			c0.01,2.25,0.04,4.5,0.06,6.75c0.01,1.26,0.02,2.52,0.03,3.78c0,0.19,0.17,0.37,0.37,0.37C44.11,43.27,44.28,43.12,44.28,42.91
			L44.28,42.91z"/>
	</g>
	<path class="st1" d="M50.34,19.81c-0.1-1.21-0.63-2.39-1.57-3.17c-0.93-0.77-2.09-1.03-3.25-0.81c0.31-0.73,0.39-1.57,0.2-2.36
		c-0.42-1.72-2.37-2.95-4.1-2.59c-0.24,0.05-0.47,0.13-0.69,0.23c0.01-0.08,0.02-0.15,0.03-0.23c0.03-0.26,0.05-0.51,0.05-0.77
		C41,9.57,40.94,9.02,40.81,8.5c-0.86-3.31-4.47-4.21-7.14-2.42c-0.43,0.29-0.84,0.63-1.17,1.03c-0.17,0.21-0.33,0.43-0.46,0.66
		c-0.46-0.85-1.15-1.57-1.94-2.12c-2.79-1.95-7.19-1.3-8.68,1.96c-0.34,0.74-0.52,1.53-0.49,2.33c-1.24-0.65-2.71-0.83-4.07-0.48
		c-1.75,0.45-3.14,1.8-3.75,3.49c-0.29,0.82-0.39,1.71-0.27,2.57c-1.58-0.36-3.23-0.18-4.51,0.88c-1.19,0.98-1.79,2.51-1.95,4.01
		c-0.17,1.63,0.19,3.33,1,4.76c1.22,2.15,3.48,3.37,5.87,3.77c1.45,0.24,2.93,0.37,4.4,0.3c1.51-0.07,3.01-0.28,4.5-0.55
		c2.91-0.53,5.78-1.32,8.73-1.66c2.26-0.26,4.55-0.16,6.79,0.17c3.2,0.47,6.5,1.06,9.35-1C48.99,24.77,50.55,22.34,50.34,19.81z"/>
	<path class="st2" d="M14.17,42.56c-0.7-1.53-3.87-1.3-3.73,0.62c0.03,0.5,0.28,0.95,0.68,1.25c0.77,0.57,2.01,0.39,2.7-0.24
		C14.29,43.77,14.42,43.12,14.17,42.56z"/>
	<path class="st3" d="M14.3,34.83c-0.16-0.29-0.39-0.54-0.69-0.73c-0.96-0.61-2.31-0.69-3.14,0.17c-0.66,0.7-0.9,1.79-0.5,2.68
		c0.4,0.88,1.35,1.44,2.31,1.4c0.95-0.04,1.85-0.46,2.19-1.4C14.7,36.29,14.66,35.45,14.3,34.83z"/>
	<path class="st4" d="M20.86,38.53c-0.12-0.98-0.85-1.71-1.88-1.62c-1.5,0.14-2.12,1.96-1.18,3.07c0.39,0.46,0.98,0.7,1.58,0.59
		C20.33,40.42,20.97,39.47,20.86,38.53z"/>
	<g>
		<path class="st5" d="M17.05,51.49c-0.01-0.48,0.01-0.96,0.06-1.44c0.01-0.12,0.03-0.24,0.04-0.35c0-0.02,0-0.04,0.01-0.06
			c-0.01,0.09,0-0.01,0-0.02c0.01-0.07,0.02-0.14,0.03-0.21c0.04-0.23,0.08-0.47,0.13-0.7c0.1-0.46,0.22-0.92,0.36-1.38
			c0.07-0.23,0.15-0.45,0.23-0.67c0.04-0.11,0.08-0.21,0.12-0.32c0.01-0.03,0.02-0.06,0.04-0.09c0.03-0.07,0,0-0.01,0.01
			c0.03-0.07,0.06-0.13,0.09-0.2c0.11-0.24,0.23-0.49,0.35-0.72c0.12-0.24,0.26-0.47,0.38-0.71c0.1-0.2,0.06-0.46-0.15-0.57
			c-0.21-0.11-0.44-0.04-0.57,0.15c-0.14,0.2-0.25,0.43-0.36,0.65c-0.11,0.21-0.21,0.43-0.3,0.64c-0.2,0.47-0.39,0.94-0.54,1.43
			c-0.3,0.95-0.49,1.93-0.57,2.92c-0.04,0.54-0.05,1.09-0.03,1.64c0.01,0.18,0.15,0.35,0.35,0.35
			C16.89,51.82,17.06,51.68,17.05,51.49L17.05,51.49z"/>
	</g>
	<g>
		<path class="st5" d="M18.62,51.8c-0.06-1.03-0.03-2.07,0.05-3.1c0.02-0.26,0.04-0.51,0.07-0.76c0.01-0.12,0.03-0.24,0.04-0.36
			c0.01-0.06,0.01-0.11,0.02-0.17c-0.01,0.1,0-0.01,0-0.03c0.01-0.04,0.01-0.09,0.02-0.13c0.07-0.51,0.16-1.01,0.27-1.51
			c0.06-0.28,0.13-0.56,0.2-0.84c0.07-0.3,0.17-0.6,0.21-0.91c0.02-0.16-0.13-0.33-0.28-0.36c-0.15-0.04-0.35,0.02-0.42,0.17
			c-0.13,0.26-0.19,0.55-0.26,0.82c-0.06,0.25-0.12,0.5-0.18,0.75c-0.11,0.5-0.2,1-0.27,1.51c-0.15,1.05-0.24,2.1-0.23,3.16
			c0,0.59,0.03,1.18,0.08,1.77c0.01,0.18,0.15,0.35,0.34,0.34C18.45,52.13,18.63,51.99,18.62,51.8L18.62,51.8z"/>
	</g>
	<g>
		<path class="st5" d="M19.84,51.55c-0.01-0.94,0-1.87,0-2.81c-0.01-0.94-0.02-1.87-0.02-2.81c0-0.52-0.01-1.05-0.03-1.57
			c-0.01-0.21-0.18-0.41-0.4-0.4c-0.22,0.01-0.39,0.17-0.4,0.4c-0.01,0.94,0.02,1.87,0.04,2.81c0.02,0.94,0.03,1.87,0.06,2.81
			c0.02,0.52,0.03,1.05,0.05,1.57c0,0.18,0.16,0.36,0.35,0.35C19.68,51.89,19.84,51.74,19.84,51.55L19.84,51.55z"/>
	</g>
	<g>
		<path class="st5" d="M21.76,51.4c-0.14-0.95-0.35-1.89-0.57-2.83c-0.27-1.12-0.54-2.24-0.94-3.32c-0.15-0.4-0.31-0.83-0.61-1.15
			c-0.14-0.15-0.41-0.15-0.55,0c-0.14,0.16-0.15,0.39,0,0.55c0.01,0.01,0.05,0.06,0-0.01c-0.05-0.07-0.02-0.02,0,0
			c0.02,0.03,0.03,0.05,0.05,0.08c0.04,0.06,0.07,0.13,0.1,0.2c0.04,0.08,0.08,0.16,0.11,0.24c0.01,0.03,0.05,0.12-0.01-0.02
			c0.01,0.02,0.02,0.04,0.03,0.07c0.02,0.05,0.04,0.11,0.06,0.16c0.19,0.49,0.34,0.99,0.5,1.49c0.34,1.12,0.62,2.26,0.89,3.4
			c0.1,0.44,0.22,0.88,0.3,1.33c0.03,0.17,0.25,0.29,0.41,0.24C21.72,51.75,21.79,51.58,21.76,51.4L21.76,51.4z"/>
	</g>
	<g>
		<path class="st5" d="M23.15,50.15c-0.32-0.95-0.64-1.91-1.03-2.84c-0.43-1.03-0.91-2.05-1.55-2.96c-0.32-0.45-0.68-0.94-1.17-1.23
			c-0.16-0.09-0.37-0.05-0.48,0.1c-0.11,0.15-0.1,0.35,0.03,0.49c0.15,0.16,0.3,0.3,0.44,0.46c0.08,0.09,0.16,0.17,0.23,0.26
			c0.03,0.04,0.07,0.08,0.1,0.13c0.06,0.07-0.05-0.07,0,0.01c0.02,0.03,0.04,0.05,0.06,0.08c0.31,0.41,0.57,0.86,0.82,1.31
			c0.26,0.48,0.5,0.98,0.72,1.48c0.03,0.06,0.05,0.12,0.08,0.19c0.01,0.03,0.03,0.06,0.04,0.09c0.01,0.02,0.01,0.03,0.02,0.05
			c0.01,0.01,0.04,0.08,0.01,0.02c-0.02-0.05,0,0,0.01,0.01c0.01,0.02,0.01,0.03,0.02,0.05c0.01,0.03,0.02,0.05,0.03,0.08
			c0.04,0.09,0.07,0.18,0.11,0.27c0.01,0.02,0.01,0.03,0.02,0.05c0.02,0.05-0.03-0.07-0.01-0.02c0.01,0.03,0.03,0.06,0.04,0.09
			c0.03,0.06,0.05,0.13,0.08,0.19c0.05,0.12,0.1,0.24,0.14,0.36c0.19,0.49,0.38,0.98,0.55,1.47c0.06,0.17,0.24,0.3,0.42,0.24
			C23.08,50.51,23.21,50.33,23.15,50.15L23.15,50.15z"/>
	</g>
	<path class="st6" d="M29.95,32.41c-0.33-0.48-0.92-0.69-1.49-0.57c-0.28,0.06-0.54,0.22-0.74,0.42c-0.17-0.17-0.37-0.29-0.58-0.37
		c-0.49-0.19-1.12-0.04-1.49,0.34c-0.43,0.45-0.45,1.15-0.29,1.72c0.15,0.54,0.47,1.01,0.81,1.44c0.19,0.24,0.39,0.46,0.59,0.68
		c0.23,0.26,0.46,0.52,0.7,0.78c0.07,0.08,0.18,0.11,0.29,0.11c0.09,0,0.17-0.03,0.24-0.11c0.2-0.23,0.4-0.45,0.6-0.68
		c0.19-0.21,0.38-0.41,0.56-0.63c0.36-0.43,0.68-0.89,0.88-1.42c0.09-0.25,0.15-0.53,0.15-0.8C30.19,33.01,30.13,32.67,29.95,32.41z
		"/>
	<path class="st2" d="M46.14,30.55c-0.33-0.48-0.92-0.69-1.49-0.57c-0.28,0.06-0.54,0.22-0.74,0.42c-0.17-0.17-0.37-0.29-0.58-0.37
		c-0.49-0.19-1.12-0.04-1.49,0.34c-0.43,0.45-0.45,1.15-0.29,1.72c0.15,0.54,0.47,1.01,0.81,1.44c0.19,0.24,0.39,0.46,0.59,0.68
		c0.23,0.26,0.46,0.52,0.7,0.78c0.07,0.08,0.18,0.11,0.29,0.11c0.09,0,0.17-0.03,0.24-0.11c0.2-0.23,0.4-0.45,0.6-0.68
		c0.19-0.21,0.38-0.41,0.56-0.63c0.36-0.43,0.68-0.89,0.88-1.42c0.09-0.25,0.15-0.53,0.15-0.8C46.37,31.15,46.31,30.81,46.14,30.55z
		"/>
	<path class="st3" d="M30.36,40.25c-0.42-0.44-1.1-0.56-1.68-0.46c-0.35,0.06-0.67,0.24-0.93,0.47c-0.01,0.01-0.02,0.02-0.02,0.02
		c-0.21-0.2-0.48-0.35-0.76-0.44c-0.54-0.17-1.21-0.1-1.67,0.24c-0.28,0.21-0.48,0.5-0.54,0.85c-0.05,0.31-0.03,0.63,0.07,0.93
		c0.19,0.57,0.59,1.05,1.01,1.47c0.24,0.25,0.51,0.47,0.77,0.7c0.29,0.25,0.57,0.51,0.85,0.76c0.07,0.07,0.16,0.1,0.25,0.1
		c0.1,0.01,0.21-0.02,0.28-0.1c0.25-0.22,0.5-0.45,0.75-0.67c0.24-0.21,0.48-0.41,0.71-0.63c0.41-0.39,0.83-0.84,1.06-1.36
		C30.78,41.52,30.84,40.76,30.36,40.25z"/>
	
		<ellipse transform="matrix(0.9872 -0.1595 0.1595 0.9872 -5.1138 6.2767)" class="st5" cx="36.54" cy="34.99" rx="2.14" ry="2.14"/>
	<circle class="st4" cx="36.54" cy="40.87" r="1.48"/>
	<path class="st2" d="M37.82,48.06c-0.07-0.39-0.21-0.76-0.35-1.13c-0.15-0.39-0.3-0.79-0.45-1.18c-0.56-1.49-1.82,1.51-1.92,1.89
		c-0.19,0.71-0.22,1.52,0.19,2.16c0.21,0.33,0.5,0.58,0.87,0.72c0.42,0.15,0.91,0.04,1.21-0.29C37.9,49.64,37.96,48.8,37.82,48.06z"
		/>
	<polygon class="st6" points="43.94,40.85 42.29,43.57 43.94,46.27 45.59,43.57 	"/>
	<g>
		<path class="st7" d="M19.22,44.83c0.36,0,0.73-0.16,0.99-0.41c0.14-0.13,0.23-0.28,0.29-0.45c0.09-0.17,0.13-0.35,0.12-0.54
			c-0.02-0.36-0.13-0.73-0.41-0.99c-0.27-0.25-0.61-0.41-0.99-0.41c-0.36,0-0.73,0.16-0.99,0.41c-0.14,0.13-0.23,0.28-0.29,0.45
			c-0.09,0.17-0.13,0.35-0.12,0.54c0.02,0.36,0.13,0.73,0.41,0.99C18.51,44.68,18.84,44.83,19.22,44.83L19.22,44.83z"/>
	</g>
	<g>
		<g>
			<path class="st8" d="M9.77,24.48c0.36,0,0.71-0.32,0.7-0.7c-0.02-0.38-0.31-0.7-0.7-0.7c-0.36,0-0.71,0.32-0.7,0.7
				C9.09,24.16,9.38,24.48,9.77,24.48L9.77,24.48z"/>
		</g>
		<g>
			<path class="st8" d="M10.47,20.62c0.25,0,0.51-0.09,0.69-0.28c0.6-0.6,0.16-1.67-0.69-1.67c-0.43,0-0.84,0.31-0.94,0.73
				c-0.09,0.34,0.03,0.73,0.29,0.97C10,20.54,10.24,20.62,10.47,20.62z"/>
		</g>
		<g>
			<path class="st8" d="M21.96,21.68c0.37-0.06,0.69-0.29,0.8-0.67c0.08-0.3,0.01-0.63-0.19-0.87c-0.26-0.3-0.74-0.41-1.12-0.31
				c-0.47,0.13-0.78,0.63-0.69,1.1C20.86,21.48,21.43,21.83,21.96,21.68z"/>
		</g>
		<g>
			<path class="st8" d="M15.38,19.8c0.25,0,0.5-0.08,0.69-0.28c0.36-0.36,0.39-1.02,0-1.38c-0.19-0.18-0.43-0.29-0.69-0.29
				c-0.36,0-0.71,0.22-0.87,0.54c-0.18,0.36-0.12,0.85,0.18,1.13C14.88,19.7,15.13,19.8,15.38,19.8z"/>
		</g>
		<g>
			<path class="st8" d="M20.62,26.85c0.27,0,0.54-0.24,0.52-0.52c-0.01-0.28-0.23-0.52-0.52-0.52c-0.27,0-0.54,0.24-0.52,0.52
				C20.1,26.61,20.32,26.85,20.62,26.85L20.62,26.85z"/>
		</g>
		<g>
			<path class="st8" d="M19.5,16.91c0.27,0,0.54-0.24,0.52-0.52c-0.01-0.28-0.23-0.52-0.52-0.52c-0.27,0-0.54,0.24-0.52,0.52
				C18.99,16.67,19.21,16.91,19.5,16.91L19.5,16.91z"/>
		</g>
		<g>
			<path class="st8" d="M13.34,22.65c0.27,0,0.54-0.24,0.52-0.52c-0.01-0.28-0.23-0.52-0.52-0.52c-0.27,0-0.54,0.24-0.52,0.52
				C12.82,22.41,13.04,22.65,13.34,22.65L13.34,22.65z"/>
		</g>
		<g>
			<path class="st8" d="M17.87,25.46c1.27,0,1.23-1.95,0-1.95c-0.25,0-0.51,0.11-0.69,0.29c-0.36,0.36-0.39,1.02,0,1.38
				C17.38,25.35,17.61,25.46,17.87,25.46z"/>
		</g>
		<g>
			<path class="st8" d="M13.34,26.85c0.2,0,0.4-0.06,0.56-0.17c0.47-0.33,0.57-1.09,0.13-1.49c-0.19-0.18-0.43-0.29-0.69-0.29
				c-0.45,0-0.86,0.33-0.95,0.77c-0.08,0.38,0.09,0.8,0.41,1.02C12.96,26.8,13.15,26.85,13.34,26.85z"/>
		</g>
	</g>
</g>
</svg>
