<?xml version="1.0" encoding="utf-8"?>
<!-- Generator: Adobe Illustrator 27.3.1, SVG Export Plug-In . SVG Version: 6.00 Build 0)  -->
<svg version="1.1" id="Layer_1" xmlns="http://www.w3.org/2000/svg" xmlns:xlink="http://www.w3.org/1999/xlink" x="0px" y="0px"
	 viewBox="0 0 56.69 56.69" style="enable-background:new 0 0 56.69 56.69;" xml:space="preserve">
<style type="text/css">
	.st0{fill:#FFCC4C;}
	.st1{fill:#95CFC5;}
	.st2{fill:#61B3A6;}
	.st3{fill:#64361A;}
	.st4{fill:#E69348;}
	.st5{fill:#E8B539;}
</style>
<g>
	<g>
		<path class="st0" d="M42.66,27.62c0,7.52-6.32,13.62-14.12,13.62c-7.8,0-14.13-6.1-14.13-13.62c0-2.09,0.49-4.08,1.37-5.85
			c0.43-0.86,0.95-1.68,1.54-2.43c0.18-0.23,0.36-0.45,0.56-0.66c0.47-0.52,0.98-1,1.53-1.45c2.46-2.01,5.65-3.22,9.13-3.22
			c3.01,0,5.81,0.91,8.11,2.46c0.18,0.12,0.36,0.25,0.54,0.38c0.19,0.14,0.37,0.28,0.55,0.43c1.04,0.86,1.95,1.86,2.69,2.98
			C41.84,22.39,42.66,24.91,42.66,27.62z"/>
		<g>
			<path class="st1" d="M40.42,20.26c-1.22,0.44-2.61,0.84-4.02,1.17c-0.07,0.02-0.15,0.03-0.22,0.05c0,0,0,0,0,0
				c-1.95,0.46-3.94,0.79-5.61,0.94c-0.07,0.01-0.14,0.01-0.21,0.02c-0.2,0.02-0.4,0.03-0.6,0.05c-2.01,0.14-3.88,0.18-5.6,0.14
				c-0.21,0-0.41-0.01-0.62-0.01c-2.17-0.07-4.08-0.25-5.66-0.48c-0.14-0.02-0.28-0.04-0.41-0.06c-0.61-0.1-1.18-0.2-1.69-0.31
				c0.43-0.86,0.95-1.68,1.54-2.43c0.18-0.23,0.36-0.45,0.56-0.66c0.47-0.52,0.98-1,1.53-1.45c0.54,0.13,1.09,0.25,1.64,0.34h0
				c0.14,0.02,0.28,0.05,0.42,0.07c1.61,0.25,3.25,0.37,4.89,0.36h0l0.42,0l0.08,0c1.84-0.04,3.68-0.23,5.5-0.54
				c0.16-0.03,0.31-0.05,0.47-0.08c0.85-0.16,1.7-0.34,2.54-0.54c0.43-0.11,0.85-0.23,1.28-0.36c0.18,0.12,0.36,0.25,0.54,0.38
				c0.19,0.14,0.37,0.28,0.55,0.43C38.77,18.15,39.68,19.15,40.42,20.26z"/>
			<path class="st2" d="M37.73,17.29c-0.02,0.08-0.04,0.15-0.06,0.23c-0.16,0.65-0.34,1.29-0.54,1.93c-0.15,0.5-0.3,1.72-0.74,1.99
				c-0.07,0.04-0.14,0.06-0.22,0.05c0,0,0,0,0,0c-0.01,0-0.02,0-0.03,0c-0.1-0.02-0.18-0.05-0.25-0.12c-0.04-0.03-1.63-1.6-2.08-2.1
				c-0.22-0.24-1.04-1.14-1.07-1.17c-0.12,0.23-1.54,3.05-2.18,4.33c-0.07,0.01-0.14,0.01-0.21,0.02c-0.2,0.02-0.4,0.03-0.6,0.05
				c-0.25-0.27-0.44-0.6-0.67-0.89c-0.42-0.55-0.83-1.11-1.25-1.65c-0.21-0.26-0.85-1.03-0.96-1.15c-0.03-0.03-0.13-0.14-0.13-0.14
				c-0.16,0.25-0.32,0.49-0.48,0.73c-0.59,0.9-1.76,2.74-2.11,3.24c-0.21,0-0.41-0.01-0.62-0.01c-0.19-0.32-0.38-0.65-0.55-0.98
				c-0.32-0.62-0.63-1.25-0.94-1.87c-0.16-0.32-0.31-0.64-0.48-0.95c-0.09-0.18-0.18-0.36-0.27-0.54c-0.07,0.08-0.14,0.16-0.21,0.24
				c-0.3,0.35-2.68,3.08-2.82,3.22c-0.12,0.13-0.25,0.26-0.38,0.39c-0.01,0.01-0.01,0.01-0.02,0.02c-0.14-0.02-0.28-0.04-0.41-0.06
				c-0.03-0.05-0.03-0.11-0.02-0.17c-0.05-0.41-0.13-2.04-0.12-2.45c0-0.04,0-0.08,0-0.12c0.18-0.23,0.36-0.45,0.56-0.66
				c0.01,1.26,0.01,2.49,0.01,2.58c0,0,0,0,0,0c0.28-0.36,1.54-1.86,1.89-2.26c0.29-0.34,0.58-0.68,0.87-1.02
				c0.09-0.11,0.17-0.23,0.27-0.32c0.04-0.04,0.08-0.07,0.13-0.08h0c0.14,0.02,0.28,0.05,0.42,0.07c0,0,0,0,0,0
				c0.09,0.07,0.33,0.35,0.4,0.47c0.11,0.19,0.23,0.38,0.33,0.57c0.34,0.62,0.66,1.24,0.99,1.87c0.16,0.31,0.32,0.61,0.48,0.92
				c0.04,0.08,0.23,0.42,0.24,0.43c0.1-0.17,0.21-0.34,0.31-0.51c0.7-1.12,1.41-2.24,2.12-3.37c0-0.01,0.01-0.01,0.02-0.02h0l0.42,0
				l0.08,0c0.13,0.12,0.66,0.62,0.9,0.88c0.46,0.49,0.88,1.02,1.3,1.55c0.38,0.49,0.76,0.99,1.14,1.49
				c0.11-0.23,0.22-0.45,0.32-0.68c0.6-1.25,1.21-2.48,1.81-3.73c0.01-0.02,0.02-0.03,0.03-0.05c0.16-0.03,0.31-0.05,0.47-0.08
				c0.01,0.01,0.03,0.02,0.04,0.04c0.01,0.01,0.02,0.01,0.03,0.02c0.27,0.25,0.53,0.5,0.79,0.76c0.24,0.25,0.94,0.99,0.97,1.02
				c0.01,0.01,0.04,0.04,0.04,0.04c0.11,0.12,0.23,0.23,0.34,0.35c0.23,0.23,0.46,0.46,0.7,0.68c0.11,0.11,0.23,0.21,0.35,0.31
				c0.03,0.03,0.07,0.06,0.1,0.09c0.01-0.02,0.01-0.03,0.01-0.04c0.05-0.18,0.1-0.35,0.15-0.53c0.03-0.1,0.05-0.19,0.08-0.28
				c0-0.01,0.04-0.14,0.05-0.18c0.04-0.15,0.09-0.31,0.13-0.46c0.09-0.31,0.17-0.63,0.25-0.94c0.12-0.46,0.23-0.92,0.33-1.38
				C37.37,16.99,37.55,17.14,37.73,17.29z"/>
		</g>
		<g>
			<g>
				<g>
					<path class="st3" d="M20.27,25.92c0.14,0.64,0.41,1.25,0.81,1.77c0.4,0.52,0.92,0.98,1.51,1.26c0.56,0.27,1.18,0.41,1.79,0.26
						c0.69-0.17,1.21-0.75,1.56-1.34c0.46-0.76,0.7-1.68,0.75-2.57c0.01-0.23-0.21-0.45-0.44-0.44c-0.11,0.01-0.23,0.04-0.31,0.13
						c-0.08,0.09-0.11,0.19-0.13,0.31c0,0.02-0.01,0.05-0.01,0.07c0,0.01,0.01-0.04,0.01-0.05c-0.12,0.84-0.31,1.65-0.81,2.35
						c-0.31,0.44-0.85,0.73-1.4,0.67c-0.45-0.05-0.82-0.31-1.2-0.54c-0.01,0-0.02-0.01-0.02,0s0.01,0.02,0.01,0.01
						c-0.38-0.34-0.81-0.7-1.04-1.16c-0.14-0.23-0.28-0.48-0.37-0.74c-0.07-0.22-0.17-0.52-0.48-0.42
						C20.32,25.56,20.23,25.73,20.27,25.92z"/>
				</g>
				<g>
					<path class="st3" d="M22.4,28.63c-0.16,0.25-0.51,1.28,0.13,1.19c0.24-0.03,0.29-0.3,0.31-0.5c0.02-0.21,0.19-0.55,0.07-0.73
						C22.72,28.3,22.54,28.41,22.4,28.63z"/>
				</g>
				<g>
					<path class="st3" d="M23.88,29.16c0.05,0.25,0.1,0.49,0.17,0.74c0.02,0.08,0.08,0.16,0.16,0.21c0.07,0.04,0.18,0.06,0.27,0.03
						c0.08-0.03,0.16-0.08,0.21-0.16c0.01-0.03,0.02-0.05,0.03-0.08c0.02-0.06,0.02-0.12,0-0.18c-0.04-0.29-0.07-1.15-0.59-0.99
						c-0.09,0.03-0.17,0.08-0.21,0.16C23.86,28.98,23.85,29.07,23.88,29.16z"/>
				</g>
				<g>
					<path class="st3" d="M25.14,28.53c0.18,0.29,0.56,0.63,0.79,0.62c0.08,0,0.17-0.04,0.22-0.1c0.11-0.13,0.12-0.3,0.01-0.44
						c-0.07-0.09-0.13-0.18-0.21-0.26c-0.13-0.13-0.35-0.39-0.55-0.39c-0.04-0.01-0.09,0-0.13,0.01c-0.12,0.04-0.24,0.18-0.23,0.33
						C25.05,28.36,25.09,28.44,25.14,28.53z"/>
				</g>
			</g>
			<g>
				<g>
					<path class="st3" d="M36.16,25.92c-0.14,0.64-0.41,1.25-0.81,1.77c-0.4,0.52-0.92,0.98-1.51,1.26
						c-0.56,0.27-1.18,0.41-1.79,0.26c-0.69-0.17-1.21-0.75-1.56-1.34c-0.46-0.76-0.7-1.68-0.75-2.57
						c-0.01-0.23,0.21-0.45,0.44-0.44c0.11,0.01,0.23,0.04,0.31,0.13c0.08,0.09,0.11,0.19,0.13,0.31c0,0.02,0.01,0.05,0.01,0.07
						c0,0.01-0.01-0.04-0.01-0.05c0.12,0.84,0.31,1.65,0.81,2.35c0.31,0.44,0.85,0.73,1.4,0.67c0.45-0.05,0.82-0.31,1.2-0.54
						c0.01,0,0.02-0.01,0.02,0c0.01,0.01-0.01,0.02-0.01,0.01c0.38-0.34,0.81-0.7,1.04-1.16c0.14-0.23,0.28-0.48,0.37-0.74
						c0.07-0.22,0.17-0.52,0.48-0.42C36.1,25.56,36.2,25.73,36.16,25.92z"/>
				</g>
				<g>
					<path class="st3" d="M34.02,28.63c0.16,0.25,0.51,1.28-0.13,1.19c-0.24-0.03-0.29-0.3-0.31-0.5c-0.02-0.21-0.19-0.55-0.07-0.73
						C33.7,28.3,33.88,28.41,34.02,28.63z"/>
				</g>
				<g>
					<path class="st3" d="M32.55,29.16c-0.05,0.25-0.1,0.49-0.17,0.74c-0.02,0.08-0.08,0.16-0.16,0.21
						c-0.07,0.04-0.18,0.06-0.27,0.03c-0.08-0.03-0.16-0.08-0.21-0.16c-0.01-0.03-0.02-0.05-0.03-0.08c-0.02-0.06-0.02-0.12,0-0.18
						c0.04-0.29,0.07-1.15,0.59-0.99c0.09,0.03,0.17,0.08,0.21,0.16C32.56,28.98,32.57,29.07,32.55,29.16z"/>
				</g>
				<g>
					<path class="st3" d="M31.28,28.53c-0.18,0.29-0.56,0.63-0.79,0.62c-0.08,0-0.17-0.04-0.22-0.1c-0.11-0.13-0.12-0.3-0.01-0.44
						c0.07-0.09,0.13-0.18,0.21-0.26c0.13-0.13,0.35-0.39,0.55-0.39c0.04-0.01,0.09,0,0.13,0.01c0.12,0.04,0.24,0.18,0.23,0.33
						C31.37,28.36,31.34,28.44,31.28,28.53z"/>
				</g>
			</g>
			<g>
				<path class="st3" d="M26.71,31.46c0.21,0.62,0.73,1.15,1.4,1.25c0.52,0.08,1.02-0.1,1.4-0.46c0.24-0.23,0.41-0.52,0.53-0.83
					c0.04-0.09,0.01-0.24-0.04-0.32c-0.05-0.08-0.11-0.13-0.2-0.17c-0.35-0.15-0.57,0.24-0.74,0.48c-0.22,0.32-0.49,0.56-0.91,0.46
					c-0.27-0.06-0.53-0.22-0.72-0.43c-0.15-0.17-0.24-0.5-0.55-0.37C26.75,31.14,26.66,31.31,26.71,31.46z"/>
			</g>
			<path class="st4" d="M20.13,32.8c-0.2,0.44-0.22,0.95,0.01,1.48c0.3,0.67,0.92,1.26,1.68,1.34c1.62,0.16,3.15-1.82,2.17-3.27
				c-0.34-0.51-0.93-0.84-1.55-0.88C21.47,31.41,20.5,31.98,20.13,32.8z"/>
			<path class="st4" d="M36.95,32.8c0.2,0.44,0.22,0.95-0.01,1.48c-0.3,0.67-0.92,1.26-1.68,1.34c-1.62,0.16-3.15-1.82-2.17-3.27
				c0.34-0.51,0.93-0.84,1.55-0.88C35.61,31.41,36.58,31.98,36.95,32.8z"/>
		</g>
	</g>
	<path class="st5" d="M29.96,3.9c-0.55,0.03-1.11,0.05-1.66,0.08c-0.88,0.04-1.76,0.08-2.63,0.16c-0.2,0.02-0.4,0.03-0.61,0.05
		c-0.14,0.01-0.25,0.06-0.33,0.17c-0.08,0.1-0.12,0.24-0.08,0.37c0.16,0.47,0.3,0.95,0.45,1.43c0.16,0.49,1.75,4.96,1.86,5.23
		c0.08,0.19,0.35,0.95,0.56,1c0.27,0.06,0.49-0.08,0.58-0.33c0.72-1.92,1.35-3.87,1.88-5.85c0.15-0.56,0.29-1.13,0.43-1.7
		C30.48,4.22,30.27,3.89,29.96,3.9z"/>
	<path class="st5" d="M52.92,25.99c-0.03,0.55-0.05,1.11-0.08,1.66c-0.04,0.88-0.08,1.76-0.16,2.63c-0.02,0.2-0.03,0.4-0.05,0.61
		c-0.01,0.14-0.06,0.25-0.17,0.33c-0.1,0.08-0.24,0.12-0.37,0.08c-0.47-0.16-0.95-0.3-1.43-0.45c-0.49-0.16-4.96-1.75-5.23-1.86
		c-0.19-0.08-0.95-0.35-1-0.56c-0.06-0.27,0.08-0.49,0.33-0.58c1.92-0.72,3.87-1.35,5.85-1.88c0.56-0.15,1.13-0.29,1.7-0.43
		C52.61,25.46,52.94,25.67,52.92,25.99z"/>
	<path class="st5" d="M25.67,52.79c0.55-0.03,1.11-0.05,1.66-0.08c0.88-0.04,1.76-0.08,2.63-0.16c0.2-0.02,0.4-0.03,0.61-0.05
		c0.14-0.01,0.25-0.06,0.33-0.17c0.08-0.1,0.12-0.24,0.08-0.37c-0.16-0.47-0.3-0.95-0.45-1.43c-0.16-0.49-1.75-4.96-1.86-5.23
		c-0.08-0.19-0.35-0.95-0.56-1c-0.27-0.06-0.49,0.08-0.58,0.33c-0.72,1.92-1.35,3.87-1.88,5.85c-0.15,0.56-0.29,1.13-0.43,1.7
		C25.15,52.48,25.35,52.8,25.67,52.79z"/>
	<path class="st5" d="M3.77,31.43c0.03-0.55,0.05-1.11,0.08-1.66c0.04-0.88,0.08-1.76,0.16-2.63c0.02-0.2,0.03-0.4,0.05-0.61
		c0.01-0.14,0.06-0.25,0.17-0.33c0.1-0.08,0.24-0.12,0.37-0.08c0.47,0.16,0.95,0.3,1.43,0.45c0.49,0.16,4.96,1.75,5.23,1.86
		c0.19,0.08,0.95,0.35,1,0.56c0.06,0.27-0.08,0.49-0.33,0.58c-1.92,0.72-3.87,1.35-5.85,1.88c-0.56,0.15-1.13,0.29-1.7,0.43
		C4.08,31.95,3.75,31.74,3.77,31.43z"/>
	<path class="st5" d="M11.5,9.04c-0.36,0.42-0.72,0.85-1.07,1.27c-0.57,0.67-1.14,1.34-1.68,2.03c-0.13,0.16-0.25,0.32-0.38,0.48
		c-0.09,0.11-0.13,0.22-0.1,0.36c0.02,0.13,0.1,0.25,0.22,0.31c0.46,0.2,0.9,0.43,1.36,0.64c0.47,0.22,4.82,2.1,5.09,2.2
		c0.2,0.07,0.94,0.39,1.11,0.27c0.23-0.15,0.27-0.41,0.15-0.65c-0.91-1.84-1.92-3.63-3.01-5.36c-0.31-0.5-0.63-0.99-0.95-1.47
		C12.08,8.87,11.7,8.8,11.5,9.04z"/>
	<path class="st5" d="M43.91,8.52c0.38,0.4,0.76,0.81,1.14,1.21c0.6,0.64,1.21,1.28,1.79,1.94c0.13,0.15,0.27,0.31,0.4,0.46
		c0.09,0.1,0.14,0.21,0.12,0.35c-0.01,0.13-0.08,0.26-0.2,0.32c-0.45,0.23-0.88,0.48-1.32,0.72c-0.45,0.25-4.7,2.36-4.97,2.47
		c-0.19,0.08-0.92,0.44-1.09,0.33c-0.24-0.14-0.29-0.4-0.19-0.64c0.81-1.88,1.72-3.73,2.71-5.52c0.28-0.51,0.57-1.02,0.87-1.52
		C43.32,8.38,43.69,8.29,43.91,8.52z"/>
	<path class="st5" d="M44.28,47.86c0.35-0.43,0.71-0.86,1.06-1.29c0.56-0.68,1.12-1.35,1.66-2.05c0.12-0.16,0.25-0.32,0.37-0.48
		c0.08-0.11,0.12-0.22,0.1-0.36c-0.02-0.13-0.1-0.25-0.22-0.3c-0.46-0.2-0.91-0.42-1.36-0.63c-0.47-0.22-4.85-2.04-5.12-2.14
		c-0.2-0.07-0.94-0.38-1.11-0.26c-0.23,0.16-0.27,0.42-0.15,0.65c0.93,1.83,1.96,3.61,3.07,5.33c0.32,0.49,0.64,0.98,0.97,1.46
		C43.7,48.04,44.08,48.11,44.28,47.86z"/>
	<path class="st5" d="M12.3,48.13c-0.38-0.41-0.76-0.81-1.14-1.22c-0.6-0.64-1.21-1.28-1.78-1.94c-0.13-0.15-0.27-0.31-0.4-0.46
		c-0.09-0.1-0.14-0.21-0.12-0.35c0.01-0.13,0.08-0.26,0.2-0.32c0.45-0.23,0.88-0.48,1.32-0.71c0.45-0.25,4.71-2.35,4.97-2.46
		c0.19-0.08,0.92-0.44,1.1-0.33c0.24,0.14,0.29,0.4,0.19,0.64c-0.82,1.88-1.72,3.72-2.72,5.51c-0.28,0.51-0.58,1.02-0.87,1.52
		C12.89,48.27,12.51,48.36,12.3,48.13z"/>
</g>
</svg>
