<?xml version="1.0" encoding="utf-8"?>
<!-- Generator: Adobe Illustrator 27.5.0, SVG Export Plug-In . SVG Version: 6.00 Build 0)  -->
<svg version="1.1" id="Layer_1" xmlns="http://www.w3.org/2000/svg" xmlns:xlink="http://www.w3.org/1999/xlink" x="0px" y="0px"
	 viewBox="0 0 56.7 56.7" style="enable-background:new 0 0 56.7 56.7;" xml:space="preserve">
<style type="text/css">
	.st0{fill:#61B3A6;}
	.st1{fill:#95CFC6;}
	.st2{fill:#452511;}
	.st3{fill:#FFCB4C;}
	.st4{fill:#633518;}
	.st5{fill:#F2BAAE;}
	.st6{fill:#AD6E61;}
	.st7{fill:#945E53;}
	.st8{fill:#E59349;}
	.st9{fill:#B87131;}
	.st10{fill:#8F5632;}
</style>
<g>
	<g>
		<g>
			<path class="st0" d="M26.2,20.9c-0.7-2.2-1-4.6-0.5-6.9c0.4-1.9,1.4-3.9,2.9-5.2c1-0.9,2.5-1.5,3.9-1.2c2.4,0.4,3,3.3,2.6,5.3
				c-0.5,2.3-2.1,4.3-3.7,6c-0.2,0.2-0.3,0.4-0.5,0.5c-0.2,0.2-2.9,2.9-2.9,2.9C28.1,22.2,26.2,20.9,26.2,20.9z"/>
			<path class="st1" d="M26.1,21.6c-0.6,0.1-1.3-0.4-1.8-0.6c-1.3-0.5-2.6-1.3-3.7-2.2c-2.2-1.9-4.9-6.3-2.5-9
				c1.4-1.6,3.7-1.5,5.5-0.7c2.1,0.9,3.6,2.8,4.6,4.8c0.5,1.1,0.8,2.2,1,3.4c0.1,0.7,0.1,1.3,0.1,2c0,0.2,0,2-0.2,2
				C29.1,21.2,26.1,21.6,26.1,21.6z"/>
		</g>
		<g>
			<path class="st2" d="M8.3,33.8c0.4,0.1,0.8,0.1,1.1,0.1c0.4,0,0.7,0,1.1,0c0.3,0,0.7,0,0.9-0.2c0.1-0.1,0.2-0.3,0.1-0.4
				c0-0.2-0.1-0.3-0.2-0.4c-0.2-0.1-0.4-0.1-0.6-0.1c-0.2,0-0.5,0-0.7,0.1c-0.5,0-0.9,0.1-1.4,0.2c-0.2,0-0.7,0.1-0.7,0.4
				C8,33.7,8.1,33.8,8.3,33.8z"/>
		</g>
		<g>
			<path class="st2" d="M29.2,49c0.3-0.5,0.6-1.1,0.7-1.7c0.1-0.6,0.2-1.2,0.1-1.9c0-0.4-0.1-0.9-0.4-1.2c-0.2-0.2-0.6-0.1-0.7,0.2
				c0,0.2,0,0.4,0,0.6c0.1,0.5,0.1,1,0.1,1.4c0,0.4,0,0.9-0.2,1.3c-0.1,0.3-0.2,0.6-0.3,0.8c-0.1,0.2-0.1,0.4,0.1,0.5
				C28.9,49.3,29.1,49.2,29.2,49z"/>
		</g>
		<g>
			<path class="st2" d="M31.7,48.9c0.3-0.5,0.5-1,0.6-1.6c0.1-0.6,0.2-1.1,0.1-1.7c0-0.3-0.1-0.7-0.2-1c-0.1-0.2-0.3-0.4-0.6-0.3
				c-0.2,0.1-0.4,0.3-0.3,0.6c0,0.1,0.1,0.3,0.1,0.4c0.1,0.5,0.1,0.9,0.1,1.4c0,0.2,0,0.3,0,0.5c0,0,0,0,0,0c0,0,0,0,0,0.1
				c0,0.3-0.1,0.7-0.2,1c-0.1,0.2-0.3,0.6,0,0.8C31.4,49.1,31.6,49.1,31.7,48.9z"/>
		</g>
		<path class="st3" d="M40.8,41.9c-0.2,0.2-0.5,0.3-0.7,0.5c-0.5,0.4-1.1,0.7-1.8,1c-2.4,1.2-5.4,1.9-8.5,2.1c-0.4,0-0.8,0-1.2,0
			c-0.2,0-0.5,0-0.7,0c-1.3,0-2.5-0.1-3.8-0.3c-1.6-0.2-3.1-0.6-4.6-1.1c-2.3-0.8-4.3-1.9-5.9-3.4c-1.3-1.2-2.3-2.7-2.8-4.4
			c-1.3-4,0-7.8,3.1-10.7c0,0,0.1-0.1,0.1-0.1c1.7-1.6,3.8-2.7,6-3.5c1.5-0.5,3.1-0.9,4.6-1.1c1-0.1,2-0.2,2.9-0.2
			c0.9,0,1.8,0,2.7,0.1h0c6.7,0.6,13,4,14.6,10.9C45.9,35.7,44.2,39.3,40.8,41.9z"/>
		<path class="st4" d="M19.5,44.2c-2.3-0.8-4.3-1.9-5.9-3.4c-1.1-5-1-10.2,0.3-15.1c0,0,0.1-0.1,0.1-0.1c1.7-1.6,3.8-2.7,6-3.5
			C17.2,29.1,17.1,37.1,19.5,44.2z"/>
		<path class="st4" d="M29.8,45.6c-1.9,0.1-3.8,0-5.7-0.3c-2.9-7.6-2.6-16.8,0.6-24.4c1-0.1,2-0.2,2.9-0.2c0.9,0,1.8,0,2.7,0.1
			C27.1,28.4,26.7,37.9,29.8,45.6z"/>
		<g>
			<g>
				<path class="st2" d="M32.9,30.1c0,0.1,0,0.2,0,0.3c0,0.1,0,0.3,0,0.4c0,0.2,0.1,0.4,0.1,0.6c0.1,0.5,0.4,0.9,0.7,1.2
					c0.6,0.7,1.6,0.9,2.5,0.7c0.3-0.1,0.7-0.2,0.9-0.5c0.2-0.2,0.4-0.5,0.5-0.7c0.2-0.6,0.3-1.2,0.4-1.8c0-0.3,0-0.5,0-0.8
					c0-0.2,0-0.5-0.2-0.7c0,0.1,0.1,0.1,0.1,0.2c0,0,0,0,0,0c0-0.2-0.3-0.3-0.5-0.3c-0.4,0.1-0.3,1-0.3,1.4c0,0.7,0,1.6-0.6,2.2
					c-0.6,0.5-1.4,0.5-2,0c-0.5-0.4-0.8-1-1-1.6c-0.1-0.2-0.1-0.5-0.2-0.7c0-0.1-0.2-0.2-0.3-0.2C33,29.8,32.9,29.9,32.9,30.1z"/>
			</g>
			<g>
				<path class="st2" d="M34.1,32.9c0,0.2-0.1,0.4-0.1,0.6c0,0.2-0.1,0.4,0,0.5c0.1,0.1,0.3,0.2,0.5,0c0.1-0.1,0.1-0.3,0.1-0.5
					c0-0.2,0-0.4,0-0.7c0-0.1,0-0.2-0.1-0.2c0,0-0.1-0.1-0.2-0.1c-0.1,0-0.1,0-0.2,0C34.2,32.7,34.2,32.8,34.1,32.9z"/>
			</g>
			<g>
				<path class="st2" d="M35.8,33.4c0.1,0.2,0.1,0.5,0.2,0.7c0,0.1,0.1,0.2,0.2,0.2c0.1,0,0.2,0.1,0.3,0c0.2-0.1,0.3-0.2,0.2-0.4
					c-0.1-0.2-0.1-0.5-0.2-0.7c0-0.1-0.1-0.2-0.2-0.2c-0.1,0-0.2-0.1-0.3,0C35.8,33,35.7,33.2,35.8,33.4L35.8,33.4z"/>
			</g>
			<g>
				<path class="st2" d="M37.3,32.6c0,0,0.1,0.1,0.1,0.1c0.1,0.2,0.6,0.9,0.9,0.4c0.1-0.2-0.4-0.7-0.6-0.9c-0.1-0.1-0.1-0.1-0.2-0.1
					c-0.1,0-0.2,0-0.2,0.1c-0.1,0.1-0.1,0.1-0.1,0.2C37.2,32.5,37.2,32.5,37.3,32.6z"/>
			</g>
		</g>
		<g>
			<path class="st2" d="M44.7,30.2c-0.1,0-0.3,0-0.3,0.2c-0.1,0.2-0.1,0.5-0.2,0.7c-0.2,0.6-0.6,1.2-1.1,1.6c-0.6,0.4-1.4,0.4-2-0.2
				c-0.6-0.5-0.6-1.5-0.5-2.2c0-0.3,0.2-1.2-0.2-1.4c-0.2-0.1-0.3,0-0.4,0.1c-0.1,0.2-0.2,0.4-0.2,0.6c0,0.3,0,0.5-0.1,0.8
				c0,0.6,0.1,1.3,0.3,1.8c0.1,0.3,0.2,0.5,0.4,0.7c0.2,0.3,0.6,0.4,0.9,0.6c0.9,0.3,1.9,0.1,2.5-0.6c0.3-0.3,0.6-0.7,0.8-1.2
				c0.1-0.2,0.1-0.4,0.2-0.6c0-0.1,0-0.3,0.1-0.4c0-0.1,0-0.2,0-0.3C44.9,30.4,44.9,30.3,44.7,30.2z"/>
			<g>
				<path class="st2" d="M43.5,33.2c0,0.2,0,0.4,0.1,0.6c0,0.2,0.1,0.4-0.1,0.5c-0.1,0.1-0.3,0.1-0.5,0c-0.1-0.1-0.1-0.3-0.1-0.5
					c0-0.2,0-0.4,0-0.7c0-0.1,0-0.2,0.1-0.2c0.1,0,0.1-0.1,0.2-0.1c0.1,0,0.1,0,0.2,0C43.5,33.1,43.5,33.2,43.5,33.2z"/>
			</g>
			<g>
				<path class="st2" d="M41.9,33.6c-0.1,0.2-0.1,0.5-0.2,0.7c0,0.1-0.1,0.2-0.2,0.2c-0.1,0-0.2,0.1-0.3,0c-0.2-0.1-0.3-0.3-0.2-0.4
					c0.1-0.2,0.1-0.5,0.2-0.7c0-0.1,0.1-0.2,0.2-0.2c0.1,0,0.2-0.1,0.3,0C41.9,33.3,41.9,33.5,41.9,33.6L41.9,33.6z"/>
			</g>
			<g>
				<path class="st2" d="M40.4,32.8c0,0-0.1,0.1-0.1,0.1c-0.1,0.2-0.6,0.9-0.9,0.3c-0.1-0.2,0.4-0.7,0.6-0.9
					c0.1-0.1,0.1-0.1,0.2-0.1c0.1,0,0.2,0,0.2,0.1c0,0.1,0.1,0.1,0.1,0.2C40.5,32.7,40.5,32.7,40.4,32.8z"/>
			</g>
		</g>
		<g>
			<path class="st2" d="M39.8,35.3C39.8,35.3,39.8,35.3,39.8,35.3C39.8,35.3,39.8,35.3,39.8,35.3z"/>
			<path class="st2" d="M40.6,35c0-0.1,0-0.2-0.1-0.3c-0.1-0.1-0.2-0.1-0.3-0.1c-0.2,0-0.4,0.2-0.4,0.4c0,0.1,0,0.1,0,0.2
				c0,0.3-0.1,0.6-0.4,0.7c-0.1,0-0.2,0-0.3,0c-0.1,0-0.2-0.1-0.2-0.2c-0.1-0.2-0.2-0.4-0.3-0.5c-0.1-0.1-0.2-0.3-0.4-0.2
				C38.1,35,38,35.1,38,35.3c0,0.1,0,0.2,0.1,0.3c0,0.1,0.1,0.3,0.2,0.4c0.1,0.2,0.3,0.4,0.5,0.6c0.6,0.3,1.3,0,1.6-0.5
				C40.6,35.7,40.7,35.3,40.6,35z"/>
		</g>
		<path class="st5" d="M33.8,17c-0.8-0.6-1.9-0.6-2.7,0c-0.8,0.5-1.2,1.6-0.9,2.5c-0.7,0-1.5,0.4-1.7,1.1c-0.2,0.7,0,1.5,0.6,1.9
			c0.6,0.4,1.5,0.4,2-0.1c0.6,1.3,2.1,1.1,2.8,0.8s1.2-0.8,1.3-1.4c0.2-1.4-0.9-2-0.9-2s0.7-0.6,0.4-1.7
			C34.5,17.7,34.2,17.3,33.8,17z"/>
		<g>
			<path class="st6" d="M42.4,28.4c-0.3,0.5-0.2,1.1,0,1.6c0.4,0.8,1.3,1.3,2.1,1.2c0.9-0.1,1.6-0.9,1.6-1.8
				c0.6,0.2,1.3,0.1,1.9-0.3c0.5-0.4,0.8-1.1,0.6-1.8s-0.8-1.1-1.5-1.1c1.1-1.1-0.1-2.6-1.3-2.6c-0.6,0-1.4,0.5-1.4,1
				c0,0-0.3-0.1-0.3-0.1c-0.3-0.1-0.7-0.1-1,0c-1.3,0.4-2.4,2.5-1.1,3.5C42.1,28.2,42.4,28.4,42.4,28.4z"/>
			<circle class="st7" cx="45.1" cy="27.4" r="0.6"/>
		</g>
		<g>
			<path class="st8" d="M33,21c-0.1,1.3,1.3,2.5,2.6,2.5c0,0-0.1,0.4-0.1,0.4c-0.3,0.9-0.1,2.2,0.7,2.9c1.7,1.5,3.9-0.7,3.8-0.9
				c1.1,1.5,4.2,0.9,4.7-1c0.1-0.6,0.2-1.2-0.1-1.7c1.1-0.6,1.5-2.3,0.9-3.4c-0.5-1.1-1.8-1.5-3-1.6c-0.1-0.7-0.9-2.6-2.9-2.5
				c-1.9,0.1-2.5,1.5-2.7,2.2C36.8,17.9,33.2,17.6,33,21z"/>
			<g>
				<path class="st9" d="M40.7,23.7c-0.3-0.1-0.4,0.1-0.6,0.3c-0.2,0.3-0.6,0.3-0.9,0.1c-0.2-0.1-0.6-0.4-0.4-0.7
					c0-0.1,0.1-0.1,0.2-0.1c0.1-0.1,0.3-0.3,0.2-0.5c-0.1-0.2-0.3-0.2-0.5-0.2c-0.3,0-0.6,0.1-0.9-0.2c-0.2-0.1-0.3-0.3-0.3-0.6
					c0-0.4,0.2-0.8,0.4-1c0.2-0.2,0.4-0.3,0.7-0.4c0.1,0,0.2,0,0.3,0.1c0.1,0.1,0.3,0.1,0.4,0c0.1-0.1,0.1-0.3,0-0.4
					c-0.4-0.4-0.9-0.4-1.4-0.2c-0.4,0.2-0.8,0.5-1,0.9c-0.2,0.4-0.3,0.9-0.2,1.4c0.1,0.4,0.4,0.8,0.8,1c0.2,0.1,0.3,0.1,0.5,0.2
					c0,0.3,0.1,0.6,0.2,0.8c0.4,0.6,1.1,0.9,1.8,0.7c0.2-0.1,0.4-0.2,0.5-0.3c0.2-0.1,0.3-0.3,0.3-0.5C41,24,40.9,23.8,40.7,23.7z"
					/>
				<path class="st9" d="M40.6,22c-0.2,0.2-0.3,0.5-0.2,0.8c0,0.1,0.2,0.3,0.4,0.2c0.3-0.1,0.2-0.3,0.3-0.5c0.1-0.2,0.5-0.2,0.7-0.2
					c0.1,0,0.3,0.1,0.4,0.2c0,0.1,0,0.1-0.1,0.2c-0.1,0.1,0,0.3,0.1,0.4c0.1,0.1,0.3,0.1,0.4,0.1c0.3-0.1,0.4-0.6,0.3-0.9
					c-0.1-0.3-0.4-0.5-0.7-0.6C41.6,21.5,41,21.5,40.6,22z"/>
				<g>
					<path class="st9" d="M41.1,19.9C41.1,19.9,41.1,19.8,41.1,19.9C41.1,19.9,41.1,19.9,41.1,19.9C41.1,19.9,41.1,19.9,41.1,19.9z"
						/>
					<polygon class="st9" points="41.1,19.9 41.1,19.9 41.1,19.9 					"/>
					<path class="st9" d="M39.8,18.9C39.8,18.9,39.8,18.9,39.8,18.9C39.8,18.9,39.8,18.9,39.8,18.9C39.8,18.9,39.8,18.9,39.8,18.9z"
						/>
					<polygon class="st9" points="39.8,18.9 39.8,18.9 39.8,18.9 					"/>
					<polygon class="st9" points="40.8,20.4 40.8,20.4 40.8,20.4 					"/>
					<path class="st9" d="M40.1,18.8C40.1,18.8,40.1,18.8,40.1,18.8C40.1,18.8,40.1,18.8,40.1,18.8z"/>
					<path class="st9" d="M40.8,20.4C40.8,20.4,40.8,20.4,40.8,20.4C40.8,20.4,40.7,20.4,40.8,20.4C40.7,20.4,40.7,20.4,40.8,20.4z"
						/>
					<path class="st9" d="M40.3,18.8C40.4,18.9,40.3,18.8,40.3,18.8L40.3,18.8z"/>
					<path class="st9" d="M40.9,19.2C40.9,19.2,40.9,19.2,40.9,19.2C40.9,19.2,40.9,19.2,40.9,19.2z"/>
					<path class="st9" d="M41.8,20c0.1-0.4,0-0.9-0.3-1.2c-0.3-0.4-0.7-0.6-1.1-0.7c-0.5,0-0.9,0.1-1.3,0.4c-0.1,0.1-0.1,0.3,0,0.4
						c0.2,0.2,0.4,0,0.6-0.1c0.3-0.2,0.8-0.1,1.1,0.1c0.3,0.3,0.4,0.9,0.1,1.2c0,0-0.1,0.1-0.1,0.1c-0.2,0.2-0.5,0.2-0.7,0.2
						c-0.1,0-0.2,0-0.3,0.1c-0.1,0.1-0.1,0.3-0.1,0.4c0.1,0.1,0.1,0.2,0.3,0.2c0.1,0,0.1,0,0.2,0c0.1,0,0.2,0,0.3,0
						c0.2,0,0.4-0.1,0.6-0.2C41.5,20.9,41.8,20.5,41.8,20z M40,18.8C40.1,18.8,40.1,18.8,40,18.8C40.1,18.8,40.1,18.8,40,18.8z"/>
					<path class="st9" d="M40.8,20.4C40.8,20.4,40.8,20.4,40.8,20.4C40.7,20.4,40.7,20.4,40.8,20.4C40.7,20.4,40.8,20.4,40.8,20.4z"
						/>
					<path class="st9" d="M39.8,18.9C39.8,18.9,39.8,18.9,39.8,18.9C39.8,18.9,39.8,18.9,39.8,18.9C39.8,18.9,39.8,18.9,39.8,18.9z"
						/>
					<path class="st9" d="M41.1,19.8C41.1,19.8,41.1,19.9,41.1,19.8L41.1,19.8C41.1,19.9,41.1,19.9,41.1,19.8z"/>
				</g>
			</g>
		</g>
	</g>
	<g>
		<path class="st10" d="M16,37.1C16,37.1,16,37.1,16,37.1C16,37.1,16,37.1,16,37.1C16,37.1,16,37.1,16,37.1C16,37.1,16,37.1,16,37.1
			z"/>
		<path class="st10" d="M16.3,38.2C16.3,38.2,16.3,38.2,16.3,38.2C16.3,38.2,16.3,38.2,16.3,38.2z"/>
		<path class="st10" d="M16.3,38.2C16.3,38.2,16.3,38.2,16.3,38.2C16.3,38.2,16.3,38.2,16.3,38.2C16.3,38.2,16.3,38.2,16.3,38.2z"/>
		<path class="st10" d="M15.2,30.4C15.2,30.4,15.2,30.4,15.2,30.4C15.2,30.4,15.2,30.4,15.2,30.4C15.2,30.4,15.2,30.4,15.2,30.4
			C15.2,30.4,15.2,30.4,15.2,30.4z"/>
		<path class="st10" d="M15.2,30.4C15.2,30.4,15.2,30.4,15.2,30.4C15.2,30.4,15.2,30.4,15.2,30.4C15.2,30.4,15.2,30.4,15.2,30.4z"/>
		<path class="st10" d="M16,37.1C16,37.1,16,37.1,16,37.1C16,37.1,16,37.1,16,37.1C16,37.1,16,37.1,16,37.1z"/>
		<path class="st10" d="M16.2,38.3C16.2,38.3,16.1,38.3,16.2,38.3C16.1,38.3,16.2,38.3,16.2,38.3z"/>
		<path class="st10" d="M16.1,38.4C16.1,38.4,16.1,38.3,16.1,38.4C16.1,38.3,16.1,38.3,16.1,38.4C16.1,38.3,16.1,38.4,16.1,38.4z"/>
		<path class="st10" d="M16.4,40.1C16.4,40.1,16.4,40.1,16.4,40.1C16.4,40.1,16.4,40.1,16.4,40.1C16.4,40.1,16.4,40.1,16.4,40.1z"/>
		<path class="st10" d="M16,39.6C16,39.6,16,39.6,16,39.6C16,39.5,16,39.5,16,39.6C16,39.5,16,39.5,16,39.6z"/>
		<path class="st10" d="M16,39.6C16,39.6,16,39.6,16,39.6C16,39.6,16,39.6,16,39.6z"/>
		<path class="st10" d="M16.4,40.1C16.4,40.1,16.4,40.1,16.4,40.1C16.4,40.1,16.4,40.1,16.4,40.1C16.4,40.1,16.4,40.1,16.4,40.1z"/>
		<path class="st10" d="M15.7,27.1C15.7,27.1,15.7,27.1,15.7,27.1C15.7,27.1,15.7,27.1,15.7,27.1z"/>
		<path class="st10" d="M15.9,26.4C15.9,26.4,15.9,26.4,15.9,26.4C15.9,26.4,15.9,26.4,15.9,26.4C15.9,26.4,15.9,26.4,15.9,26.4
			C15.9,26.4,15.9,26.4,15.9,26.4z"/>
		<path class="st10" d="M16.6,25.9C16.6,25.9,16.6,25.9,16.6,25.9C16.6,25.9,16.6,25.9,16.6,25.9z"/>
		<path class="st10" d="M15.7,36.9C15.7,36.9,15.8,36.9,15.7,36.9C15.8,36.9,15.7,36.9,15.7,36.9z"/>
		<path class="st10" d="M16,35C16,35,16,35,16,35C16,35,16,35,16,35z"/>
		<path class="st10" d="M15.7,27.4C15.7,27.4,15.7,27.4,15.7,27.4C15.7,27.4,15.8,27.5,15.7,27.4C15.7,27.4,15.7,27.4,15.7,27.4
			C15.7,27.4,15.7,27.4,15.7,27.4z"/>
		<path class="st10" d="M15.7,27.4C15.7,27.4,15.7,27.4,15.7,27.4C15.7,27.4,15.7,27.4,15.7,27.4C15.7,27.4,15.7,27.4,15.7,27.4z"/>
		<path class="st10" d="M15.9,26.4C15.9,26.4,15.9,26.4,15.9,26.4C15.9,26.4,15.9,26.4,15.9,26.4C15.9,26.4,15.9,26.4,15.9,26.4z"/>
		<path class="st10" d="M18.1,40.9c0-0.2-0.2-0.5-0.5-0.5c-0.3,0-0.6,0-0.9-0.1c0,0,0,0,0,0c-0.8-0.3-1.3-1.2-0.7-2
			c0.2-0.2,0.5-0.4,0.5-0.7c0-0.2-0.2-0.3-0.3-0.4c0,0,0,0,0,0c0,0-0.1,0-0.1,0c-0.1,0-0.1-0.1-0.2-0.1c0,0,0,0,0,0c0,0,0,0,0,0
			c0,0,0,0,0,0c-0.6-0.6-0.6-1.7,0.2-2.2c0.2-0.1,0.3-0.3,0.2-0.5c-0.1-0.3-0.3-0.3-0.6-0.3c-0.2,0-0.5-0.2-0.6-0.4
			c-0.4-0.6,0-1.3,0.5-1.7c0,0,0,0,0,0c0.1,0,0.1-0.1,0.2-0.1c0.1-0.1,0.2-0.2,0.2-0.4c0-0.4-0.4-0.4-0.6-0.6
			c-0.2-0.2-0.4-0.6-0.4-0.9c0,0,0,0,0,0.1c0-0.4,0-0.8,0.3-1.1c0,0,0,0,0,0c0.1-0.1,0.1-0.1,0.2-0.2c0,0,0,0,0,0
			c0.1-0.1,0.2-0.1,0.3-0.1c0,0,0.1,0,0.1,0c0.2,0,0.4-0.2,0.4-0.4c0.1-0.4-0.4-0.4-0.6-0.7c-0.2-0.2-0.2-0.7,0-0.9c0,0,0,0,0,0
			c0.3-0.5,0.8-0.8,1.4-0.9c0.2,0,0.3-0.3,0.3-0.5c-0.1-0.2-0.3-0.3-0.5-0.3c-0.7,0.1-1.4,0.5-1.8,1c-0.4,0.5-0.4,1.3-0.1,1.9
			c0,0.1,0.1,0.1,0.1,0.2c-0.4,0.3-0.6,0.7-0.8,1.1c-0.2,0.6-0.1,1.4,0.2,1.9c0.1,0.1,0.2,0.3,0.3,0.4c-0.3,0.3-0.6,0.8-0.7,1.2
			c-0.2,0.7,0.1,1.4,0.6,1.9c0.1,0.1,0.1,0.1,0.2,0.2c-0.2,0.3-0.4,0.6-0.4,0.9c-0.1,0.3-0.1,0.7,0,1c0.1,0.3,0.3,0.6,0.5,0.9
			c0.1,0.1,0.2,0.2,0.3,0.3c-0.3,0.4-0.5,0.9-0.4,1.4c0,0.4,0.2,0.8,0.4,1.1c0.2,0.3,0.5,0.6,0.9,0.8c0.4,0.2,0.9,0.3,1.4,0.3
			C17.9,41.4,18.1,41.2,18.1,40.9z M16,35C16,35,16,35,16,35C16,35,16,35,16,35z M16.6,25.9C16.6,25.9,16.6,25.9,16.6,25.9
			C16.6,25.9,16.6,25.9,16.6,25.9z M15.7,27.1C15.7,27.1,15.7,27.1,15.7,27.1C15.7,27.1,15.7,27.1,15.7,27.1z M15.7,36.9
			C15.7,36.9,15.8,36.9,15.7,36.9C15.8,36.9,15.7,36.9,15.7,36.9z"/>
		<path class="st10" d="M15.2,30.4C15.2,30.4,15.2,30.4,15.2,30.4C15.2,30.4,15.2,30.4,15.2,30.4C15.2,30.4,15.2,30.4,15.2,30.4
			C15.2,30.4,15.2,30.4,15.2,30.4z"/>
		<path class="st10" d="M16.4,40.1C16.4,40,16.4,40.1,16.4,40.1C16.4,40.1,16.4,40.1,16.4,40.1C16.4,40.1,16.4,40.1,16.4,40.1z"/>
		<path class="st10" d="M16,27.7C16,27.7,16,27.7,16,27.7L16,27.7z"/>
		<path class="st10" d="M15.1,33.5C15.1,33.5,15.1,33.6,15.1,33.5L15.1,33.5z"/>
		<path class="st10" d="M16.3,38.2C16.3,38.2,16.3,38.2,16.3,38.2C16.3,38.2,16.3,38.2,16.3,38.2C16.3,38.2,16.3,38.2,16.3,38.2z"/>
		<path class="st10" d="M15.3,32.3C15.3,32.3,15.3,32.4,15.3,32.3L15.3,32.3z"/>
		<path class="st10" d="M15.7,27.4C15.7,27.4,15.7,27.4,15.7,27.4C15.7,27.4,15.7,27.4,15.7,27.4C15.7,27.4,15.7,27.4,15.7,27.4
			C15.7,27.4,15.7,27.4,15.7,27.4z"/>
		<path class="st10" d="M15.9,26.4C15.9,26.4,15.9,26.4,15.9,26.4C15.9,26.4,15.9,26.4,15.9,26.4C15.9,26.4,15.9,26.4,15.9,26.4
			C15.9,26.4,15.9,26.4,15.9,26.4z"/>
		<path class="st10" d="M16.1,38.3C16.2,38.3,16.2,38.3,16.1,38.3C16.2,38.3,16.1,38.3,16.1,38.3C16.1,38.3,16.1,38.3,16.1,38.3z"/>
		<path class="st10" d="M16,39.6C16,39.6,16,39.6,16,39.6C16,39.6,16,39.6,16,39.6C16,39.6,16,39.6,16,39.6z"/>
		<path class="st10" d="M16,37.1C16,37.1,16,37.1,16,37.1C16,37.1,16,37.1,16,37.1C16,37.1,15.9,37.1,16,37.1
			C16,37.1,16,37.1,16,37.1C16,37.1,16,37.1,16,37.1z"/>
	</g>
	<g>
		<path class="st10" d="M25.3,32.7C25.3,32.7,25.3,32.7,25.3,32.7C25.3,32.7,25.3,32.7,25.3,32.7z"/>
		<polygon class="st10" points="25.2,38.6 25.2,38.6 25.2,38.6 		"/>
		<path class="st10" d="M24.9,39.3C24.9,39.3,24.9,39.3,24.9,39.3C24.9,39.3,24.9,39.3,24.9,39.3C24.9,39.3,24.9,39.3,24.9,39.3z"/>
		<path class="st10" d="M24.7,36.4C24.7,36.4,24.7,36.4,24.7,36.4C24.7,36.4,24.7,36.3,24.7,36.4C24.7,36.4,24.7,36.4,24.7,36.4z"/>
		<path class="st10" d="M25.2,38.6C25.2,38.6,25.2,38.6,25.2,38.6C25.2,38.6,25.2,38.6,25.2,38.6C25.2,38.6,25.2,38.6,25.2,38.6
			C25.2,38.6,25.2,38.6,25.2,38.6C25.2,38.6,25.2,38.6,25.2,38.6z"/>
		<polygon class="st10" points="25,34.1 25,34.1 25,34.1 		"/>
		<polygon class="st10" points="25.3,32.7 25.3,32.7 25.3,32.7 		"/>
		<path class="st10" d="M24.7,36.3C24.7,36.3,24.7,36.3,24.7,36.3C24.7,36.3,24.7,36.3,24.7,36.3C24.7,36.3,24.7,36.3,24.7,36.3z"/>
		<path class="st10" d="M25,34.2C25,34.2,25,34.2,25,34.2C25,34.2,25,34.2,25,34.2C25,34.1,25,34.2,25,34.2z"/>
		<path class="st10" d="M24.9,39.3C24.9,39.3,24.9,39.3,24.9,39.3C24.9,39.3,24.9,39.3,24.9,39.3C24.9,39.3,24.9,39.3,24.9,39.3
			C24.9,39.3,24.9,39.3,24.9,39.3z"/>
		<polygon class="st10" points="26.9,22.7 26.9,22.7 26.9,22.7 		"/>
		<path class="st10" d="M26.9,22.7C26.9,22.7,26.9,22.7,26.9,22.7C26.9,22.7,26.9,22.7,26.9,22.7C26.9,22.7,26.9,22.7,26.9,22.7z"/>
		<path class="st10" d="M26.2,43.3C26.2,43.3,26.2,43.3,26.2,43.3C26.2,43.3,26.2,43.3,26.2,43.3C26.2,43.3,26.2,43.3,26.2,43.3z"/>
		<path class="st10" d="M25.6,43C25.6,43,25.5,43,25.6,43C25.5,43,25.5,43,25.6,43C25.6,43,25.6,43,25.6,43z"/>
		<path class="st10" d="M25.5,42C25.5,42,25.5,42,25.5,42C25.5,41.9,25.5,42,25.5,42C25.5,42,25.5,42,25.5,42z"/>
		<polygon class="st10" points="26.2,43.3 26.2,43.3 26.1,43.3 		"/>
		<path class="st10" d="M25.5,42C25.5,42,25.5,42,25.5,42C25.5,42,25.5,42,25.5,42C25.5,42,25.5,42,25.5,42z"/>
		<path class="st10" d="M25.6,43C25.6,43,25.6,43,25.6,43C25.6,43,25.6,43,25.6,43C25.6,43,25.6,43,25.6,43z"/>
		<path class="st10" d="M25.2,38.6C25.2,38.6,25.2,38.6,25.2,38.6C25.2,38.6,25.2,38.6,25.2,38.6z"/>
		<path class="st10" d="M25,36.6C25,36.6,25,36.6,25,36.6C25,36.6,24.9,36.6,25,36.6z"/>
		<path class="st10" d="M24.8,32.1C24.8,32,24.8,32,24.8,32.1C24.8,32.1,24.8,32.1,24.8,32.1z"/>
		<path class="st10" d="M25.9,23.7C25.9,23.7,25.9,23.7,25.9,23.7C25.9,23.7,25.9,23.7,25.9,23.7z"/>
		<path class="st10" d="M24.8,30.9C24.8,31,24.8,31,24.8,30.9L24.8,30.9z"/>
		<path class="st10" d="M25,36.6C25,36.6,25,36.6,25,36.6C25,36.6,25,36.6,25,36.6z"/>
		<path class="st10" d="M25.5,42.8C25.5,42.8,25.5,42.8,25.5,42.8L25.5,42.8z"/>
		<path class="st10" d="M26,24.3C26,24.3,25.9,24.2,26,24.3C26,24.3,26,24.3,26,24.3z"/>
		<path class="st10" d="M25.7,26.1C25.7,26.1,25.7,26.1,25.7,26.1L25.7,26.1z"/>
		<path class="st10" d="M25.3,27.9C25.3,27.9,25.3,27.8,25.3,27.9C25.3,27.8,25.3,27.9,25.3,27.9z"/>
		<path class="st10" d="M25.2,27.5C25.2,27.5,25.2,27.5,25.2,27.5C25.2,27.5,25.2,27.5,25.2,27.5z"/>
		<path class="st10" d="M25.6,30.1C25.6,30.1,25.6,30.1,25.6,30.1C25.6,30.1,25.6,30.1,25.6,30.1C25.7,30.1,25.6,30.1,25.6,30.1z"/>
		<path class="st10" d="M26.3,23C26.3,23,26.3,23,26.3,23C26.3,23,26.3,23,26.3,23z"/>
		<polygon class="st10" points="25.7,30.1 25.7,30.1 25.7,30.1 		"/>
		<path class="st10" d="M26.1,23.2C26.1,23.2,26.1,23.2,26.1,23.2C26.1,23.2,26.1,23.2,26.1,23.2z"/>
		<path class="st10" d="M26.6,22.8L26.6,22.8C26.6,22.8,26.7,22.8,26.6,22.8z"/>
		<path class="st10" d="M25.3,32.7C25.3,32.7,25.3,32.7,25.3,32.7C25.3,32.7,25.3,32.7,25.3,32.7C25.3,32.7,25.3,32.7,25.3,32.7z"/>
		<path class="st10" d="M25.6,30.1C25.6,30.1,25.6,30.1,25.6,30.1C25.7,30.1,25.7,30.1,25.6,30.1C25.6,30.1,25.6,30.1,25.6,30.1z"/>
		<path class="st10" d="M26.9,22.7C26.9,22.7,26.9,22.7,26.9,22.7L26.9,22.7C26.9,22.7,26.9,22.7,26.9,22.7z"/>
		<path class="st10" d="M25.2,38.6C25.2,38.6,25.2,38.6,25.2,38.6C25.2,38.6,25.2,38.6,25.2,38.6z"/>
		<line class="st10" x1="25.2" y1="38.6" x2="25.2" y2="38.6"/>
		<path class="st10" d="M25.9,23.7c0-0.3,0.2-0.6,0.5-0.8c0.1-0.1,0.2-0.1,0.3-0.2c0.1,0,0.2,0,0.3-0.1c0,0,0,0,0,0c0,0,0.1,0,0.1,0
			c0.2,0,0.4-0.2,0.4-0.4c0-0.2-0.2-0.4-0.4-0.4c-0.7,0-1.4,0.4-1.8,1c-0.4,0.6-0.4,1.4,0,2.1c0,0.1,0.1,0.2,0.2,0.2
			c-0.4,0.3-0.8,0.7-1,1.2c-0.3,0.8-0.2,1.7,0.3,2.4c0.1,0.2,0.3,0.3,0.4,0.5c-0.5,0.3-0.9,0.7-1.2,1.2c-0.4,0.8-0.3,1.7,0.2,2.4
			c0.1,0.2,0.2,0.3,0.4,0.4c-0.4,0.4-0.7,0.9-0.8,1.4c-0.1,0.5-0.2,1-0.1,1.5c0.1,0.4,0.3,0.8,0.7,1.1c0.2,0.1,0.3,0.3,0.5,0.4
			c-0.3,0.3-0.6,0.8-0.8,1.2c-0.2,0.7,0,1.6,0.6,2.1c0.1,0.1,0.2,0.2,0.3,0.2c-0.3,0.4-0.4,0.9-0.4,1.3c0,0.8,0.6,1.5,1.3,1.7
			c0.4,0.1,0.9,0.1,1.3-0.1c0.2-0.1,0.3-0.5,0.2-0.7c-0.1-0.2-0.4-0.3-0.6-0.2c-0.5,0.2-1.2-0.2-1.2-0.8c0-0.4,0.2-0.9,0.6-1.1
			c0.2-0.1,0.3-0.3,0.2-0.6c-0.1-0.3-0.3-0.4-0.6-0.4c-0.4-0.1-0.7-0.5-0.7-1c0-0.5,0.3-0.9,0.7-1.2c0.1-0.1,0.2-0.2,0.3-0.2
			c0.3-0.2,0.3-0.7,0-0.9c-0.3-0.2-0.6-0.3-0.9-0.5c-0.4-0.3-0.5-0.7-0.5-1.2c0.1-0.3,0.1-0.5,0.2-0.8c0.1-0.3,0.3-0.7,0.7-0.8
			c0,0,0.1,0,0.1,0c0.2,0,0.3-0.2,0.3-0.4c0-0.2-0.1-0.4-0.2-0.5c-0.1,0-0.1-0.1-0.2-0.1c-0.2-0.1-0.3-0.3-0.5-0.4c0,0,0,0,0,0
			c-0.3-0.3-0.4-0.8-0.3-1.1c0-0.4,0.3-0.8,0.6-1c0,0,0,0,0,0c0.1-0.1,0.2-0.2,0.4-0.2c0,0,0.1,0,0.1,0c0.1,0,0.2,0,0.3-0.1
			c0.3,0,0.4-0.5,0.3-0.7c-0.6-0.8-1.7-1.8-0.8-2.9c0,0,0,0,0,0c0.2-0.3,0.6-0.5,1-0.6c0.2,0,0.3-0.2,0.3-0.4c0-0.2-0.1-0.4-0.2-0.5
			C26.1,24.7,25.8,24.2,25.9,23.7z M26.6,22.8C26.7,22.8,26.6,22.8,26.6,22.8L26.6,22.8z M26.3,23C26.3,23,26.3,23,26.3,23
			C26.3,23,26.3,23,26.3,23z M26.1,23.2C26.1,23.2,26.1,23.2,26.1,23.2C26.1,23.2,26.1,23.2,26.1,23.2z M25.9,23.7
			C25.9,23.7,25.9,23.7,25.9,23.7C25.9,23.7,25.9,23.7,25.9,23.7z M25.5,42.8C25.5,42.8,25.5,42.8,25.5,42.8L25.5,42.8z M25.2,38.6
			C25.2,38.6,25.2,38.6,25.2,38.6C25.2,38.6,25.2,38.6,25.2,38.6z M25,36.6C25,36.6,25,36.6,25,36.6C25,36.6,25,36.6,25,36.6z
			 M25,36.6C25,36.6,25,36.6,25,36.6C24.9,36.6,25,36.6,25,36.6z M24.8,32.1C24.8,32.1,24.8,32.1,24.8,32.1
			C24.8,32,24.8,32,24.8,32.1z M24.8,30.9C24.8,31,24.8,31,24.8,30.9L24.8,30.9z M25.3,27.9C25.3,27.9,25.3,27.8,25.3,27.9
			C25.3,27.8,25.3,27.9,25.3,27.9z M25.2,27.5C25.2,27.5,25.2,27.5,25.2,27.5C25.2,27.5,25.2,27.5,25.2,27.5z M25.7,26.1
			C25.7,26.1,25.7,26.1,25.7,26.1L25.7,26.1z M26,24.3C26,24.3,26,24.3,26,24.3C25.9,24.2,26,24.3,26,24.3z"/>
		<path class="st10" d="M24.7,36.4C24.7,36.3,24.7,36.3,24.7,36.4C24.7,36.3,24.7,36.3,24.7,36.4C24.7,36.3,24.7,36.4,24.7,36.4z"/>
		<path class="st10" d="M25.5,42C25.5,41.9,25.5,41.9,25.5,42C25.5,42,25.5,42,25.5,42C25.5,42,25.5,42,25.5,42z"/>
		<path class="st10" d="M26.2,43.3C26.2,43.3,26.2,43.3,26.2,43.3C26.2,43.3,26.2,43.3,26.2,43.3C26.2,43.3,26.2,43.3,26.2,43.3z"/>
		<path class="st10" d="M24.9,39.3C24.9,39.3,24.9,39.3,24.9,39.3C24.9,39.3,24.9,39.3,24.9,39.3C24.9,39.3,24.9,39.3,24.9,39.3
			C24.9,39.3,24.9,39.3,24.9,39.3C24.9,39.3,24.9,39.3,24.9,39.3z"/>
		<polygon class="st10" points="25.2,38.6 25.2,38.6 25.2,38.6 		"/>
		<path class="st10" d="M25,34.2C25,34.2,25,34.2,25,34.2C25,34.1,25,34.1,25,34.2C25,34.2,25,34.2,25,34.2z"/>
		<path class="st10" d="M25.6,43C25.5,42.9,25.5,42.9,25.6,43C25.5,43,25.6,43,25.6,43C25.6,43,25.6,43,25.6,43z"/>
	</g>
</g>
</svg>
