<?xml version="1.0" encoding="utf-8"?>
<!-- Generator: Adobe Illustrator 27.5.0, SVG Export Plug-In . SVG Version: 6.00 Build 0)  -->
<svg version="1.1" id="Layer_1" xmlns="http://www.w3.org/2000/svg" xmlns:xlink="http://www.w3.org/1999/xlink" x="0px" y="0px"
	 viewBox="0 0 56.7 56.7" style="enable-background:new 0 0 56.7 56.7;" xml:space="preserve">
<style type="text/css">
	.st0{fill:#B87131;}
	.st1{fill:#FFE9C7;}
	.st2{fill:#E59349;}
	.st3{fill:#945B28;}
	.st4{fill:#633518;}
	.st5{fill:#EAB4A8;}
	.st6{fill:#8FC79E;}
	.st7{fill:#6FB082;}
	.st8{fill:#FFCB4C;}
	.st9{fill:#E8B538;}
	.st10{fill:#BF5C47;}
	.st11{fill:#9E4C3B;}
	.st12{fill:#A7D9D1;}
	.st13{fill:#61B3A6;}
</style>
<g>
	<g>
		<g>
			<path class="st0" d="M42.1,26.7c0,0.2-0.1,0.4-0.1,0.6c-0.1,0.7-0.2,1.5-0.2,2.3c0,0.2,0,0.3,0,0.5c-0.1,0.8-0.1,1.6-0.1,2.5
				c0,0.1,0,0.3,0,0.4c0,0.6-0.1,1.3-0.1,1.9c0,0.1,0,0.3,0,0.4c0,0.7-0.1,1.4-0.2,2c0,0.1,0,0.2-0.1,0.4c0,0.1,0,0.2,0,0.3
				c-0.1,0.3-0.1,0.7-0.2,1c0,0.1-0.1,0.3-0.1,0.4l0,0c-0.2,1-0.5,2.1-0.8,3.1c0,0.1-0.1,0.2-0.1,0.4c-0.2,0.5-0.4,1.1-0.7,1.6
				c-0.1,0.1-0.1,0.2-0.2,0.3c-0.1,0.2-0.2,0.4-0.3,0.5c-0.3,0.5-0.7,1.1-1.2,1.6c-0.1,0.1-0.2,0.2-0.3,0.3c-0.9,0.9-2,1.6-3.3,1.7
				c-2.5,0.3-3.1-1.3-3.4-3.3c0-0.1,0-0.2,0-0.3c0,0,0,0,0,0c-0.1-0.7-0.2-1.3-0.2-2c0-0.1,0-0.3,0-0.4l0,0c0-0.4-0.1-0.8-0.1-1.3
				c0,0,0,0,0,0c0-0.2,0-0.4,0-0.7c0-1.1,0-2.2,0-3.3c0-0.1,0-0.2,0-0.3c0.1-0.8,0.1-1.5,0.2-2.3c0-0.1,0-0.2,0-0.3
				c0.1-0.7,0.3-1.4,0.4-2.1c0-0.1,0-0.2,0.1-0.3c0.2-0.7,0.4-1.5,0.7-2.2c0,0,0,0,0,0c0-0.1,0.1-0.2,0.1-0.3
				c0.2-0.6,0.5-1.2,0.9-1.7c0-0.1,0.1-0.1,0.1-0.2c0.1-0.1,0.1-0.2,0.2-0.3c0.5-0.8,1.1-1.6,1.7-2.3c0.8-0.3,1.5-0.5,2.3-0.6
				c0,0.9-0.2,1.7-0.4,2.6l2.6-1.8c0.3,0.9,0.5,1.9,0.7,2.8c0.5-0.8,1-1.6,1.5-2.4C41.8,26.1,42,26.4,42.1,26.7z"/>
			<path class="st1" d="M42,20c-2.7,1.2-5.1,3-7,5.2c0.8-0.3,1.5-0.5,2.3-0.6c0,0.9-0.2,1.7-0.4,2.6l2.6-1.8
				c0.3,0.9,0.5,1.9,0.7,2.8c0.5-0.8,1-1.6,1.5-2.4c0.1,0.3,0.3,0.5,0.4,0.8c0.2-1.4,0.6-2.7,1.1-4c0.3-0.7,0.6-1.4,1-2.1
				c0.2-0.4,0.9-1.6,1.4-1.7C44.3,19.1,43.1,19.5,42,20z"/>
		</g>
		<path class="st2" d="M41.8,29.5c0,0.2,0,0.3,0,0.5c-0.1,0.1-0.3,0.2-0.4,0.3c-0.1,0.1-0.3,0.2-0.4,0.2c-0.3,0.1-0.6,0-0.8-0.2
			c-0.1-0.1-0.2-0.3-0.2-0.4c-0.1-0.2-0.2-0.4-0.5-0.3c-0.1,0.1-0.2,0.1-0.3,0.2c-0.1,0.1-0.2,0.2-0.4,0.3c-0.2,0.1-0.3,0.1-0.5,0.1
			c-0.1,0-0.2-0.1-0.3-0.2c-0.1-0.1-0.2-0.3-0.2-0.5c0-0.1-0.1-0.4-0.3-0.4c0,0-0.1,0-0.1,0c-0.4,0.1-0.7,0.4-1.2,0.5
			c-0.2,0-0.5-0.1-0.7-0.2c-0.1-0.1-0.2-0.3-0.2-0.5c0-0.1,0-0.3,0-0.4c0-0.1-0.1-0.1-0.2-0.1c-0.3,0-0.5,0.2-0.7,0.3
			c-0.2,0.1-0.6,0.1-0.8,0c-0.1-0.1-0.2-0.2-0.2-0.4c0-0.1,0-0.3-0.1-0.4c0,0,0,0,0,0c0.1-0.1,0.1-0.2,0.2-0.3
			c0.1,0.1,0.2,0.2,0.3,0.4c0,0.1,0,0.1,0,0.2c0,0.1,0.1,0.2,0.2,0.2c0.2,0,0.5-0.1,0.7-0.3c0.3-0.1,0.6-0.3,0.9,0
			c0.2,0.2,0.1,0.5,0.2,0.8c0,0.1,0.1,0.2,0.2,0.2c0.1,0.1,0.2,0.1,0.3,0.1c0.3,0,0.5-0.2,0.7-0.3c0.1-0.1,0.3-0.1,0.4-0.2
			c0.3,0,0.5,0.1,0.6,0.3c0.1,0.2,0.1,0.4,0.2,0.6c0.1,0.2,0.2,0.3,0.4,0.3c0.2-0.1,0.4-0.3,0.6-0.4c0.2-0.2,0.5-0.3,0.8-0.2
			c0.2,0.1,0.3,0.3,0.5,0.5c0.1,0.1,0.1,0.3,0.3,0.3c0.1,0.1,0.3,0,0.4,0C41.2,29.9,41.5,29.6,41.8,29.5z"/>
		<g>
			<path class="st2" d="M41.7,32.4c0,0.1,0,0.3,0,0.4c-0.2,0-0.4,0-0.6,0c-0.2-0.1-0.5-0.2-0.6-0.3c-0.1-0.1-0.2-0.2-0.2-0.3
				c-0.1-0.1-0.1-0.3-0.3-0.4c0,0-0.1,0-0.2,0c-0.4,0.1-0.6,0.3-0.9,0.5c-0.1,0.1-0.3,0.1-0.4,0.1c-0.2,0-0.3-0.1-0.4-0.2
				c-0.1-0.1-0.2-0.2-0.2-0.3c-0.1-0.2-0.1-0.4-0.2-0.5c-0.2-0.2-0.9,0.4-1.1,0.5C36.2,32,36,32,35.7,31.9c-0.2-0.1-0.4-0.2-0.5-0.4
				c-0.2-0.3-0.3-0.7-0.6-0.8c-0.3-0.1-0.5,0.1-0.7,0.2c-0.2,0.1-0.4,0.3-0.7,0.3c-0.3,0-0.6-0.1-0.7-0.3c-0.1-0.3-0.1-0.7-0.5-0.8
				c0-0.1,0.1-0.2,0.1-0.3c0.2,0.1,0.4,0.2,0.5,0.4c0,0.1,0.1,0.2,0.1,0.3c0,0.1,0,0.2,0.1,0.3c0.1,0.1,0.2,0.1,0.3,0.1
				c0.3,0,0.6-0.3,0.9-0.5c0.3-0.1,0.6-0.1,0.8,0c0.4,0.2,0.5,0.7,0.7,1c0.1,0.1,0.2,0.2,0.4,0.2c0.3,0,0.5-0.2,0.7-0.3
				c0.2-0.1,0.4-0.3,0.7-0.4c0.2,0,0.3,0,0.5,0.1c0.1,0.1,0.2,0.3,0.2,0.4c0.1,0.2,0.2,0.5,0.4,0.5c0.2,0,0.4-0.2,0.5-0.2
				c0.2-0.1,0.5-0.3,0.8-0.3c0.2,0,0.3,0,0.5,0.1c0.1,0.1,0.2,0.2,0.2,0.3C40.6,32.3,41.1,32.5,41.7,32.4z"/>
			<path class="st2" d="M40.6,32.2C40.6,32.2,40.6,32.2,40.6,32.2C40.6,32.2,40.6,32.2,40.6,32.2z"/>
		</g>
		<path class="st2" d="M41.5,34.8c0,0.1,0,0.3,0,0.4c-0.2,0-0.4-0.1-0.5-0.2c-0.2-0.1-0.4-0.3-0.5-0.6c-0.1-0.1-0.1-0.3-0.2-0.3
			c-0.3-0.1-0.5,0.3-0.7,0.4c-0.2,0.2-0.5,0.3-0.8,0.2c-0.3-0.1-0.5-0.3-0.6-0.5c-0.1-0.1-0.1-0.2-0.2-0.3c-0.2-0.3-0.7,0-0.9,0.1
			c-0.3,0.1-0.5,0.3-0.8,0.4c-0.3,0.1-0.6,0.1-0.9,0c-0.2-0.1-0.3-0.2-0.4-0.4c-0.2-0.2-0.3-0.5-0.5-0.6c-0.1-0.1-0.3-0.1-0.5-0.1
			c-0.1,0-0.1,0-0.2,0.1c-0.1,0-0.2,0.1-0.4,0.2c-0.2,0.1-0.5,0.2-0.7,0.3c-0.3,0-0.6,0-0.8-0.2c-0.2-0.2-0.2-0.4-0.3-0.6
			c-0.1-0.2-0.2-0.3-0.4-0.4c0,0,0,0-0.1,0c0-0.1,0-0.2,0.1-0.3c0.1,0,0.2,0,0.2,0.1c0.3,0.1,0.4,0.4,0.6,0.7
			c0.1,0.3,0.4,0.4,0.7,0.3c0.3-0.1,0.6-0.3,0.9-0.4c0.3-0.1,0.6-0.2,0.9-0.1c0.2,0.1,0.4,0.2,0.5,0.4c0.2,0.3,0.4,0.7,0.8,0.8
			c0.3,0.1,0.5-0.1,0.7-0.2c0.3-0.1,0.5-0.3,0.8-0.4c0.3-0.1,0.6-0.2,0.9,0c0.1,0.1,0.2,0.2,0.2,0.3c0.1,0.2,0.2,0.3,0.3,0.4
			c0.2,0.1,0.4,0.2,0.5,0.1c0.1-0.1,0.2-0.2,0.3-0.3c0.2-0.2,0.5-0.3,0.7-0.3c0.1,0,0.3,0.1,0.3,0.2c0.1,0.1,0.1,0.3,0.2,0.4
			c0.1,0.1,0.2,0.2,0.3,0.3C41.3,34.7,41.4,34.7,41.5,34.8z"/>
		<path class="st2" d="M41.3,37.2c0,0.1,0,0.2-0.1,0.4c-0.2,0-0.4-0.1-0.5-0.2c-0.2-0.1-0.3-0.2-0.4-0.4c-0.1-0.1-0.2-0.4-0.3-0.4
			c-0.3-0.1-0.6,0.3-0.8,0.4c-0.3,0.2-0.6,0.3-0.9,0.1c-0.2-0.1-0.3-0.3-0.4-0.5c-0.1-0.1-0.2-0.2-0.4-0.2c-0.4,0-0.7,0.3-1,0.5
			c-0.3,0.1-0.5,0.2-0.8,0.3c-0.3,0-0.6-0.1-0.8-0.3c-0.2-0.2-0.3-0.6-0.5-0.8c-0.1-0.1-0.1-0.2-0.2-0.2c-0.2-0.1-0.5,0-0.7,0.1
			c-0.1,0-0.2,0.1-0.3,0.1c-0.2,0.1-0.4,0.2-0.7,0.1c-0.3,0-0.5-0.2-0.7-0.4c-0.2-0.2-0.2-0.5-0.4-0.7c-0.1-0.1-0.1-0.2-0.2-0.2
			c-0.1,0-0.2-0.1-0.3,0c-0.1,0-0.1,0-0.2,0c0-0.1,0-0.2,0-0.3c0.1,0,0.3,0,0.4,0c0.3,0.1,0.5,0.3,0.6,0.5c0.1,0.2,0.2,0.5,0.4,0.6
			c0.5,0.5,1.2-0.2,1.8-0.3c0.2,0,0.5,0.1,0.6,0.2c0.2,0.1,0.3,0.3,0.4,0.5c0,0.1,0.1,0.2,0.2,0.3c0.4,0.6,1.2,0.1,1.6-0.1
			c0.3-0.1,0.5-0.3,0.8-0.3c0.1,0,0.3,0,0.4,0.1c0.1,0.1,0.2,0.2,0.3,0.3c0.1,0.1,0.1,0.3,0.3,0.3c0.1,0.1,0.3,0,0.4-0.1
			c0.1-0.1,0.2-0.2,0.4-0.3c0.2-0.2,0.5-0.3,0.8-0.2c0.3,0.1,0.4,0.3,0.5,0.6C40.8,37,41.1,37.1,41.3,37.2z"/>
		<path class="st2" d="M41.1,38.8c0,0.1-0.1,0.3-0.1,0.4l0,0c0,0,0,0,0,0c-0.3,0.2-0.6,0.5-0.9,0.6c-0.3,0.1-0.6,0.1-0.8-0.1
			c-0.2-0.1-0.2-0.3-0.3-0.5c-0.1-0.2-0.2-0.2-0.4-0.2c-0.1,0-0.2,0.1-0.4,0.2c-0.3,0.2-0.5,0.4-0.8,0.4c-0.2,0-0.3,0-0.5-0.1
			c-0.1-0.1-0.2-0.2-0.3-0.3c-0.1-0.1-0.1-0.4-0.3-0.5c-0.1-0.1-0.3,0-0.4,0c-0.1,0.1-0.2,0.2-0.4,0.3c-0.3,0.2-0.6,0.4-0.9,0.4
			c-0.5,0-0.8-0.3-0.9-0.8c0-0.2-0.1-0.4-0.3-0.4c-0.2-0.1-0.3,0-0.5,0.1c-0.3,0.1-0.5,0.3-0.8,0.4c-0.3,0.1-0.7,0.2-0.9-0.1
			c-0.3-0.3-0.3-1-0.7-1.1c0,0,0,0-0.1,0c0-0.1,0-0.2,0-0.3c0.1,0,0.2,0,0.3,0.1c0.2,0.1,0.4,0.4,0.4,0.6c0,0.1,0.1,0.2,0.1,0.3
			c0.1,0.1,0.2,0.2,0.3,0.2c0.3,0.1,0.5-0.1,0.7-0.3c0.3-0.2,0.5-0.3,0.8-0.4c0.3,0,0.6,0.1,0.7,0.4c0.1,0.1,0.1,0.3,0.1,0.4
			c0.1,0.2,0.2,0.4,0.5,0.4c0.5,0,0.8-0.4,1.2-0.6c0.1-0.1,0.3-0.1,0.5-0.1c0.2,0,0.3,0.1,0.4,0.2c0.1,0.1,0.1,0.2,0.2,0.3
			c0.1,0.2,0.1,0.3,0.4,0.4c0.2,0,0.3,0,0.5-0.1c0.3-0.2,0.5-0.4,0.8-0.5c0.3-0.1,0.6,0,0.8,0.3c0,0.1,0.1,0.2,0.1,0.2
			c0.1,0.3,0.4,0.3,0.7,0.2c0.2-0.1,0.4-0.3,0.6-0.4C40.8,39,40.9,38.9,41.1,38.8C41,38.8,41.1,38.8,41.1,38.8z"/>
		<path class="st2" d="M40.2,42.4c0,0.1-0.1,0.2-0.1,0.4c-0.1,0-0.2,0-0.3-0.1c-0.3-0.1-0.5-0.3-0.6-0.6c0-0.1-0.1-0.1-0.2-0.2
			c-0.2-0.1-0.4,0-0.5,0.1c-0.1,0.1-0.2,0.1-0.3,0.2c-0.2,0.2-0.5,0.3-0.8,0.2c-0.2-0.1-0.4-0.3-0.5-0.5c-0.3-0.4-0.6-0.6-1.1-0.4
			c0,0,0,0,0,0c-0.2,0.1-0.4,0.2-0.6,0.3C34.8,42,34.5,42,34.3,42c-0.2,0-0.4-0.2-0.5-0.3c-0.2-0.2-0.4-0.5-0.7-0.6
			c-0.3-0.1-0.5,0-0.7,0.2c-0.2,0.2-0.3,0.3-0.5,0.5c-0.2,0.2-0.5,0.2-0.8,0.2c-0.2-0.1-0.4-0.2-0.6-0.4c0-0.2,0-0.4,0-0.7
			c0.1,0.1,0.2,0.3,0.2,0.4c0.1,0.1,0.2,0.2,0.2,0.2c0,0,0.1,0,0.1,0.1c0.1,0.1,0.3,0.1,0.4,0c0.3-0.2,0.5-0.5,0.8-0.7
			c0.2-0.1,0.5-0.2,0.8-0.1c0.2,0.1,0.4,0.2,0.5,0.4c0.1,0.1,0.1,0.1,0.2,0.2c0,0,0.1,0.1,0.1,0.1c0.1,0.1,0.3,0.2,0.4,0.3
			c0.2,0,0.5-0.1,0.7-0.2c0.2-0.1,0.4-0.3,0.7-0.3c0.3,0,0.6,0,0.8,0.1c0.2,0.1,0.4,0.3,0.5,0.5c0,0,0.1,0.1,0.1,0.1
			c0.3,0.4,0.7,0,1-0.2c0.2-0.1,0.5-0.2,0.8-0.2c0.1,0,0.3,0.1,0.3,0.2c0.1,0.1,0.1,0.2,0.2,0.4c0.1,0.1,0.2,0.2,0.3,0.2
			C39.9,42.3,40.1,42.4,40.2,42.4z"/>
		<path class="st2" d="M39.4,44.3c-0.1,0.1-0.1,0.2-0.2,0.3c-0.1-0.1-0.1-0.2-0.2-0.2c-0.1-0.1-0.2-0.1-0.4,0c-0.1,0-0.1,0-0.1,0.1
			c-0.2,0.1-0.4,0.2-0.7,0.3c-0.2,0.1-0.5,0-0.7-0.1c-0.1-0.1-0.1-0.2-0.2-0.3c-0.1-0.2-0.1-0.4-0.4-0.4c-0.1,0-0.3,0-0.5,0
			c-0.4,0.2-0.7,0.5-1.1,0.6c-0.2,0-0.5-0.1-0.6-0.3c-0.2-0.2-0.3-0.4-0.5-0.6c-0.2-0.1-0.4-0.2-0.6-0.2c-0.4,0-0.6,0.2-0.9,0.4
			c-0.2,0.1-0.4,0.2-0.6,0.2c-0.2,0-0.4-0.1-0.6-0.2c-0.2-0.2-0.4-0.5-0.6-0.7c0-0.1,0-0.3,0-0.4c0.1,0,0.1,0,0.2,0.1
			c0.2,0.1,0.3,0.3,0.4,0.4c0.1,0.2,0.3,0.4,0.5,0.5c0.1,0,0.2,0,0.3,0c0.2-0.1,0.4-0.2,0.5-0.3c0.2-0.1,0.4-0.2,0.6-0.2
			c0.2,0,0.5,0,0.7,0.1c0.2,0.1,0.4,0.2,0.5,0.4c0.1,0.1,0.1,0.2,0.2,0.3c0.1,0.1,0.2,0.3,0.4,0.3c0.1,0,0.2,0,0.3,0
			c0.2-0.1,0.4-0.3,0.7-0.4c0.2-0.1,0.5-0.2,0.8-0.1c0.3,0,0.5,0.2,0.6,0.4c0.1,0.2,0.1,0.5,0.4,0.5c0.2,0,0.4-0.1,0.6-0.2
			c0.2-0.1,0.4-0.2,0.6-0.2c0.1,0,0.3,0,0.4,0.1C39.2,44.2,39.3,44.2,39.4,44.3C39.4,44.3,39.4,44.3,39.4,44.3z"/>
		<g>
			<polygon class="st2" points="38.1,46.9 38.1,46.9 38.1,46.9 38.1,46.9 			"/>
			<polygon class="st2" points="37,46.4 37,46.4 37,46.5 			"/>
			<path class="st2" d="M37,46.5C37,46.5,37,46.5,37,46.5C37,46.5,37,46.5,37,46.5C37,46.5,37,46.5,37,46.5z"/>
			<path class="st2" d="M38.6,46.9C38.6,46.9,38.6,46.9,38.6,46.9C38.6,46.9,38.6,46.9,38.6,46.9C38.6,46.9,38.6,46.9,38.6,46.9z"/>
			<polygon class="st2" points="38.6,46.9 38.6,46.9 38.6,46.9 			"/>
			<path class="st2" d="M36.9,46.4C36.9,46.4,36.9,46.4,36.9,46.4C36.9,46.4,36.9,46.4,36.9,46.4z"/>
			<path class="st2" d="M31.9,46.1C31.9,46.1,31.9,46.1,31.9,46.1C31.9,46.1,31.9,46.1,31.9,46.1z"/>
			<path class="st2" d="M31,45.7C31,45.7,31,45.7,31,45.7L31,45.7z"/>
			<path class="st2" d="M36.6,46.4C36.7,46.4,36.6,46.4,36.6,46.4L36.6,46.4z"/>
			<path class="st2" d="M33.8,46.1C33.8,46.1,33.8,46.1,33.8,46.1L33.8,46.1z"/>
			<path class="st2" d="M38.6,46.9C38.6,46.9,38.6,46.9,38.6,46.9C38.6,46.9,38.6,46.9,38.6,46.9C38.6,46.9,38.6,46.9,38.6,46.9
				C38.6,46.9,38.6,46.9,38.6,46.9C38.6,46.9,38.6,46.9,38.6,46.9C38.6,46.9,38.6,46.9,38.6,46.9z M37.3,46.3
				c-0.1-0.1-0.1-0.2-0.3-0.2c-0.1,0-0.2,0-0.3,0c-0.2,0-0.4,0-0.6,0.1c-0.2,0.1-0.4,0.2-0.6,0.2c-0.2,0.1-0.5,0.2-0.7,0
				c-0.2-0.1-0.3-0.3-0.5-0.4c-0.1-0.1-0.3-0.2-0.4-0.3c-0.4-0.2-0.9,0-1.2,0.2c-0.2,0.1-0.4,0.2-0.6,0.2c-0.2,0-0.4,0-0.5-0.2
				c-0.2-0.2-0.3-0.4-0.4-0.6c-0.1-0.1-0.3-0.2-0.4-0.2c0,0,0,0,0,0c0,0.1,0,0.2,0,0.3c0.3,0.2,0.4,0.6,0.7,0.8
				c0.3,0.2,0.8,0.2,1.1,0c0.1,0,0.2-0.1,0.3-0.1c0.2-0.1,0.4-0.2,0.6-0.2c0.2,0,0.4,0,0.5,0.2c0.1,0.1,0.3,0.2,0.4,0.3
				c0.1,0.1,0.3,0.2,0.4,0.3c0.2,0.1,0.4,0,0.6,0c0.2-0.1,0.4-0.1,0.6-0.2c0.2-0.1,0.5-0.2,0.8-0.2c0.1,0,0.2,0,0.2,0.1
				c0.1,0.2,0.3,0.4,0.4,0.5c0.1-0.1,0.2-0.2,0.3-0.3C37.6,46.7,37.4,46.5,37.3,46.3z"/>
			<path class="st2" d="M37,46.4C37,46.5,37,46.5,37,46.4C37,46.5,37,46.5,37,46.4C37,46.5,37,46.5,37,46.4z"/>
			<path class="st2" d="M38.6,46.9L38.6,46.9C38.6,46.9,38.6,46.9,38.6,46.9C38.6,46.9,38.6,46.9,38.6,46.9
				C38.6,46.9,38.6,46.9,38.6,46.9C38.6,46.9,38.6,46.9,38.6,46.9C38.6,46.9,38.6,46.9,38.6,46.9z"/>
		</g>
	</g>
	<path class="st2" d="M32.1,48.8c-1.1,0.8-4.7,0.7-7.1,0.6c-0.2,0-0.5,0-0.7,0c-0.8,0-1.5-0.1-1.5-0.1c0,0-0.2,0.1-0.4,0.2
		c-0.3,0.1-0.8,0.2-1.2,0.2c-0.7,0-1.4-0.2-1.7-0.8c0,0,0,0,0,0c0,0,0,0,0,0c-0.1,0-0.2,0-0.3,0c0,0,0,0,0,0
		c-0.8,0.1-2.2,0.2-2.7-0.7c-0.2-0.4-0.1-0.8,0.5-1.2c0.3-0.2,0.3-0.6,0.3-0.9c-0.1-0.6-0.9-7.2-1.3-10c-0.5-3.7-0.8-7.5,0.3-11.1
		c0.1-0.2,0.1-0.4,0.2-0.6c0.1-0.3,0.3-0.6,0.5-0.8c0.4-0.4,0.9-0.7,1.4-0.9c0,0,0.1,0,0.1,0c3.4-1,6.1,1.8,8.1,4.2c0,0,0,0,0,0
		c2.3,2.7,4.3,5.8,5.4,9.2C35,45.4,33.7,47.7,32.1,48.8z"/>
	<g>
		<path class="st3" d="M30.5,40c0,0.1-0.1,0.1-0.2,0.1c-0.1,0-0.1,0-0.2,0c0,0-0.1,0-0.1,0c0,0,0,0,0,0c0,0,0,0,0,0c0,0,0,0,0,0
			c0,0,0,0,0,0c-0.1,0-0.2,0-0.4,0c-1.7,0-3.1,1.3-3.4,2.9c-0.2,0.8,0.1,1.7,0.3,2.5c0,0.2,0.1,0.5,0,0.8c-0.1,0.2-0.2,0.4-0.4,0.6
			c-0.5,0.5-2.1,1.1-1.6,2c0.1,0.3,0.3,0.5,0.6,0.6c-0.2,0-0.5,0-0.7,0c-0.1-0.1-0.2-0.2-0.2-0.3c-0.1-0.2-0.2-0.4-0.2-0.6
			c0-0.2,0.1-0.5,0.2-0.7c0.5-0.7,1.9-1,1.9-2c0-0.5-0.2-0.9-0.3-1.4c-0.1-0.5-0.1-0.9-0.1-1.4c0.1-0.5,0.2-1,0.5-1.5
			c0.3-0.5,0.7-0.9,1.1-1.2c0.7-0.4,1.5-0.7,2.2-0.6c0.3,0,0.5,0.1,0.7,0.1C30.5,39.9,30.5,39.9,30.5,40z"/>
	</g>
	<g>
		<path class="st3" d="M19.4,48.9c-0.1,0-0.2,0-0.3,0c0,0,0,0,0,0c0,0,0,0,0,0c0-0.1,0-0.3,0-0.4c-0.1-1-0.1-2-0.2-3
			c-0.1-0.9-0.1-1.9-0.2-2.8c-0.1-0.9-0.1-1.8-0.2-2.7c-0.1-0.9-0.2-1.9-0.3-2.8C18.1,36.1,18,35,17.8,34c0-0.1,0-0.1,0.1-0.2
			c0.1,0,0.2,0,0.2,0.1c0,0.1,0,0.3,0.1,0.4c0.1,1,0.3,2.1,0.4,3.1c0.1,1,0.2,1.9,0.3,2.9c0.1,0.9,0.2,1.8,0.2,2.8
			c0.1,0.9,0.1,1.9,0.2,2.8C19.3,46.9,19.4,47.9,19.4,48.9z"/>
	</g>
	<path class="st3" d="M19.5,48.9c0-0.1,0.1-0.3,0.2-0.4c0.2-0.4,0.7-0.7,1.1-0.7c0.1,0,0.1-0.1,0.1-0.2c0-1.8-0.1-3.6-0.1-5.4
		c-0.1-1.8-0.2-3.5-0.2-5.3c0-0.5,0-1-0.1-1.5c0-0.5,0-1.1-0.1-1.6c0-0.1-0.2-0.2-0.2,0c0,0.5,0,0.9,0,1.4c0,0.5,0,0.9,0,1.4
		c0,0.9,0,1.8,0.1,2.7c0.1,1.8,0.1,3.5,0.2,5.3c0,1,0,2,0.1,2.9c-0.4,0.1-0.7,0.2-1,0.5c-0.2,0.3-0.4,0.6-0.5,1c0,0,0,0,0,0
		L19.5,48.9z"/>
	<g>
		<path class="st3" d="M24.8,38.1c-0.2,1-0.4,2.1-0.6,3.1c-0.3,1.9-0.7,3.7-0.9,5.6c-0.1,0.8-0.1,1.7-0.1,2.6c0,0-0.2,0-0.5,0.1
			c0-0.1,0.1-2.1,0.3-3c0.1-1,0.3-1.9,0.5-2.8c0.2-0.9,0.3-1.9,0.5-2.8c0.2-0.9,0.4-1.9,0.6-2.8c0-0.1,0.1-0.1,0.2-0.1
			C24.8,37.9,24.8,38,24.8,38.1z"/>
	</g>
	<g>
		<g>
			<path class="st0" d="M26.7,27.9C26.7,27.9,26.7,27.9,26.7,27.9C26.8,27.9,26.8,27.9,26.7,27.9C26.8,28,26.8,28,26.7,27.9
				c0.1,0.1,0.1,0.1,0.1,0.1c0,0,0.1,0.1,0.1,0.1c0.1,0.1,0.1,0.2,0.1,0.3c0,0.1,0.1,0.1,0.2,0.1c0,0,0.1,0,0.1-0.1c0,0,0-0.1,0-0.1
				c-0.1-0.2-0.2-0.4-0.4-0.6c-0.1-0.1-0.2-0.1-0.2,0C26.6,27.7,26.6,27.8,26.7,27.9L26.7,27.9z"/>
		</g>
		<g>
			<path class="st0" d="M27,30.2c0.1,0.1,0.2,0.3,0.3,0.4c0,0.1,0.1,0.1,0.2,0.1c0.1,0,0.1-0.1,0.1-0.2c-0.1-0.1-0.2-0.3-0.2-0.4
				c0-0.1-0.1-0.1-0.2-0.1C27,30,26.9,30.1,27,30.2L27,30.2z"/>
		</g>
		<g>
			<path class="st0" d="M26.9,32c0.1,0.1,0.2,0.3,0.3,0.4c0,0.1,0.1,0.1,0.2,0.1c0.1,0,0.1-0.1,0.1-0.2c-0.1-0.1-0.2-0.3-0.2-0.4
				c0-0.1-0.1-0.1-0.2-0.1C26.9,31.8,26.9,31.9,26.9,32L26.9,32z"/>
		</g>
		<g>
			<path class="st0" d="M28.3,30.6c0.1,0.1,0.2,0.3,0.3,0.4c0,0,0,0.1,0.1,0.1c0,0,0.1,0,0.1,0c0.1,0,0.1-0.1,0.1-0.2
				c-0.1-0.1-0.2-0.3-0.3-0.4c0,0,0-0.1-0.1-0.1c0,0-0.1,0-0.1,0C28.3,30.4,28.3,30.5,28.3,30.6L28.3,30.6z"/>
		</g>
		<g>
			<path class="st0" d="M28.4,32.4c0,0.1,0.1,0.1,0.1,0.2c0,0,0,0.1,0.1,0.1c0,0,0,0,0.1,0c0,0,0,0,0.1,0c0,0,0.1,0,0.1-0.1
				c0,0,0-0.1,0-0.1c0-0.1-0.1-0.1-0.1-0.2c0,0,0-0.1-0.1-0.1c0,0,0,0-0.1,0c0,0,0,0-0.1,0c0,0-0.1,0-0.1,0.1
				C28.4,32.3,28.4,32.4,28.4,32.4L28.4,32.4z"/>
		</g>
		<g>
			<path class="st0" d="M26.1,29.1c0,0.1,0.1,0.1,0.1,0.2c0,0,0,0.1,0.1,0.1c0,0,0,0,0.1,0c0,0,0,0,0.1,0c0,0,0.1,0,0.1-0.1
				c0,0,0-0.1,0-0.1c0-0.1-0.1-0.1-0.1-0.2c0,0,0-0.1-0.1-0.1c0,0,0,0-0.1,0c0,0,0,0-0.1,0c0,0-0.1,0-0.1,0.1
				C26,29,26,29.1,26.1,29.1L26.1,29.1z"/>
		</g>
		<g>
			<path class="st0" d="M29.6,32.7c0.1,0.1,0.1,0.3,0.2,0.4c0,0.1,0.1,0.1,0.2,0.1c0.1,0,0.1-0.1,0.1-0.2c-0.1-0.1-0.1-0.3-0.2-0.4
				c0-0.1-0.1-0.1-0.2-0.1C29.6,32.5,29.6,32.6,29.6,32.7L29.6,32.7z"/>
		</g>
		<g>
			<path class="st0" d="M31.3,35.8c0.1,0.1,0.1,0.3,0.2,0.4c0,0.1,0.1,0.1,0.2,0.1c0.1,0,0.1-0.1,0.1-0.2c-0.1-0.1-0.1-0.3-0.2-0.4
				c0-0.1-0.1-0.1-0.2-0.1C31.3,35.6,31.3,35.7,31.3,35.8L31.3,35.8z"/>
		</g>
		<g>
			<path class="st0" d="M30.1,34.6c0.1,0.1,0.1,0.3,0.2,0.4c0,0.1,0.1,0.1,0.2,0.1c0.1,0,0.1-0.1,0.1-0.2c-0.1-0.1-0.1-0.3-0.2-0.4
				c0-0.1-0.1-0.1-0.2-0.1C30.1,34.5,30.1,34.5,30.1,34.6L30.1,34.6z"/>
		</g>
		<g>
			<path class="st0" d="M29.1,34.5c0.1,0.1,0.1,0.3,0.2,0.4c0,0,0.1,0.1,0.1,0.1c0,0,0.1,0,0.1,0c0.1,0,0.1-0.1,0.1-0.2
				c-0.1-0.1-0.1-0.3-0.2-0.4c0,0-0.1-0.1-0.1-0.1c0,0-0.1,0-0.1,0C29,34.3,29,34.4,29.1,34.5L29.1,34.5z"/>
		</g>
	</g>
	<g>
		<g>
			<path class="st0" d="M13,16c-0.4-2.1-1.2-4.9-1.9-6.8c3.4,1.3,6.1,4.4,6.1,4.5L13,16z"/>
			<path class="st0" d="M28.1,22.4c1.8-1.1,4.3-2.5,6.2-3.3c-3.3-1.6-7.4-1.4-7.5-1.4L28.1,22.4z"/>
			<path class="st2" d="M20.9,26.9c-1.3,0.4-2.6,0.7-3.9,0.9c-0.7,0.1-1.9,0.7-2.5,0.1c-0.3-0.3-0.3-0.7-0.3-1
				c0-0.8,0.1-1.6,0.2-2.4c0.2-2.4-0.1-4.9-1-7.2c-0.2-0.6-0.8-1-0.7-1.7c0.1-0.7,2.4-3.7,8.4-2.8c3.1,0.5,4.5,1.8,6.1,3.5
				c0.9,1,1.5,2,1.8,3.3c0.6,2.8-0.7,3.2-2,4.3C25.2,25.3,23.1,26.2,20.9,26.9z"/>
			<path class="st1" d="M13.7,27.6c0.3-2.9,0-5.9-1.7-8.2c0.3,0,0.6,0,0.9,0c-0.4-0.7-0.7-1.4-1.1-2c0.3,0.1,0.7,0.2,1,0.3
				c-0.3-0.9-0.5-1.9-0.4-2.9c0.8,1.2,2.6,1.9,3.2,2.5c1.2,1.1,1,2.7,0.7,4.1c-0.4,1.9-1,4.1-1.5,5.9L13.7,27.6z"/>
			<path class="st1" d="M15.2,27.1c1-1.2,2.1-2.4,3.3-3.4c1.1-0.9,2.2-1.9,3.6-2.4c1.3-0.6,2.7-0.8,4.1-0.6c1.4,0.2,2.7,1.1,4.1,1.1
				c-0.7,0.7-1.6,1.5-2.6,1.6c0.4,0.1,0.8,0.2,1.2,0.3c-0.7,0.8-1.8,1.3-2.9,1.3c0.4,0.3,0.9,0.8,1.3,1c-2.1,0.1-8.4,2-11.8,2.2
				L15.2,27.1z"/>
			<path class="st4" d="M13.5,27.3c0,0.2,0.1,0.3,0.1,0.4c0.4,0.6,1.5,1,2.2,0.7c0.6-0.3,0.2-1-0.2-1.4c-0.4-0.3-0.8-0.5-1.2-0.5
				c-0.3,0-0.6,0-0.7,0.3C13.5,26.9,13.5,27.1,13.5,27.3z"/>
			<path class="st5" d="M18.9,25.4c-0.2,0.3-0.2,0.6,0,0.9c0.4,0.6,1.5,0.3,1.6-0.4c0-0.1,0-0.2,0-0.3c-0.2-0.6-1-0.7-1.4-0.3
				C18.9,25.3,18.9,25.4,18.9,25.4z"/>
			<path class="st5" d="M13.8,22.7c-0.2,0.3-0.2,0.6,0,0.9c0.4,0.6,1.5,0.3,1.6-0.4c0-0.1,0-0.2,0-0.3c-0.2-0.6-1-0.7-1.4-0.3
				C13.8,22.6,13.8,22.7,13.8,22.7z"/>
			<g>
				<path class="st4" d="M15.7,18.4c0-0.1-0.1-0.2-0.2-0.1c-0.1,0-0.2,0.1-0.1,0.2c0.1,0.3,0.1,0.7,0,1.1c-0.1,0.3-0.4,0.5-0.8,0.5
					c-0.1,0-0.3-0.1-0.4-0.1c-0.2-0.1-0.3-0.3-0.4-0.5c-0.1-0.1-0.1-0.2-0.1-0.3c0-0.1-0.1-0.2-0.2-0.2c-0.1,0-0.1,0.1-0.1,0.2
					c0,0.1,0.1,0.3,0.1,0.4c0.1,0.1,0.1,0.3,0.2,0.4c0.1,0.1,0.2,0.2,0.3,0.3c0.1,0.1,0.2,0.2,0.4,0.2c0.3,0.1,0.6,0.1,0.9-0.1
					c0.3-0.2,0.5-0.5,0.6-0.8C15.8,19.2,15.8,18.8,15.7,18.4z"/>
				<g>
					<path class="st4" d="M14.3,20.8C14.3,20.8,14.3,20.7,14.3,20.8c0-0.2,0.1-0.3,0.1-0.4c0-0.1,0-0.1,0-0.2c0-0.1-0.2-0.1-0.2-0.1
						c0,0-0.1,0.1-0.1,0.2c0,0.1,0,0.1,0,0.2c0,0.1,0,0.2,0,0.3c0,0.1,0.1,0.1,0.1,0.1C14.2,20.9,14.2,20.9,14.3,20.8
						C14.3,20.8,14.3,20.8,14.3,20.8z"/>
				</g>
				<g>
					<path class="st4" d="M15.1,20.8c0-0.2,0-0.4-0.1-0.6c0-0.1-0.1-0.1-0.2-0.1c-0.1,0-0.1,0.1-0.1,0.2c0,0.2,0.1,0.4,0.1,0.6
						c0,0.1,0.1,0.1,0.2,0.1c0,0,0.1,0,0.1-0.1C15.1,20.9,15.1,20.8,15.1,20.8L15.1,20.8z"/>
				</g>
				<path class="st4" d="M15.9,20.3c0,0,0-0.1,0-0.1c-0.1-0.1-0.2-0.2-0.3-0.4c-0.1-0.1-0.2-0.1-0.2,0c0,0,0,0,0,0.1
					c0,0.1,0,0.1,0.1,0.2l0.1,0.1c0.1,0.1,0.1,0.1,0.2,0.2c0,0,0,0,0,0.1C15.7,20.5,15.9,20.5,15.9,20.3z"/>
			</g>
			<g>
				<g>
					<path class="st4" d="M21.8,23C21.8,23,21.8,23,21.8,23L21.8,23z"/>
					<path class="st4" d="M23.6,23.6c0-0.1-0.1-0.1-0.2-0.1c-0.3,0.1-0.5,0.2-0.8,0.2c-0.3,0-0.6-0.1-0.7-0.3
						c-0.1-0.2-0.2-0.4-0.1-0.6c0.1-0.3,0.4-0.6,0.6-0.7c0.1,0,0.1-0.1,0.2-0.1c0.1-0.1,0.1-0.2,0.1-0.3c-0.1-0.1-0.2-0.1-0.3-0.1
						c-0.3,0.1-0.5,0.3-0.7,0.6c-0.2,0.3-0.4,0.6-0.4,0.9c0,0.3,0.2,0.6,0.4,0.8c0.2,0.2,0.5,0.3,0.8,0.2c0.2,0,0.3,0,0.5-0.1
						c0.2,0,0.3-0.1,0.4-0.2C23.6,23.7,23.7,23.6,23.6,23.6z"/>
				</g>
				<g>
					<path class="st4" d="M21.8,24.3c0.1-0.1,0.1-0.1,0.2-0.2c0,0,0.1-0.1,0.1-0.1c0-0.1,0.1-0.1,0.1-0.2c0-0.1-0.1-0.2-0.2-0.1
						c-0.1,0-0.1,0.1-0.1,0.1c-0.1,0.1-0.1,0.2-0.2,0.3c0,0-0.1,0.1-0.1,0.1c0,0,0,0.1,0,0.1C21.7,24.3,21.8,24.4,21.8,24.3z"/>
				</g>
				<g>
					<path class="st4" d="M21.2,23.7c0.2-0.1,0.3-0.2,0.5-0.3c0.1,0,0.1-0.1,0.1-0.2c0-0.1-0.1-0.1-0.2-0.1
						c-0.2,0.1-0.3,0.2-0.5,0.3c0,0-0.1,0-0.1,0.1c0,0,0,0.1,0,0.1C21.1,23.7,21.2,23.8,21.2,23.7L21.2,23.7z"/>
				</g>
				<path class="st4" d="M21.7,22.7c0-0.1-0.1-0.2-0.2-0.2c0,0-0.1,0-0.1,0c-0.1,0-0.2,0-0.3,0c0,0-0.1,0-0.1,0c0,0,0,0.1,0,0.1
					c0,0.1,0.1,0.2,0.1,0.2c0.1,0,0.3,0,0.4,0C21.6,22.9,21.6,22.9,21.7,22.7C21.7,22.8,21.7,22.7,21.7,22.7z"/>
			</g>
			<g>
				<g>
					<path class="st0" d="M16.1,15.5c0,0.1,0,0.2,0,0.3c0,0.1,0,0.1,0,0.2c0,0,0,0.1,0,0.1c0,0.1,0.1,0.1,0.2,0.1
						c0.1,0,0.1-0.1,0.1-0.1c0,0,0-0.1,0-0.1c0,0,0-0.1,0-0.1c0-0.1,0-0.2,0-0.3c0,0,0-0.1,0-0.1c0,0-0.1-0.1-0.1-0.1
						C16.2,15.3,16.1,15.4,16.1,15.5L16.1,15.5z"/>
				</g>
				<g>
					<path class="st0" d="M17,16.1c0,0.1,0,0.1,0,0.2c0,0.1,0,0.1,0,0.2c0,0,0,0.1,0,0.1c0,0,0,0,0.1,0c0.1,0,0.1,0,0.1-0.1
						c0-0.1,0-0.1,0-0.2c0-0.1,0-0.1,0-0.2c0,0,0-0.1,0-0.1c0,0-0.1,0-0.1,0c0,0-0.1,0-0.1,0C17,16.1,17,16.1,17,16.1L17,16.1z"/>
				</g>
				<g>
					<path class="st0" d="M18.2,15.3c0,0.1-0.1,0.2-0.1,0.3c0,0,0,0.1-0.1,0.1c0,0.1,0,0.1,0,0.2c0,0.1,0,0.2,0.1,0.2
						c0.1,0,0.1,0,0.2-0.1c0,0,0-0.1,0.1-0.1c0,0,0-0.1,0.1-0.2c0-0.1,0.1-0.2,0.1-0.3c0-0.1,0-0.2-0.1-0.2
						C18.4,15.2,18.3,15.3,18.2,15.3L18.2,15.3z"/>
				</g>
				<g>
					<path class="st0" d="M19.3,15.7c0,0.1-0.1,0.2-0.1,0.2c0,0.1-0.1,0.2-0.1,0.3c0,0.1,0,0.1,0.1,0.2c0.1,0,0.1,0,0.2,0
						c0-0.1,0.1-0.2,0.1-0.3c0-0.1,0.1-0.2,0.1-0.3c0-0.1,0-0.2-0.1-0.2C19.4,15.5,19.3,15.6,19.3,15.7L19.3,15.7z"/>
				</g>
				<g>
					<path class="st0" d="M18.7,17.3c-0.1,0.2-0.1,0.5-0.2,0.7c0,0.1,0,0.1,0.1,0.2c0.1,0,0.1,0,0.2-0.1c0.1-0.1,0.1-0.2,0.1-0.4
						c0-0.1,0.1-0.2,0.1-0.4c0-0.1,0-0.2-0.1-0.2C18.8,17.2,18.7,17.2,18.7,17.3L18.7,17.3z"/>
				</g>
				<g>
					<path class="st0" d="M17.8,17.8c0,0.2,0,0.4-0.1,0.6c0,0.1,0.1,0.1,0.1,0.1c0.1,0,0.1-0.1,0.1-0.1c0-0.2,0-0.4,0.1-0.6
						c0-0.1-0.1-0.1-0.1-0.1C17.8,17.6,17.8,17.7,17.8,17.8L17.8,17.8z"/>
				</g>
				<g>
					<path class="st0" d="M18.2,19.4c0,0.2-0.1,0.4-0.2,0.5c0,0,0,0.1,0,0.1c0,0,0,0,0.1,0.1c0.1,0,0.2,0,0.2-0.1
						c0.1-0.2,0.2-0.4,0.2-0.6c0,0,0-0.1,0-0.1c0,0-0.1-0.1-0.1-0.1C18.4,19.2,18.3,19.3,18.2,19.4L18.2,19.4z"/>
				</g>
				<g>
					<path class="st0" d="M16.8,17.8c0,0.2,0,0.4,0,0.6c0,0.1,0.1,0.1,0.1,0.1c0.1,0,0.1,0,0.2-0.1c0-0.2,0.1-0.4,0.1-0.7
						c0-0.1-0.1-0.2-0.1-0.2C16.9,17.7,16.8,17.7,16.8,17.8L16.8,17.8z"/>
				</g>
				<g>
					<path class="st0" d="M17.4,20.2c-0.1,0.2-0.1,0.4-0.1,0.7c0,0,0,0.1,0,0.1c0,0,0,0.1,0.1,0.1c0.1,0,0.1,0,0.2-0.1
						c0.1-0.2,0.1-0.4,0.2-0.6c0-0.1,0-0.2-0.1-0.2C17.5,20.1,17.4,20.1,17.4,20.2L17.4,20.2z"/>
				</g>
				<g>
					<path class="st0" d="M18.4,20.9c-0.1,0.2-0.2,0.4-0.3,0.6c0,0.1,0,0.2,0,0.2c0.1,0,0.2,0,0.2,0c0.1-0.2,0.2-0.4,0.3-0.6
						c0-0.1,0-0.2,0-0.2C18.5,20.8,18.4,20.8,18.4,20.9L18.4,20.9z"/>
				</g>
				<g>
					<path class="st0" d="M19.4,21.3c-0.1,0.2-0.2,0.4-0.4,0.5c0,0.1,0,0.2,0,0.2c0.1,0,0.2,0,0.2,0c0.1-0.2,0.2-0.4,0.3-0.5
						c0-0.1,0-0.2,0-0.2C19.5,21.2,19.5,21.2,19.4,21.3L19.4,21.3z"/>
				</g>
				<g>
					<path class="st0" d="M19.8,19c-0.1,0.1-0.2,0.2-0.2,0.3c0,0.1-0.1,0.1-0.1,0.2c0,0.1-0.1,0.1-0.1,0.2c0,0.1,0,0.1,0.1,0.2
						c0.1,0,0.1,0,0.2-0.1c0-0.1,0.1-0.1,0.1-0.2c0-0.1,0.1-0.1,0.1-0.2c0.1-0.1,0.1-0.2,0.2-0.3c0-0.1,0-0.2,0-0.2
						C19.9,18.9,19.8,19,19.8,19L19.8,19z"/>
				</g>
				<g>
					<path class="st0" d="M20.7,19.8c-0.1,0.1-0.3,0.3-0.4,0.4c0,0,0,0.1,0,0.1c0,0,0,0.1,0.1,0.1c0,0,0.1,0,0.1,0c0,0,0.1,0,0.1,0
						c0.1-0.1,0.1-0.1,0.2-0.2c0.1-0.1,0.1-0.1,0.2-0.2c0,0,0-0.1,0.1-0.1c0,0,0-0.1,0-0.1c0,0-0.1-0.1-0.1-0.1
						C20.8,19.7,20.7,19.7,20.7,19.8L20.7,19.8z"/>
				</g>
				<g>
					<path class="st0" d="M20.6,16.9c-0.1,0.2-0.1,0.3-0.2,0.5c0,0,0,0.1,0,0.1c0,0,0.1,0.1,0.1,0.1c0,0,0.1,0,0.1,0
						c0,0,0.1,0,0.1-0.1c0.1-0.2,0.1-0.3,0.2-0.5c0,0,0-0.1,0-0.1c0,0-0.1-0.1-0.1-0.1C20.7,16.8,20.7,16.8,20.6,16.9
						C20.6,16.8,20.6,16.8,20.6,16.9L20.6,16.9z"/>
				</g>
				<g>
					<path class="st0" d="M22.6,16.4c-0.1,0.2-0.3,0.5-0.4,0.7c0,0.1,0,0.2,0,0.2c0.1,0,0.2,0,0.2,0c0.2-0.2,0.3-0.5,0.5-0.7
						c0-0.1,0-0.2,0-0.2C22.7,16.3,22.6,16.4,22.6,16.4L22.6,16.4z"/>
				</g>
				<g>
					<path class="st0" d="M21.4,18.2c0,0.1-0.1,0.1-0.1,0.2c0,0.1-0.1,0.1-0.1,0.2c0,0.1,0,0.1,0,0.2c0,0,0.1,0,0.1,0
						c0,0,0.1,0,0.1,0c0.1-0.1,0.1-0.1,0.2-0.2c0.1-0.1,0.1-0.1,0.2-0.2c0,0,0-0.1,0-0.1c0,0,0-0.1-0.1-0.1
						C21.6,18.1,21.6,18.1,21.4,18.2C21.5,18.1,21.4,18.1,21.4,18.2L21.4,18.2z"/>
				</g>
				<g>
					<path class="st0" d="M23.8,16.9c-0.2,0.2-0.4,0.3-0.6,0.5c-0.1,0.1-0.1,0.2,0,0.2c0.1,0.1,0.2,0.1,0.2,0
						c0.1-0.1,0.2-0.2,0.3-0.2c0,0,0.1-0.1,0.1-0.1c0,0,0.1,0,0.1-0.1c0,0,0,0,0,0c0,0,0,0,0,0c0,0,0,0,0,0c0,0,0.1-0.1,0.1-0.1
						c0,0,0-0.1,0-0.1c0,0-0.1-0.1-0.1-0.1C23.9,16.8,23.9,16.8,23.8,16.9L23.8,16.9z"/>
				</g>
				<g>
					<path class="st0" d="M24.5,17.9c-0.2,0.1-0.4,0.2-0.7,0.3c-0.1,0-0.1,0.1-0.1,0.2c0,0.1,0.1,0.1,0.2,0.1
						c0.2-0.1,0.4-0.2,0.7-0.3c0.1,0,0.1-0.1,0.1-0.2C24.6,17.9,24.5,17.9,24.5,17.9L24.5,17.9z"/>
				</g>
				<g>
					<path class="st0" d="M24.9,19c-0.1,0-0.2,0.1-0.2,0.1c-0.1,0-0.1,0.1-0.2,0.1c0,0,0,0.1-0.1,0.1c0,0,0,0.1,0,0.1
						c0,0,0.1,0.1,0.1,0.1c0,0,0,0,0,0c0,0,0.1,0,0.1,0c0,0,0,0,0,0c0,0,0,0,0,0c0.1-0.1,0.2-0.1,0.3-0.1c0,0,0,0,0,0
						c0,0,0.1,0,0.1,0c0,0,0.1,0,0.1-0.1c0,0,0-0.1,0-0.1c0,0,0-0.1-0.1-0.1C25,19,24.9,19,24.9,19L24.9,19z"/>
				</g>
				<g>
					<path class="st0" d="M22.8,19.4c-0.2,0.1-0.3,0.3-0.4,0.5c0,0,0,0.1,0,0.1c0,0,0,0.1,0.1,0.1c0,0,0.1,0,0.1,0
						c0,0,0.1,0,0.1-0.1c0,0,0.1-0.1,0.1-0.1c0,0,0,0,0,0c0.1-0.1,0.2-0.2,0.3-0.3c0.1-0.1,0.1-0.2,0-0.2
						C23,19.3,22.9,19.3,22.8,19.4L22.8,19.4z"/>
				</g>
				<g>
					<path class="st0" d="M21.2,20.6c-0.1,0.1-0.2,0.1-0.3,0.2c-0.1,0-0.1,0.1-0.2,0.1c-0.1,0-0.1,0.1-0.1,0.1c0,0.1-0.1,0.1,0,0.2
						c0,0.1,0.1,0.1,0.2,0c0.1,0,0.1-0.1,0.2-0.1c0.1,0,0.1-0.1,0.2-0.1c0,0,0,0,0,0c0,0,0,0,0,0c0,0,0,0,0,0c0,0,0.1,0,0.1-0.1
						c0.1,0,0.1-0.1,0.2-0.1c0.1,0,0.1-0.1,0.1-0.2C21.4,20.6,21.3,20.5,21.2,20.6L21.2,20.6z"/>
				</g>
				<g>
					<path class="st0" d="M16.6,22.2c-0.1,0.2-0.2,0.5-0.3,0.7c0,0.1,0,0.2,0.1,0.2c0.1,0,0.2,0,0.2-0.1c0.1-0.2,0.2-0.5,0.3-0.7
						c0-0.1,0-0.2-0.1-0.2C16.7,22.1,16.6,22.1,16.6,22.2L16.6,22.2z"/>
				</g>
				<g>
					<path class="st0" d="M17.2,22.5C17.2,22.5,17.2,22.5,17.2,22.5C17.2,22.5,17.2,22.5,17.2,22.5c0,0.1-0.1,0.2-0.2,0.3
						c0,0,0,0,0,0c0,0,0,0,0,0c0,0,0,0.1,0,0.1c0,0,0,0.1,0,0.1c0,0,0.1,0,0.1,0c0,0,0.1,0,0.1,0c0.1-0.1,0.1-0.1,0.1-0.2
						c0-0.1,0.1-0.1,0.1-0.2c0,0,0-0.1,0-0.1c0,0-0.1-0.1-0.1-0.1C17.3,22.4,17.3,22.4,17.2,22.5C17.2,22.4,17.2,22.4,17.2,22.5
						C17.2,22.5,17.2,22.5,17.2,22.5L17.2,22.5z"/>
				</g>
				<g>
					<path class="st0" d="M18.5,22.3c-0.1,0.1-0.1,0.2-0.2,0.2c-0.1,0.1-0.1,0.2-0.2,0.2c0,0.1,0,0.2,0,0.2c0.1,0,0.2,0.1,0.2,0
						c0.1-0.1,0.1-0.2,0.2-0.3c0.1-0.1,0.1-0.2,0.2-0.2c0,0,0-0.1,0-0.1c0,0,0-0.1-0.1-0.1C18.7,22.3,18.6,22.3,18.5,22.3
						C18.6,22.3,18.5,22.3,18.5,22.3L18.5,22.3z"/>
				</g>
				<g>
					<path class="st0" d="M17.3,23.8c-0.1,0.1-0.3,0.3-0.4,0.4c0,0,0,0.1,0,0.1c0,0,0,0.1,0,0.1c0.1,0.1,0.2,0.1,0.2,0
						c0.1-0.1,0.3-0.3,0.4-0.4c0,0,0-0.1,0.1-0.1c0,0,0-0.1,0-0.1c0,0-0.1-0.1-0.1-0.1C17.4,23.7,17.3,23.7,17.3,23.8L17.3,23.8z"/>
				</g>
				<g>
					<path class="st0" d="M15.9,24.4c-0.1,0.2-0.1,0.3-0.2,0.5c0,0.1,0,0.1,0.1,0.2c0.1,0,0.2,0,0.2-0.1c0.1-0.2,0.1-0.3,0.2-0.5
						c0,0,0-0.1,0-0.1c0,0-0.1-0.1-0.1-0.1C16,24.3,15.9,24.3,15.9,24.4L15.9,24.4z"/>
				</g>
				<g>
					<path class="st0" d="M16.3,25c-0.1,0.1-0.1,0.2-0.2,0.3c0,0,0,0.1,0,0.1c0,0,0,0.1,0.1,0.1c0.1,0,0.1,0,0.2,0
						c0.1-0.1,0.1-0.2,0.2-0.3c0,0,0-0.1,0-0.1c0,0,0-0.1-0.1-0.1C16.4,24.9,16.3,24.9,16.3,25L16.3,25z"/>
				</g>
			</g>
		</g>
		<g>
			<path class="st6" d="M24.5,7.5c0-0.1-0.1-0.1-0.2-0.1c-0.7,0.3-1.4,0.7-1.9,1.2c-0.5,0.5-0.9,1.2-1.1,1.9c0,0.2-0.1,0.4-0.1,0.6
				c0,0.1,0,0.2,0,0.3c0,0.1,0,0.4,0.2,0.4c0.1-0.1,0.3-0.2,0.4-0.3c0.4-0.3,0.8-0.5,1.1-0.8c0.3-0.2,0.5-0.5,0.7-0.9
				C24,9.3,24,8.6,24.3,8c0-0.1,0.1-0.2,0.2-0.3C24.5,7.7,24.5,7.6,24.5,7.5z"/>
			<path class="st7" d="M21.3,8c-0.1-0.3-0.2-0.6-0.3-0.9C21,7.1,20.9,7,20.8,7c-0.1,0-0.1,0-0.2,0.1c-0.2,0.5-0.4,1-0.4,1.6
				c0,0.5,0.1,1.1,0.3,1.6c0.2,0.4,0.3,0.8,0.5,1.2c0,0.1,0.1,0.1,0.2,0.2c0.1,0,0.1,0,0.2-0.1c0-0.1,0-0.1,0.1-0.2
				c0.1-0.3,0.1-0.6,0.1-1c0-0.3,0-0.6,0-0.8C21.6,9,21.5,8.5,21.3,8z"/>
			<g>
				<path class="st8" d="M15.1,11.6C15,12,15.3,12.8,15.9,13c-0.2,0.7,0.1,1.4,0.7,1.8c0.6,0.4,1.4,0.2,1.8-0.3
					c0.3,0.2,0.6,0.4,0.9,0.4c0.3,0,0.7-0.2,0.8-0.6c0.8,0.1,1.3-0.3,1.4-0.5c0.3-0.5,0.5-1,0.5-1.6c-0.1-0.6-0.5-1.1-1-1.2
					c0.3-0.8-0.2-1.6-0.7-1.8c-0.5-0.2-1.3-0.1-1.6,0.4c0-0.2-0.8-0.8-1.3-0.6c-1.5,0.4-1.1,1.5-1.1,1.5S15.2,10.8,15.1,11.6z"/>
				<g>
					<path class="st9" d="M18.4,10.4c-0.2-0.1-0.5-0.1-0.7,0c-0.2,0.1-0.3,0.3-0.4,0.5c-0.1,0.2-0.1,0.4,0.1,0.6
						c0.1,0.2,0.3,0.4,0.6,0.4c0.1,0,0.1-0.1,0.2-0.1c0-0.1,0-0.1-0.1-0.2c-0.1,0-0.1,0-0.2-0.1c-0.2-0.1-0.3-0.3-0.2-0.5
						c0.1-0.2,0.4-0.4,0.7-0.2c0,0,0,0,0,0c0.1,0.1,0.1,0.1,0.1,0.2c0,0.1,0,0.2,0.1,0.2c0.1,0,0.1,0,0.1-0.1
						C18.7,10.7,18.6,10.5,18.4,10.4z"/>
					<g>
						<path class="st9" d="M17.9,13C17.9,13,17.9,13,17.9,13L17.9,13z"/>
						<path class="st9" d="M18.3,12.8c-0.1-0.1-0.2,0-0.3,0.1c-0.1,0.1-0.3,0.1-0.5,0.1c-0.1,0-0.2-0.2-0.3-0.3
							c-0.1-0.3,0-0.6,0.2-0.8c0,0,0-0.1,0-0.2c0,0-0.1-0.1-0.2,0c-0.2,0.1-0.3,0.3-0.3,0.5c-0.1,0.2-0.1,0.4,0,0.6
							c0.1,0.2,0.2,0.3,0.4,0.4c0.2,0.1,0.4,0.1,0.6,0.1c0.2,0,0.4-0.2,0.5-0.3C18.4,13,18.4,12.8,18.3,12.8z"/>
					</g>
					<path class="st9" d="M19.2,11.9c0,0,0-0.1,0-0.1c0-0.1-0.1-0.1-0.1-0.1c-0.1-0.1-0.3-0.1-0.4-0.1c-0.3,0-0.5,0.3-0.5,0.6
						c0,0.1,0,0.1,0.1,0.2c0.1,0,0.1,0,0.2-0.1c0-0.1,0.1-0.2,0.1-0.2c0.1-0.1,0.1-0.1,0.2-0.1c0,0,0,0,0,0c0.2,0,0.1,0.3,0.3,0.3
						c0.1,0,0.1,0,0.1-0.1C19.2,12,19.2,11.9,19.2,11.9z"/>
					<g>
						<path class="st9" d="M19.7,13C19.7,13,19.7,13,19.7,13C19.7,13,19.7,13,19.7,13z"/>
						<path class="st9" d="M20.3,11.7c-0.1-0.3-0.4-0.5-0.7-0.5c-0.1,0-0.2,0.1-0.2,0.2c0,0.1,0,0.1,0.1,0.2c0.1,0,0.3,0.1,0.4,0.2
							c0.1,0.1,0.2,0.3,0.2,0.4c0,0.1,0,0.3,0,0.4c-0.1,0.3-0.3,0.6-0.6,0.5c-0.2,0-0.3-0.2-0.4-0.4c0,0,0-0.1,0-0.1
							c0-0.1-0.1-0.1-0.1-0.1c-0.1,0-0.1,0.1-0.1,0.1c0,0.3,0.2,0.5,0.4,0.6c0.2,0.1,0.5,0.1,0.8,0c0.3-0.2,0.4-0.5,0.4-0.7
							C20.5,12.2,20.5,11.9,20.3,11.7z"/>
					</g>
				</g>
			</g>
			<g>
				<path class="st10" d="M21.2,11c-0.4,0.4-0.3,0.8,0,1.3c-0.4,0-0.7,0.2-0.8,0.6c-0.1,0.3-0.1,0.7,0.2,1c-0.2,0.3,0,1.2,0.5,1.6
					c0.4,0.4,1.1,0.3,1.6,0c0.2,0.3,0.5,0.5,0.8,0.6c0.4,0.1,0.7,0,1.1-0.1c1.4-0.6,1-1.8,1.1-1.8c0.5-0.2,1.7-1,1.2-2.2
					c-0.2-0.4-0.6-1-1.5-0.8c0.1-0.3-0.3-0.9-1.1-1.1c-0.9-0.2-1.4,0.7-1.4,0.7S21.8,10.3,21.2,11z"/>
				<g>
					<path class="st11" d="M24.3,12.4c0-0.1,0-0.2-0.1-0.2c-0.1-0.1-0.2-0.3-0.3-0.3c-0.2-0.1-0.3-0.1-0.5-0.1
						c-0.2,0-0.3,0.1-0.4,0.3c-0.1,0.2-0.1,0.4,0,0.6c0,0.1,0.1,0.1,0.2,0.1c0.1,0,0.1-0.1,0.1-0.2c0-0.1-0.1-0.2,0-0.3
						c0-0.3,0.4-0.3,0.6-0.2c0.2,0.1,0.3,0.3,0.3,0.5c0,0.1,0.1,0.1,0.1,0.2c0.1,0,0.2,0,0.2-0.1C24.3,12.6,24.3,12.5,24.3,12.4z"/>
					<path class="st11" d="M25.1,13.1c0-0.1-0.1-0.1-0.2-0.1c-0.1,0-0.1,0.1-0.1,0.2c0.1,0.2,0.1,0.4-0.1,0.6c0,0.1-0.1,0.1-0.2,0.1
						c-0.2,0.1-0.6,0-0.6-0.2c0-0.1,0-0.2,0-0.2c0-0.1,0-0.1-0.1-0.1c-0.1,0-0.1,0-0.2,0.1c-0.1,0.4,0.1,0.8,0.5,0.9
						c0.2,0,0.4,0,0.6-0.1c0.2-0.1,0.3-0.2,0.4-0.4C25.2,13.5,25.1,13.3,25.1,13.1z"/>
					<path class="st11" d="M23.2,13.7c-0.1-0.1-0.1-0.1-0.2,0c-0.1,0-0.2,0.1-0.3,0.1c-0.1,0-0.2-0.1-0.3-0.2
						c-0.1-0.2,0-0.4,0.1-0.6c0.1,0,0.1-0.1,0-0.2c-0.1-0.1-0.1-0.1-0.2,0c-0.2,0.2-0.3,0.5-0.3,0.8c0.1,0.3,0.3,0.5,0.6,0.5
						c0.2,0,0.4,0,0.5-0.2C23.2,13.9,23.3,13.8,23.2,13.7z"/>
					<path class="st11" d="M24,14.8c0,0-0.1-0.1-0.2,0c0,0,0,0-0.1,0c-0.1,0.1-0.3,0.1-0.4,0c0,0,0,0-0.1-0.1c0,0,0,0-0.1-0.1
						c0,0-0.1,0-0.1,0c-0.1,0-0.1,0.1-0.1,0.2c0.1,0.1,0.2,0.3,0.4,0.3c0.2,0,0.4,0,0.5-0.1C24,15,24,14.9,24,14.8z"/>
				</g>
			</g>
			<g>
				<path class="st12" d="M26,13.6c-0.6,0.2-1.1,0.7-1.1,1.3c-0.1,0.6,0.2,1.2,0.7,1.6c-0.6,0.6-0.5,1.3-0.3,1.7
					c0.4,0.7,1.5,1.3,2.2,0.7c0,0,0.4,0.3,0.5,0.3c0.2,0.1,0.4,0.1,0.6,0.1c0.4,0,0.9-0.2,1.1-0.6c0.2-0.4,0.2-0.9-0.1-1.2
					c1-0.3,1.1-1.2,1-1.6c-0.1-0.2-0.4-0.7-1.2-0.7c0.6-1.9-1.6-1.8-1.7-1.1C27.7,14.1,27.2,13.1,26,13.6z"/>
				<g>
					<g>
						<path class="st13" d="M28.2,15.5c-0.1-0.2-0.2-0.4-0.3-0.5c-0.2-0.1-0.4-0.2-0.6-0.1c-0.2,0-0.4,0.1-0.5,0.3
							c-0.1,0.1-0.1,0.2-0.1,0.4c0,0.1,0,0.3,0.1,0.4c0,0.1,0.1,0.1,0.2,0.1c0.1,0,0.1-0.1,0.1-0.2c0-0.1-0.1-0.3,0-0.4
							c0.1-0.1,0.2-0.2,0.3-0.2c0.3-0.1,0.5,0,0.6,0.3c0,0.1,0.1,0.2,0.1,0.2c0,0.1,0,0.2,0,0.2c0,0.1,0,0.1,0.1,0.2
							c0.1,0,0.1,0,0.2-0.1C28.3,15.9,28.3,15.6,28.2,15.5z"/>
						<path class="st13" d="M27.9,15.5C27.9,15.5,27.9,15.5,27.9,15.5L27.9,15.5z"/>
					</g>
					<path class="st13" d="M27.4,17.6c-0.1,0-0.1,0-0.2,0c-0.1,0.1-0.3,0.2-0.4,0.1c-0.1,0-0.1-0.1-0.2-0.1c-0.1-0.2-0.1-0.4,0-0.6
						c0-0.1,0.1-0.2,0.2-0.3c0,0,0,0,0,0c0.1-0.1,0.2-0.1,0.3-0.1c0.1,0,0.1-0.1,0.1-0.1c0-0.1-0.1-0.1-0.1-0.1
						c-0.2,0-0.4,0-0.5,0.2c-0.1,0.1-0.2,0.3-0.3,0.5c-0.1,0.3-0.1,0.8,0.3,1c0.1,0.1,0.2,0.1,0.4,0.1c0.2,0,0.4-0.1,0.5-0.3
						C27.5,17.7,27.5,17.6,27.4,17.6z"/>
					<path class="st13" d="M29.2,16.5c0,0,0-0.1,0-0.1c-0.1-0.1-0.2-0.3-0.3-0.2c0,0-0.1,0.1-0.1,0.1c0,0.1,0,0.1,0.1,0.2
						c0,0.1,0.1,0.1,0.1,0.2c0,0.1,0,0.2-0.1,0.2C28.7,17,28.6,17,28.5,17c-0.1,0-0.2,0-0.3,0c-0.1,0-0.2-0.1-0.2-0.1
						c0-0.1,0-0.2-0.1-0.2c-0.1,0-0.2,0-0.2,0c0,0,0,0.1,0,0.1c0,0.2,0.1,0.4,0.3,0.5c0.2,0.1,0.4,0.1,0.6,0
						c0.2-0.1,0.4-0.2,0.5-0.5C29.2,16.7,29.2,16.6,29.2,16.5z"/>
				</g>
			</g>
		</g>
	</g>
</g>
</svg>
