<?xml version="1.0" encoding="utf-8"?>
<!-- Generator: Adobe Illustrator 27.5.0, SVG Export Plug-In . SVG Version: 6.00 Build 0)  -->
<svg version="1.1" id="Layer_1" xmlns="http://www.w3.org/2000/svg" xmlns:xlink="http://www.w3.org/1999/xlink" x="0px" y="0px"
	 viewBox="0 0 56.7 56.7" style="enable-background:new 0 0 56.7 56.7;" xml:space="preserve">
<style type="text/css">
	.st0{fill:#FFE9C7;}
	.st1{fill:#B87131;}
	.st2{fill:#E59349;}
	.st3{fill:#633518;}
	.st4{fill:#EAB4A8;}
</style>
<g>
	<g>
		<g>
			<path class="st0" d="M40.8,42.7c-1.1,0.1-2.2,0.2-3.3,0.3c0.1-0.6,0.2-1.3,0.2-1.9c-2.7,1.5-3.9,1.7-5.3,4.2c0,0,3.3,0,5.7,0.3
				c1.2,0.2,2.9,0.2,4.8-0.1c-1.1-0.4-2.3-0.7-3.4-1C39.9,43.9,40.4,43.3,40.8,42.7z"/>
			<path class="st1" d="M51.5,36.8c0,0.2,0,0.5-0.1,0.7c-0.2,1.3-0.7,2.6-1.6,4c-0.1,0.1-0.2,0.3-0.3,0.4c-0.1,0.2-0.3,0.3-0.4,0.5
				c-0.7,0.7-1.4,1.3-2.2,1.8l0,0c-0.2,0.1-0.4,0.2-0.7,0.4c-1.1,0.5-2.2,0.9-3.3,1.1c-1.1-0.4-2.3-0.7-3.4-1
				c0.4-0.6,0.9-1.2,1.3-1.7c-1.1,0.1-2.2,0.2-3.3,0.3c0.1-0.6,0.2-1.3,0.2-1.9c0.5-0.3,1-0.6,1.6-1c0.4-0.2,0.6-0.5,0.9-0.8
				c0.1-0.2,0.2-0.3,0.3-0.5c0.3-0.5,0.4-0.9,0.5-1.4c0-0.2,0-0.4,0-0.6c0-0.4,0-0.9-0.1-1.2c0-0.2-0.1-0.4-0.1-0.5
				c0-0.1-0.1-0.3-0.1-0.4c-0.1-0.3-0.2-0.6-0.3-0.6l0.2-5.1c1.5-1.3,3.1-1.7,4.7-1.3c0.2,0,0.4,0.1,0.6,0.2
				c0.9,0.3,1.8,0.9,2.6,1.7c0.1,0.1,0.2,0.2,0.3,0.3C48.9,30,49,30,49,30.1c0.5,0.5,0.9,1.1,1.3,1.8c0.2,0.3,0.4,0.7,0.5,1.1
				C51.3,34.1,51.5,35.4,51.5,36.8z"/>
		</g>
		<g>
			<path class="st2" d="M40.7,39.3C40.7,39.3,40.7,39.3,40.7,39.3C40.7,39.3,40.7,39.3,40.7,39.3z"/>
			<path class="st2" d="M46.9,44.1c-0.2,0.1-0.4,0.2-0.7,0.4c0,0-0.1-0.1-0.1-0.1C46,44.1,46,43.9,46,43.6c0-0.2,0.1-0.4,0.2-0.5
				c0,0,0-0.1,0-0.1c0,0,0,0,0,0c0-0.1,0-0.2-0.1-0.3c-0.2-0.1-0.5-0.1-0.7-0.1c-0.5,0-1.1,0-1.3-0.5c-0.1-0.3-0.1-0.5-0.1-0.8
				c0-0.4-0.3-0.4-0.6-0.4c0,0,0,0,0,0c-0.2,0-0.5,0.1-0.6,0.1c-0.3,0-0.5,0-0.8-0.1c-0.1-0.1-0.3-0.1-0.4-0.2
				c-0.2-0.3-0.2-0.6-0.4-0.9c-0.1-0.2-0.3-0.2-0.5-0.3c0,0,0,0,0,0l0,0c-0.1,0-0.1,0-0.2,0c-0.1,0-0.2,0-0.3,0
				c0.1-0.2,0.2-0.3,0.3-0.5c0.2,0,0.3,0,0.5,0.1c0.3,0.1,0.5,0.2,0.6,0.5c0.1,0.1,0.1,0.3,0.2,0.4c0.2,0.6,0.6,0.5,1.1,0.4
				c0.5-0.1,1.1-0.1,1.4,0.3c0.2,0.2,0.2,0.5,0.2,0.8c0,0.4,0.2,0.5,0.6,0.5c0.2,0,0.4,0,0.7,0c0.2,0,0.5,0.1,0.7,0.2
				c0.2,0.2,0.4,0.4,0.4,0.7c0,0.2-0.1,0.4-0.1,0.6c0,0.1-0.2,0.3-0.1,0.5C46.7,44,46.8,44,46.9,44.1z"/>
			<g>
				<path class="st2" d="M48.8,40.7C48.8,40.7,48.8,40.7,48.8,40.7L48.8,40.7z"/>
				<path class="st2" d="M49.6,41.8c-0.1,0.2-0.3,0.3-0.4,0.5c-0.1,0-0.3-0.1-0.4-0.1c-0.1-0.1-0.2-0.2-0.3-0.4c0-0.3,0.3-0.7,0.2-1
					c0,0,0,0,0,0c0,0,0,0,0,0c0-0.1-0.1-0.1-0.2-0.2c-0.3-0.2-0.7-0.1-1-0.1c-0.3,0-0.6,0-0.8-0.1c-0.1-0.1-0.3-0.1-0.4-0.3
					c-0.1-0.1-0.2-0.3-0.3-0.4c0-0.1-0.1-0.3-0.1-0.4c-0.1-0.6-0.7-0.9-1.3-0.8c-0.6,0.1-1.2,0.4-1.8,0.1c-0.1-0.1-0.3-0.2-0.3-0.3
					c-0.2-0.4-0.2-0.7-0.7-0.9c-0.3-0.1-0.6,0-0.9,0.1c0-0.2,0-0.4,0-0.6c0.3-0.1,0.5-0.1,0.8-0.1c0.3,0,0.6,0.1,0.8,0.3
					c0.3,0.2,0.4,0.5,0.5,0.8c0,0,0,0.1,0,0.1c0,0,0,0,0,0c0,0,0,0,0,0c0.1,0.1,0.4,0.1,0.6,0c0.2,0,0.3-0.1,0.5-0.1
					c0.6-0.1,1.4-0.1,1.9,0.3c0.1,0.1,0.2,0.2,0.3,0.4c0.1,0.1,0.1,0.3,0.2,0.4c0,0.1,0.1,0.3,0.1,0.4c0,0,0,0,0,0.1c0,0,0,0,0,0
					c0.2,0.5,0.9,0.3,1.4,0.4c0.3,0,0.5,0.1,0.8,0.2c0.2,0.1,0.4,0.4,0.5,0.6c0,0.2,0,0.4-0.1,0.6c0,0.1-0.2,0.3-0.1,0.4
					C49.3,41.7,49.4,41.7,49.6,41.8C49.6,41.8,49.6,41.8,49.6,41.8z"/>
				<path class="st2" d="M43.5,38.1C43.5,38.1,43.5,38.1,43.5,38.1C43.5,38.1,43.5,38.1,43.5,38.1C43.5,38.1,43.5,38.1,43.5,38.1
					C43.5,38.1,43.5,38.1,43.5,38.1C43.4,38,43.5,38.1,43.5,38.1z"/>
			</g>
			<g>
				<path class="st2" d="M43.5,35.3C43.5,35.3,43.5,35.3,43.5,35.3C43.4,35.3,43.4,35.3,43.5,35.3C43.4,35.3,43.4,35.3,43.5,35.3z"
					/>
				<path class="st2" d="M51.5,36.8c0,0.2,0,0.5-0.1,0.7c0,0-0.1,0-0.1,0c-0.1,0-0.1,0.1-0.2,0.1c-0.2,0-0.3-0.2-0.4-0.4
					c-0.3-0.4-0.7-0.7-1.1-0.9c-0.4-0.2-0.8-0.1-1.1,0.1c-0.1,0.1-0.2,0.1-0.3,0.2c-0.2,0.1-0.5,0.2-0.7,0.2c-0.2,0-0.5,0-0.7-0.1
					c-0.2-0.1-0.4-0.4-0.4-0.6c-0.1-0.4-0.2-0.7-0.7-0.8c-0.8-0.1-1.5,0.6-2.3,0.6c-0.2,0-0.5-0.1-0.7-0.2c-0.1,0-0.2-0.1-0.3-0.2
					c-0.1-0.1-0.2-0.3-0.3-0.4c-0.1,0-0.1,0-0.2,0c-0.3,0.1-0.6,0.3-0.8,0.5c0-0.2-0.1-0.4-0.1-0.5c0.1-0.1,0.2-0.2,0.3-0.2
					c0.2-0.1,0.5-0.3,0.8-0.3c0.1,0,0.3,0,0.4,0.1c0.3,0.2,0.3,0.4,0.6,0.5c0.6,0.2,1.3-0.3,1.9-0.4c0.4-0.1,0.9-0.1,1.4,0.1
					c0.2,0.1,0.4,0.3,0.5,0.5c0.1,0.2,0.1,0.5,0.2,0.7c0.1,0.2,0.3,0.2,0.5,0.2c0.6-0.1,1-0.5,1.6-0.6c0.5,0,0.9,0.2,1.3,0.4
					c0.3,0.2,0.6,0.5,0.9,0.8C51.3,36.8,51.4,36.8,51.5,36.8z"/>
			</g>
			<g>
				<path class="st2" d="M41.7,33.5C41.7,33.5,41.6,33.5,41.7,33.5L41.7,33.5z"/>
				<path class="st2" d="M50.8,33c-0.2-0.1-0.3-0.2-0.5-0.3c-0.5-0.2-0.9-0.1-1.3,0.2c-0.2,0.2-0.4,0.3-0.7,0.4
					c-0.3,0.1-0.6,0.2-0.9,0.2c-0.3,0-0.5-0.2-0.7-0.4c-0.4-0.3-0.9-0.6-1.3-0.1c-0.2,0.2-0.4,0.5-0.7,0.7C44.6,33.8,44.3,34,44,34
					c-0.2,0-0.3,0-0.5-0.1c-0.5-0.2-0.7-0.7-1.3-0.6c-0.2,0-0.4,0.1-0.6,0.2c0,0,0,0,0,0c0,0,0,0,0,0c0,0,0,0,0,0
					c-0.4,0.3-0.7,0.8-1,1.2c-0.1-0.3-0.2-0.6-0.3-0.6l0,0c0.2-0.3,0.4-0.6,0.6-0.9c0.3-0.3,0.8-0.6,1.3-0.6c0.3,0,0.5,0,0.8,0.1
					c0.1,0.1,0.2,0.1,0.3,0.2c0.3,0.3,0.5,0.5,0.9,0.2c0.3-0.2,0.5-0.6,0.8-0.8c0.2-0.2,0.5-0.3,0.7-0.4c0.3,0,0.6,0,0.9,0.2
					c0.2,0.1,0.4,0.3,0.5,0.5c0.5,0.4,1.1-0.1,1.5-0.3c0.5-0.3,1-0.6,1.6-0.4C50.5,32.2,50.7,32.6,50.8,33z"/>
			</g>
			<path class="st2" d="M49,30.1c-0.4,0-0.9,0.1-1.2,0.5c-0.2,0.2-0.4,0.4-0.7,0.4c-0.4,0.1-0.8-0.1-1.2-0.3
				c-0.2-0.1-0.5-0.3-0.7-0.4c-0.3-0.1-0.5,0-0.7,0.3c-0.3,0.5-0.3,1.2-0.9,1.4c-0.6,0.3-1.1-0.3-1.8-0.2c-0.6,0-1,0.5-1.3,1l0-0.9
				c0,0,0.1-0.1,0.1-0.1c0.2-0.2,0.5-0.4,0.7-0.5c0.5-0.2,1,0,1.4,0.1c0.3,0.1,0.6,0,0.8-0.3c0.2-0.4,0.3-0.8,0.6-1.2
				c0.3-0.3,0.8-0.4,1.2-0.2c0.4,0.2,0.7,0.5,1.1,0.6c0.4,0.2,0.7-0.1,1-0.3c0.3-0.2,0.6-0.4,1-0.5c0,0,0,0,0,0L49,30.1z"/>
			<g>
				<path class="st2" d="M45.9,27.9c-0.1,0.1-0.2,0.3-0.3,0.5c-0.3,0.6-0.8,1-1.5,0.9c-1-0.1-2,0.3-2.5,1.3
					c-0.1,0.1-0.2,0.1-0.3,0.1c-0.1-0.1-0.1-0.2-0.1-0.3c0.3-0.6,0.8-1,1.3-1.3c0.3-0.1,0.5-0.2,0.8-0.3c0.4-0.1,0.8,0.1,1.1,0
					c0.3-0.1,0.5-0.4,0.6-0.6c0.1-0.1,0.1-0.3,0.2-0.4C45.5,27.8,45.7,27.8,45.9,27.9z"/>
				<path class="st2" d="M46.4,27.5C46.4,27.5,46.4,27.5,46.4,27.5C46.4,27.5,46.4,27.5,46.4,27.5z"/>
			</g>
		</g>
	</g>
	<g>
		<path class="st2" d="M38.5,39.3c-5.4,2.5-8.5,1.7-9.2-0.1c-0.1-0.2-0.1-0.4-0.1-0.6c0,0-0.1,0-0.3,0c-0.2,0-0.5,0-0.8,0
			c-0.3,0-0.6,0-1,0c-0.8,0-1.7-0.1-2.4-0.3c-1.6-0.6-4-9.4-4-9.4l9.8-2.9c0,0,6.7-4.7,10.3-0.7C44.3,29.4,44.4,36.4,38.5,39.3z"/>
		<g>
			<path class="st1" d="M30.5,35.4c-0.2,0.4-0.4,0.8-0.7,1.2c-0.4,0.7-1.6,1.9-2,2.1c-0.3,0-0.5,0-0.8,0c0.2-0.2,0.5-0.4,0.7-0.6
				c0.1-0.1,0.2-0.2,0.3-0.2c0.3-0.3,0.6-0.6,0.8-0.9c0.2-0.3,0.5-0.6,0.7-0.9c0.1-0.1,0.1-0.2,0.2-0.3c0.1-0.2,0.3-0.4,0.4-0.6
				c0.1-0.1,0.2-0.2,0.3-0.1C30.5,35.1,30.6,35.2,30.5,35.4z"/>
		</g>
		<path class="st2" d="M30.1,34.9c-2.5,4.3-4.5,4.8-5.9,5.1c-0.9,0.2-1.4-0.2-1.7-0.5c-0.2-0.2-0.3-0.4-0.3-0.4
			c-0.1,0.1-0.2,0.2-0.3,0.2c-1.1,0.6-1.9,0.5-2.4,0.3c-0.6-0.2-1.5-0.6,0.6-3c2.1-2.4,2.4-4.2,2.5-4.3L30.1,34.9z"/>
		<g>
			<path class="st1" d="M25,35.8c-0.2,0.4-0.5,0.7-0.9,1c-0.6,0.4-1.2,0.8-1.5,1.5c-0.2,0.4-0.2,0.9-0.1,1.3
				c-0.2-0.2-0.5-0.2-0.6-0.2c0-0.2,0-0.5,0-0.7c0.1-0.7,0.5-1.3,1-1.8c0.4-0.3,0.9-0.6,1.2-0.9c0.2-0.2,0.3-0.5,0.5-0.6
				c0.1,0,0.2,0,0.2,0C25,35.5,25.1,35.7,25,35.8z"/>
		</g>
		<g>
			<g>
				<path class="st1" d="M34.5,25.9c0.1-0.1,0.3-0.1,0.4-0.1c0,0,0,0-0.1,0c0.1,0,0.3,0,0.4-0.1c0.1,0,0.2-0.1,0.2-0.2
					c0-0.1,0-0.1-0.1-0.2c-0.1,0-0.1-0.1-0.2-0.1c-0.2,0-0.3,0-0.5,0.1c-0.1,0-0.3,0.1-0.4,0.1c-0.1,0-0.2,0.2-0.1,0.3
					C34.3,25.9,34.4,26,34.5,25.9L34.5,25.9z"/>
			</g>
			<g>
				<path class="st1" d="M36.3,24.9c0.2,0.1,0.4,0.2,0.6,0.3c0.1,0,0.1,0,0.2,0c0.1,0,0.1-0.1,0.1-0.1c0.1-0.1,0-0.3-0.1-0.3
					c-0.2-0.1-0.4-0.2-0.6-0.3c-0.1,0-0.1,0-0.2,0c-0.1,0-0.1,0.1-0.1,0.1C36.1,24.7,36.2,24.8,36.3,24.9L36.3,24.9z"/>
			</g>
			<g>
				<path class="st1" d="M38.1,25.2c0.2,0.2,0.3,0.3,0.5,0.5c0,0,0.1,0.1,0.2,0.1c0.1,0,0.1,0,0.2-0.1c0,0,0.1-0.1,0.1-0.2
					c0-0.1,0-0.1-0.1-0.2c-0.2-0.2-0.3-0.3-0.5-0.5c0,0-0.1-0.1-0.2-0.1c-0.1,0-0.1,0-0.2,0.1c0,0-0.1,0.1-0.1,0.2
					C38,25.1,38.1,25.1,38.1,25.2L38.1,25.2z"/>
			</g>
			<g>
				<path class="st1" d="M36.8,26.7c0.3,0.1,0.5,0.2,0.7,0.4c0,0,0,0-0.1,0c0,0,0,0,0.1,0c0.1,0,0.1,0.1,0.2,0.1
					c0.1,0,0.1,0,0.2-0.1c0,0,0.1-0.1,0.1-0.2c0-0.1,0-0.1-0.1-0.2c-0.3-0.2-0.5-0.3-0.9-0.5c-0.1-0.1-0.3,0-0.3,0.1
					C36.6,26.4,36.6,26.6,36.8,26.7L36.8,26.7z"/>
			</g>
			<g>
				<path class="st1" d="M39,27c0.1,0.1,0.1,0.2,0.2,0.4c0,0,0.1,0.1,0.1,0.1c0,0,0.1,0,0.2,0c0,0,0.1-0.1,0.1-0.1c0,0,0,0,0-0.1
					c0,0,0-0.1,0-0.1c-0.1-0.1-0.1-0.2-0.2-0.4c0,0-0.1-0.1-0.1-0.1c0,0-0.1,0-0.2,0c0,0-0.1,0.1-0.1,0.1c0,0,0,0,0,0.1
					C39,26.9,39,27,39,27L39,27z"/>
			</g>
			<g>
				<path class="st1" d="M40.1,26.3c0.1,0.2,0.2,0.4,0.3,0.6c0,0,0.1,0.1,0.1,0.1c0.1,0,0.1,0,0.2,0c0,0,0.1-0.1,0.1-0.1
					c0,0,0,0,0-0.1c0,0,0-0.1,0-0.1c-0.1-0.2-0.2-0.4-0.3-0.6c0,0-0.1-0.1-0.1-0.1c-0.1,0-0.1,0-0.2,0c0,0-0.1,0.1-0.1,0.1
					c0,0,0,0,0,0.1C40.1,26.2,40.1,26.3,40.1,26.3L40.1,26.3z"/>
			</g>
			<g>
				<path class="st1" d="M39.1,28.8c0.2,0.4,0.3,0.7,0.5,1.1c0.1,0.1,0.2,0.2,0.3,0.2c0.1,0,0.2-0.2,0.2-0.3
					c-0.2-0.4-0.3-0.7-0.5-1.1c-0.1-0.1-0.2-0.2-0.3-0.2C39.2,28.5,39.1,28.6,39.1,28.8L39.1,28.8z"/>
			</g>
			<g>
				<path class="st1" d="M40.7,29.3c0,0.2,0.1,0.4,0.1,0.6c0.1,0.2,0.1,0.4,0.2,0.5c0,0.1,0.2,0.1,0.3,0.1c0.1,0,0.2-0.2,0.1-0.3
					c-0.1-0.2-0.1-0.3-0.2-0.5c0-0.1,0-0.2-0.1-0.2c0,0.1,0,0,0,0c0,0,0,0,0-0.1c0,0,0-0.1,0-0.1c0-0.1-0.1-0.2-0.2-0.2
					C40.8,29.1,40.6,29.2,40.7,29.3L40.7,29.3z"/>
			</g>
			<g>
				<path class="st1" d="M41.3,28.1c0,0.1,0.1,0.3,0.1,0.4c0,0.1,0.1,0.3,0.2,0.4c0,0.1,0.2,0.2,0.3,0.1c0.1,0,0.2-0.2,0.1-0.3
					c0-0.1-0.1-0.3-0.1-0.4c0-0.1-0.1-0.3-0.1-0.4c0-0.1-0.2-0.2-0.3-0.2C41.3,27.8,41.3,28,41.3,28.1L41.3,28.1z"/>
			</g>
			<g>
				<path class="st1" d="M40.8,32.1c0.1,0.2,0.1,0.5,0.2,0.7c0,0.1,0.2,0.2,0.3,0.1c0.1,0,0.2-0.2,0.1-0.3c-0.1-0.2-0.1-0.5-0.2-0.7
					c0-0.1-0.2-0.2-0.3-0.1C40.8,31.8,40.7,32,40.8,32.1L40.8,32.1z"/>
			</g>
			<g>
				<path class="st1" d="M42.4,30.9c0,0.1,0,0.2,0.1,0.3c0,0,0,0.1,0,0.1c0,0,0,0,0.1,0.1c0,0,0.1,0,0.1,0c0,0,0.1,0,0.1,0
					c0.1,0,0.1-0.1,0.1-0.1c0,0,0,0,0-0.1c0,0,0-0.1,0-0.1c0-0.1,0-0.2-0.1-0.3c0,0,0-0.1,0-0.1c0,0,0,0-0.1-0.1c0,0-0.1,0-0.1,0
					c0,0-0.1,0-0.1,0c-0.1,0-0.1,0.1-0.1,0.1c0,0,0,0,0,0.1C42.3,30.8,42.3,30.8,42.4,30.9L42.4,30.9z"/>
			</g>
			<g>
				<path class="st1" d="M35.6,30.7c-0.1,0-0.2,0.1-0.3,0.1c-1.2,0.5-2.2,1.6-2.7,2.9c-0.2,0.6-0.3,1.2-0.2,1.9c0,0.4,0,0.9-0.3,1.3
					c-0.3,0.4-1,0.3-1.5,0.5c-0.5,0.2-0.9,0.5-1.1,0.9c-0.2,0.3-0.3,0.6-0.3,0.9c-0.1-0.2-0.3-0.6-0.5-0.6c0.1-0.4,0.4-0.9,0.7-1.2
					c0.4-0.3,0.8-0.6,1.3-0.7c0.3-0.1,0.8,0,0.9-0.3c0.1-0.2,0.1-0.4,0.1-0.5c0-0.2,0-0.4,0-0.6c0-0.4,0-0.9,0.1-1.3
					c0.2-0.9,0.7-1.7,1.3-2.4c0.3-0.3,0.6-0.6,1-0.9c0.4-0.2,0.8-0.5,1.2-0.6c0.2-0.1,0.3,0,0.4,0.2C35.8,30.5,35.7,30.7,35.6,30.7z
					"/>
			</g>
		</g>
	</g>
	<g>
		<path class="st1" d="M14.7,18.3c0.8-2.4,0.9-4.9,0.3-7.4c2,1.3,3.5,3.2,4.2,5.5L14.7,18.3z"/>
		<path class="st0" d="M5.2,29c0,0,4.4,3,8.5,2.2l-1-3.1l-0.8-1.1L5.2,29z"/>
		<path class="st2" d="M30,13.3c-4.8,2.9-11.3,1.1-15.9,4.7c-2.4,1.9-3.7,5.1-3.5,8.1c0.2,3.2,2.3,5.9,5.2,7.3
			c2.4,1.2,5.2,1.6,7.7,0.5c3-1.3,5.5-3.3,7.2-6.1c1.5-2.4,2.2-5.2,2.3-8c0.1-2.4-0.3-4.8-1.1-7L30,13.3z"/>
		<g>
			<path class="st0" d="M31.9,12.9L30,13.3c-0.1,0-0.1,0.1-0.2,0.1c-0.4,1.6-0.9,3.3-1.6,4.8c-1.1,2.5-2.7,4.9-5,6.4
				c-1.1,0.8-2.3,1.3-3.5,1.8c-1.3,0.6-2.6,1.1-3.9,1.7c1.1,0.6,2.3,0.9,3.5,1.1c-0.9,1-1.8,1.9-2.6,2.9c1.5,0,2.9,0,4.4-0.2
				c0,0-0.5,1.3-2.1,2.5c1.5,0.2,3,0.1,4.5-0.6c3-1.3,5.5-3.3,7.2-6.1c1.5-2.4,2.2-5.2,2.3-8C33.1,17.5,32.7,15.1,31.9,12.9z"/>
		</g>
		<path class="st3" d="M29.3,14.1c0.6,0.9,1.9,0.9,2.7,0.2c0.7-0.6,0.7-1.8,0-2.4c-0.8-0.6-2.5-0.2-2.9,0.8
			C28.9,13.3,29,13.7,29.3,14.1z"/>
		<path class="st4" d="M23.8,27.6c-0.1,0.4,0,0.8,0.3,1.2c0.6,0.8,1.8,0.9,2.6,0.3c0.8-0.5,1.2-1.9,0.4-2.6
			c-0.8-0.7-2.1-0.6-2.8,0.1C24,26.9,23.8,27.3,23.8,27.6z"/>
		<g>
			<path class="st3" d="M22.4,21c-0.1-0.3-0.3-0.6-0.5-0.9c-0.2-0.3-0.5-0.5-0.9-0.7c-0.1,0-0.1-0.1-0.2-0.1c-0.1-0.1-0.3,0-0.4,0.1
				c-0.1,0.1-0.1,0.3,0,0.4c0.3,0.2,0.6,0.4,0.8,0.6c0.4,0.3,0.8,1,0.5,1.5c-0.4,0.7-1.7,0.5-2.3,0.4c-0.1,0-0.2,0-0.3-0.1
				c0,0-0.1,0-0.1,0c-0.1,0-0.2,0.1-0.3,0.1c0,0.1,0,0.2,0.1,0.3c0.3,0.1,0.7,0.2,1.1,0.3c0.4,0,0.9,0,1.3-0.1
				c0.4-0.1,0.7-0.3,1-0.6C22.6,21.9,22.6,21.4,22.4,21z"/>
			<path class="st3" d="M21.5,22.2C21.5,22.2,21.5,22.2,21.5,22.2C21.5,22.2,21.5,22.2,21.5,22.2z"/>
		</g>
		<path class="st3" d="M23.5,16.6c-0.1-0.4-0.3-0.7-0.6-0.9c-0.3-0.3-0.7-0.5-1-0.6c-0.2,0-0.3,0.1-0.4,0.2c0,0.2,0.1,0.3,0.2,0.4
			c0.4,0.1,0.8,0.3,1.1,0.7c0.3,0.5-0.1,1-0.6,1.1c-0.3,0.1-0.5,0.1-0.8,0c-0.1,0-0.2,0-0.3,0c-0.1,0-0.2,0-0.2,0.2
			c0,0.1,0,0.2,0.2,0.2c0.4,0.1,0.8,0.2,1.1,0.1c0.4,0,0.7-0.2,1-0.4C23.4,17.3,23.6,17,23.5,16.6z"/>
		<g>
			<g>
				<path class="st1" d="M27,15.5c-0.2,0.1-0.3,0.2-0.5,0.3c-0.1,0.1-0.2,0.1-0.3,0.2c0,0-0.1,0.1-0.1,0.1c0,0-0.1,0,0,0
					c0,0,0,0-0.1,0c-0.1,0-0.2,0.2-0.1,0.3c0,0.1,0.2,0.2,0.3,0.1c0.2-0.1,0.4-0.2,0.6-0.3c0.2-0.1,0.4-0.2,0.5-0.4
					c0.1-0.1,0.1-0.2,0.1-0.3C27.2,15.5,27.1,15.4,27,15.5L27,15.5z"/>
			</g>
			<g>
				<path class="st1" d="M27,16.8c-0.2,0.2-0.4,0.4-0.6,0.6c-0.1,0.1-0.1,0.2,0,0.3c0.1,0.1,0.2,0.1,0.3,0c0.2-0.2,0.5-0.4,0.7-0.7
					c0,0,0.1-0.1,0.1-0.2c0-0.1,0-0.1-0.1-0.2c0,0-0.1-0.1-0.2-0.1C27.1,16.8,27,16.8,27,16.8L27,16.8z"/>
			</g>
			<g>
				<path class="st1" d="M26.2,19.3c-0.1,0.2-0.3,0.3-0.4,0.5c0,0-0.1,0.1-0.1,0.2c0,0.1,0,0.1,0.1,0.2c0,0,0.1,0.1,0.2,0.1
					c0.1,0,0.1,0,0.2-0.1c0.1-0.2,0.3-0.3,0.4-0.5c0,0,0.1-0.1,0.1-0.2c0-0.1,0-0.1-0.1-0.2c0,0-0.1-0.1-0.2-0.1
					C26.3,19.2,26.3,19.2,26.2,19.3L26.2,19.3z"/>
			</g>
			<g>
				<path class="st1" d="M25,17.7c-0.3,0.2-0.5,0.4-0.7,0.6c-0.1,0.1-0.1,0.3,0,0.3c0.1,0.1,0.3,0.1,0.3,0c0.1-0.1,0.2-0.2,0.4-0.3
					c0,0,0,0,0,0c0.1-0.1,0.2-0.2,0.3-0.2c0.1,0,0.1-0.1,0.1-0.2c0-0.1,0-0.1,0-0.2C25.3,17.7,25.2,17.6,25,17.7L25,17.7z"/>
			</g>
			<g>
				<path class="st1" d="M24.7,19.4c-0.3,0.1-0.6,0.3-0.9,0.4c0,0-0.1,0.1-0.1,0.1c0,0.1,0,0.1,0,0.1c0,0.1,0.2,0.1,0.3,0.1
					c0.3-0.1,0.5-0.2,0.8-0.3c0.1,0,0.1-0.1,0.1-0.1c0-0.1,0-0.1,0-0.2C25,19.4,24.9,19.3,24.7,19.4L24.7,19.4z"/>
			</g>
			<g>
				<path class="st1" d="M23.2,18.2c-0.4,0.1-0.7,0.2-1.1,0.4c-0.1,0.1-0.1,0.2-0.1,0.3c0,0.1,0.2,0.2,0.3,0.1
					c0.3-0.1,0.7-0.3,1-0.4c0.1,0,0.2-0.2,0.1-0.3C23.4,18.2,23.3,18.2,23.2,18.2L23.2,18.2z"/>
			</g>
			<g>
				<path class="st1" d="M24.2,21.2c-0.1,0.1-0.2,0.1-0.3,0.2c-0.1,0.1-0.2,0.2-0.3,0.2c0,0-0.1,0.1-0.1,0.2c0,0.1,0,0.1,0.1,0.1
					c0.1,0.1,0.2,0.1,0.3,0c0.1-0.1,0.2-0.1,0.3-0.2c0.1-0.1,0.2-0.1,0.3-0.2c0.1,0,0.1-0.1,0.1-0.2c0-0.1,0-0.1,0-0.2
					c0-0.1-0.1-0.1-0.2-0.1C24.4,21.1,24.3,21.1,24.2,21.2L24.2,21.2z"/>
			</g>
			<g>
				<path class="st1" d="M19.3,18c-0.3,0.1-0.6,0.2-0.9,0.2c-0.1,0-0.2,0.2-0.2,0.3c0.1,0.1,0.2,0.2,0.3,0.2
					c0.3-0.1,0.6-0.2,0.9-0.2c0.1,0,0.2-0.2,0.2-0.3C19.5,18.1,19.4,18,19.3,18L19.3,18z"/>
			</g>
			<g>
				<path class="st1" d="M18.5,19.6c-0.2,0-0.4,0.1-0.6,0.2c-0.1,0-0.1,0.1-0.1,0.1c0,0.1,0,0.1,0,0.2c0,0.1,0.1,0.1,0.1,0.1
					c0.1,0,0.1,0,0.2,0c0.2-0.1,0.4-0.1,0.6-0.2c0.1,0,0.1-0.1,0.1-0.1c0-0.1,0-0.1,0-0.2c0-0.1-0.1-0.1-0.1-0.1c0,0,0,0-0.1,0
					C18.6,19.6,18.6,19.6,18.5,19.6L18.5,19.6z"/>
			</g>
			<g>
				<path class="st1" d="M14.6,19.7c-0.3,0-0.5,0.1-0.7,0.2c-0.1,0-0.1,0.1-0.1,0.1c0,0.1,0,0.1,0,0.2c0,0.1,0.1,0.1,0.1,0.1
					c0.1,0,0.1,0,0.2,0c0.1,0,0.3-0.1,0.4-0.1c0,0,0,0-0.1,0c0.1,0,0.2,0,0.3,0c0.1,0,0.1,0,0.2-0.1c0,0,0.1-0.1,0.1-0.2
					C14.8,19.8,14.7,19.6,14.6,19.7L14.6,19.7z"/>
			</g>
			<g>
				<path class="st1" d="M14.6,21.3c-0.4,0.1-0.8,0.3-1.1,0.5c-0.1,0.1-0.1,0.2-0.1,0.3c0.1,0.1,0.2,0.1,0.3,0.1c0,0,0,0,0,0
					c0,0,0,0,0.1,0c0,0,0,0,0.1,0c0,0,0.1,0,0.1-0.1c0.1,0,0.2-0.1,0.3-0.1c0,0,0,0,0,0c0,0,0,0,0,0c0,0,0,0,0.1,0
					c0,0,0.1,0,0.1-0.1c0.1,0,0.2-0.1,0.3-0.1c0.1,0,0.2-0.2,0.1-0.3C14.8,21.3,14.7,21.2,14.6,21.3L14.6,21.3z"/>
			</g>
			<g>
				<path class="st1" d="M16,22.3c-0.2,0.1-0.4,0.2-0.5,0.4c0,0-0.1,0.1-0.1,0.2c0,0.1,0,0.1,0.1,0.2c0.1,0,0.1,0.1,0.2,0.1
					c0.1,0,0.1,0,0.2-0.1c0,0,0.1-0.1,0.1-0.1c0,0,0,0,0,0c0.1-0.1,0.2-0.2,0.3-0.2c0.1,0,0.1-0.1,0.1-0.2c0-0.1,0-0.1,0-0.2
					c0-0.1-0.1-0.1-0.2-0.1c0,0,0,0-0.1,0C16,22.3,16,22.3,16,22.3L16,22.3z"/>
			</g>
			<g>
				<path class="st1" d="M17,19.4c-0.4,0.1-0.8,0.2-1.1,0.5c-0.1,0.1-0.1,0.2-0.1,0.3c0,0.1,0.2,0.2,0.3,0.1c0.3-0.1,0.7-0.3,1-0.4
					c0.1,0,0.2-0.2,0.2-0.3C17.3,19.4,17.2,19.3,17,19.4L17,19.4z"/>
			</g>
			<g>
				<path class="st1" d="M17.9,21.1c-0.2,0.1-0.3,0.2-0.5,0.3c-0.1,0-0.1,0.1-0.1,0.2c0,0.1,0,0.2,0,0.2c0,0.1,0.1,0.1,0.2,0.1
					c0,0,0,0,0.1,0c0,0,0.1,0,0.1,0c0.2-0.1,0.3-0.2,0.5-0.3c0.1,0,0.1-0.1,0.1-0.2c0-0.1,0-0.2,0-0.2c0-0.1-0.1-0.1-0.2-0.1
					C18,21.1,18,21.1,17.9,21.1L17.9,21.1z"/>
			</g>
			<g>
				<path class="st1" d="M18.1,23.9c-0.3,0.2-0.6,0.3-0.8,0.5c-0.1,0.1-0.1,0.2-0.1,0.4c0,0.1,0.1,0.1,0.2,0.1c0.1,0,0.1,0,0.2,0
					c0.3-0.1,0.6-0.3,0.9-0.5c0.1,0,0.1-0.1,0.1-0.2c0-0.1,0-0.1,0-0.2c0-0.1-0.1-0.1-0.2-0.1C18.2,23.8,18.1,23.8,18.1,23.9
					L18.1,23.9z"/>
			</g>
			<g>
				<path class="st1" d="M13.6,23.3c-0.1,0.1-0.3,0.1-0.4,0.2c-0.1,0.1-0.1,0.1-0.2,0.2c-0.1,0.1-0.1,0.1-0.2,0.2c0,0,0,0.1,0,0.2
					c0,0,0,0.1,0.1,0.1c0.1,0.1,0.2,0.1,0.3,0c0.1-0.1,0.2-0.2,0.2-0.3c0,0,0,0,0,0c0.1-0.1,0.2-0.2,0.3-0.2c0,0,0,0-0.1,0
					c0,0,0,0,0,0c0.1,0,0.1-0.1,0.1-0.1c0-0.1,0-0.1,0-0.2c0-0.1-0.1-0.1-0.1-0.1C13.7,23.2,13.6,23.2,13.6,23.3L13.6,23.3z"/>
			</g>
			<g>
				<path class="st1" d="M14.4,25.2c-0.2,0.1-0.3,0.3-0.5,0.4c-0.1,0-0.1,0.1-0.1,0.2c0,0.1,0,0.1,0,0.2c0,0,0.1,0.1,0.2,0.1
					c0.1,0,0.1,0,0.2,0c0.2-0.1,0.3-0.3,0.5-0.4c0.1,0,0.1-0.1,0.1-0.2c0-0.1,0-0.1,0-0.2c0,0-0.1-0.1-0.2-0.1
					C14.5,25.2,14.4,25.2,14.4,25.2L14.4,25.2z"/>
			</g>
		</g>
		<g>
			<path class="st3" d="M30.5,17.1C30.5,17.1,30.5,17.1,30.5,17.1L30.5,17.1z"/>
			<path class="st3" d="M32.5,16.3c-0.1,0-0.3,0-0.4,0.1c-0.1,0.3-0.2,0.6-0.4,0.8c-0.1,0.1-0.2,0.1-0.3,0.1c-0.3,0-0.6,0-0.9-0.2
				c0,0,0,0,0,0c0,0-0.1-0.1-0.1-0.1c-0.1-0.1-0.3-0.1-0.4,0c-0.1,0.1-0.1,0.3,0,0.4c0.3,0.3,0.8,0.5,1.3,0.5c0.2,0,0.5-0.1,0.7-0.2
				c0.2-0.1,0.3-0.3,0.4-0.5c0.1-0.2,0.2-0.4,0.2-0.6C32.7,16.5,32.6,16.3,32.5,16.3z M30.5,17.1C30.5,17.1,30.5,17.1,30.5,17.1
				L30.5,17.1z"/>
		</g>
		<g>
			<path class="st3" d="M30.9,14.7c0,0.2,0.3,2.4,0.4,2.6c0,0.1,0,0.2,0.1,0.2c0.1,0.1,0.1,0.1,0.2,0.1c0.2,0,0.3-0.2,0.3-0.3
				c0-0.2-0.4-2.2-0.5-2.7c0-0.1-0.2-0.2-0.3-0.2C30.9,14.4,30.8,14.6,30.9,14.7L30.9,14.7z"/>
		</g>
		<path class="st2" d="M11.9,24.2c-0.3,0.6-4,3.3-6.7,4.7c0.6,0.1,2.4,0.5,5.4,0c0.7-0.1,1.4-0.5,2-0.9L11.9,24.2z"/>
	</g>
</g>
</svg>
