<?xml version="1.0" encoding="utf-8"?>
<!-- Generator: Adobe Illustrator 27.3.1, SVG Export Plug-In . SVG Version: 6.00 Build 0)  -->
<svg version="1.1" id="Layer_1" xmlns="http://www.w3.org/2000/svg" xmlns:xlink="http://www.w3.org/1999/xlink" x="0px" y="0px"
	 viewBox="0 0 56.69 56.69" style="enable-background:new 0 0 56.69 56.69;" xml:space="preserve">
<style type="text/css">
	.st0{fill:#C6C8D1;}
	.st1{fill:#FFE9C7;}
	.st2{fill:#D9B48B;}
	.st3{fill:#A7D9D1;}
	.st4{fill:#61B3A6;}
	.st5{fill:#D8DAE3;}
	.st6{fill:#EBD6B7;}
	.st7{fill:#549C90;}
</style>
<g>
	<path class="st0" d="M41.16,38.94c-0.86-6.32-2.24-12.59-4.17-18.66c-0.53-1.67-1.12-3.33-1.76-4.97c-0.6-1.53-1.16-3.15-2.06-4.53
		c-0.66-1-1.58-2.17-2.83-2.4c-1.23-0.23-2.24,0.54-2.96,1.47c-0.8,1.03-1.46,2.18-2.1,3.31c-1.33,2.35-2.44,4.81-3.37,7.34
		c-0.93,2.51-1.67,5.09-2.25,7.71c-0.64,2.85-1.1,5.75-1.42,8.66c-0.33,2.92-0.54,5.86-0.62,8.8c-0.02,0.71-0.02,1.42-0.03,2.13
		c0,0.1,0.04,0.17,0.1,0.22c0.05,0.04,0.11,0.07,0.2,0.07c0.79-0.01,1.58-0.01,2.36-0.02c1.89-0.02,20.33-0.14,21.28-0.17
		c0.01,0,0.03,0,0.04,0c0.22,0,0.43-0.19,0.42-0.42C41.81,44.62,41.55,41.78,41.16,38.94z"/>
	<g>
		<path class="st1" d="M53.31,47.78c-0.01-0.03-0.01-0.06-0.02-0.08c0,0,0-0.02,0-0.02c0-0.01,0-0.02-0.01-0.03
			c0-0.02-0.01-0.04-0.01-0.06c-0.01-0.05-0.16-0.78-0.23-1.09c-0.68-3.11-1.41-6.26-2.21-9.37c-0.41,0.24-0.75,0.61-1.12,0.92
			c-0.46,0.38-1.1,0.68-1.65,0.43c-0.39-0.18-0.62-0.58-0.99-0.8c-0.68-0.4-1.53-0.03-2.22,0.35c-0.69,0.38-1.51,0.78-2.22,0.44
			c-0.46-0.22-0.73-0.71-1.02-1.13c-0.29-0.42-0.71-0.84-1.22-0.82c-0.35,0.02-0.65,0.23-0.94,0.42c-0.64,0.41-1.35,0.71-2.09,0.9
			c-1.37,5.12-2.51,9.84-2.59,10.19c-0.02,0.08,0,0.15,0.03,0.2c0.04,0.07,0.24,0.13,0.25,0.13c0,0,17.61-0.08,17.84-0.08
			c0.01,0,0.02,0,0.03,0C53.21,48.27,53.36,48.02,53.31,47.78z"/>
		<path class="st2" d="M40.4,36.51c0.51-0.02,0.93,0.4,1.22,0.82c0.29,0.42,0.56,0.91,1.02,1.13c0.71,0.34,1.53-0.06,2.22-0.44
			c0.69-0.38,1.54-0.75,2.22-0.35c0.37,0.21,0.6,0.62,0.99,0.8c0.55,0.25,1.19-0.05,1.65-0.43c0.37-0.31,0.71-0.68,1.12-0.92
			c-0.31-1.19-0.62-2.38-0.95-3.56c-0.88-3.16-1.75-6.38-3.08-9.38c-0.49-1.11-1.17-2.67-2.44-3.06c-1.4-0.43-2.18,1.2-2.64,2.22
			c-0.98,2.2-2.83,8.73-4.37,14.49c0.74-0.18,1.45-0.48,2.09-0.9C39.75,36.75,40.06,36.53,40.4,36.51z"/>
	</g>
	<g>
		<path class="st3" d="M10.05,28.84c0.27-0.25,0.64-0.52,0.97-0.36c0.17,0.08,0.26,0.26,0.35,0.42c0.38,0.72,0.77,1.43,1.15,2.15
			c0.1,0.19,0.22,0.39,0.43,0.45c0.27,0.08,0.53-0.15,0.72-0.35c0.55-0.61,1.05-1.26,1.48-1.96c0.12-0.19,0.25-0.39,0.46-0.45
			c0.36-0.1,0.65,0.28,0.86,0.59c0.35,0.53,0.75,1.03,1.2,1.48c0.11,0.11,0.24,0.23,0.39,0.26c0.37,0.08,0.65-0.32,0.81-0.67
			c0.3-0.65,0.57-1.31,0.82-1.98c-0.4-1.19-0.83-2.36-1.31-3.5c-0.43-1.03-0.91-2.09-1.64-2.94c-0.76-0.89-1.89-1.77-3.12-1.73
			c-0.67,0.02-1.25,0.34-1.72,0.8c-1.19,1.17-1.85,2.74-2.51,4.25c-0.91,2.1-1.67,4.29-2.34,6.51C8.04,30.8,9.03,29.81,10.05,28.84z
			"/>
		<path class="st4" d="M24.39,47.63c-0.25-1.04-0.47-2.08-0.7-3.12c-1.16-5.33-2.23-10.86-3.98-16.08
			c-0.24,0.67-0.52,1.33-0.82,1.98c-0.16,0.35-0.44,0.75-0.81,0.67c-0.16-0.03-0.28-0.15-0.39-0.26c-0.45-0.45-0.85-0.95-1.2-1.48
			c-0.2-0.31-0.5-0.68-0.86-0.59c-0.21,0.06-0.35,0.26-0.46,0.45c-0.43,0.7-0.93,1.35-1.48,1.96c-0.19,0.21-0.45,0.43-0.72,0.35
			c-0.2-0.06-0.33-0.26-0.43-0.45c-0.38-0.72-0.77-1.43-1.15-2.15c-0.09-0.16-0.19-0.34-0.35-0.42c-0.33-0.17-0.7,0.1-0.97,0.36
			c-1.02,0.96-2.02,1.96-2.98,2.97c-0.61,2.02-1.15,4.06-1.67,6.08c-0.68,2.67-1.27,5.35-1.73,8.07c-0.11,0.64-0.2,1.29-0.3,1.94
			c-0.01,0.04-0.01,0.09,0,0.13c0,0,0,0.01,0,0.01c0,0.01,0,0.02,0.01,0.03c0.03,0.1,0.11,0.18,0.23,0.19c0.01,0,0.01,0,0.02,0
			c0.18,0,0.36,0,0.55,0c0.49,0,18.97-0.1,18.97-0.1c0.26,0,0.53,0,0.79-0.01c0.01,0,0.02,0,0.03,0
			C24.26,48.15,24.46,47.89,24.39,47.63z"/>
	</g>
	<g>
		<g>
			<path class="st5" d="M22.64,24.93c-0.07,0.56-0.14,1.12-0.19,1.68c-0.01,0.13,0.11,0.25,0.24,0.27c0.12,0.02,0.28-0.06,0.3-0.2
				c0.1-0.58,0.17-1.17,0.25-1.75c0.02-0.15-0.15-0.3-0.3-0.3C22.76,24.64,22.66,24.76,22.64,24.93L22.64,24.93z"/>
		</g>
		<g>
			<path class="st5" d="M24.94,21.17c-0.1,0.56-0.2,1.12-0.29,1.68c-0.02,0.16,0.04,0.34,0.22,0.38c0.16,0.04,0.35-0.05,0.38-0.22
				c0.12-0.56,0.22-1.11,0.33-1.67c0.03-0.17-0.05-0.36-0.23-0.41C25.18,20.9,24.97,20.99,24.94,21.17L24.94,21.17z"/>
		</g>
		<g>
			<path class="st5" d="M27.57,18.11c0,0.66,0,1.33,0.01,1.99c0,0.15,0.13,0.3,0.29,0.29c0.16-0.01,0.29-0.13,0.29-0.29
				c0.01-0.66,0.01-1.33,0.01-1.99c0-0.16-0.14-0.31-0.31-0.31C27.71,17.81,27.57,17.94,27.57,18.11L27.57,18.11z"/>
		</g>
		<g>
			<path class="st5" d="M25.79,16.88c-0.17,0.52-0.35,1.05-0.51,1.58c-0.04,0.15,0.05,0.32,0.2,0.36c0.17,0.04,0.3-0.05,0.36-0.2
				c0.2-0.52,0.37-1.04,0.54-1.57c0.05-0.15-0.06-0.35-0.22-0.38C26.01,16.62,25.85,16.71,25.79,16.88L25.79,16.88z"/>
		</g>
		<g>
			<path class="st5" d="M29.13,11.84c-0.1,0.58-0.14,1.17-0.11,1.77c0.01,0.17,0.14,0.34,0.33,0.33c0.17-0.01,0.34-0.14,0.33-0.33
				c-0.01-0.28-0.01-0.55,0.01-0.83c0.01-0.13,0.02-0.26,0.04-0.4c0-0.02,0-0.04,0.01-0.06c0-0.04,0.01-0.04,0-0.02
				c0,0.02,0,0.02,0-0.02c0-0.02,0.01-0.04,0.01-0.06c0.01-0.07,0.02-0.14,0.04-0.21c0.03-0.17-0.05-0.37-0.23-0.41
				C29.38,11.57,29.16,11.65,29.13,11.84L29.13,11.84z"/>
		</g>
		<g>
			<path class="st5" d="M31.96,12.54c0.07,0.31,0.14,0.63,0.21,0.94c0.04,0.17,0.24,0.29,0.41,0.23c0.18-0.06,0.27-0.23,0.23-0.41
				c-0.07-0.31-0.14-0.63-0.21-0.94c-0.04-0.17-0.24-0.29-0.41-0.23C32.01,12.19,31.92,12.36,31.96,12.54L31.96,12.54z"/>
		</g>
		<g>
			<path class="st5" d="M27.33,13.08c0.03,0.4,0.03,0.8,0.02,1.19c-0.01,0.19-0.02,0.39-0.03,0.58c-0.01,0.1-0.02,0.2-0.03,0.3
				c0,0.05-0.01,0.09-0.02,0.14c0,0.03-0.01,0.05-0.01,0.08c0,0.01-0.01,0.1,0,0.04c-0.01,0.09-0.01,0.16,0.03,0.24
				c0.04,0.06,0.11,0.13,0.19,0.14c0.15,0.03,0.35-0.05,0.38-0.22c0.14-0.83,0.19-1.66,0.14-2.49c-0.01-0.17-0.14-0.34-0.33-0.33
				C27.5,12.76,27.32,12.89,27.33,13.08L27.33,13.08z"/>
		</g>
		<g>
			<path class="st5" d="M31.83,18.64c0.04,0.84,0.08,1.68,0.13,2.52c0.01,0.16,0.14,0.32,0.32,0.32c0.17-0.01,0.32-0.14,0.32-0.32
				c-0.02-0.84-0.06-1.68-0.1-2.52c-0.01-0.17-0.15-0.34-0.33-0.33C31.99,18.31,31.82,18.45,31.83,18.64L31.83,18.64z"/>
		</g>
		<g>
			<path class="st5" d="M34.19,16.62c0.03,0.24,0.07,0.49,0.1,0.73c0.01,0.07,0.08,0.15,0.14,0.18c0.06,0.04,0.16,0.05,0.23,0.03
				c0.07-0.02,0.14-0.07,0.18-0.14c0.01-0.02,0.02-0.05,0.03-0.07c0.01-0.05,0.01-0.11,0-0.16c-0.03-0.24-0.07-0.49-0.1-0.73
				c-0.01-0.07-0.08-0.15-0.14-0.18c-0.06-0.04-0.16-0.05-0.23-0.03c-0.07,0.02-0.14,0.07-0.18,0.14c-0.01,0.02-0.02,0.05-0.03,0.07
				C34.18,16.51,34.18,16.57,34.19,16.62L34.19,16.62z"/>
		</g>
		<g>
			<path class="st5" d="M30.08,16.12c0.03,0.35,0.07,0.7,0.1,1.05c0.01,0.09,0.03,0.16,0.09,0.22c0.05,0.05,0.14,0.1,0.22,0.09
				c0.16-0.01,0.33-0.14,0.32-0.32c-0.04-0.35-0.07-0.7-0.11-1.05c-0.01-0.09-0.03-0.16-0.09-0.22c-0.05-0.05-0.14-0.1-0.22-0.09
				C30.24,15.82,30.06,15.95,30.08,16.12L30.08,16.12z"/>
		</g>
		<g>
			<path class="st5" d="M31,24.82c0.04,0.66,0.07,1.33,0.11,1.99c0.01,0.17,0.15,0.34,0.33,0.33c0.17-0.01,0.34-0.15,0.33-0.33
				c-0.03-0.66-0.07-1.33-0.1-1.99c-0.01-0.17-0.15-0.34-0.33-0.33C31.16,24.5,30.99,24.64,31,24.82L31,24.82z"/>
		</g>
		<g>
			<path class="st5" d="M28.41,25.45c0,0.28,0,0.56,0,0.84c0,0.16,0.14,0.31,0.3,0.3c0.16-0.01,0.31-0.13,0.3-0.3
				c0-0.28,0-0.56,0-0.84c0-0.16-0.14-0.31-0.3-0.3C28.55,25.16,28.41,25.28,28.41,25.45L28.41,25.45z"/>
		</g>
		<g>
			<path class="st5" d="M26.32,24.62c-0.07,1.01-0.14,2.03-0.21,3.04c-0.01,0.16,0.15,0.32,0.32,0.32c0.18-0.01,0.3-0.14,0.32-0.32
				c0.07-1.01,0.14-2.03,0.2-3.04c0.01-0.16-0.15-0.32-0.31-0.31C26.45,24.31,26.33,24.44,26.32,24.62L26.32,24.62z"/>
		</g>
		<g>
			<path class="st5" d="M30.18,21.26c0,0.24,0,0.49,0,0.73c0,0.08,0.04,0.17,0.09,0.23c0.06,0.06,0.15,0.1,0.23,0.09
				c0.17-0.01,0.32-0.14,0.32-0.32c0-0.24,0-0.49,0-0.73c0-0.08-0.04-0.17-0.09-0.23c-0.06-0.06-0.15-0.1-0.23-0.09
				C30.32,20.95,30.18,21.08,30.18,21.26L30.18,21.26z"/>
		</g>
		<g>
			<path class="st5" d="M34.67,22.19c0.1,0.66,0.2,1.33,0.32,1.99c0.03,0.16,0.21,0.25,0.35,0.23c0.14-0.02,0.3-0.16,0.28-0.31
				c-0.09-0.7-0.19-1.39-0.3-2.08c-0.03-0.18-0.26-0.29-0.41-0.24C34.72,21.84,34.64,22,34.67,22.19L34.67,22.19z"/>
		</g>
		<g>
			<path class="st5" d="M35.43,19.14c0.07,0.17,0.14,0.35,0.21,0.52c0.01,0.04,0.03,0.08,0.06,0.11c0.02,0.04,0.05,0.06,0.09,0.08
				c0.07,0.04,0.17,0.06,0.25,0.03c0.08-0.03,0.16-0.07,0.2-0.15c0.04-0.07,0.06-0.17,0.03-0.25c-0.07-0.17-0.14-0.35-0.21-0.52
				c-0.01-0.04-0.03-0.08-0.06-0.11c-0.02-0.04-0.05-0.06-0.09-0.08c-0.07-0.04-0.17-0.06-0.25-0.03c-0.08,0.03-0.16,0.07-0.2,0.15
				C35.42,18.97,35.39,19.06,35.43,19.14L35.43,19.14z"/>
		</g>
		<g>
			<path class="st5" d="M36.89,25.86c0.03,0.24,0.07,0.49,0.1,0.73c0.01,0.08,0.09,0.16,0.15,0.2c0.07,0.04,0.17,0.06,0.25,0.03
				c0.08-0.03,0.16-0.08,0.2-0.15c0.01-0.03,0.02-0.05,0.03-0.08c0.02-0.06,0.02-0.12,0-0.17c-0.03-0.24-0.07-0.49-0.1-0.73
				c-0.01-0.08-0.09-0.16-0.15-0.2c-0.07-0.04-0.17-0.06-0.25-0.03c-0.08,0.03-0.16,0.08-0.2,0.15c-0.01,0.03-0.02,0.05-0.03,0.08
				C36.88,25.74,36.88,25.8,36.89,25.86L36.89,25.86z"/>
		</g>
		<g>
			<path class="st5" d="M34.29,27.42c0.1,0.45,0.21,0.91,0.31,1.36c0.04,0.16,0.22,0.26,0.37,0.21c0.16-0.05,0.25-0.21,0.21-0.37
				c-0.11-0.45-0.21-0.91-0.32-1.36c-0.04-0.15-0.22-0.26-0.37-0.21C34.34,27.1,34.26,27.26,34.29,27.42L34.29,27.42z"/>
		</g>
		<g>
			<path class="st5" d="M32.38,33.09c0.05,0.35,0.11,0.7,0.16,1.05c0.05,0.35,0.12,0.69,0.18,1.04c0.03,0.15,0.2,0.24,0.34,0.22
				c0.14-0.02,0.28-0.15,0.27-0.3c-0.04-0.37-0.09-0.75-0.14-1.12c-0.05-0.35-0.11-0.71-0.16-1.06c-0.03-0.17-0.25-0.28-0.41-0.23
				C32.42,32.75,32.35,32.91,32.38,33.09L32.38,33.09z"/>
		</g>
		<g>
			<path class="st5" d="M29.65,30.7c0.03,0.56,0.07,1.12,0.1,1.68c0.01,0.17,0.14,0.34,0.33,0.33c0.17-0.01,0.34-0.14,0.33-0.33
				c-0.04-0.56-0.07-1.12-0.11-1.68c-0.01-0.17-0.14-0.33-0.32-0.32C29.81,30.38,29.64,30.52,29.65,30.7L29.65,30.7z"/>
		</g>
		<g>
			<path class="st5" d="M24.3,29.54c0,0.45,0,0.91,0,1.36c0,0.17,0.15,0.33,0.32,0.32c0.17-0.01,0.32-0.14,0.32-0.32
				c0-0.45,0-0.91,0-1.36c0-0.17-0.15-0.33-0.32-0.32C24.45,29.23,24.31,29.36,24.3,29.54L24.3,29.54z"/>
		</g>
		<g>
			<path class="st5" d="M27.32,32.37c0,0.52,0,1.05,0.02,1.57c0.01,0.17,0.15,0.33,0.33,0.33c0.18-0.01,0.32-0.14,0.33-0.33
				c0.02-0.52,0.02-1.05,0.02-1.57c0-0.18-0.16-0.35-0.34-0.34C27.48,32.04,27.32,32.18,27.32,32.37L27.32,32.37z"/>
		</g>
		<g>
			<path class="st5" d="M25.24,35.21c-0.04,0.56-0.08,1.12-0.1,1.68c-0.01,0.16,0.15,0.32,0.32,0.32c0.18-0.01,0.3-0.14,0.32-0.32
				c0.05-0.56,0.09-1.12,0.13-1.68c0.01-0.17-0.16-0.34-0.33-0.33C25.38,34.89,25.26,35.02,25.24,35.21L25.24,35.21z"/>
		</g>
		<g>
			<path class="st5" d="M30.69,35.63c0,0.49,0,0.98,0,1.47c0,0.17,0.15,0.34,0.33,0.33c0.18-0.01,0.33-0.15,0.33-0.33
				c0-0.49,0-0.98,0-1.47c0-0.18-0.15-0.34-0.34-0.34C30.84,35.3,30.69,35.44,30.69,35.63L30.69,35.63z"/>
		</g>
		<g>
			<path class="st5" d="M28.72,38.35c0.04,0.41,0.08,0.82,0.14,1.23c0.01,0.06,0.08,0.14,0.13,0.17c0.06,0.03,0.12,0.04,0.18,0.03
				c0.14-0.02,0.25-0.14,0.25-0.28c-0.01-0.39-0.04-0.77-0.08-1.15c-0.01-0.09-0.03-0.16-0.09-0.22c-0.05-0.05-0.14-0.1-0.22-0.09
				C28.88,38.04,28.71,38.18,28.72,38.35L28.72,38.35z"/>
		</g>
		<g>
			<path class="st5" d="M33,38.77c0.07,0.62,0.12,1.25,0.24,1.86c0.03,0.14,0.18,0.22,0.32,0.21c0.14-0.02,0.25-0.14,0.25-0.28
				c-0.02-0.6-0.1-1.19-0.17-1.78c-0.02-0.16-0.13-0.33-0.32-0.32C33.16,38.46,32.98,38.6,33,38.77L33,38.77z"/>
		</g>
		<g>
			<path class="st5" d="M35.65,31.09c0.07,0.45,0.14,0.91,0.21,1.36c0.02,0.16,0.23,0.26,0.38,0.22c0.17-0.06,0.24-0.21,0.22-0.38
				c-0.07-0.45-0.14-0.91-0.21-1.36c-0.02-0.16-0.23-0.26-0.38-0.22C35.69,30.77,35.63,30.92,35.65,31.09L35.65,31.09z"/>
		</g>
		<g>
			<path class="st5" d="M37.73,29.42c0.07,0.35,0.13,0.7,0.2,1.05c0.03,0.16,0.23,0.27,0.39,0.22c0.17-0.06,0.25-0.21,0.22-0.39
				c-0.07-0.35-0.13-0.7-0.2-1.05c-0.03-0.16-0.24-0.27-0.39-0.22C37.78,29.09,37.7,29.24,37.73,29.42L37.73,29.42z"/>
		</g>
		<g>
			<path class="st5" d="M30.5,42.55c0,0.87-0.01,1.75,0,2.62c0,0.17,0.14,0.32,0.32,0.32c0.17-0.01,0.31-0.14,0.32-0.32
				c0.01-0.87,0-1.75,0-2.62c0-0.17-0.15-0.32-0.32-0.32C30.64,42.24,30.5,42.37,30.5,42.55L30.5,42.55z"/>
		</g>
		<g>
			<path class="st5" d="M33.62,43.18c0,0.38,0,0.77,0,1.15c0,0.18,0.15,0.34,0.34,0.34c0.18-0.01,0.34-0.15,0.34-0.34
				c0-0.38,0-0.77,0-1.15c0-0.18-0.15-0.34-0.34-0.34C33.78,42.85,33.62,42.99,33.62,43.18L33.62,43.18z"/>
		</g>
		<g>
			<path class="st5" d="M26.3,40.87c0.04,0.52,0.08,1.05,0.13,1.57c0.02,0.16,0.13,0.31,0.3,0.3c0.16-0.01,0.31-0.13,0.3-0.3
				c-0.02-0.52-0.06-1.05-0.1-1.57c-0.01-0.17-0.14-0.33-0.32-0.32C26.46,40.56,26.29,40.69,26.3,40.87L26.3,40.87z"/>
		</g>
		<g>
			<path class="st5" d="M28.81,44.33c0,0.45,0,0.91,0.02,1.36c0.01,0.16,0.13,0.31,0.3,0.3c0.17-0.01,0.3-0.13,0.3-0.3
				c0.02-0.45,0.02-0.91,0.02-1.36c0-0.17-0.15-0.33-0.33-0.33C28.96,44.01,28.81,44.15,28.81,44.33L28.81,44.33z"/>
		</g>
		<g>
			<path class="st5" d="M25.27,44.94c0.03,0.1,0.05,0.2,0.07,0.3c0,0.02,0.01,0.05,0.01,0.07c0,0.02,0,0.03,0.01,0.05
				c-0.01-0.04-0.01-0.05,0-0.02c0.01,0.05,0.01,0.1,0.02,0.16c0.02,0.21,0.01,0.42-0.01,0.62c-0.01,0.07,0.04,0.17,0.09,0.22
				c0.05,0.05,0.14,0.1,0.22,0.09c0.18-0.01,0.29-0.14,0.31-0.31c0.05-0.45,0.01-0.91-0.11-1.34c-0.04-0.16-0.23-0.27-0.39-0.22
				C25.33,44.6,25.23,44.77,25.27,44.94L25.27,44.94z"/>
		</g>
		<g>
			<path class="st5" d="M24.11,38.88c0,0.42,0,0.84,0,1.26c0,0.16,0.14,0.31,0.31,0.31c0.17-0.01,0.31-0.13,0.31-0.31
				c0-0.42,0-0.84,0-1.26c0-0.16-0.14-0.31-0.3-0.3C24.25,38.58,24.11,38.71,24.11,38.88L24.11,38.88z"/>
		</g>
		<g>
			<path class="st5" d="M23.28,33.42c-0.03,0.38-0.07,0.77-0.09,1.15c-0.01,0.13,0.11,0.25,0.23,0.26c0.12,0.02,0.27-0.06,0.29-0.19
				c0.06-0.41,0.09-0.82,0.13-1.22c0.01-0.15-0.14-0.29-0.29-0.29C23.4,33.14,23.3,33.26,23.28,33.42L23.28,33.42z"/>
		</g>
		<g>
			<path class="st5" d="M21.6,28.92c-0.03,0.35-0.07,0.7-0.1,1.05c-0.01,0.07,0.04,0.17,0.09,0.22c0.05,0.05,0.14,0.09,0.22,0.09
				c0.08,0,0.16-0.03,0.22-0.09c0.06-0.06,0.08-0.13,0.09-0.22c0.03-0.35,0.07-0.7,0.1-1.05c0.01-0.07-0.04-0.17-0.09-0.22
				c-0.05-0.05-0.14-0.09-0.22-0.09c-0.08,0-0.16,0.03-0.22,0.09C21.63,28.76,21.61,28.83,21.6,28.92L21.6,28.92z"/>
		</g>
		<g>
			<path class="st5" d="M31.98,29.21c0.07,0.38,0.14,0.77,0.22,1.15c0.03,0.16,0.23,0.26,0.38,0.21c0.17-0.06,0.24-0.21,0.21-0.38
				c-0.06-0.39-0.13-0.77-0.2-1.16c-0.03-0.16-0.24-0.27-0.39-0.22C32.02,28.88,31.94,29.03,31.98,29.21L31.98,29.21z"/>
		</g>
		<g>
			<path class="st5" d="M35.76,35.6c0.07,0.52,0.14,1.05,0.21,1.57c0.02,0.15,0.2,0.24,0.34,0.22c0.13-0.02,0.29-0.15,0.27-0.3
				c-0.07-0.52-0.14-1.05-0.21-1.57c-0.01-0.09-0.03-0.15-0.09-0.22c-0.07-0.07-0.17-0.1-0.26-0.09c-0.08,0.01-0.15,0.05-0.2,0.12
				C35.75,35.42,35.74,35.5,35.76,35.6L35.76,35.6z"/>
		</g>
		<g>
			<path class="st5" d="M32.09,46.3c0.04,0.13,0.07,0.26,0.09,0.4c0-0.03-0.01-0.06-0.01-0.08c0.03,0.22,0.03,0.44,0.02,0.66
				c-0.01,0.15,0.12,0.27,0.25,0.29c0.14,0.02,0.29-0.07,0.32-0.21c0.09-0.4,0.05-0.82-0.07-1.21c-0.05-0.15-0.22-0.27-0.38-0.22
				C32.16,45.96,32.04,46.13,32.09,46.3L32.09,46.3z"/>
		</g>
	</g>
	<g>
		<path class="st6" d="M39.83,42.42c-0.26,0-0.51,0.23-0.5,0.5c0.01,0.27,0.22,0.5,0.5,0.5c0.26,0,0.51-0.23,0.5-0.5
			C40.32,42.65,40.11,42.42,39.83,42.42z"/>
		<path class="st6" d="M41.51,45.46c-0.26,0-0.51,0.23-0.5,0.5c0.01,0.27,0.22,0.5,0.5,0.5c0.26,0,0.51-0.23,0.5-0.5
			C41.99,45.69,41.79,45.46,41.51,45.46z"/>
		<path class="st6" d="M44.34,42.24c0.14,0,0.26-0.12,0.26-0.26c-0.01-0.14-0.11-0.26-0.26-0.26c-0.14,0-0.26,0.12-0.26,0.26
			C44.09,42.12,44.19,42.24,44.34,42.24z"/>
		<path class="st6" d="M44.97,44.63c-0.26,0-0.51,0.23-0.5,0.5c0.01,0.27,0.22,0.5,0.5,0.5c0.26,0,0.51-0.23,0.5-0.5
			C45.46,44.85,45.25,44.63,44.97,44.63z"/>
		<path class="st6" d="M48.11,42.51c0.17,0,0.33-0.15,0.32-0.32c-0.01-0.18-0.14-0.32-0.32-0.32c-0.17,0-0.33,0.15-0.32,0.32
			C47.8,42.36,47.93,42.51,48.11,42.51z"/>
		<path class="st6" d="M48.01,46.3c-0.26,0-0.51,0.23-0.5,0.5c0.01,0.27,0.22,0.5,0.5,0.5c0.26,0,0.51-0.23,0.5-0.5
			C48.5,46.53,48.29,46.3,48.01,46.3z"/>
		<path class="st6" d="M50.21,44.63c-0.26,0-0.51,0.23-0.5,0.5c0.01,0.27,0.22,0.5,0.5,0.5c0.26,0,0.51-0.23,0.5-0.5
			C50.7,44.85,50.49,44.63,50.21,44.63z"/>
		<path class="st6" d="M38.99,45.99c-0.26,0-0.51,0.23-0.5,0.5c0.01,0.27,0.22,0.5,0.5,0.5c0.26,0,0.51-0.23,0.5-0.5
			C39.48,46.22,39.27,45.99,38.99,45.99z"/>
		<path class="st6" d="M44.34,47.35c-0.26,0-0.51,0.23-0.5,0.5c0.01,0.27,0.22,0.5,0.5,0.5c0.26,0,0.51-0.23,0.5-0.5
			C44.83,47.58,44.62,47.35,44.34,47.35z"/>
	</g>
	<g>
		<path class="st7" d="M8.37,45.61c-0.26,0-0.51,0.23-0.5,0.5c0.01,0.27,0.22,0.5,0.5,0.5c0.26,0,0.51-0.23,0.5-0.5
			C8.86,45.84,8.65,45.61,8.37,45.61z"/>
		<path class="st7" d="M10.89,46.77c-0.26,0-0.51,0.23-0.5,0.5c0.01,0.27,0.22,0.5,0.5,0.5c0.26,0,0.51-0.23,0.5-0.5
			C11.38,46.99,11.17,46.77,10.89,46.77z"/>
		<path class="st7" d="M11.94,43.76c-0.13,0-0.26,0.12-0.25,0.25c0.01,0.14,0.11,0.25,0.25,0.25c0.13,0,0.26-0.12,0.25-0.25
			C12.18,43.88,12.08,43.76,11.94,43.76z"/>
		<path class="st7" d="M14.35,45.3c-0.26,0-0.51,0.23-0.5,0.5c0.01,0.27,0.22,0.5,0.5,0.5c0.26,0,0.51-0.23,0.5-0.5
			C14.84,45.53,14.63,45.3,14.35,45.3z"/>
		<path class="st7" d="M17.15,43.8c-0.01-0.27-0.22-0.5-0.5-0.5c-0.26,0-0.51,0.23-0.5,0.5c0.01,0.27,0.22,0.5,0.5,0.5
			C16.92,44.3,17.17,44.07,17.15,43.8z"/>
		<path class="st7" d="M17.08,45.82c-0.26,0-0.51,0.23-0.5,0.5c0.01,0.27,0.22,0.5,0.5,0.5c0.26,0,0.51-0.23,0.5-0.5
			C17.56,46.05,17.35,45.82,17.08,45.82z"/>
		<path class="st7" d="M19.59,45.4c-0.26,0-0.51,0.23-0.5,0.5c0.01,0.27,0.22,0.5,0.5,0.5c0.26,0,0.51-0.23,0.5-0.5
			C20.08,45.63,19.87,45.4,19.59,45.4z"/>
		<path class="st7" d="M22.32,46.56c-0.26,0-0.51,0.23-0.5,0.5c0.01,0.27,0.22,0.5,0.5,0.5c0.26,0,0.51-0.23,0.5-0.5
			C22.81,46.79,22.6,46.56,22.32,46.56z"/>
	</g>
</g>
</svg>
